M48
; DRILL file {KiCad (5.1.9)-1} date 07/10/21 17:24:35
; FORMAT={-:-/ absolute / inch / decimal}
; #@! TF.CreationDate,2021-07-10T17:24:35+08:00
; #@! TF.GenerationSoftware,Kicad,Pcbnew,(5.1.9)-1
; #@! TF.FileFunction,Plated,1,2,PTH
FMAT,2
INCH
T1C0.0157
T2C0.0236
T3C0.0335
T4C0.0394
T5C0.0591
T6C0.0866
%
G90
G05
T1
X2.1555Y-1.7094
X2.1565Y-4.1152
X2.185Y-3.189
X2.1949Y-2.628
X2.2047Y-1.3386
X2.2539Y-3.189
X2.2835Y-2.7165
X2.3036Y-1.6137
X2.3425Y-1.6929
X2.3425Y-2.6181
X2.3917Y-3.207
X2.4606Y-3.3661
X2.5394Y-3.9272
X2.5984Y-1.2894
X2.7264Y-4.0846
X2.7756Y-4.2028
X3.1398Y-1.3583
X3.2803Y-1.358
X3.5879Y-1.2749
X3.6922Y-1.3792
X3.7697Y-1.3386
X3.9567Y-1.2652
X4.9114Y-4.8327
X5.0Y-1.4862
X5.3839Y-1.3976
X5.7972Y-1.3976
X5.9Y-1.76
X5.95Y-1.63
X5.95Y-1.68
X5.95Y-1.76
X5.9744Y-1.5059
X6.08Y-1.47
X6.1Y-1.04
X6.19Y-1.79
X6.42Y-1.43
X6.42Y-1.51
X6.45Y-1.2
X6.54Y-2.3395
X6.56Y-1.04
X6.5612Y-1.2
X6.58Y-1.565
X6.68Y-2.16
X6.69Y-1.45
X6.7323Y-5.1378
X6.76Y-1.54
X6.76Y-1.74
X6.76Y-1.81
X6.8307Y-3.0118
X7.025Y-1.815
X7.033Y-2.34
X7.07Y-2.04
X7.075Y-1.815
X7.13Y-1.08
X7.1457Y-3.0906
X7.16Y-1.37
X7.21Y-1.08
X7.21Y-1.37
X7.21Y-1.59
X7.23Y-1.98
X7.26Y-1.37
X7.2933Y-3.7402
X7.31Y-1.37
X7.31Y-1.42
X7.34Y-1.29
X7.4803Y-3.7795
X7.52Y-1.37
X7.55Y-1.1904
X7.5787Y-1.8307
X7.628Y-1.7618
X7.628Y-1.8307
X7.65Y-1.2652
X7.79Y-1.12
X7.8248Y-2.1787
X7.9626Y-4.9016
X8.01Y-1.2652
X8.01Y-1.44
X8.3563Y-2.8343
X8.622Y-5.0394
X8.7303Y-1.3681
X8.75Y-4.9799
X8.7795Y-3.529
X8.7894Y-1.3189
X8.8484Y-4.9311
X8.9075Y-4.2236
X9.1929Y-4.9197
X9.7146Y-4.9508
X10.7382Y-4.5866
X10.8169Y-4.6654
X10.9154Y-4.7835
X11.1614Y-4.4193
X11.7421Y-4.6358
X11.8209Y-4.6063
X12.1654Y-4.439
X12.1654Y-4.5965
X12.4213Y-1.3189
X12.5689Y-1.2894
X13.0709Y-1.9488
X13.1496Y-1.6535
X13.3268Y-1.4075
X13.3957Y-2.9921
X13.4154Y-2.6378
X13.4744Y-2.628
X13.563Y-2.5
X13.5827Y-2.9331
X13.6713Y-2.7657
X13.6909Y-4.124
X13.7106Y-3.9567
X13.7795Y-4.2126
X13.7992Y-3.8484
X13.9665Y-4.1339
X13.9764Y-3.7598
T3
X6.8114Y-1.1302
X7.0083Y-1.1302
T4
X5.26Y-1.04
X5.36Y-1.04
X5.46Y-1.04
X5.56Y-1.04
X5.66Y-1.04
X5.76Y-1.04
X5.86Y-1.04
X5.96Y-1.04
X8.19Y-1.04
X8.29Y-1.04
X8.39Y-1.04
X8.49Y-1.04
X8.59Y-1.04
X8.69Y-1.04
T5
X1.4134Y-4.4244
X1.6634Y-4.3244
X1.6711Y-2.9244
X1.6942Y-3.6744
X1.7138Y-1.4244
X1.7374Y-2.1744
X1.9211Y-2.8244
X1.9442Y-3.5744
X1.9638Y-1.3244
X1.9874Y-2.0744
X2.4638Y-1.4244
X2.6748Y-2.1744
X2.7024Y-2.9244
X2.7138Y-1.3244
X2.913Y-3.6744
X2.9248Y-2.0744
X2.9524Y-2.8244
X3.163Y-3.5744
X3.2138Y-1.3653
X3.4638Y-1.2653
X3.5061Y-2.1582
X3.5335Y-2.9308
X3.7444Y-3.7423
X3.7714Y-2.1123
X3.7719Y-4.5149
X3.7988Y-2.8849
X4.0097Y-3.6965
X4.0288Y-1.5025
X4.0372Y-4.4691
X4.2397Y-2.3141
X4.2671Y-3.0867
X4.2941Y-1.4567
X4.478Y-3.8983
X4.505Y-2.2683
X4.5325Y-3.0408
X4.7433Y-3.8524
X4.7624Y-1.6584
X4.9733Y-2.47
X5.0007Y-3.2426
X5.0277Y-1.6126
X5.0557Y-4.7878
X5.2116Y-4.0542
X5.2386Y-2.4242
X5.2661Y-3.1968
X5.321Y-4.742
X5.4769Y-4.0084
X5.496Y-1.8144
X5.7069Y-2.626
X5.7344Y-3.3986
X5.7613Y-1.7685
X5.9452Y-4.2101
X5.9722Y-2.5801
X5.9997Y-3.3527
X6.1561Y-5.0217
X6.2105Y-4.1643
X6.2296Y-1.9703
X6.4214Y-4.9759
X6.495Y-1.9245
X7.0857Y-2.8442
X7.2966Y-2.0327
X7.3095Y-2.6944
X7.4251Y-3.5389
X7.5204Y-1.8829
X7.6488Y-3.3891
X7.7644Y-4.2335
X7.8194Y-2.6883
X7.9882Y-4.0837
X8.0302Y-1.8767
X8.0431Y-2.5385
X8.1587Y-3.3829
X8.1954Y-4.9086
X8.254Y-1.7269
X8.3824Y-3.2331
X8.4192Y-4.7588
X8.498Y-4.0776
X8.553Y-2.5324
X8.7218Y-3.9278
X8.7638Y-1.7208
X8.7767Y-2.3826
X8.8923Y-3.227
X8.9876Y-1.571
X9.116Y-3.0772
X9.2316Y-3.9216
X9.2866Y-2.3764
X9.4554Y-3.7718
X9.4974Y-1.5649
X9.5103Y-2.2266
X9.6259Y-3.0711
X9.7212Y-1.4151
X9.7544Y-4.5773
X9.8497Y-2.9213
X9.9652Y-3.7657
X9.9781Y-4.4275
X10.0202Y-2.2205
X10.189Y-3.6159
X10.2439Y-2.0707
X10.3055Y-1.3653
X10.4504Y-2.9244
X10.5555Y-1.2653
X10.7004Y-2.8244
X10.8254Y-3.6744
X10.8445Y-2.1744
X11.0555Y-1.4244
X11.0754Y-3.5744
X11.0945Y-2.0744
X11.2004Y-2.9244
X11.3055Y-1.3244
X11.4504Y-2.8244
X11.5945Y-2.1744
X11.8055Y-1.4244
X11.8445Y-2.0744
X11.8566Y-3.6744
X12.0555Y-1.3244
X12.1066Y-3.5744
X12.3254Y-4.6119
X12.4191Y-2.9244
X12.5323Y-2.1744
X12.5555Y-1.4244
X12.5754Y-4.5119
X12.6691Y-2.8244
X12.7823Y-2.0744
X12.8055Y-1.3244
X13.0754Y-3.8619
X13.0754Y-4.6119
X13.3254Y-3.7619
X13.3254Y-4.5119
X13.493Y-1.2369
X13.6573Y-1.9869
X13.743Y-1.1369
X13.8254Y-2.7369
X13.8254Y-4.6119
X13.9073Y-1.8869
X14.0754Y-2.6369
X14.0754Y-4.5119
T6
X2.0156Y-4.5244
X2.2388Y-1.8994
X4.3291Y-4.7484
X4.7963Y-1.0997
X9.0233Y-1.0997
X9.4906Y-4.7484
X13.4323Y-1.7119
X13.6004Y-4.3369
T2
G00X6.772Y-1.0377
M15
G01X6.772Y-1.0102
M16
G05
G00X7.0476Y-1.0102
M15
G01X7.0476Y-1.0377
M16
G05
T0
M30
