G04 #@! TF.GenerationSoftware,KiCad,Pcbnew,(5.1.9)-1*
G04 #@! TF.CreationDate,2021-07-10T17:24:30+08:00*
G04 #@! TF.ProjectId,arisu,61726973-752e-46b6-9963-61645f706362,1.1*
G04 #@! TF.SameCoordinates,Original*
G04 #@! TF.FileFunction,Soldermask,Bot*
G04 #@! TF.FilePolarity,Negative*
%FSLAX46Y46*%
G04 Gerber Fmt 4.6, Leading zero omitted, Abs format (unit mm)*
G04 Created by KiCad (PCBNEW (5.1.9)-1) date 2021-07-10 17:24:30*
%MOMM*%
%LPD*%
G01*
G04 APERTURE LIST*
%ADD10C,2.302000*%
%ADD11C,4.102000*%
%ADD12C,1.802000*%
%ADD13C,3.152000*%
%ADD14C,4.502000*%
%ADD15C,1.552000*%
%ADD16O,1.302000X2.002000*%
%ADD17C,0.100000*%
G04 APERTURE END LIST*
D10*
X213847569Y-120874453D03*
X208164428Y-124679187D03*
D11*
X212419266Y-126371538D03*
D12*
X207450276Y-127427729D03*
X217388255Y-125315347D03*
D11*
X222346030Y-115837453D03*
X199066117Y-120785751D03*
D13*
X202234691Y-135692720D03*
X225514604Y-130744422D03*
D12*
X71470000Y-38720000D03*
X61310000Y-38720000D03*
D11*
X66390000Y-38720000D03*
D10*
X62580000Y-36180000D03*
X68930000Y-33640000D03*
D12*
X110498996Y-42496687D03*
X100561016Y-40384304D03*
D11*
X105530006Y-41440496D03*
D10*
X102331359Y-38163857D03*
X109070692Y-36999602D03*
G36*
G01*
X171239000Y-35663000D02*
X171789000Y-35663000D01*
G75*
G02*
X171840000Y-35714000I0J-51000D01*
G01*
X171840000Y-37214000D01*
G75*
G02*
X171789000Y-37265000I-51000J0D01*
G01*
X171239000Y-37265000D01*
G75*
G02*
X171188000Y-37214000I0J51000D01*
G01*
X171188000Y-35714000D01*
G75*
G02*
X171239000Y-35663000I51000J0D01*
G01*
G37*
G36*
G01*
X172039000Y-35663000D02*
X172589000Y-35663000D01*
G75*
G02*
X172640000Y-35714000I0J-51000D01*
G01*
X172640000Y-37214000D01*
G75*
G02*
X172589000Y-37265000I-51000J0D01*
G01*
X172039000Y-37265000D01*
G75*
G02*
X171988000Y-37214000I0J51000D01*
G01*
X171988000Y-35714000D01*
G75*
G02*
X172039000Y-35663000I51000J0D01*
G01*
G37*
G36*
G01*
X172839000Y-35663000D02*
X173389000Y-35663000D01*
G75*
G02*
X173440000Y-35714000I0J-51000D01*
G01*
X173440000Y-37214000D01*
G75*
G02*
X173389000Y-37265000I-51000J0D01*
G01*
X172839000Y-37265000D01*
G75*
G02*
X172788000Y-37214000I0J51000D01*
G01*
X172788000Y-35714000D01*
G75*
G02*
X172839000Y-35663000I51000J0D01*
G01*
G37*
G36*
G01*
X173639000Y-35663000D02*
X174189000Y-35663000D01*
G75*
G02*
X174240000Y-35714000I0J-51000D01*
G01*
X174240000Y-37214000D01*
G75*
G02*
X174189000Y-37265000I-51000J0D01*
G01*
X173639000Y-37265000D01*
G75*
G02*
X173588000Y-37214000I0J51000D01*
G01*
X173588000Y-35714000D01*
G75*
G02*
X173639000Y-35663000I51000J0D01*
G01*
G37*
G36*
G01*
X174439000Y-35663000D02*
X174989000Y-35663000D01*
G75*
G02*
X175040000Y-35714000I0J-51000D01*
G01*
X175040000Y-37214000D01*
G75*
G02*
X174989000Y-37265000I-51000J0D01*
G01*
X174439000Y-37265000D01*
G75*
G02*
X174388000Y-37214000I0J51000D01*
G01*
X174388000Y-35714000D01*
G75*
G02*
X174439000Y-35663000I51000J0D01*
G01*
G37*
G36*
G01*
X175239000Y-35663000D02*
X175789000Y-35663000D01*
G75*
G02*
X175840000Y-35714000I0J-51000D01*
G01*
X175840000Y-37214000D01*
G75*
G02*
X175789000Y-37265000I-51000J0D01*
G01*
X175239000Y-37265000D01*
G75*
G02*
X175188000Y-37214000I0J51000D01*
G01*
X175188000Y-35714000D01*
G75*
G02*
X175239000Y-35663000I51000J0D01*
G01*
G37*
G36*
G01*
X176039000Y-35663000D02*
X176589000Y-35663000D01*
G75*
G02*
X176640000Y-35714000I0J-51000D01*
G01*
X176640000Y-37214000D01*
G75*
G02*
X176589000Y-37265000I-51000J0D01*
G01*
X176039000Y-37265000D01*
G75*
G02*
X175988000Y-37214000I0J51000D01*
G01*
X175988000Y-35714000D01*
G75*
G02*
X176039000Y-35663000I51000J0D01*
G01*
G37*
G36*
G01*
X176839000Y-35663000D02*
X177389000Y-35663000D01*
G75*
G02*
X177440000Y-35714000I0J-51000D01*
G01*
X177440000Y-37214000D01*
G75*
G02*
X177389000Y-37265000I-51000J0D01*
G01*
X176839000Y-37265000D01*
G75*
G02*
X176788000Y-37214000I0J51000D01*
G01*
X176788000Y-35714000D01*
G75*
G02*
X176839000Y-35663000I51000J0D01*
G01*
G37*
G36*
G01*
X177639000Y-35663000D02*
X178189000Y-35663000D01*
G75*
G02*
X178240000Y-35714000I0J-51000D01*
G01*
X178240000Y-37214000D01*
G75*
G02*
X178189000Y-37265000I-51000J0D01*
G01*
X177639000Y-37265000D01*
G75*
G02*
X177588000Y-37214000I0J51000D01*
G01*
X177588000Y-35714000D01*
G75*
G02*
X177639000Y-35663000I51000J0D01*
G01*
G37*
G36*
G01*
X178439000Y-35663000D02*
X178989000Y-35663000D01*
G75*
G02*
X179040000Y-35714000I0J-51000D01*
G01*
X179040000Y-37214000D01*
G75*
G02*
X178989000Y-37265000I-51000J0D01*
G01*
X178439000Y-37265000D01*
G75*
G02*
X178388000Y-37214000I0J51000D01*
G01*
X178388000Y-35714000D01*
G75*
G02*
X178439000Y-35663000I51000J0D01*
G01*
G37*
G36*
G01*
X179239000Y-35663000D02*
X179789000Y-35663000D01*
G75*
G02*
X179840000Y-35714000I0J-51000D01*
G01*
X179840000Y-37214000D01*
G75*
G02*
X179789000Y-37265000I-51000J0D01*
G01*
X179239000Y-37265000D01*
G75*
G02*
X179188000Y-37214000I0J51000D01*
G01*
X179188000Y-35714000D01*
G75*
G02*
X179239000Y-35663000I51000J0D01*
G01*
G37*
G36*
G01*
X182015000Y-37889000D02*
X182015000Y-38439000D01*
G75*
G02*
X181964000Y-38490000I-51000J0D01*
G01*
X180464000Y-38490000D01*
G75*
G02*
X180413000Y-38439000I0J51000D01*
G01*
X180413000Y-37889000D01*
G75*
G02*
X180464000Y-37838000I51000J0D01*
G01*
X181964000Y-37838000D01*
G75*
G02*
X182015000Y-37889000I0J-51000D01*
G01*
G37*
G36*
G01*
X182015000Y-38689000D02*
X182015000Y-39239000D01*
G75*
G02*
X181964000Y-39290000I-51000J0D01*
G01*
X180464000Y-39290000D01*
G75*
G02*
X180413000Y-39239000I0J51000D01*
G01*
X180413000Y-38689000D01*
G75*
G02*
X180464000Y-38638000I51000J0D01*
G01*
X181964000Y-38638000D01*
G75*
G02*
X182015000Y-38689000I0J-51000D01*
G01*
G37*
G36*
G01*
X182015000Y-39489000D02*
X182015000Y-40039000D01*
G75*
G02*
X181964000Y-40090000I-51000J0D01*
G01*
X180464000Y-40090000D01*
G75*
G02*
X180413000Y-40039000I0J51000D01*
G01*
X180413000Y-39489000D01*
G75*
G02*
X180464000Y-39438000I51000J0D01*
G01*
X181964000Y-39438000D01*
G75*
G02*
X182015000Y-39489000I0J-51000D01*
G01*
G37*
G36*
G01*
X182015000Y-40289000D02*
X182015000Y-40839000D01*
G75*
G02*
X181964000Y-40890000I-51000J0D01*
G01*
X180464000Y-40890000D01*
G75*
G02*
X180413000Y-40839000I0J51000D01*
G01*
X180413000Y-40289000D01*
G75*
G02*
X180464000Y-40238000I51000J0D01*
G01*
X181964000Y-40238000D01*
G75*
G02*
X182015000Y-40289000I0J-51000D01*
G01*
G37*
G36*
G01*
X182015000Y-41089000D02*
X182015000Y-41639000D01*
G75*
G02*
X181964000Y-41690000I-51000J0D01*
G01*
X180464000Y-41690000D01*
G75*
G02*
X180413000Y-41639000I0J51000D01*
G01*
X180413000Y-41089000D01*
G75*
G02*
X180464000Y-41038000I51000J0D01*
G01*
X181964000Y-41038000D01*
G75*
G02*
X182015000Y-41089000I0J-51000D01*
G01*
G37*
G36*
G01*
X182015000Y-41889000D02*
X182015000Y-42439000D01*
G75*
G02*
X181964000Y-42490000I-51000J0D01*
G01*
X180464000Y-42490000D01*
G75*
G02*
X180413000Y-42439000I0J51000D01*
G01*
X180413000Y-41889000D01*
G75*
G02*
X180464000Y-41838000I51000J0D01*
G01*
X181964000Y-41838000D01*
G75*
G02*
X182015000Y-41889000I0J-51000D01*
G01*
G37*
G36*
G01*
X182015000Y-42689000D02*
X182015000Y-43239000D01*
G75*
G02*
X181964000Y-43290000I-51000J0D01*
G01*
X180464000Y-43290000D01*
G75*
G02*
X180413000Y-43239000I0J51000D01*
G01*
X180413000Y-42689000D01*
G75*
G02*
X180464000Y-42638000I51000J0D01*
G01*
X181964000Y-42638000D01*
G75*
G02*
X182015000Y-42689000I0J-51000D01*
G01*
G37*
G36*
G01*
X182015000Y-43489000D02*
X182015000Y-44039000D01*
G75*
G02*
X181964000Y-44090000I-51000J0D01*
G01*
X180464000Y-44090000D01*
G75*
G02*
X180413000Y-44039000I0J51000D01*
G01*
X180413000Y-43489000D01*
G75*
G02*
X180464000Y-43438000I51000J0D01*
G01*
X181964000Y-43438000D01*
G75*
G02*
X182015000Y-43489000I0J-51000D01*
G01*
G37*
G36*
G01*
X182015000Y-44289000D02*
X182015000Y-44839000D01*
G75*
G02*
X181964000Y-44890000I-51000J0D01*
G01*
X180464000Y-44890000D01*
G75*
G02*
X180413000Y-44839000I0J51000D01*
G01*
X180413000Y-44289000D01*
G75*
G02*
X180464000Y-44238000I51000J0D01*
G01*
X181964000Y-44238000D01*
G75*
G02*
X182015000Y-44289000I0J-51000D01*
G01*
G37*
G36*
G01*
X182015000Y-45089000D02*
X182015000Y-45639000D01*
G75*
G02*
X181964000Y-45690000I-51000J0D01*
G01*
X180464000Y-45690000D01*
G75*
G02*
X180413000Y-45639000I0J51000D01*
G01*
X180413000Y-45089000D01*
G75*
G02*
X180464000Y-45038000I51000J0D01*
G01*
X181964000Y-45038000D01*
G75*
G02*
X182015000Y-45089000I0J-51000D01*
G01*
G37*
G36*
G01*
X182015000Y-45889000D02*
X182015000Y-46439000D01*
G75*
G02*
X181964000Y-46490000I-51000J0D01*
G01*
X180464000Y-46490000D01*
G75*
G02*
X180413000Y-46439000I0J51000D01*
G01*
X180413000Y-45889000D01*
G75*
G02*
X180464000Y-45838000I51000J0D01*
G01*
X181964000Y-45838000D01*
G75*
G02*
X182015000Y-45889000I0J-51000D01*
G01*
G37*
G36*
G01*
X179239000Y-47063000D02*
X179789000Y-47063000D01*
G75*
G02*
X179840000Y-47114000I0J-51000D01*
G01*
X179840000Y-48614000D01*
G75*
G02*
X179789000Y-48665000I-51000J0D01*
G01*
X179239000Y-48665000D01*
G75*
G02*
X179188000Y-48614000I0J51000D01*
G01*
X179188000Y-47114000D01*
G75*
G02*
X179239000Y-47063000I51000J0D01*
G01*
G37*
G36*
G01*
X178439000Y-47063000D02*
X178989000Y-47063000D01*
G75*
G02*
X179040000Y-47114000I0J-51000D01*
G01*
X179040000Y-48614000D01*
G75*
G02*
X178989000Y-48665000I-51000J0D01*
G01*
X178439000Y-48665000D01*
G75*
G02*
X178388000Y-48614000I0J51000D01*
G01*
X178388000Y-47114000D01*
G75*
G02*
X178439000Y-47063000I51000J0D01*
G01*
G37*
G36*
G01*
X177639000Y-47063000D02*
X178189000Y-47063000D01*
G75*
G02*
X178240000Y-47114000I0J-51000D01*
G01*
X178240000Y-48614000D01*
G75*
G02*
X178189000Y-48665000I-51000J0D01*
G01*
X177639000Y-48665000D01*
G75*
G02*
X177588000Y-48614000I0J51000D01*
G01*
X177588000Y-47114000D01*
G75*
G02*
X177639000Y-47063000I51000J0D01*
G01*
G37*
G36*
G01*
X176839000Y-47063000D02*
X177389000Y-47063000D01*
G75*
G02*
X177440000Y-47114000I0J-51000D01*
G01*
X177440000Y-48614000D01*
G75*
G02*
X177389000Y-48665000I-51000J0D01*
G01*
X176839000Y-48665000D01*
G75*
G02*
X176788000Y-48614000I0J51000D01*
G01*
X176788000Y-47114000D01*
G75*
G02*
X176839000Y-47063000I51000J0D01*
G01*
G37*
G36*
G01*
X176039000Y-47063000D02*
X176589000Y-47063000D01*
G75*
G02*
X176640000Y-47114000I0J-51000D01*
G01*
X176640000Y-48614000D01*
G75*
G02*
X176589000Y-48665000I-51000J0D01*
G01*
X176039000Y-48665000D01*
G75*
G02*
X175988000Y-48614000I0J51000D01*
G01*
X175988000Y-47114000D01*
G75*
G02*
X176039000Y-47063000I51000J0D01*
G01*
G37*
G36*
G01*
X175239000Y-47063000D02*
X175789000Y-47063000D01*
G75*
G02*
X175840000Y-47114000I0J-51000D01*
G01*
X175840000Y-48614000D01*
G75*
G02*
X175789000Y-48665000I-51000J0D01*
G01*
X175239000Y-48665000D01*
G75*
G02*
X175188000Y-48614000I0J51000D01*
G01*
X175188000Y-47114000D01*
G75*
G02*
X175239000Y-47063000I51000J0D01*
G01*
G37*
G36*
G01*
X174439000Y-47063000D02*
X174989000Y-47063000D01*
G75*
G02*
X175040000Y-47114000I0J-51000D01*
G01*
X175040000Y-48614000D01*
G75*
G02*
X174989000Y-48665000I-51000J0D01*
G01*
X174439000Y-48665000D01*
G75*
G02*
X174388000Y-48614000I0J51000D01*
G01*
X174388000Y-47114000D01*
G75*
G02*
X174439000Y-47063000I51000J0D01*
G01*
G37*
G36*
G01*
X173639000Y-47063000D02*
X174189000Y-47063000D01*
G75*
G02*
X174240000Y-47114000I0J-51000D01*
G01*
X174240000Y-48614000D01*
G75*
G02*
X174189000Y-48665000I-51000J0D01*
G01*
X173639000Y-48665000D01*
G75*
G02*
X173588000Y-48614000I0J51000D01*
G01*
X173588000Y-47114000D01*
G75*
G02*
X173639000Y-47063000I51000J0D01*
G01*
G37*
G36*
G01*
X172839000Y-47063000D02*
X173389000Y-47063000D01*
G75*
G02*
X173440000Y-47114000I0J-51000D01*
G01*
X173440000Y-48614000D01*
G75*
G02*
X173389000Y-48665000I-51000J0D01*
G01*
X172839000Y-48665000D01*
G75*
G02*
X172788000Y-48614000I0J51000D01*
G01*
X172788000Y-47114000D01*
G75*
G02*
X172839000Y-47063000I51000J0D01*
G01*
G37*
G36*
G01*
X172039000Y-47063000D02*
X172589000Y-47063000D01*
G75*
G02*
X172640000Y-47114000I0J-51000D01*
G01*
X172640000Y-48614000D01*
G75*
G02*
X172589000Y-48665000I-51000J0D01*
G01*
X172039000Y-48665000D01*
G75*
G02*
X171988000Y-48614000I0J51000D01*
G01*
X171988000Y-47114000D01*
G75*
G02*
X172039000Y-47063000I51000J0D01*
G01*
G37*
G36*
G01*
X171239000Y-47063000D02*
X171789000Y-47063000D01*
G75*
G02*
X171840000Y-47114000I0J-51000D01*
G01*
X171840000Y-48614000D01*
G75*
G02*
X171789000Y-48665000I-51000J0D01*
G01*
X171239000Y-48665000D01*
G75*
G02*
X171188000Y-48614000I0J51000D01*
G01*
X171188000Y-47114000D01*
G75*
G02*
X171239000Y-47063000I51000J0D01*
G01*
G37*
G36*
G01*
X170615000Y-45889000D02*
X170615000Y-46439000D01*
G75*
G02*
X170564000Y-46490000I-51000J0D01*
G01*
X169064000Y-46490000D01*
G75*
G02*
X169013000Y-46439000I0J51000D01*
G01*
X169013000Y-45889000D01*
G75*
G02*
X169064000Y-45838000I51000J0D01*
G01*
X170564000Y-45838000D01*
G75*
G02*
X170615000Y-45889000I0J-51000D01*
G01*
G37*
G36*
G01*
X170615000Y-45089000D02*
X170615000Y-45639000D01*
G75*
G02*
X170564000Y-45690000I-51000J0D01*
G01*
X169064000Y-45690000D01*
G75*
G02*
X169013000Y-45639000I0J51000D01*
G01*
X169013000Y-45089000D01*
G75*
G02*
X169064000Y-45038000I51000J0D01*
G01*
X170564000Y-45038000D01*
G75*
G02*
X170615000Y-45089000I0J-51000D01*
G01*
G37*
G36*
G01*
X170615000Y-44289000D02*
X170615000Y-44839000D01*
G75*
G02*
X170564000Y-44890000I-51000J0D01*
G01*
X169064000Y-44890000D01*
G75*
G02*
X169013000Y-44839000I0J51000D01*
G01*
X169013000Y-44289000D01*
G75*
G02*
X169064000Y-44238000I51000J0D01*
G01*
X170564000Y-44238000D01*
G75*
G02*
X170615000Y-44289000I0J-51000D01*
G01*
G37*
G36*
G01*
X170615000Y-43489000D02*
X170615000Y-44039000D01*
G75*
G02*
X170564000Y-44090000I-51000J0D01*
G01*
X169064000Y-44090000D01*
G75*
G02*
X169013000Y-44039000I0J51000D01*
G01*
X169013000Y-43489000D01*
G75*
G02*
X169064000Y-43438000I51000J0D01*
G01*
X170564000Y-43438000D01*
G75*
G02*
X170615000Y-43489000I0J-51000D01*
G01*
G37*
G36*
G01*
X170615000Y-42689000D02*
X170615000Y-43239000D01*
G75*
G02*
X170564000Y-43290000I-51000J0D01*
G01*
X169064000Y-43290000D01*
G75*
G02*
X169013000Y-43239000I0J51000D01*
G01*
X169013000Y-42689000D01*
G75*
G02*
X169064000Y-42638000I51000J0D01*
G01*
X170564000Y-42638000D01*
G75*
G02*
X170615000Y-42689000I0J-51000D01*
G01*
G37*
G36*
G01*
X170615000Y-41889000D02*
X170615000Y-42439000D01*
G75*
G02*
X170564000Y-42490000I-51000J0D01*
G01*
X169064000Y-42490000D01*
G75*
G02*
X169013000Y-42439000I0J51000D01*
G01*
X169013000Y-41889000D01*
G75*
G02*
X169064000Y-41838000I51000J0D01*
G01*
X170564000Y-41838000D01*
G75*
G02*
X170615000Y-41889000I0J-51000D01*
G01*
G37*
G36*
G01*
X170615000Y-41089000D02*
X170615000Y-41639000D01*
G75*
G02*
X170564000Y-41690000I-51000J0D01*
G01*
X169064000Y-41690000D01*
G75*
G02*
X169013000Y-41639000I0J51000D01*
G01*
X169013000Y-41089000D01*
G75*
G02*
X169064000Y-41038000I51000J0D01*
G01*
X170564000Y-41038000D01*
G75*
G02*
X170615000Y-41089000I0J-51000D01*
G01*
G37*
G36*
G01*
X170615000Y-40289000D02*
X170615000Y-40839000D01*
G75*
G02*
X170564000Y-40890000I-51000J0D01*
G01*
X169064000Y-40890000D01*
G75*
G02*
X169013000Y-40839000I0J51000D01*
G01*
X169013000Y-40289000D01*
G75*
G02*
X169064000Y-40238000I51000J0D01*
G01*
X170564000Y-40238000D01*
G75*
G02*
X170615000Y-40289000I0J-51000D01*
G01*
G37*
G36*
G01*
X170615000Y-39489000D02*
X170615000Y-40039000D01*
G75*
G02*
X170564000Y-40090000I-51000J0D01*
G01*
X169064000Y-40090000D01*
G75*
G02*
X169013000Y-40039000I0J51000D01*
G01*
X169013000Y-39489000D01*
G75*
G02*
X169064000Y-39438000I51000J0D01*
G01*
X170564000Y-39438000D01*
G75*
G02*
X170615000Y-39489000I0J-51000D01*
G01*
G37*
G36*
G01*
X170615000Y-38689000D02*
X170615000Y-39239000D01*
G75*
G02*
X170564000Y-39290000I-51000J0D01*
G01*
X169064000Y-39290000D01*
G75*
G02*
X169013000Y-39239000I0J51000D01*
G01*
X169013000Y-38689000D01*
G75*
G02*
X169064000Y-38638000I51000J0D01*
G01*
X170564000Y-38638000D01*
G75*
G02*
X170615000Y-38689000I0J-51000D01*
G01*
G37*
G36*
G01*
X170615000Y-37889000D02*
X170615000Y-38439000D01*
G75*
G02*
X170564000Y-38490000I-51000J0D01*
G01*
X169064000Y-38490000D01*
G75*
G02*
X169013000Y-38439000I0J51000D01*
G01*
X169013000Y-37889000D01*
G75*
G02*
X169064000Y-37838000I51000J0D01*
G01*
X170564000Y-37838000D01*
G75*
G02*
X170615000Y-37889000I0J-51000D01*
G01*
G37*
G36*
G01*
X174249000Y-132600000D02*
X174249000Y-131600000D01*
G75*
G02*
X174300000Y-131549000I51000J0D01*
G01*
X175800000Y-131549000D01*
G75*
G02*
X175851000Y-131600000I0J-51000D01*
G01*
X175851000Y-132600000D01*
G75*
G02*
X175800000Y-132651000I-51000J0D01*
G01*
X174300000Y-132651000D01*
G75*
G02*
X174249000Y-132600000I0J51000D01*
G01*
G37*
G36*
G01*
X174249000Y-129400000D02*
X174249000Y-128400000D01*
G75*
G02*
X174300000Y-128349000I51000J0D01*
G01*
X175800000Y-128349000D01*
G75*
G02*
X175851000Y-128400000I0J-51000D01*
G01*
X175851000Y-129400000D01*
G75*
G02*
X175800000Y-129451000I-51000J0D01*
G01*
X174300000Y-129451000D01*
G75*
G02*
X174249000Y-129400000I0J51000D01*
G01*
G37*
G36*
G01*
X179149000Y-132600000D02*
X179149000Y-131600000D01*
G75*
G02*
X179200000Y-131549000I51000J0D01*
G01*
X180700000Y-131549000D01*
G75*
G02*
X180751000Y-131600000I0J-51000D01*
G01*
X180751000Y-132600000D01*
G75*
G02*
X180700000Y-132651000I-51000J0D01*
G01*
X179200000Y-132651000D01*
G75*
G02*
X179149000Y-132600000I0J51000D01*
G01*
G37*
G36*
G01*
X179149000Y-129400000D02*
X179149000Y-128400000D01*
G75*
G02*
X179200000Y-128349000I51000J0D01*
G01*
X180700000Y-128349000D01*
G75*
G02*
X180751000Y-128400000I0J-51000D01*
G01*
X180751000Y-129400000D01*
G75*
G02*
X180700000Y-129451000I-51000J0D01*
G01*
X179200000Y-129451000D01*
G75*
G02*
X179149000Y-129400000I0J51000D01*
G01*
G37*
D12*
X129132707Y-46457405D03*
X119194727Y-44345022D03*
D11*
X124163717Y-45401214D03*
D10*
X120965070Y-42124575D03*
X127704403Y-40960320D03*
G36*
G01*
X137901000Y-38273876D02*
X137901000Y-39226124D01*
G75*
G02*
X137626124Y-39501000I-274876J0D01*
G01*
X137048876Y-39501000D01*
G75*
G02*
X136774000Y-39226124I0J274876D01*
G01*
X136774000Y-38273876D01*
G75*
G02*
X137048876Y-37999000I274876J0D01*
G01*
X137626124Y-37999000D01*
G75*
G02*
X137901000Y-38273876I0J-274876D01*
G01*
G37*
G36*
G01*
X139726000Y-38273876D02*
X139726000Y-39226124D01*
G75*
G02*
X139451124Y-39501000I-274876J0D01*
G01*
X138873876Y-39501000D01*
G75*
G02*
X138599000Y-39226124I0J274876D01*
G01*
X138599000Y-38273876D01*
G75*
G02*
X138873876Y-37999000I274876J0D01*
G01*
X139451124Y-37999000D01*
G75*
G02*
X139726000Y-38273876I0J-274876D01*
G01*
G37*
G36*
G01*
X213249000Y-35850000D02*
X213249000Y-34850000D01*
G75*
G02*
X213300000Y-34799000I51000J0D01*
G01*
X214800000Y-34799000D01*
G75*
G02*
X214851000Y-34850000I0J-51000D01*
G01*
X214851000Y-35850000D01*
G75*
G02*
X214800000Y-35901000I-51000J0D01*
G01*
X213300000Y-35901000D01*
G75*
G02*
X213249000Y-35850000I0J51000D01*
G01*
G37*
G36*
G01*
X213249000Y-32650000D02*
X213249000Y-31650000D01*
G75*
G02*
X213300000Y-31599000I51000J0D01*
G01*
X214800000Y-31599000D01*
G75*
G02*
X214851000Y-31650000I0J-51000D01*
G01*
X214851000Y-32650000D01*
G75*
G02*
X214800000Y-32701000I-51000J0D01*
G01*
X213300000Y-32701000D01*
G75*
G02*
X213249000Y-32650000I0J51000D01*
G01*
G37*
G36*
G01*
X218149000Y-35850000D02*
X218149000Y-34850000D01*
G75*
G02*
X218200000Y-34799000I51000J0D01*
G01*
X219700000Y-34799000D01*
G75*
G02*
X219751000Y-34850000I0J-51000D01*
G01*
X219751000Y-35850000D01*
G75*
G02*
X219700000Y-35901000I-51000J0D01*
G01*
X218200000Y-35901000D01*
G75*
G02*
X218149000Y-35850000I0J51000D01*
G01*
G37*
G36*
G01*
X218149000Y-32650000D02*
X218149000Y-31650000D01*
G75*
G02*
X218200000Y-31599000I51000J0D01*
G01*
X219700000Y-31599000D01*
G75*
G02*
X219751000Y-31650000I0J-51000D01*
G01*
X219751000Y-32650000D01*
G75*
G02*
X219700000Y-32701000I-51000J0D01*
G01*
X218200000Y-32701000D01*
G75*
G02*
X218149000Y-32650000I0J51000D01*
G01*
G37*
G36*
G01*
X349249000Y-102850000D02*
X349249000Y-101850000D01*
G75*
G02*
X349300000Y-101799000I51000J0D01*
G01*
X350800000Y-101799000D01*
G75*
G02*
X350851000Y-101850000I0J-51000D01*
G01*
X350851000Y-102850000D01*
G75*
G02*
X350800000Y-102901000I-51000J0D01*
G01*
X349300000Y-102901000D01*
G75*
G02*
X349249000Y-102850000I0J51000D01*
G01*
G37*
G36*
G01*
X349249000Y-99650000D02*
X349249000Y-98650000D01*
G75*
G02*
X349300000Y-98599000I51000J0D01*
G01*
X350800000Y-98599000D01*
G75*
G02*
X350851000Y-98650000I0J-51000D01*
G01*
X350851000Y-99650000D01*
G75*
G02*
X350800000Y-99701000I-51000J0D01*
G01*
X349300000Y-99701000D01*
G75*
G02*
X349249000Y-99650000I0J51000D01*
G01*
G37*
G36*
G01*
X354149000Y-102850000D02*
X354149000Y-101850000D01*
G75*
G02*
X354200000Y-101799000I51000J0D01*
G01*
X355700000Y-101799000D01*
G75*
G02*
X355751000Y-101850000I0J-51000D01*
G01*
X355751000Y-102850000D01*
G75*
G02*
X355700000Y-102901000I-51000J0D01*
G01*
X354200000Y-102901000D01*
G75*
G02*
X354149000Y-102850000I0J51000D01*
G01*
G37*
G36*
G01*
X354149000Y-99650000D02*
X354149000Y-98650000D01*
G75*
G02*
X354200000Y-98599000I51000J0D01*
G01*
X355700000Y-98599000D01*
G75*
G02*
X355751000Y-98650000I0J-51000D01*
G01*
X355751000Y-99650000D01*
G75*
G02*
X355700000Y-99701000I-51000J0D01*
G01*
X354200000Y-99701000D01*
G75*
G02*
X354149000Y-99650000I0J51000D01*
G01*
G37*
G36*
G01*
X232899000Y-120400000D02*
X232899000Y-119400000D01*
G75*
G02*
X232950000Y-119349000I51000J0D01*
G01*
X234450000Y-119349000D01*
G75*
G02*
X234501000Y-119400000I0J-51000D01*
G01*
X234501000Y-120400000D01*
G75*
G02*
X234450000Y-120451000I-51000J0D01*
G01*
X232950000Y-120451000D01*
G75*
G02*
X232899000Y-120400000I0J51000D01*
G01*
G37*
G36*
G01*
X232899000Y-123600000D02*
X232899000Y-122600000D01*
G75*
G02*
X232950000Y-122549000I51000J0D01*
G01*
X234450000Y-122549000D01*
G75*
G02*
X234501000Y-122600000I0J-51000D01*
G01*
X234501000Y-123600000D01*
G75*
G02*
X234450000Y-123651000I-51000J0D01*
G01*
X232950000Y-123651000D01*
G75*
G02*
X232899000Y-123600000I0J51000D01*
G01*
G37*
G36*
G01*
X227999000Y-120400000D02*
X227999000Y-119400000D01*
G75*
G02*
X228050000Y-119349000I51000J0D01*
G01*
X229550000Y-119349000D01*
G75*
G02*
X229601000Y-119400000I0J-51000D01*
G01*
X229601000Y-120400000D01*
G75*
G02*
X229550000Y-120451000I-51000J0D01*
G01*
X228050000Y-120451000D01*
G75*
G02*
X227999000Y-120400000I0J51000D01*
G01*
G37*
G36*
G01*
X227999000Y-123600000D02*
X227999000Y-122600000D01*
G75*
G02*
X228050000Y-122549000I51000J0D01*
G01*
X229550000Y-122549000D01*
G75*
G02*
X229601000Y-122600000I0J-51000D01*
G01*
X229601000Y-123600000D01*
G75*
G02*
X229550000Y-123651000I-51000J0D01*
G01*
X228050000Y-123651000D01*
G75*
G02*
X227999000Y-123600000I0J51000D01*
G01*
G37*
G36*
G01*
X61251000Y-70900000D02*
X61251000Y-71900000D01*
G75*
G02*
X61200000Y-71951000I-51000J0D01*
G01*
X59700000Y-71951000D01*
G75*
G02*
X59649000Y-71900000I0J51000D01*
G01*
X59649000Y-70900000D01*
G75*
G02*
X59700000Y-70849000I51000J0D01*
G01*
X61200000Y-70849000D01*
G75*
G02*
X61251000Y-70900000I0J-51000D01*
G01*
G37*
G36*
G01*
X61251000Y-74100000D02*
X61251000Y-75100000D01*
G75*
G02*
X61200000Y-75151000I-51000J0D01*
G01*
X59700000Y-75151000D01*
G75*
G02*
X59649000Y-75100000I0J51000D01*
G01*
X59649000Y-74100000D01*
G75*
G02*
X59700000Y-74049000I51000J0D01*
G01*
X61200000Y-74049000D01*
G75*
G02*
X61251000Y-74100000I0J-51000D01*
G01*
G37*
G36*
G01*
X56351000Y-70900000D02*
X56351000Y-71900000D01*
G75*
G02*
X56300000Y-71951000I-51000J0D01*
G01*
X54800000Y-71951000D01*
G75*
G02*
X54749000Y-71900000I0J51000D01*
G01*
X54749000Y-70900000D01*
G75*
G02*
X54800000Y-70849000I51000J0D01*
G01*
X56300000Y-70849000D01*
G75*
G02*
X56351000Y-70900000I0J-51000D01*
G01*
G37*
G36*
G01*
X56351000Y-74100000D02*
X56351000Y-75100000D01*
G75*
G02*
X56300000Y-75151000I-51000J0D01*
G01*
X54800000Y-75151000D01*
G75*
G02*
X54749000Y-75100000I0J51000D01*
G01*
X54749000Y-74100000D01*
G75*
G02*
X54800000Y-74049000I51000J0D01*
G01*
X56300000Y-74049000D01*
G75*
G02*
X56351000Y-74100000I0J-51000D01*
G01*
G37*
G36*
G01*
X277149000Y-31900000D02*
X277149000Y-30900000D01*
G75*
G02*
X277200000Y-30849000I51000J0D01*
G01*
X278700000Y-30849000D01*
G75*
G02*
X278751000Y-30900000I0J-51000D01*
G01*
X278751000Y-31900000D01*
G75*
G02*
X278700000Y-31951000I-51000J0D01*
G01*
X277200000Y-31951000D01*
G75*
G02*
X277149000Y-31900000I0J51000D01*
G01*
G37*
G36*
G01*
X277149000Y-35100000D02*
X277149000Y-34100000D01*
G75*
G02*
X277200000Y-34049000I51000J0D01*
G01*
X278700000Y-34049000D01*
G75*
G02*
X278751000Y-34100000I0J-51000D01*
G01*
X278751000Y-35100000D01*
G75*
G02*
X278700000Y-35151000I-51000J0D01*
G01*
X277200000Y-35151000D01*
G75*
G02*
X277149000Y-35100000I0J51000D01*
G01*
G37*
G36*
G01*
X272249000Y-31900000D02*
X272249000Y-30900000D01*
G75*
G02*
X272300000Y-30849000I51000J0D01*
G01*
X273800000Y-30849000D01*
G75*
G02*
X273851000Y-30900000I0J-51000D01*
G01*
X273851000Y-31900000D01*
G75*
G02*
X273800000Y-31951000I-51000J0D01*
G01*
X272300000Y-31951000D01*
G75*
G02*
X272249000Y-31900000I0J51000D01*
G01*
G37*
G36*
G01*
X272249000Y-35100000D02*
X272249000Y-34100000D01*
G75*
G02*
X272300000Y-34049000I51000J0D01*
G01*
X273800000Y-34049000D01*
G75*
G02*
X273851000Y-34100000I0J-51000D01*
G01*
X273851000Y-35100000D01*
G75*
G02*
X273800000Y-35151000I-51000J0D01*
G01*
X272300000Y-35151000D01*
G75*
G02*
X272249000Y-35100000I0J51000D01*
G01*
G37*
G36*
G01*
X53749000Y-36350000D02*
X53749000Y-35350000D01*
G75*
G02*
X53800000Y-35299000I51000J0D01*
G01*
X55300000Y-35299000D01*
G75*
G02*
X55351000Y-35350000I0J-51000D01*
G01*
X55351000Y-36350000D01*
G75*
G02*
X55300000Y-36401000I-51000J0D01*
G01*
X53800000Y-36401000D01*
G75*
G02*
X53749000Y-36350000I0J51000D01*
G01*
G37*
G36*
G01*
X53749000Y-33150000D02*
X53749000Y-32150000D01*
G75*
G02*
X53800000Y-32099000I51000J0D01*
G01*
X55300000Y-32099000D01*
G75*
G02*
X55351000Y-32150000I0J-51000D01*
G01*
X55351000Y-33150000D01*
G75*
G02*
X55300000Y-33201000I-51000J0D01*
G01*
X53800000Y-33201000D01*
G75*
G02*
X53749000Y-33150000I0J51000D01*
G01*
G37*
G36*
G01*
X58649000Y-36350000D02*
X58649000Y-35350000D01*
G75*
G02*
X58700000Y-35299000I51000J0D01*
G01*
X60200000Y-35299000D01*
G75*
G02*
X60251000Y-35350000I0J-51000D01*
G01*
X60251000Y-36350000D01*
G75*
G02*
X60200000Y-36401000I-51000J0D01*
G01*
X58700000Y-36401000D01*
G75*
G02*
X58649000Y-36350000I0J51000D01*
G01*
G37*
G36*
G01*
X58649000Y-33150000D02*
X58649000Y-32150000D01*
G75*
G02*
X58700000Y-32099000I51000J0D01*
G01*
X60200000Y-32099000D01*
G75*
G02*
X60251000Y-32150000I0J-51000D01*
G01*
X60251000Y-33150000D01*
G75*
G02*
X60200000Y-33201000I-51000J0D01*
G01*
X58700000Y-33201000D01*
G75*
G02*
X58649000Y-33150000I0J51000D01*
G01*
G37*
G36*
G01*
X336149000Y-35150000D02*
X336149000Y-34150000D01*
G75*
G02*
X336200000Y-34099000I51000J0D01*
G01*
X337700000Y-34099000D01*
G75*
G02*
X337751000Y-34150000I0J-51000D01*
G01*
X337751000Y-35150000D01*
G75*
G02*
X337700000Y-35201000I-51000J0D01*
G01*
X336200000Y-35201000D01*
G75*
G02*
X336149000Y-35150000I0J51000D01*
G01*
G37*
G36*
G01*
X336149000Y-38350000D02*
X336149000Y-37350000D01*
G75*
G02*
X336200000Y-37299000I51000J0D01*
G01*
X337700000Y-37299000D01*
G75*
G02*
X337751000Y-37350000I0J-51000D01*
G01*
X337751000Y-38350000D01*
G75*
G02*
X337700000Y-38401000I-51000J0D01*
G01*
X336200000Y-38401000D01*
G75*
G02*
X336149000Y-38350000I0J51000D01*
G01*
G37*
G36*
G01*
X331249000Y-35150000D02*
X331249000Y-34150000D01*
G75*
G02*
X331300000Y-34099000I51000J0D01*
G01*
X332800000Y-34099000D01*
G75*
G02*
X332851000Y-34150000I0J-51000D01*
G01*
X332851000Y-35150000D01*
G75*
G02*
X332800000Y-35201000I-51000J0D01*
G01*
X331300000Y-35201000D01*
G75*
G02*
X331249000Y-35150000I0J51000D01*
G01*
G37*
G36*
G01*
X331249000Y-38350000D02*
X331249000Y-37350000D01*
G75*
G02*
X331300000Y-37299000I51000J0D01*
G01*
X332800000Y-37299000D01*
G75*
G02*
X332851000Y-37350000I0J-51000D01*
G01*
X332851000Y-38350000D01*
G75*
G02*
X332800000Y-38401000I-51000J0D01*
G01*
X331300000Y-38401000D01*
G75*
G02*
X331249000Y-38350000I0J51000D01*
G01*
G37*
G36*
G01*
X115749000Y-123850000D02*
X115749000Y-122850000D01*
G75*
G02*
X115800000Y-122799000I51000J0D01*
G01*
X117300000Y-122799000D01*
G75*
G02*
X117351000Y-122850000I0J-51000D01*
G01*
X117351000Y-123850000D01*
G75*
G02*
X117300000Y-123901000I-51000J0D01*
G01*
X115800000Y-123901000D01*
G75*
G02*
X115749000Y-123850000I0J51000D01*
G01*
G37*
G36*
G01*
X115749000Y-120650000D02*
X115749000Y-119650000D01*
G75*
G02*
X115800000Y-119599000I51000J0D01*
G01*
X117300000Y-119599000D01*
G75*
G02*
X117351000Y-119650000I0J-51000D01*
G01*
X117351000Y-120650000D01*
G75*
G02*
X117300000Y-120701000I-51000J0D01*
G01*
X115800000Y-120701000D01*
G75*
G02*
X115749000Y-120650000I0J51000D01*
G01*
G37*
G36*
G01*
X120649000Y-123850000D02*
X120649000Y-122850000D01*
G75*
G02*
X120700000Y-122799000I51000J0D01*
G01*
X122200000Y-122799000D01*
G75*
G02*
X122251000Y-122850000I0J-51000D01*
G01*
X122251000Y-123850000D01*
G75*
G02*
X122200000Y-123901000I-51000J0D01*
G01*
X120700000Y-123901000D01*
G75*
G02*
X120649000Y-123850000I0J51000D01*
G01*
G37*
G36*
G01*
X120649000Y-120650000D02*
X120649000Y-119650000D01*
G75*
G02*
X120700000Y-119599000I51000J0D01*
G01*
X122200000Y-119599000D01*
G75*
G02*
X122251000Y-119650000I0J-51000D01*
G01*
X122251000Y-120650000D01*
G75*
G02*
X122200000Y-120701000I-51000J0D01*
G01*
X120700000Y-120701000D01*
G75*
G02*
X120649000Y-120650000I0J51000D01*
G01*
G37*
G36*
G01*
X97899000Y-33150000D02*
X97899000Y-32150000D01*
G75*
G02*
X97950000Y-32099000I51000J0D01*
G01*
X99450000Y-32099000D01*
G75*
G02*
X99501000Y-32150000I0J-51000D01*
G01*
X99501000Y-33150000D01*
G75*
G02*
X99450000Y-33201000I-51000J0D01*
G01*
X97950000Y-33201000D01*
G75*
G02*
X97899000Y-33150000I0J51000D01*
G01*
G37*
G36*
G01*
X97899000Y-36350000D02*
X97899000Y-35350000D01*
G75*
G02*
X97950000Y-35299000I51000J0D01*
G01*
X99450000Y-35299000D01*
G75*
G02*
X99501000Y-35350000I0J-51000D01*
G01*
X99501000Y-36350000D01*
G75*
G02*
X99450000Y-36401000I-51000J0D01*
G01*
X97950000Y-36401000D01*
G75*
G02*
X97899000Y-36350000I0J51000D01*
G01*
G37*
G36*
G01*
X92999000Y-33150000D02*
X92999000Y-32150000D01*
G75*
G02*
X93050000Y-32099000I51000J0D01*
G01*
X94550000Y-32099000D01*
G75*
G02*
X94601000Y-32150000I0J-51000D01*
G01*
X94601000Y-33150000D01*
G75*
G02*
X94550000Y-33201000I-51000J0D01*
G01*
X93050000Y-33201000D01*
G75*
G02*
X92999000Y-33150000I0J51000D01*
G01*
G37*
G36*
G01*
X92999000Y-36350000D02*
X92999000Y-35350000D01*
G75*
G02*
X93050000Y-35299000I51000J0D01*
G01*
X94550000Y-35299000D01*
G75*
G02*
X94601000Y-35350000I0J-51000D01*
G01*
X94601000Y-36350000D01*
G75*
G02*
X94550000Y-36401000I-51000J0D01*
G01*
X93050000Y-36401000D01*
G75*
G02*
X92999000Y-36350000I0J51000D01*
G01*
G37*
G36*
G01*
X339249000Y-72100000D02*
X339249000Y-71100000D01*
G75*
G02*
X339300000Y-71049000I51000J0D01*
G01*
X340800000Y-71049000D01*
G75*
G02*
X340851000Y-71100000I0J-51000D01*
G01*
X340851000Y-72100000D01*
G75*
G02*
X340800000Y-72151000I-51000J0D01*
G01*
X339300000Y-72151000D01*
G75*
G02*
X339249000Y-72100000I0J51000D01*
G01*
G37*
G36*
G01*
X339249000Y-68900000D02*
X339249000Y-67900000D01*
G75*
G02*
X339300000Y-67849000I51000J0D01*
G01*
X340800000Y-67849000D01*
G75*
G02*
X340851000Y-67900000I0J-51000D01*
G01*
X340851000Y-68900000D01*
G75*
G02*
X340800000Y-68951000I-51000J0D01*
G01*
X339300000Y-68951000D01*
G75*
G02*
X339249000Y-68900000I0J51000D01*
G01*
G37*
G36*
G01*
X344149000Y-72100000D02*
X344149000Y-71100000D01*
G75*
G02*
X344200000Y-71049000I51000J0D01*
G01*
X345700000Y-71049000D01*
G75*
G02*
X345751000Y-71100000I0J-51000D01*
G01*
X345751000Y-72100000D01*
G75*
G02*
X345700000Y-72151000I-51000J0D01*
G01*
X344200000Y-72151000D01*
G75*
G02*
X344149000Y-72100000I0J51000D01*
G01*
G37*
G36*
G01*
X344149000Y-68900000D02*
X344149000Y-67900000D01*
G75*
G02*
X344200000Y-67849000I51000J0D01*
G01*
X345700000Y-67849000D01*
G75*
G02*
X345751000Y-67900000I0J-51000D01*
G01*
X345751000Y-68900000D01*
G75*
G02*
X345700000Y-68951000I-51000J0D01*
G01*
X344200000Y-68951000D01*
G75*
G02*
X344149000Y-68900000I0J51000D01*
G01*
G37*
G36*
G01*
X300249000Y-115850000D02*
X300249000Y-114850000D01*
G75*
G02*
X300300000Y-114799000I51000J0D01*
G01*
X301800000Y-114799000D01*
G75*
G02*
X301851000Y-114850000I0J-51000D01*
G01*
X301851000Y-115850000D01*
G75*
G02*
X301800000Y-115901000I-51000J0D01*
G01*
X300300000Y-115901000D01*
G75*
G02*
X300249000Y-115850000I0J51000D01*
G01*
G37*
G36*
G01*
X300249000Y-112650000D02*
X300249000Y-111650000D01*
G75*
G02*
X300300000Y-111599000I51000J0D01*
G01*
X301800000Y-111599000D01*
G75*
G02*
X301851000Y-111650000I0J-51000D01*
G01*
X301851000Y-112650000D01*
G75*
G02*
X301800000Y-112701000I-51000J0D01*
G01*
X300300000Y-112701000D01*
G75*
G02*
X300249000Y-112650000I0J51000D01*
G01*
G37*
G36*
G01*
X305149000Y-115850000D02*
X305149000Y-114850000D01*
G75*
G02*
X305200000Y-114799000I51000J0D01*
G01*
X306700000Y-114799000D01*
G75*
G02*
X306751000Y-114850000I0J-51000D01*
G01*
X306751000Y-115850000D01*
G75*
G02*
X306700000Y-115901000I-51000J0D01*
G01*
X305200000Y-115901000D01*
G75*
G02*
X305149000Y-115850000I0J51000D01*
G01*
G37*
G36*
G01*
X305149000Y-112650000D02*
X305149000Y-111650000D01*
G75*
G02*
X305200000Y-111599000I51000J0D01*
G01*
X306700000Y-111599000D01*
G75*
G02*
X306751000Y-111650000I0J-51000D01*
G01*
X306751000Y-112650000D01*
G75*
G02*
X306700000Y-112701000I-51000J0D01*
G01*
X305200000Y-112701000D01*
G75*
G02*
X305149000Y-112650000I0J51000D01*
G01*
G37*
G36*
G01*
X69649000Y-112650000D02*
X69649000Y-111650000D01*
G75*
G02*
X69700000Y-111599000I51000J0D01*
G01*
X71200000Y-111599000D01*
G75*
G02*
X71251000Y-111650000I0J-51000D01*
G01*
X71251000Y-112650000D01*
G75*
G02*
X71200000Y-112701000I-51000J0D01*
G01*
X69700000Y-112701000D01*
G75*
G02*
X69649000Y-112650000I0J51000D01*
G01*
G37*
G36*
G01*
X69649000Y-115850000D02*
X69649000Y-114850000D01*
G75*
G02*
X69700000Y-114799000I51000J0D01*
G01*
X71200000Y-114799000D01*
G75*
G02*
X71251000Y-114850000I0J-51000D01*
G01*
X71251000Y-115850000D01*
G75*
G02*
X71200000Y-115901000I-51000J0D01*
G01*
X69700000Y-115901000D01*
G75*
G02*
X69649000Y-115850000I0J51000D01*
G01*
G37*
G36*
G01*
X64749000Y-112650000D02*
X64749000Y-111650000D01*
G75*
G02*
X64800000Y-111599000I51000J0D01*
G01*
X66300000Y-111599000D01*
G75*
G02*
X66351000Y-111650000I0J-51000D01*
G01*
X66351000Y-112650000D01*
G75*
G02*
X66300000Y-112701000I-51000J0D01*
G01*
X64800000Y-112701000D01*
G75*
G02*
X64749000Y-112650000I0J51000D01*
G01*
G37*
G36*
G01*
X64749000Y-115850000D02*
X64749000Y-114850000D01*
G75*
G02*
X64800000Y-114799000I51000J0D01*
G01*
X66300000Y-114799000D01*
G75*
G02*
X66351000Y-114850000I0J-51000D01*
G01*
X66351000Y-115850000D01*
G75*
G02*
X66300000Y-115901000I-51000J0D01*
G01*
X64800000Y-115901000D01*
G75*
G02*
X64749000Y-115850000I0J51000D01*
G01*
G37*
G36*
G01*
X131899000Y-33400000D02*
X131899000Y-32400000D01*
G75*
G02*
X131950000Y-32349000I51000J0D01*
G01*
X133450000Y-32349000D01*
G75*
G02*
X133501000Y-32400000I0J-51000D01*
G01*
X133501000Y-33400000D01*
G75*
G02*
X133450000Y-33451000I-51000J0D01*
G01*
X131950000Y-33451000D01*
G75*
G02*
X131899000Y-33400000I0J51000D01*
G01*
G37*
G36*
G01*
X131899000Y-36600000D02*
X131899000Y-35600000D01*
G75*
G02*
X131950000Y-35549000I51000J0D01*
G01*
X133450000Y-35549000D01*
G75*
G02*
X133501000Y-35600000I0J-51000D01*
G01*
X133501000Y-36600000D01*
G75*
G02*
X133450000Y-36651000I-51000J0D01*
G01*
X131950000Y-36651000D01*
G75*
G02*
X131899000Y-36600000I0J51000D01*
G01*
G37*
G36*
G01*
X126999000Y-33400000D02*
X126999000Y-32400000D01*
G75*
G02*
X127050000Y-32349000I51000J0D01*
G01*
X128550000Y-32349000D01*
G75*
G02*
X128601000Y-32400000I0J-51000D01*
G01*
X128601000Y-33400000D01*
G75*
G02*
X128550000Y-33451000I-51000J0D01*
G01*
X127050000Y-33451000D01*
G75*
G02*
X126999000Y-33400000I0J51000D01*
G01*
G37*
G36*
G01*
X126999000Y-36600000D02*
X126999000Y-35600000D01*
G75*
G02*
X127050000Y-35549000I51000J0D01*
G01*
X128550000Y-35549000D01*
G75*
G02*
X128601000Y-35600000I0J-51000D01*
G01*
X128601000Y-36600000D01*
G75*
G02*
X128550000Y-36651000I-51000J0D01*
G01*
X127050000Y-36651000D01*
G75*
G02*
X126999000Y-36600000I0J51000D01*
G01*
G37*
X321796250Y-71740000D03*
X315446250Y-74280000D03*
D11*
X319256250Y-76820000D03*
D12*
X314176250Y-76820000D03*
X324336250Y-76820000D03*
D11*
X331156250Y-68580000D03*
X307356250Y-68580000D03*
D13*
X307356250Y-83820000D03*
X331156250Y-83820000D03*
D10*
X135153475Y-120446047D03*
X128414142Y-121610303D03*
D11*
X131612789Y-124886942D03*
D12*
X126643799Y-123830750D03*
X136581779Y-125943133D03*
D11*
X144965938Y-119301154D03*
X121686025Y-114352856D03*
D13*
X118517451Y-129259826D03*
X141797364Y-134208124D03*
D10*
X49383750Y-90790000D03*
X43033750Y-93330000D03*
D11*
X46843750Y-95870000D03*
D12*
X41763750Y-95870000D03*
X51923750Y-95870000D03*
D11*
X58743750Y-104110000D03*
X34943750Y-104110000D03*
D13*
X34943750Y-88870000D03*
X58743750Y-88870000D03*
D10*
X48796250Y-71740000D03*
X42446250Y-74280000D03*
D11*
X46256250Y-76820000D03*
D12*
X41176250Y-76820000D03*
X51336250Y-76820000D03*
D10*
X307508769Y-90789998D03*
X301158769Y-93329998D03*
D11*
X304968769Y-95869998D03*
D12*
X299888769Y-95869998D03*
X310048769Y-95869998D03*
D10*
X50480000Y-52690000D03*
X44130000Y-55230000D03*
D11*
X47940000Y-57770000D03*
D12*
X42860000Y-57770000D03*
X53020000Y-57770000D03*
D10*
X42250000Y-109840000D03*
X35900000Y-112380000D03*
D11*
X39710000Y-114920000D03*
D12*
X34630000Y-114920000D03*
X44790000Y-114920000D03*
D10*
X102544484Y-113514795D03*
X95805151Y-114679051D03*
D11*
X99003798Y-117955689D03*
D12*
X94034808Y-116899498D03*
X103972788Y-119011881D03*
D10*
X253444205Y-112457940D03*
X247761064Y-116262674D03*
D11*
X252015902Y-117955026D03*
D12*
X247046912Y-119011217D03*
X256984892Y-116898834D03*
D10*
X324670000Y-52690000D03*
X318320000Y-55230000D03*
D11*
X322130000Y-57770000D03*
D12*
X317050000Y-57770000D03*
X327210000Y-57770000D03*
X52420000Y-38720000D03*
X42260000Y-38720000D03*
D11*
X47340000Y-38720000D03*
D10*
X43530000Y-36180000D03*
X49880000Y-33640000D03*
D12*
X76830000Y-57770000D03*
X66670000Y-57770000D03*
D11*
X71750000Y-57770000D03*
D10*
X67940000Y-55230000D03*
X74290000Y-52690000D03*
D12*
X77530000Y-76820000D03*
X67370000Y-76820000D03*
D11*
X72450000Y-76820000D03*
D10*
X68640000Y-74280000D03*
X74990000Y-71740000D03*
D12*
X82880000Y-95870000D03*
X72720000Y-95870000D03*
D11*
X77800000Y-95870000D03*
D10*
X73990000Y-93330000D03*
X80340000Y-90790000D03*
D12*
X90520000Y-37219615D03*
X80360000Y-37219615D03*
D11*
X85440000Y-37219615D03*
D10*
X81630000Y-34679615D03*
X87980000Y-32139615D03*
D12*
X97221338Y-59150030D03*
X87283358Y-57037647D03*
D11*
X92252348Y-58093839D03*
D10*
X89053701Y-54817200D03*
X95793034Y-53652945D03*
D12*
X97919005Y-78773923D03*
X87981025Y-76661540D03*
D11*
X92950015Y-77717732D03*
D10*
X89751368Y-74441093D03*
X96490701Y-73276838D03*
D12*
X103275087Y-99387992D03*
X93337107Y-97275609D03*
D11*
X98306097Y-98331801D03*
D10*
X95107450Y-95055162D03*
X101846783Y-93890907D03*
D12*
X115855048Y-63110756D03*
X105917068Y-60998373D03*
D11*
X110886058Y-62054565D03*
D10*
X107687411Y-58777926D03*
X114426744Y-57613671D03*
D12*
X116552715Y-82734650D03*
X106614735Y-80622267D03*
D11*
X111583725Y-81678459D03*
D10*
X108385078Y-78401820D03*
X115124411Y-77237565D03*
D12*
X121908797Y-103348718D03*
X111970817Y-101236335D03*
D11*
X116939807Y-102292527D03*
D10*
X113741160Y-99015888D03*
X120480493Y-97851633D03*
D12*
X134488758Y-67071483D03*
X124550778Y-64959100D03*
D11*
X129519768Y-66015292D03*
D10*
X126321121Y-62738653D03*
X133060454Y-61574398D03*
D12*
X135186425Y-86695377D03*
X125248445Y-84582994D03*
D11*
X130217435Y-85639186D03*
D10*
X127018788Y-82362547D03*
X133758121Y-81198292D03*
D12*
X140542506Y-107309445D03*
X130604526Y-105197062D03*
D11*
X135573516Y-106253254D03*
D10*
X132374869Y-102976615D03*
X139114202Y-101812360D03*
D12*
X147766419Y-50418123D03*
X137828439Y-48305740D03*
D11*
X142797429Y-49361932D03*
D10*
X139598782Y-46085293D03*
X146338115Y-44921038D03*
D12*
X153122468Y-71032210D03*
X143184488Y-68919827D03*
D11*
X148153478Y-69976019D03*
D10*
X144954831Y-66699380D03*
X151694164Y-65535125D03*
D12*
X153820135Y-90656104D03*
X143882155Y-88543721D03*
D11*
X148851145Y-89599913D03*
D10*
X145652498Y-86323274D03*
X152391831Y-85159019D03*
D12*
X159176216Y-111270172D03*
X149238236Y-109157789D03*
D11*
X154207226Y-110213981D03*
D10*
X151008579Y-106937342D03*
X157747912Y-105773087D03*
D12*
X164532353Y-131884201D03*
X154594373Y-129771818D03*
D11*
X159563363Y-130828010D03*
D10*
X156364716Y-127551371D03*
X163104049Y-126387116D03*
D12*
X166400131Y-54378840D03*
X156462151Y-52266457D03*
D11*
X161431141Y-53322649D03*
D10*
X158232494Y-50046010D03*
X164971827Y-48881755D03*
D12*
X189201628Y-72879833D03*
X179263648Y-74992215D03*
D11*
X184232638Y-73936024D03*
D10*
X179977800Y-72243673D03*
X185660941Y-68438939D03*
D12*
X197820749Y-90523385D03*
X187882769Y-92635767D03*
D11*
X192851759Y-91579576D03*
D10*
X188596921Y-89887225D03*
X194280062Y-86082491D03*
D12*
X206439870Y-108166937D03*
X196501890Y-110279319D03*
D11*
X201470880Y-109223128D03*
D10*
X197216042Y-107530777D03*
X202899183Y-103726043D03*
D12*
X194557855Y-52265734D03*
X184619875Y-54378116D03*
D11*
X189588865Y-53321925D03*
D10*
X185334027Y-51629574D03*
X191017168Y-47824840D03*
D12*
X207835339Y-68919115D03*
X197897359Y-71031497D03*
D11*
X202866349Y-69975306D03*
D10*
X198611511Y-68282955D03*
X204294652Y-64478221D03*
D12*
X216454460Y-86562667D03*
X206516480Y-88675049D03*
D11*
X211485470Y-87618858D03*
D10*
X207230632Y-85926507D03*
X212913773Y-82121773D03*
D12*
X225073582Y-104206219D03*
X215135602Y-106318601D03*
D11*
X220104592Y-105262410D03*
D10*
X215849754Y-103570059D03*
X221532895Y-99765325D03*
D12*
X213191567Y-48305016D03*
X203253587Y-50417398D03*
D11*
X208222577Y-49361207D03*
D10*
X203967739Y-47668856D03*
X209650880Y-43864122D03*
D12*
X226469051Y-64958398D03*
X216531071Y-67070780D03*
D11*
X221500061Y-66014589D03*
D10*
X217245223Y-64322238D03*
X222928364Y-60517504D03*
D12*
X235088172Y-82601950D03*
X225150192Y-84714332D03*
D11*
X230119182Y-83658141D03*
D10*
X225864344Y-81965790D03*
X231547485Y-78161056D03*
D12*
X243707293Y-100245502D03*
X233769313Y-102357884D03*
D11*
X238738303Y-101301693D03*
D10*
X234483465Y-99609342D03*
X240166606Y-95804608D03*
D12*
X231825279Y-44344299D03*
X221887299Y-46456681D03*
D11*
X226856289Y-45400490D03*
D10*
X222601451Y-43708139D03*
X228284592Y-39903405D03*
D12*
X245102763Y-60997680D03*
X235164783Y-63110062D03*
D11*
X240133773Y-62053871D03*
D10*
X235878935Y-60361520D03*
X241562076Y-56556786D03*
D12*
X253721884Y-78641232D03*
X243783904Y-80753614D03*
D11*
X248752894Y-79697423D03*
D10*
X244498056Y-78005072D03*
X250181197Y-74200338D03*
D12*
X262341005Y-96284784D03*
X252403025Y-98397166D03*
D11*
X257372015Y-97340975D03*
D10*
X253117177Y-95648624D03*
X258800318Y-91843890D03*
D12*
X250458990Y-40383581D03*
X240521010Y-42495963D03*
D11*
X245490000Y-41439772D03*
D10*
X241235162Y-39747421D03*
X246918303Y-35942687D03*
D12*
X263736475Y-57036962D03*
X253798495Y-59149344D03*
D11*
X258767485Y-58093153D03*
D10*
X254512647Y-56400802D03*
X260195788Y-52596068D03*
D12*
X274330000Y-76820000D03*
X264170000Y-76820000D03*
D11*
X269250000Y-76820000D03*
D10*
X265440000Y-74280000D03*
X271790000Y-71740000D03*
D12*
X283855019Y-95869998D03*
X273695019Y-95869998D03*
D11*
X278775019Y-95869998D03*
D10*
X274965019Y-93329998D03*
X281315019Y-90789998D03*
D12*
X270650000Y-37219615D03*
X260490000Y-37219615D03*
D11*
X265570000Y-37219615D03*
D10*
X261760000Y-34679615D03*
X268110000Y-32139615D03*
D12*
X284340000Y-57770000D03*
X274180000Y-57770000D03*
D11*
X279260000Y-57770000D03*
D10*
X275450000Y-55230000D03*
X281800000Y-52690000D03*
D12*
X293380000Y-76820000D03*
X283220000Y-76820000D03*
D11*
X288300000Y-76820000D03*
D10*
X284490000Y-74280000D03*
X290840000Y-71740000D03*
D12*
X289700000Y-38720000D03*
X279540000Y-38720000D03*
D11*
X284620000Y-38720000D03*
D10*
X280810000Y-36180000D03*
X287160000Y-33640000D03*
D12*
X303390000Y-57770000D03*
X293230000Y-57770000D03*
D11*
X298310000Y-57770000D03*
D10*
X294500000Y-55230000D03*
X300850000Y-52690000D03*
D12*
X321954949Y-119682503D03*
X311794949Y-119682503D03*
D11*
X316874949Y-119682503D03*
D10*
X313064949Y-117142503D03*
X319414949Y-114602503D03*
D12*
X308750000Y-38720000D03*
X298590000Y-38720000D03*
D11*
X303670000Y-38720000D03*
D10*
X299860000Y-36180000D03*
X306210000Y-33640000D03*
D12*
X341004949Y-100632503D03*
X330844949Y-100632503D03*
D11*
X335924949Y-100632503D03*
D10*
X332114949Y-98092503D03*
X338464949Y-95552503D03*
D12*
X341004949Y-119682503D03*
X330844949Y-119682503D03*
D11*
X335924949Y-119682503D03*
D10*
X332114949Y-117142503D03*
X338464949Y-114602503D03*
D12*
X327800000Y-38720000D03*
X317640000Y-38720000D03*
D11*
X322720000Y-38720000D03*
D10*
X318910000Y-36180000D03*
X325260000Y-33640000D03*
D12*
X351612542Y-33957509D03*
X341452542Y-33957509D03*
D11*
X346532542Y-33957509D03*
D10*
X342722542Y-31417509D03*
X349072542Y-28877509D03*
D12*
X355785000Y-53007516D03*
X345625000Y-53007516D03*
D11*
X350705000Y-53007516D03*
D10*
X346895000Y-50467516D03*
X353245000Y-47927516D03*
D12*
X360054949Y-72057519D03*
X349894949Y-72057519D03*
D11*
X354974949Y-72057519D03*
D10*
X351164949Y-69517519D03*
X357514949Y-66977519D03*
D12*
X360054949Y-119682503D03*
X349894949Y-119682503D03*
D11*
X354974949Y-119682503D03*
D10*
X351164949Y-117142503D03*
X357514949Y-114602503D03*
D14*
X241060266Y-120608720D03*
X345449949Y-110157503D03*
G36*
G01*
X184541000Y-38843000D02*
X185791000Y-38843000D01*
G75*
G02*
X185842000Y-38894000I0J-51000D01*
G01*
X185842000Y-40394000D01*
G75*
G02*
X185791000Y-40445000I-51000J0D01*
G01*
X184541000Y-40445000D01*
G75*
G02*
X184490000Y-40394000I0J51000D01*
G01*
X184490000Y-38894000D01*
G75*
G02*
X184541000Y-38843000I51000J0D01*
G01*
G37*
G36*
G01*
X184541000Y-41343000D02*
X185791000Y-41343000D01*
G75*
G02*
X185842000Y-41394000I0J-51000D01*
G01*
X185842000Y-42894000D01*
G75*
G02*
X185791000Y-42945000I-51000J0D01*
G01*
X184541000Y-42945000D01*
G75*
G02*
X184490000Y-42894000I0J51000D01*
G01*
X184490000Y-41394000D01*
G75*
G02*
X184541000Y-41343000I51000J0D01*
G01*
G37*
G36*
G01*
X188077000Y-41802000D02*
X186827000Y-41802000D01*
G75*
G02*
X186776000Y-41751000I0J51000D01*
G01*
X186776000Y-40251000D01*
G75*
G02*
X186827000Y-40200000I51000J0D01*
G01*
X188077000Y-40200000D01*
G75*
G02*
X188128000Y-40251000I0J-51000D01*
G01*
X188128000Y-41751000D01*
G75*
G02*
X188077000Y-41802000I-51000J0D01*
G01*
G37*
G36*
G01*
X188077000Y-39302000D02*
X186827000Y-39302000D01*
G75*
G02*
X186776000Y-39251000I0J51000D01*
G01*
X186776000Y-37751000D01*
G75*
G02*
X186827000Y-37700000I51000J0D01*
G01*
X188077000Y-37700000D01*
G75*
G02*
X188128000Y-37751000I0J-51000D01*
G01*
X188128000Y-39251000D01*
G75*
G02*
X188077000Y-39302000I-51000J0D01*
G01*
G37*
G36*
G01*
X183759000Y-32277000D02*
X182509000Y-32277000D01*
G75*
G02*
X182458000Y-32226000I0J51000D01*
G01*
X182458000Y-30726000D01*
G75*
G02*
X182509000Y-30675000I51000J0D01*
G01*
X183759000Y-30675000D01*
G75*
G02*
X183810000Y-30726000I0J-51000D01*
G01*
X183810000Y-32226000D01*
G75*
G02*
X183759000Y-32277000I-51000J0D01*
G01*
G37*
G36*
G01*
X183759000Y-29777000D02*
X182509000Y-29777000D01*
G75*
G02*
X182458000Y-29726000I0J51000D01*
G01*
X182458000Y-28226000D01*
G75*
G02*
X182509000Y-28175000I51000J0D01*
G01*
X183759000Y-28175000D01*
G75*
G02*
X183810000Y-28226000I0J-51000D01*
G01*
X183810000Y-29726000D01*
G75*
G02*
X183759000Y-29777000I-51000J0D01*
G01*
G37*
G36*
G01*
X181727000Y-32277000D02*
X180477000Y-32277000D01*
G75*
G02*
X180426000Y-32226000I0J51000D01*
G01*
X180426000Y-30726000D01*
G75*
G02*
X180477000Y-30675000I51000J0D01*
G01*
X181727000Y-30675000D01*
G75*
G02*
X181778000Y-30726000I0J-51000D01*
G01*
X181778000Y-32226000D01*
G75*
G02*
X181727000Y-32277000I-51000J0D01*
G01*
G37*
G36*
G01*
X181727000Y-29777000D02*
X180477000Y-29777000D01*
G75*
G02*
X180426000Y-29726000I0J51000D01*
G01*
X180426000Y-28226000D01*
G75*
G02*
X180477000Y-28175000I51000J0D01*
G01*
X181727000Y-28175000D01*
G75*
G02*
X181778000Y-28226000I0J-51000D01*
G01*
X181778000Y-29726000D01*
G75*
G02*
X181727000Y-29777000I-51000J0D01*
G01*
G37*
G36*
G01*
X167933000Y-35697000D02*
X167933000Y-36947000D01*
G75*
G02*
X167882000Y-36998000I-51000J0D01*
G01*
X166382000Y-36998000D01*
G75*
G02*
X166331000Y-36947000I0J51000D01*
G01*
X166331000Y-35697000D01*
G75*
G02*
X166382000Y-35646000I51000J0D01*
G01*
X167882000Y-35646000D01*
G75*
G02*
X167933000Y-35697000I0J-51000D01*
G01*
G37*
G36*
G01*
X165433000Y-35697000D02*
X165433000Y-36947000D01*
G75*
G02*
X165382000Y-36998000I-51000J0D01*
G01*
X163882000Y-36998000D01*
G75*
G02*
X163831000Y-36947000I0J51000D01*
G01*
X163831000Y-35697000D01*
G75*
G02*
X163882000Y-35646000I51000J0D01*
G01*
X165382000Y-35646000D01*
G75*
G02*
X165433000Y-35697000I0J-51000D01*
G01*
G37*
G36*
G01*
X167933000Y-37729000D02*
X167933000Y-38979000D01*
G75*
G02*
X167882000Y-39030000I-51000J0D01*
G01*
X166382000Y-39030000D01*
G75*
G02*
X166331000Y-38979000I0J51000D01*
G01*
X166331000Y-37729000D01*
G75*
G02*
X166382000Y-37678000I51000J0D01*
G01*
X167882000Y-37678000D01*
G75*
G02*
X167933000Y-37729000I0J-51000D01*
G01*
G37*
G36*
G01*
X165433000Y-37729000D02*
X165433000Y-38979000D01*
G75*
G02*
X165382000Y-39030000I-51000J0D01*
G01*
X163882000Y-39030000D01*
G75*
G02*
X163831000Y-38979000I0J51000D01*
G01*
X163831000Y-37729000D01*
G75*
G02*
X163882000Y-37678000I51000J0D01*
G01*
X165382000Y-37678000D01*
G75*
G02*
X165433000Y-37729000I0J-51000D01*
G01*
G37*
G36*
G01*
X178797000Y-50917000D02*
X178797000Y-49667000D01*
G75*
G02*
X178848000Y-49616000I51000J0D01*
G01*
X180348000Y-49616000D01*
G75*
G02*
X180399000Y-49667000I0J-51000D01*
G01*
X180399000Y-50917000D01*
G75*
G02*
X180348000Y-50968000I-51000J0D01*
G01*
X178848000Y-50968000D01*
G75*
G02*
X178797000Y-50917000I0J51000D01*
G01*
G37*
G36*
G01*
X181297000Y-50917000D02*
X181297000Y-49667000D01*
G75*
G02*
X181348000Y-49616000I51000J0D01*
G01*
X182848000Y-49616000D01*
G75*
G02*
X182899000Y-49667000I0J-51000D01*
G01*
X182899000Y-50917000D01*
G75*
G02*
X182848000Y-50968000I-51000J0D01*
G01*
X181348000Y-50968000D01*
G75*
G02*
X181297000Y-50917000I0J51000D01*
G01*
G37*
G36*
G01*
X168011000Y-49295000D02*
X166761000Y-49295000D01*
G75*
G02*
X166710000Y-49244000I0J51000D01*
G01*
X166710000Y-47744000D01*
G75*
G02*
X166761000Y-47693000I51000J0D01*
G01*
X168011000Y-47693000D01*
G75*
G02*
X168062000Y-47744000I0J-51000D01*
G01*
X168062000Y-49244000D01*
G75*
G02*
X168011000Y-49295000I-51000J0D01*
G01*
G37*
G36*
G01*
X168011000Y-46795000D02*
X166761000Y-46795000D01*
G75*
G02*
X166710000Y-46744000I0J51000D01*
G01*
X166710000Y-45244000D01*
G75*
G02*
X166761000Y-45193000I51000J0D01*
G01*
X168011000Y-45193000D01*
G75*
G02*
X168062000Y-45244000I0J-51000D01*
G01*
X168062000Y-46744000D01*
G75*
G02*
X168011000Y-46795000I-51000J0D01*
G01*
G37*
G36*
G01*
X186397000Y-36693000D02*
X186397000Y-35443000D01*
G75*
G02*
X186448000Y-35392000I51000J0D01*
G01*
X187948000Y-35392000D01*
G75*
G02*
X187999000Y-35443000I0J-51000D01*
G01*
X187999000Y-36693000D01*
G75*
G02*
X187948000Y-36744000I-51000J0D01*
G01*
X186448000Y-36744000D01*
G75*
G02*
X186397000Y-36693000I0J51000D01*
G01*
G37*
G36*
G01*
X188897000Y-36693000D02*
X188897000Y-35443000D01*
G75*
G02*
X188948000Y-35392000I51000J0D01*
G01*
X190448000Y-35392000D01*
G75*
G02*
X190499000Y-35443000I0J-51000D01*
G01*
X190499000Y-36693000D01*
G75*
G02*
X190448000Y-36744000I-51000J0D01*
G01*
X188948000Y-36744000D01*
G75*
G02*
X188897000Y-36693000I0J51000D01*
G01*
G37*
G36*
G01*
X44715000Y-44646000D02*
X43515000Y-44646000D01*
G75*
G02*
X43464000Y-44595000I0J51000D01*
G01*
X43464000Y-43695000D01*
G75*
G02*
X43515000Y-43644000I51000J0D01*
G01*
X44715000Y-43644000D01*
G75*
G02*
X44766000Y-43695000I0J-51000D01*
G01*
X44766000Y-44595000D01*
G75*
G02*
X44715000Y-44646000I-51000J0D01*
G01*
G37*
G36*
G01*
X44715000Y-41346000D02*
X43515000Y-41346000D01*
G75*
G02*
X43464000Y-41295000I0J51000D01*
G01*
X43464000Y-40395000D01*
G75*
G02*
X43515000Y-40344000I51000J0D01*
G01*
X44715000Y-40344000D01*
G75*
G02*
X44766000Y-40395000I0J-51000D01*
G01*
X44766000Y-41295000D01*
G75*
G02*
X44715000Y-41346000I-51000J0D01*
G01*
G37*
G36*
G01*
X45315000Y-63696000D02*
X44115000Y-63696000D01*
G75*
G02*
X44064000Y-63645000I0J51000D01*
G01*
X44064000Y-62745000D01*
G75*
G02*
X44115000Y-62694000I51000J0D01*
G01*
X45315000Y-62694000D01*
G75*
G02*
X45366000Y-62745000I0J-51000D01*
G01*
X45366000Y-63645000D01*
G75*
G02*
X45315000Y-63696000I-51000J0D01*
G01*
G37*
G36*
G01*
X45315000Y-60396000D02*
X44115000Y-60396000D01*
G75*
G02*
X44064000Y-60345000I0J51000D01*
G01*
X44064000Y-59445000D01*
G75*
G02*
X44115000Y-59394000I51000J0D01*
G01*
X45315000Y-59394000D01*
G75*
G02*
X45366000Y-59445000I0J-51000D01*
G01*
X45366000Y-60345000D01*
G75*
G02*
X45315000Y-60396000I-51000J0D01*
G01*
G37*
G36*
G01*
X43631250Y-82746000D02*
X42431250Y-82746000D01*
G75*
G02*
X42380250Y-82695000I0J51000D01*
G01*
X42380250Y-81795000D01*
G75*
G02*
X42431250Y-81744000I51000J0D01*
G01*
X43631250Y-81744000D01*
G75*
G02*
X43682250Y-81795000I0J-51000D01*
G01*
X43682250Y-82695000D01*
G75*
G02*
X43631250Y-82746000I-51000J0D01*
G01*
G37*
G36*
G01*
X43631250Y-79446000D02*
X42431250Y-79446000D01*
G75*
G02*
X42380250Y-79395000I0J51000D01*
G01*
X42380250Y-78495000D01*
G75*
G02*
X42431250Y-78444000I51000J0D01*
G01*
X43631250Y-78444000D01*
G75*
G02*
X43682250Y-78495000I0J-51000D01*
G01*
X43682250Y-79395000D01*
G75*
G02*
X43631250Y-79446000I-51000J0D01*
G01*
G37*
G36*
G01*
X44218750Y-101796000D02*
X43018750Y-101796000D01*
G75*
G02*
X42967750Y-101745000I0J51000D01*
G01*
X42967750Y-100845000D01*
G75*
G02*
X43018750Y-100794000I51000J0D01*
G01*
X44218750Y-100794000D01*
G75*
G02*
X44269750Y-100845000I0J-51000D01*
G01*
X44269750Y-101745000D01*
G75*
G02*
X44218750Y-101796000I-51000J0D01*
G01*
G37*
G36*
G01*
X44218750Y-98496000D02*
X43018750Y-98496000D01*
G75*
G02*
X42967750Y-98445000I0J51000D01*
G01*
X42967750Y-97545000D01*
G75*
G02*
X43018750Y-97494000I51000J0D01*
G01*
X44218750Y-97494000D01*
G75*
G02*
X44269750Y-97545000I0J-51000D01*
G01*
X44269750Y-98445000D01*
G75*
G02*
X44218750Y-98496000I-51000J0D01*
G01*
G37*
G36*
G01*
X37085000Y-120846000D02*
X35885000Y-120846000D01*
G75*
G02*
X35834000Y-120795000I0J51000D01*
G01*
X35834000Y-119895000D01*
G75*
G02*
X35885000Y-119844000I51000J0D01*
G01*
X37085000Y-119844000D01*
G75*
G02*
X37136000Y-119895000I0J-51000D01*
G01*
X37136000Y-120795000D01*
G75*
G02*
X37085000Y-120846000I-51000J0D01*
G01*
G37*
G36*
G01*
X37085000Y-117546000D02*
X35885000Y-117546000D01*
G75*
G02*
X35834000Y-117495000I0J51000D01*
G01*
X35834000Y-116595000D01*
G75*
G02*
X35885000Y-116544000I51000J0D01*
G01*
X37085000Y-116544000D01*
G75*
G02*
X37136000Y-116595000I0J-51000D01*
G01*
X37136000Y-117495000D01*
G75*
G02*
X37085000Y-117546000I-51000J0D01*
G01*
G37*
G36*
G01*
X63765000Y-44646000D02*
X62565000Y-44646000D01*
G75*
G02*
X62514000Y-44595000I0J51000D01*
G01*
X62514000Y-43695000D01*
G75*
G02*
X62565000Y-43644000I51000J0D01*
G01*
X63765000Y-43644000D01*
G75*
G02*
X63816000Y-43695000I0J-51000D01*
G01*
X63816000Y-44595000D01*
G75*
G02*
X63765000Y-44646000I-51000J0D01*
G01*
G37*
G36*
G01*
X63765000Y-41346000D02*
X62565000Y-41346000D01*
G75*
G02*
X62514000Y-41295000I0J51000D01*
G01*
X62514000Y-40395000D01*
G75*
G02*
X62565000Y-40344000I51000J0D01*
G01*
X63765000Y-40344000D01*
G75*
G02*
X63816000Y-40395000I0J-51000D01*
G01*
X63816000Y-41295000D01*
G75*
G02*
X63765000Y-41346000I-51000J0D01*
G01*
G37*
G36*
G01*
X69125000Y-63696000D02*
X67925000Y-63696000D01*
G75*
G02*
X67874000Y-63645000I0J51000D01*
G01*
X67874000Y-62745000D01*
G75*
G02*
X67925000Y-62694000I51000J0D01*
G01*
X69125000Y-62694000D01*
G75*
G02*
X69176000Y-62745000I0J-51000D01*
G01*
X69176000Y-63645000D01*
G75*
G02*
X69125000Y-63696000I-51000J0D01*
G01*
G37*
G36*
G01*
X69125000Y-60396000D02*
X67925000Y-60396000D01*
G75*
G02*
X67874000Y-60345000I0J51000D01*
G01*
X67874000Y-59445000D01*
G75*
G02*
X67925000Y-59394000I51000J0D01*
G01*
X69125000Y-59394000D01*
G75*
G02*
X69176000Y-59445000I0J-51000D01*
G01*
X69176000Y-60345000D01*
G75*
G02*
X69125000Y-60396000I-51000J0D01*
G01*
G37*
G36*
G01*
X69825000Y-82746000D02*
X68625000Y-82746000D01*
G75*
G02*
X68574000Y-82695000I0J51000D01*
G01*
X68574000Y-81795000D01*
G75*
G02*
X68625000Y-81744000I51000J0D01*
G01*
X69825000Y-81744000D01*
G75*
G02*
X69876000Y-81795000I0J-51000D01*
G01*
X69876000Y-82695000D01*
G75*
G02*
X69825000Y-82746000I-51000J0D01*
G01*
G37*
G36*
G01*
X69825000Y-79446000D02*
X68625000Y-79446000D01*
G75*
G02*
X68574000Y-79395000I0J51000D01*
G01*
X68574000Y-78495000D01*
G75*
G02*
X68625000Y-78444000I51000J0D01*
G01*
X69825000Y-78444000D01*
G75*
G02*
X69876000Y-78495000I0J-51000D01*
G01*
X69876000Y-79395000D01*
G75*
G02*
X69825000Y-79446000I-51000J0D01*
G01*
G37*
G36*
G01*
X75175000Y-101796000D02*
X73975000Y-101796000D01*
G75*
G02*
X73924000Y-101745000I0J51000D01*
G01*
X73924000Y-100845000D01*
G75*
G02*
X73975000Y-100794000I51000J0D01*
G01*
X75175000Y-100794000D01*
G75*
G02*
X75226000Y-100845000I0J-51000D01*
G01*
X75226000Y-101745000D01*
G75*
G02*
X75175000Y-101796000I-51000J0D01*
G01*
G37*
G36*
G01*
X75175000Y-98496000D02*
X73975000Y-98496000D01*
G75*
G02*
X73924000Y-98445000I0J51000D01*
G01*
X73924000Y-97545000D01*
G75*
G02*
X73975000Y-97494000I51000J0D01*
G01*
X75175000Y-97494000D01*
G75*
G02*
X75226000Y-97545000I0J-51000D01*
G01*
X75226000Y-98445000D01*
G75*
G02*
X75175000Y-98496000I-51000J0D01*
G01*
G37*
G36*
G01*
X82815000Y-43145615D02*
X81615000Y-43145615D01*
G75*
G02*
X81564000Y-43094615I0J51000D01*
G01*
X81564000Y-42194615D01*
G75*
G02*
X81615000Y-42143615I51000J0D01*
G01*
X82815000Y-42143615D01*
G75*
G02*
X82866000Y-42194615I0J-51000D01*
G01*
X82866000Y-43094615D01*
G75*
G02*
X82815000Y-43145615I-51000J0D01*
G01*
G37*
G36*
G01*
X82815000Y-39845615D02*
X81615000Y-39845615D01*
G75*
G02*
X81564000Y-39794615I0J51000D01*
G01*
X81564000Y-38894615D01*
G75*
G02*
X81615000Y-38843615I51000J0D01*
G01*
X82815000Y-38843615D01*
G75*
G02*
X82866000Y-38894615I0J-51000D01*
G01*
X82866000Y-39794615D01*
G75*
G02*
X82815000Y-39845615I-51000J0D01*
G01*
G37*
G36*
G01*
X88455522Y-63345367D02*
X87281745Y-63095873D01*
G75*
G02*
X87242462Y-63035384I10603J49886D01*
G01*
X87429583Y-62155052D01*
G75*
G02*
X87490072Y-62115769I49886J-10603D01*
G01*
X88663849Y-62365263D01*
G75*
G02*
X88703132Y-62425752I-10603J-49886D01*
G01*
X88516011Y-63306084D01*
G75*
G02*
X88455522Y-63345367I-49886J10603D01*
G01*
G37*
G36*
G01*
X89141630Y-60117479D02*
X87967853Y-59867985D01*
G75*
G02*
X87928570Y-59807496I10603J49886D01*
G01*
X88115691Y-58927164D01*
G75*
G02*
X88176180Y-58887881I49886J-10603D01*
G01*
X89349957Y-59137375D01*
G75*
G02*
X89389240Y-59197864I-10603J-49886D01*
G01*
X89202119Y-60078196D01*
G75*
G02*
X89141630Y-60117479I-49886J10603D01*
G01*
G37*
G36*
G01*
X89153189Y-82969260D02*
X87979412Y-82719766D01*
G75*
G02*
X87940129Y-82659277I10603J49886D01*
G01*
X88127250Y-81778945D01*
G75*
G02*
X88187739Y-81739662I49886J-10603D01*
G01*
X89361516Y-81989156D01*
G75*
G02*
X89400799Y-82049645I-10603J-49886D01*
G01*
X89213678Y-82929977D01*
G75*
G02*
X89153189Y-82969260I-49886J10603D01*
G01*
G37*
G36*
G01*
X89839297Y-79741372D02*
X88665520Y-79491878D01*
G75*
G02*
X88626237Y-79431389I10603J49886D01*
G01*
X88813358Y-78551057D01*
G75*
G02*
X88873847Y-78511774I49886J-10603D01*
G01*
X90047624Y-78761268D01*
G75*
G02*
X90086907Y-78821757I-10603J-49886D01*
G01*
X89899786Y-79702089D01*
G75*
G02*
X89839297Y-79741372I-49886J10603D01*
G01*
G37*
G36*
G01*
X94509271Y-103583329D02*
X93335494Y-103333835D01*
G75*
G02*
X93296211Y-103273346I10603J49886D01*
G01*
X93483332Y-102393014D01*
G75*
G02*
X93543821Y-102353731I49886J-10603D01*
G01*
X94717598Y-102603225D01*
G75*
G02*
X94756881Y-102663714I-10603J-49886D01*
G01*
X94569760Y-103544046D01*
G75*
G02*
X94509271Y-103583329I-49886J10603D01*
G01*
G37*
G36*
G01*
X95195379Y-100355441D02*
X94021602Y-100105947D01*
G75*
G02*
X93982319Y-100045458I10603J49886D01*
G01*
X94169440Y-99165126D01*
G75*
G02*
X94229929Y-99125843I49886J-10603D01*
G01*
X95403706Y-99375337D01*
G75*
G02*
X95442989Y-99435826I-10603J-49886D01*
G01*
X95255868Y-100316158D01*
G75*
G02*
X95195379Y-100355441I-49886J10603D01*
G01*
G37*
G36*
G01*
X95206972Y-123207217D02*
X94033195Y-122957723D01*
G75*
G02*
X93993912Y-122897234I10603J49886D01*
G01*
X94181033Y-122016902D01*
G75*
G02*
X94241522Y-121977619I49886J-10603D01*
G01*
X95415299Y-122227113D01*
G75*
G02*
X95454582Y-122287602I-10603J-49886D01*
G01*
X95267461Y-123167934D01*
G75*
G02*
X95206972Y-123207217I-49886J10603D01*
G01*
G37*
G36*
G01*
X95893080Y-119979329D02*
X94719303Y-119729835D01*
G75*
G02*
X94680020Y-119669346I10603J49886D01*
G01*
X94867141Y-118789014D01*
G75*
G02*
X94927630Y-118749731I49886J-10603D01*
G01*
X96101407Y-118999225D01*
G75*
G02*
X96140690Y-119059714I-10603J-49886D01*
G01*
X95953569Y-119940046D01*
G75*
G02*
X95893080Y-119979329I-49886J10603D01*
G01*
G37*
G36*
G01*
X101733180Y-46692024D02*
X100559403Y-46442530D01*
G75*
G02*
X100520120Y-46382041I10603J49886D01*
G01*
X100707241Y-45501709D01*
G75*
G02*
X100767730Y-45462426I49886J-10603D01*
G01*
X101941507Y-45711920D01*
G75*
G02*
X101980790Y-45772409I-10603J-49886D01*
G01*
X101793669Y-46652741D01*
G75*
G02*
X101733180Y-46692024I-49886J10603D01*
G01*
G37*
G36*
G01*
X102419288Y-43464136D02*
X101245511Y-43214642D01*
G75*
G02*
X101206228Y-43154153I10603J49886D01*
G01*
X101393349Y-42273821D01*
G75*
G02*
X101453838Y-42234538I49886J-10603D01*
G01*
X102627615Y-42484032D01*
G75*
G02*
X102666898Y-42544521I-10603J-49886D01*
G01*
X102479777Y-43424853D01*
G75*
G02*
X102419288Y-43464136I-49886J10603D01*
G01*
G37*
G36*
G01*
X107089232Y-67306093D02*
X105915455Y-67056599D01*
G75*
G02*
X105876172Y-66996110I10603J49886D01*
G01*
X106063293Y-66115778D01*
G75*
G02*
X106123782Y-66076495I49886J-10603D01*
G01*
X107297559Y-66325989D01*
G75*
G02*
X107336842Y-66386478I-10603J-49886D01*
G01*
X107149721Y-67266810D01*
G75*
G02*
X107089232Y-67306093I-49886J10603D01*
G01*
G37*
G36*
G01*
X107775340Y-64078205D02*
X106601563Y-63828711D01*
G75*
G02*
X106562280Y-63768222I10603J49886D01*
G01*
X106749401Y-62887890D01*
G75*
G02*
X106809890Y-62848607I49886J-10603D01*
G01*
X107983667Y-63098101D01*
G75*
G02*
X108022950Y-63158590I-10603J-49886D01*
G01*
X107835829Y-64038922D01*
G75*
G02*
X107775340Y-64078205I-49886J10603D01*
G01*
G37*
G36*
G01*
X107786899Y-86929987D02*
X106613122Y-86680493D01*
G75*
G02*
X106573839Y-86620004I10603J49886D01*
G01*
X106760960Y-85739672D01*
G75*
G02*
X106821449Y-85700389I49886J-10603D01*
G01*
X107995226Y-85949883D01*
G75*
G02*
X108034509Y-86010372I-10603J-49886D01*
G01*
X107847388Y-86890704D01*
G75*
G02*
X107786899Y-86929987I-49886J10603D01*
G01*
G37*
G36*
G01*
X108473007Y-83702099D02*
X107299230Y-83452605D01*
G75*
G02*
X107259947Y-83392116I10603J49886D01*
G01*
X107447068Y-82511784D01*
G75*
G02*
X107507557Y-82472501I49886J-10603D01*
G01*
X108681334Y-82721995D01*
G75*
G02*
X108720617Y-82782484I-10603J-49886D01*
G01*
X108533496Y-83662816D01*
G75*
G02*
X108473007Y-83702099I-49886J10603D01*
G01*
G37*
G36*
G01*
X113142981Y-107544055D02*
X111969204Y-107294561D01*
G75*
G02*
X111929921Y-107234072I10603J49886D01*
G01*
X112117042Y-106353740D01*
G75*
G02*
X112177531Y-106314457I49886J-10603D01*
G01*
X113351308Y-106563951D01*
G75*
G02*
X113390591Y-106624440I-10603J-49886D01*
G01*
X113203470Y-107504772D01*
G75*
G02*
X113142981Y-107544055I-49886J10603D01*
G01*
G37*
G36*
G01*
X113829089Y-104316167D02*
X112655312Y-104066673D01*
G75*
G02*
X112616029Y-104006184I10603J49886D01*
G01*
X112803150Y-103125852D01*
G75*
G02*
X112863639Y-103086569I49886J-10603D01*
G01*
X114037416Y-103336063D01*
G75*
G02*
X114076699Y-103396552I-10603J-49886D01*
G01*
X113889578Y-104276884D01*
G75*
G02*
X113829089Y-104316167I-49886J10603D01*
G01*
G37*
G36*
G01*
X120366891Y-50652742D02*
X119193114Y-50403248D01*
G75*
G02*
X119153831Y-50342759I10603J49886D01*
G01*
X119340952Y-49462427D01*
G75*
G02*
X119401441Y-49423144I49886J-10603D01*
G01*
X120575218Y-49672638D01*
G75*
G02*
X120614501Y-49733127I-10603J-49886D01*
G01*
X120427380Y-50613459D01*
G75*
G02*
X120366891Y-50652742I-49886J10603D01*
G01*
G37*
G36*
G01*
X121052999Y-47424854D02*
X119879222Y-47175360D01*
G75*
G02*
X119839939Y-47114871I10603J49886D01*
G01*
X120027060Y-46234539D01*
G75*
G02*
X120087549Y-46195256I49886J-10603D01*
G01*
X121261326Y-46444750D01*
G75*
G02*
X121300609Y-46505239I-10603J-49886D01*
G01*
X121113488Y-47385571D01*
G75*
G02*
X121052999Y-47424854I-49886J10603D01*
G01*
G37*
G36*
G01*
X125722942Y-71266820D02*
X124549165Y-71017326D01*
G75*
G02*
X124509882Y-70956837I10603J49886D01*
G01*
X124697003Y-70076505D01*
G75*
G02*
X124757492Y-70037222I49886J-10603D01*
G01*
X125931269Y-70286716D01*
G75*
G02*
X125970552Y-70347205I-10603J-49886D01*
G01*
X125783431Y-71227537D01*
G75*
G02*
X125722942Y-71266820I-49886J10603D01*
G01*
G37*
G36*
G01*
X126409050Y-68038932D02*
X125235273Y-67789438D01*
G75*
G02*
X125195990Y-67728949I10603J49886D01*
G01*
X125383111Y-66848617D01*
G75*
G02*
X125443600Y-66809334I49886J-10603D01*
G01*
X126617377Y-67058828D01*
G75*
G02*
X126656660Y-67119317I-10603J-49886D01*
G01*
X126469539Y-67999649D01*
G75*
G02*
X126409050Y-68038932I-49886J10603D01*
G01*
G37*
G36*
G01*
X126420609Y-90890714D02*
X125246832Y-90641220D01*
G75*
G02*
X125207549Y-90580731I10603J49886D01*
G01*
X125394670Y-89700399D01*
G75*
G02*
X125455159Y-89661116I49886J-10603D01*
G01*
X126628936Y-89910610D01*
G75*
G02*
X126668219Y-89971099I-10603J-49886D01*
G01*
X126481098Y-90851431D01*
G75*
G02*
X126420609Y-90890714I-49886J10603D01*
G01*
G37*
G36*
G01*
X127106717Y-87662826D02*
X125932940Y-87413332D01*
G75*
G02*
X125893657Y-87352843I10603J49886D01*
G01*
X126080778Y-86472511D01*
G75*
G02*
X126141267Y-86433228I49886J-10603D01*
G01*
X127315044Y-86682722D01*
G75*
G02*
X127354327Y-86743211I-10603J-49886D01*
G01*
X127167206Y-87623543D01*
G75*
G02*
X127106717Y-87662826I-49886J10603D01*
G01*
G37*
G36*
G01*
X131776690Y-111504782D02*
X130602913Y-111255288D01*
G75*
G02*
X130563630Y-111194799I10603J49886D01*
G01*
X130750751Y-110314467D01*
G75*
G02*
X130811240Y-110275184I49886J-10603D01*
G01*
X131985017Y-110524678D01*
G75*
G02*
X132024300Y-110585167I-10603J-49886D01*
G01*
X131837179Y-111465499D01*
G75*
G02*
X131776690Y-111504782I-49886J10603D01*
G01*
G37*
G36*
G01*
X132462798Y-108276894D02*
X131289021Y-108027400D01*
G75*
G02*
X131249738Y-107966911I10603J49886D01*
G01*
X131436859Y-107086579D01*
G75*
G02*
X131497348Y-107047296I49886J-10603D01*
G01*
X132671125Y-107296790D01*
G75*
G02*
X132710408Y-107357279I-10603J-49886D01*
G01*
X132523287Y-108237611D01*
G75*
G02*
X132462798Y-108276894I-49886J10603D01*
G01*
G37*
G36*
G01*
X127815964Y-130138492D02*
X126642187Y-129888998D01*
G75*
G02*
X126602904Y-129828509I10603J49886D01*
G01*
X126790025Y-128948177D01*
G75*
G02*
X126850514Y-128908894I49886J-10603D01*
G01*
X128024291Y-129158388D01*
G75*
G02*
X128063574Y-129218877I-10603J-49886D01*
G01*
X127876453Y-130099209D01*
G75*
G02*
X127815964Y-130138492I-49886J10603D01*
G01*
G37*
G36*
G01*
X128502072Y-126910604D02*
X127328295Y-126661110D01*
G75*
G02*
X127289012Y-126600621I10603J49886D01*
G01*
X127476133Y-125720289D01*
G75*
G02*
X127536622Y-125681006I49886J-10603D01*
G01*
X128710399Y-125930500D01*
G75*
G02*
X128749682Y-125990989I-10603J-49886D01*
G01*
X128562561Y-126871321D01*
G75*
G02*
X128502072Y-126910604I-49886J10603D01*
G01*
G37*
G36*
G01*
X139000603Y-54613460D02*
X137826826Y-54363966D01*
G75*
G02*
X137787543Y-54303477I10603J49886D01*
G01*
X137974664Y-53423145D01*
G75*
G02*
X138035153Y-53383862I49886J-10603D01*
G01*
X139208930Y-53633356D01*
G75*
G02*
X139248213Y-53693845I-10603J-49886D01*
G01*
X139061092Y-54574177D01*
G75*
G02*
X139000603Y-54613460I-49886J10603D01*
G01*
G37*
G36*
G01*
X139686711Y-51385572D02*
X138512934Y-51136078D01*
G75*
G02*
X138473651Y-51075589I10603J49886D01*
G01*
X138660772Y-50195257D01*
G75*
G02*
X138721261Y-50155974I49886J-10603D01*
G01*
X139895038Y-50405468D01*
G75*
G02*
X139934321Y-50465957I-10603J-49886D01*
G01*
X139747200Y-51346289D01*
G75*
G02*
X139686711Y-51385572I-49886J10603D01*
G01*
G37*
G36*
G01*
X144356652Y-75227547D02*
X143182875Y-74978053D01*
G75*
G02*
X143143592Y-74917564I10603J49886D01*
G01*
X143330713Y-74037232D01*
G75*
G02*
X143391202Y-73997949I49886J-10603D01*
G01*
X144564979Y-74247443D01*
G75*
G02*
X144604262Y-74307932I-10603J-49886D01*
G01*
X144417141Y-75188264D01*
G75*
G02*
X144356652Y-75227547I-49886J10603D01*
G01*
G37*
G36*
G01*
X145042760Y-71999659D02*
X143868983Y-71750165D01*
G75*
G02*
X143829700Y-71689676I10603J49886D01*
G01*
X144016821Y-70809344D01*
G75*
G02*
X144077310Y-70770061I49886J-10603D01*
G01*
X145251087Y-71019555D01*
G75*
G02*
X145290370Y-71080044I-10603J-49886D01*
G01*
X145103249Y-71960376D01*
G75*
G02*
X145042760Y-71999659I-49886J10603D01*
G01*
G37*
G36*
G01*
X145054319Y-94851441D02*
X143880542Y-94601947D01*
G75*
G02*
X143841259Y-94541458I10603J49886D01*
G01*
X144028380Y-93661126D01*
G75*
G02*
X144088869Y-93621843I49886J-10603D01*
G01*
X145262646Y-93871337D01*
G75*
G02*
X145301929Y-93931826I-10603J-49886D01*
G01*
X145114808Y-94812158D01*
G75*
G02*
X145054319Y-94851441I-49886J10603D01*
G01*
G37*
G36*
G01*
X145740427Y-91623553D02*
X144566650Y-91374059D01*
G75*
G02*
X144527367Y-91313570I10603J49886D01*
G01*
X144714488Y-90433238D01*
G75*
G02*
X144774977Y-90393955I49886J-10603D01*
G01*
X145948754Y-90643449D01*
G75*
G02*
X145988037Y-90703938I-10603J-49886D01*
G01*
X145800916Y-91584270D01*
G75*
G02*
X145740427Y-91623553I-49886J10603D01*
G01*
G37*
G36*
G01*
X150410400Y-115465509D02*
X149236623Y-115216015D01*
G75*
G02*
X149197340Y-115155526I10603J49886D01*
G01*
X149384461Y-114275194D01*
G75*
G02*
X149444950Y-114235911I49886J-10603D01*
G01*
X150618727Y-114485405D01*
G75*
G02*
X150658010Y-114545894I-10603J-49886D01*
G01*
X150470889Y-115426226D01*
G75*
G02*
X150410400Y-115465509I-49886J10603D01*
G01*
G37*
G36*
G01*
X151096508Y-112237621D02*
X149922731Y-111988127D01*
G75*
G02*
X149883448Y-111927638I10603J49886D01*
G01*
X150070569Y-111047306D01*
G75*
G02*
X150131058Y-111008023I49886J-10603D01*
G01*
X151304835Y-111257517D01*
G75*
G02*
X151344118Y-111318006I-10603J-49886D01*
G01*
X151156997Y-112198338D01*
G75*
G02*
X151096508Y-112237621I-49886J10603D01*
G01*
G37*
G36*
G01*
X155766537Y-136079538D02*
X154592760Y-135830044D01*
G75*
G02*
X154553477Y-135769555I10603J49886D01*
G01*
X154740598Y-134889223D01*
G75*
G02*
X154801087Y-134849940I49886J-10603D01*
G01*
X155974864Y-135099434D01*
G75*
G02*
X156014147Y-135159923I-10603J-49886D01*
G01*
X155827026Y-136040255D01*
G75*
G02*
X155766537Y-136079538I-49886J10603D01*
G01*
G37*
G36*
G01*
X156452645Y-132851650D02*
X155278868Y-132602156D01*
G75*
G02*
X155239585Y-132541667I10603J49886D01*
G01*
X155426706Y-131661335D01*
G75*
G02*
X155487195Y-131622052I49886J-10603D01*
G01*
X156660972Y-131871546D01*
G75*
G02*
X156700255Y-131932035I-10603J-49886D01*
G01*
X156513134Y-132812367D01*
G75*
G02*
X156452645Y-132851650I-49886J10603D01*
G01*
G37*
G36*
G01*
X157634315Y-58574177D02*
X156460538Y-58324683D01*
G75*
G02*
X156421255Y-58264194I10603J49886D01*
G01*
X156608376Y-57383862D01*
G75*
G02*
X156668865Y-57344579I49886J-10603D01*
G01*
X157842642Y-57594073D01*
G75*
G02*
X157881925Y-57654562I-10603J-49886D01*
G01*
X157694804Y-58534894D01*
G75*
G02*
X157634315Y-58574177I-49886J10603D01*
G01*
G37*
G36*
G01*
X158320423Y-55346289D02*
X157146646Y-55096795D01*
G75*
G02*
X157107363Y-55036306I10603J49886D01*
G01*
X157294484Y-54155974D01*
G75*
G02*
X157354973Y-54116691I49886J-10603D01*
G01*
X158528750Y-54366185D01*
G75*
G02*
X158568033Y-54426674I-10603J-49886D01*
G01*
X158380912Y-55307006D01*
G75*
G02*
X158320423Y-55346289I-49886J10603D01*
G01*
G37*
G36*
G01*
X182897529Y-80278776D02*
X181723752Y-80528270D01*
G75*
G02*
X181663263Y-80488987I-10603J49886D01*
G01*
X181476142Y-79608655D01*
G75*
G02*
X181515425Y-79548166I49886J10603D01*
G01*
X182689202Y-79298672D01*
G75*
G02*
X182749691Y-79337955I10603J-49886D01*
G01*
X182936812Y-80218287D01*
G75*
G02*
X182897529Y-80278776I-49886J-10603D01*
G01*
G37*
G36*
G01*
X182211421Y-77050888D02*
X181037644Y-77300382D01*
G75*
G02*
X180977155Y-77261099I-10603J49886D01*
G01*
X180790034Y-76380767D01*
G75*
G02*
X180829317Y-76320278I49886J10603D01*
G01*
X182003094Y-76070784D01*
G75*
G02*
X182063583Y-76110067I10603J-49886D01*
G01*
X182250704Y-76990399D01*
G75*
G02*
X182211421Y-77050888I-49886J-10603D01*
G01*
G37*
G36*
G01*
X191516650Y-97922328D02*
X190342873Y-98171822D01*
G75*
G02*
X190282384Y-98132539I-10603J49886D01*
G01*
X190095263Y-97252207D01*
G75*
G02*
X190134546Y-97191718I49886J10603D01*
G01*
X191308323Y-96942224D01*
G75*
G02*
X191368812Y-96981507I10603J-49886D01*
G01*
X191555933Y-97861839D01*
G75*
G02*
X191516650Y-97922328I-49886J-10603D01*
G01*
G37*
G36*
G01*
X190830542Y-94694440D02*
X189656765Y-94943934D01*
G75*
G02*
X189596276Y-94904651I-10603J49886D01*
G01*
X189409155Y-94024319D01*
G75*
G02*
X189448438Y-93963830I49886J10603D01*
G01*
X190622215Y-93714336D01*
G75*
G02*
X190682704Y-93753619I10603J-49886D01*
G01*
X190869825Y-94633951D01*
G75*
G02*
X190830542Y-94694440I-49886J-10603D01*
G01*
G37*
G36*
G01*
X200135771Y-115565880D02*
X198961994Y-115815374D01*
G75*
G02*
X198901505Y-115776091I-10603J49886D01*
G01*
X198714384Y-114895759D01*
G75*
G02*
X198753667Y-114835270I49886J10603D01*
G01*
X199927444Y-114585776D01*
G75*
G02*
X199987933Y-114625059I10603J-49886D01*
G01*
X200175054Y-115505391D01*
G75*
G02*
X200135771Y-115565880I-49886J-10603D01*
G01*
G37*
G36*
G01*
X199449663Y-112337992D02*
X198275886Y-112587486D01*
G75*
G02*
X198215397Y-112548203I-10603J49886D01*
G01*
X198028276Y-111667871D01*
G75*
G02*
X198067559Y-111607382I49886J10603D01*
G01*
X199241336Y-111357888D01*
G75*
G02*
X199301825Y-111397171I10603J-49886D01*
G01*
X199488946Y-112277503D01*
G75*
G02*
X199449663Y-112337992I-49886J-10603D01*
G01*
G37*
G36*
G01*
X188253756Y-59664677D02*
X187079979Y-59914171D01*
G75*
G02*
X187019490Y-59874888I-10603J49886D01*
G01*
X186832369Y-58994556D01*
G75*
G02*
X186871652Y-58934067I49886J10603D01*
G01*
X188045429Y-58684573D01*
G75*
G02*
X188105918Y-58723856I10603J-49886D01*
G01*
X188293039Y-59604188D01*
G75*
G02*
X188253756Y-59664677I-49886J-10603D01*
G01*
G37*
G36*
G01*
X187567648Y-56436789D02*
X186393871Y-56686283D01*
G75*
G02*
X186333382Y-56647000I-10603J49886D01*
G01*
X186146261Y-55766668D01*
G75*
G02*
X186185544Y-55706179I49886J10603D01*
G01*
X187359321Y-55456685D01*
G75*
G02*
X187419810Y-55495968I10603J-49886D01*
G01*
X187606931Y-56376300D01*
G75*
G02*
X187567648Y-56436789I-49886J-10603D01*
G01*
G37*
G36*
G01*
X201531240Y-76318058D02*
X200357463Y-76567552D01*
G75*
G02*
X200296974Y-76528269I-10603J49886D01*
G01*
X200109853Y-75647937D01*
G75*
G02*
X200149136Y-75587448I49886J10603D01*
G01*
X201322913Y-75337954D01*
G75*
G02*
X201383402Y-75377237I10603J-49886D01*
G01*
X201570523Y-76257569D01*
G75*
G02*
X201531240Y-76318058I-49886J-10603D01*
G01*
G37*
G36*
G01*
X200845132Y-73090170D02*
X199671355Y-73339664D01*
G75*
G02*
X199610866Y-73300381I-10603J49886D01*
G01*
X199423745Y-72420049D01*
G75*
G02*
X199463028Y-72359560I49886J10603D01*
G01*
X200636805Y-72110066D01*
G75*
G02*
X200697294Y-72149349I10603J-49886D01*
G01*
X200884415Y-73029681D01*
G75*
G02*
X200845132Y-73090170I-49886J-10603D01*
G01*
G37*
G36*
G01*
X210150361Y-93961610D02*
X208976584Y-94211104D01*
G75*
G02*
X208916095Y-94171821I-10603J49886D01*
G01*
X208728974Y-93291489D01*
G75*
G02*
X208768257Y-93231000I49886J10603D01*
G01*
X209942034Y-92981506D01*
G75*
G02*
X210002523Y-93020789I10603J-49886D01*
G01*
X210189644Y-93901121D01*
G75*
G02*
X210150361Y-93961610I-49886J-10603D01*
G01*
G37*
G36*
G01*
X209464253Y-90733722D02*
X208290476Y-90983216D01*
G75*
G02*
X208229987Y-90943933I-10603J49886D01*
G01*
X208042866Y-90063601D01*
G75*
G02*
X208082149Y-90003112I49886J10603D01*
G01*
X209255926Y-89753618D01*
G75*
G02*
X209316415Y-89792901I10603J-49886D01*
G01*
X209503536Y-90673233D01*
G75*
G02*
X209464253Y-90733722I-49886J-10603D01*
G01*
G37*
G36*
G01*
X218769483Y-111605162D02*
X217595706Y-111854656D01*
G75*
G02*
X217535217Y-111815373I-10603J49886D01*
G01*
X217348096Y-110935041D01*
G75*
G02*
X217387379Y-110874552I49886J10603D01*
G01*
X218561156Y-110625058D01*
G75*
G02*
X218621645Y-110664341I10603J-49886D01*
G01*
X218808766Y-111544673D01*
G75*
G02*
X218769483Y-111605162I-49886J-10603D01*
G01*
G37*
G36*
G01*
X218083375Y-108377274D02*
X216909598Y-108626768D01*
G75*
G02*
X216849109Y-108587485I-10603J49886D01*
G01*
X216661988Y-107707153D01*
G75*
G02*
X216701271Y-107646664I49886J10603D01*
G01*
X217875048Y-107397170D01*
G75*
G02*
X217935537Y-107436453I10603J-49886D01*
G01*
X218122658Y-108316785D01*
G75*
G02*
X218083375Y-108377274I-49886J-10603D01*
G01*
G37*
G36*
G01*
X211084172Y-132714287D02*
X209910395Y-132963781D01*
G75*
G02*
X209849906Y-132924498I-10603J49886D01*
G01*
X209662785Y-132044166D01*
G75*
G02*
X209702068Y-131983677I49886J10603D01*
G01*
X210875845Y-131734183D01*
G75*
G02*
X210936334Y-131773466I10603J-49886D01*
G01*
X211123455Y-132653798D01*
G75*
G02*
X211084172Y-132714287I-49886J-10603D01*
G01*
G37*
G36*
G01*
X210398064Y-129486399D02*
X209224287Y-129735893D01*
G75*
G02*
X209163798Y-129696610I-10603J49886D01*
G01*
X208976677Y-128816278D01*
G75*
G02*
X209015960Y-128755789I49886J10603D01*
G01*
X210189737Y-128506295D01*
G75*
G02*
X210250226Y-128545578I10603J-49886D01*
G01*
X210437347Y-129425910D01*
G75*
G02*
X210398064Y-129486399I-49886J-10603D01*
G01*
G37*
G36*
G01*
X206887468Y-55703959D02*
X205713691Y-55953453D01*
G75*
G02*
X205653202Y-55914170I-10603J49886D01*
G01*
X205466081Y-55033838D01*
G75*
G02*
X205505364Y-54973349I49886J10603D01*
G01*
X206679141Y-54723855D01*
G75*
G02*
X206739630Y-54763138I10603J-49886D01*
G01*
X206926751Y-55643470D01*
G75*
G02*
X206887468Y-55703959I-49886J-10603D01*
G01*
G37*
G36*
G01*
X206201360Y-52476071D02*
X205027583Y-52725565D01*
G75*
G02*
X204967094Y-52686282I-10603J49886D01*
G01*
X204779973Y-51805950D01*
G75*
G02*
X204819256Y-51745461I49886J10603D01*
G01*
X205993033Y-51495967D01*
G75*
G02*
X206053522Y-51535250I10603J-49886D01*
G01*
X206240643Y-52415582D01*
G75*
G02*
X206201360Y-52476071I-49886J-10603D01*
G01*
G37*
G36*
G01*
X220164952Y-72357341D02*
X218991175Y-72606835D01*
G75*
G02*
X218930686Y-72567552I-10603J49886D01*
G01*
X218743565Y-71687220D01*
G75*
G02*
X218782848Y-71626731I49886J10603D01*
G01*
X219956625Y-71377237D01*
G75*
G02*
X220017114Y-71416520I10603J-49886D01*
G01*
X220204235Y-72296852D01*
G75*
G02*
X220164952Y-72357341I-49886J-10603D01*
G01*
G37*
G36*
G01*
X219478844Y-69129453D02*
X218305067Y-69378947D01*
G75*
G02*
X218244578Y-69339664I-10603J49886D01*
G01*
X218057457Y-68459332D01*
G75*
G02*
X218096740Y-68398843I49886J10603D01*
G01*
X219270517Y-68149349D01*
G75*
G02*
X219331006Y-68188632I10603J-49886D01*
G01*
X219518127Y-69068964D01*
G75*
G02*
X219478844Y-69129453I-49886J-10603D01*
G01*
G37*
G36*
G01*
X228784073Y-90000893D02*
X227610296Y-90250387D01*
G75*
G02*
X227549807Y-90211104I-10603J49886D01*
G01*
X227362686Y-89330772D01*
G75*
G02*
X227401969Y-89270283I49886J10603D01*
G01*
X228575746Y-89020789D01*
G75*
G02*
X228636235Y-89060072I10603J-49886D01*
G01*
X228823356Y-89940404D01*
G75*
G02*
X228784073Y-90000893I-49886J-10603D01*
G01*
G37*
G36*
G01*
X228097965Y-86773005D02*
X226924188Y-87022499D01*
G75*
G02*
X226863699Y-86983216I-10603J49886D01*
G01*
X226676578Y-86102884D01*
G75*
G02*
X226715861Y-86042395I49886J10603D01*
G01*
X227889638Y-85792901D01*
G75*
G02*
X227950127Y-85832184I10603J-49886D01*
G01*
X228137248Y-86712516D01*
G75*
G02*
X228097965Y-86773005I-49886J-10603D01*
G01*
G37*
G36*
G01*
X237403194Y-107644445D02*
X236229417Y-107893939D01*
G75*
G02*
X236168928Y-107854656I-10603J49886D01*
G01*
X235981807Y-106974324D01*
G75*
G02*
X236021090Y-106913835I49886J10603D01*
G01*
X237194867Y-106664341D01*
G75*
G02*
X237255356Y-106703624I10603J-49886D01*
G01*
X237442477Y-107583956D01*
G75*
G02*
X237403194Y-107644445I-49886J-10603D01*
G01*
G37*
G36*
G01*
X236717086Y-104416557D02*
X235543309Y-104666051D01*
G75*
G02*
X235482820Y-104626768I-10603J49886D01*
G01*
X235295699Y-103746436D01*
G75*
G02*
X235334982Y-103685947I49886J10603D01*
G01*
X236508759Y-103436453D01*
G75*
G02*
X236569248Y-103475736I10603J-49886D01*
G01*
X236756369Y-104356068D01*
G75*
G02*
X236717086Y-104416557I-49886J-10603D01*
G01*
G37*
G36*
G01*
X225521180Y-51743242D02*
X224347403Y-51992736D01*
G75*
G02*
X224286914Y-51953453I-10603J49886D01*
G01*
X224099793Y-51073121D01*
G75*
G02*
X224139076Y-51012632I49886J10603D01*
G01*
X225312853Y-50763138D01*
G75*
G02*
X225373342Y-50802421I10603J-49886D01*
G01*
X225560463Y-51682753D01*
G75*
G02*
X225521180Y-51743242I-49886J-10603D01*
G01*
G37*
G36*
G01*
X224835072Y-48515354D02*
X223661295Y-48764848D01*
G75*
G02*
X223600806Y-48725565I-10603J49886D01*
G01*
X223413685Y-47845233D01*
G75*
G02*
X223452968Y-47784744I49886J10603D01*
G01*
X224626745Y-47535250D01*
G75*
G02*
X224687234Y-47574533I10603J-49886D01*
G01*
X224874355Y-48454865D01*
G75*
G02*
X224835072Y-48515354I-49886J-10603D01*
G01*
G37*
G36*
G01*
X238798664Y-68396623D02*
X237624887Y-68646117D01*
G75*
G02*
X237564398Y-68606834I-10603J49886D01*
G01*
X237377277Y-67726502D01*
G75*
G02*
X237416560Y-67666013I49886J10603D01*
G01*
X238590337Y-67416519D01*
G75*
G02*
X238650826Y-67455802I10603J-49886D01*
G01*
X238837947Y-68336134D01*
G75*
G02*
X238798664Y-68396623I-49886J-10603D01*
G01*
G37*
G36*
G01*
X238112556Y-65168735D02*
X236938779Y-65418229D01*
G75*
G02*
X236878290Y-65378946I-10603J49886D01*
G01*
X236691169Y-64498614D01*
G75*
G02*
X236730452Y-64438125I49886J10603D01*
G01*
X237904229Y-64188631D01*
G75*
G02*
X237964718Y-64227914I10603J-49886D01*
G01*
X238151839Y-65108246D01*
G75*
G02*
X238112556Y-65168735I-49886J-10603D01*
G01*
G37*
G36*
G01*
X247417785Y-86040175D02*
X246244008Y-86289669D01*
G75*
G02*
X246183519Y-86250386I-10603J49886D01*
G01*
X245996398Y-85370054D01*
G75*
G02*
X246035681Y-85309565I49886J10603D01*
G01*
X247209458Y-85060071D01*
G75*
G02*
X247269947Y-85099354I10603J-49886D01*
G01*
X247457068Y-85979686D01*
G75*
G02*
X247417785Y-86040175I-49886J-10603D01*
G01*
G37*
G36*
G01*
X246731677Y-82812287D02*
X245557900Y-83061781D01*
G75*
G02*
X245497411Y-83022498I-10603J49886D01*
G01*
X245310290Y-82142166D01*
G75*
G02*
X245349573Y-82081677I49886J10603D01*
G01*
X246523350Y-81832183D01*
G75*
G02*
X246583839Y-81871466I10603J-49886D01*
G01*
X246770960Y-82751798D01*
G75*
G02*
X246731677Y-82812287I-49886J-10603D01*
G01*
G37*
G36*
G01*
X256036906Y-103683727D02*
X254863129Y-103933221D01*
G75*
G02*
X254802640Y-103893938I-10603J49886D01*
G01*
X254615519Y-103013606D01*
G75*
G02*
X254654802Y-102953117I49886J10603D01*
G01*
X255828579Y-102703623D01*
G75*
G02*
X255889068Y-102742906I10603J-49886D01*
G01*
X256076189Y-103623238D01*
G75*
G02*
X256036906Y-103683727I-49886J-10603D01*
G01*
G37*
G36*
G01*
X255350798Y-100455839D02*
X254177021Y-100705333D01*
G75*
G02*
X254116532Y-100666050I-10603J49886D01*
G01*
X253929411Y-99785718D01*
G75*
G02*
X253968694Y-99725229I49886J10603D01*
G01*
X255142471Y-99475735D01*
G75*
G02*
X255202960Y-99515018I10603J-49886D01*
G01*
X255390081Y-100395350D01*
G75*
G02*
X255350798Y-100455839I-49886J-10603D01*
G01*
G37*
G36*
G01*
X250680808Y-124297775D02*
X249507031Y-124547269D01*
G75*
G02*
X249446542Y-124507986I-10603J49886D01*
G01*
X249259421Y-123627654D01*
G75*
G02*
X249298704Y-123567165I49886J10603D01*
G01*
X250472481Y-123317671D01*
G75*
G02*
X250532970Y-123356954I10603J-49886D01*
G01*
X250720091Y-124237286D01*
G75*
G02*
X250680808Y-124297775I-49886J-10603D01*
G01*
G37*
G36*
G01*
X249994700Y-121069887D02*
X248820923Y-121319381D01*
G75*
G02*
X248760434Y-121280098I-10603J49886D01*
G01*
X248573313Y-120399766D01*
G75*
G02*
X248612596Y-120339277I49886J10603D01*
G01*
X249786373Y-120089783D01*
G75*
G02*
X249846862Y-120129066I10603J-49886D01*
G01*
X250033983Y-121009398D01*
G75*
G02*
X249994700Y-121069887I-49886J-10603D01*
G01*
G37*
G36*
G01*
X244154891Y-47782524D02*
X242981114Y-48032018D01*
G75*
G02*
X242920625Y-47992735I-10603J49886D01*
G01*
X242733504Y-47112403D01*
G75*
G02*
X242772787Y-47051914I49886J10603D01*
G01*
X243946564Y-46802420D01*
G75*
G02*
X244007053Y-46841703I10603J-49886D01*
G01*
X244194174Y-47722035D01*
G75*
G02*
X244154891Y-47782524I-49886J-10603D01*
G01*
G37*
G36*
G01*
X243468783Y-44554636D02*
X242295006Y-44804130D01*
G75*
G02*
X242234517Y-44764847I-10603J49886D01*
G01*
X242047396Y-43884515D01*
G75*
G02*
X242086679Y-43824026I49886J10603D01*
G01*
X243260456Y-43574532D01*
G75*
G02*
X243320945Y-43613815I10603J-49886D01*
G01*
X243508066Y-44494147D01*
G75*
G02*
X243468783Y-44554636I-49886J-10603D01*
G01*
G37*
G36*
G01*
X257432376Y-64435905D02*
X256258599Y-64685399D01*
G75*
G02*
X256198110Y-64646116I-10603J49886D01*
G01*
X256010989Y-63765784D01*
G75*
G02*
X256050272Y-63705295I49886J10603D01*
G01*
X257224049Y-63455801D01*
G75*
G02*
X257284538Y-63495084I10603J-49886D01*
G01*
X257471659Y-64375416D01*
G75*
G02*
X257432376Y-64435905I-49886J-10603D01*
G01*
G37*
G36*
G01*
X256746268Y-61208017D02*
X255572491Y-61457511D01*
G75*
G02*
X255512002Y-61418228I-10603J49886D01*
G01*
X255324881Y-60537896D01*
G75*
G02*
X255364164Y-60477407I49886J10603D01*
G01*
X256537941Y-60227913D01*
G75*
G02*
X256598430Y-60267196I10603J-49886D01*
G01*
X256785551Y-61147528D01*
G75*
G02*
X256746268Y-61208017I-49886J-10603D01*
G01*
G37*
G36*
G01*
X266625000Y-82746000D02*
X265425000Y-82746000D01*
G75*
G02*
X265374000Y-82695000I0J51000D01*
G01*
X265374000Y-81795000D01*
G75*
G02*
X265425000Y-81744000I51000J0D01*
G01*
X266625000Y-81744000D01*
G75*
G02*
X266676000Y-81795000I0J-51000D01*
G01*
X266676000Y-82695000D01*
G75*
G02*
X266625000Y-82746000I-51000J0D01*
G01*
G37*
G36*
G01*
X266625000Y-79446000D02*
X265425000Y-79446000D01*
G75*
G02*
X265374000Y-79395000I0J51000D01*
G01*
X265374000Y-78495000D01*
G75*
G02*
X265425000Y-78444000I51000J0D01*
G01*
X266625000Y-78444000D01*
G75*
G02*
X266676000Y-78495000I0J-51000D01*
G01*
X266676000Y-79395000D01*
G75*
G02*
X266625000Y-79446000I-51000J0D01*
G01*
G37*
G36*
G01*
X276150019Y-101795998D02*
X274950019Y-101795998D01*
G75*
G02*
X274899019Y-101744998I0J51000D01*
G01*
X274899019Y-100844998D01*
G75*
G02*
X274950019Y-100793998I51000J0D01*
G01*
X276150019Y-100793998D01*
G75*
G02*
X276201019Y-100844998I0J-51000D01*
G01*
X276201019Y-101744998D01*
G75*
G02*
X276150019Y-101795998I-51000J0D01*
G01*
G37*
G36*
G01*
X276150019Y-98495998D02*
X274950019Y-98495998D01*
G75*
G02*
X274899019Y-98444998I0J51000D01*
G01*
X274899019Y-97544998D01*
G75*
G02*
X274950019Y-97493998I51000J0D01*
G01*
X276150019Y-97493998D01*
G75*
G02*
X276201019Y-97544998I0J-51000D01*
G01*
X276201019Y-98444998D01*
G75*
G02*
X276150019Y-98495998I-51000J0D01*
G01*
G37*
G36*
G01*
X262945000Y-43145615D02*
X261745000Y-43145615D01*
G75*
G02*
X261694000Y-43094615I0J51000D01*
G01*
X261694000Y-42194615D01*
G75*
G02*
X261745000Y-42143615I51000J0D01*
G01*
X262945000Y-42143615D01*
G75*
G02*
X262996000Y-42194615I0J-51000D01*
G01*
X262996000Y-43094615D01*
G75*
G02*
X262945000Y-43145615I-51000J0D01*
G01*
G37*
G36*
G01*
X262945000Y-39845615D02*
X261745000Y-39845615D01*
G75*
G02*
X261694000Y-39794615I0J51000D01*
G01*
X261694000Y-38894615D01*
G75*
G02*
X261745000Y-38843615I51000J0D01*
G01*
X262945000Y-38843615D01*
G75*
G02*
X262996000Y-38894615I0J-51000D01*
G01*
X262996000Y-39794615D01*
G75*
G02*
X262945000Y-39845615I-51000J0D01*
G01*
G37*
G36*
G01*
X276635000Y-63696000D02*
X275435000Y-63696000D01*
G75*
G02*
X275384000Y-63645000I0J51000D01*
G01*
X275384000Y-62745000D01*
G75*
G02*
X275435000Y-62694000I51000J0D01*
G01*
X276635000Y-62694000D01*
G75*
G02*
X276686000Y-62745000I0J-51000D01*
G01*
X276686000Y-63645000D01*
G75*
G02*
X276635000Y-63696000I-51000J0D01*
G01*
G37*
G36*
G01*
X276635000Y-60396000D02*
X275435000Y-60396000D01*
G75*
G02*
X275384000Y-60345000I0J51000D01*
G01*
X275384000Y-59445000D01*
G75*
G02*
X275435000Y-59394000I51000J0D01*
G01*
X276635000Y-59394000D01*
G75*
G02*
X276686000Y-59445000I0J-51000D01*
G01*
X276686000Y-60345000D01*
G75*
G02*
X276635000Y-60396000I-51000J0D01*
G01*
G37*
G36*
G01*
X285675000Y-82746000D02*
X284475000Y-82746000D01*
G75*
G02*
X284424000Y-82695000I0J51000D01*
G01*
X284424000Y-81795000D01*
G75*
G02*
X284475000Y-81744000I51000J0D01*
G01*
X285675000Y-81744000D01*
G75*
G02*
X285726000Y-81795000I0J-51000D01*
G01*
X285726000Y-82695000D01*
G75*
G02*
X285675000Y-82746000I-51000J0D01*
G01*
G37*
G36*
G01*
X285675000Y-79446000D02*
X284475000Y-79446000D01*
G75*
G02*
X284424000Y-79395000I0J51000D01*
G01*
X284424000Y-78495000D01*
G75*
G02*
X284475000Y-78444000I51000J0D01*
G01*
X285675000Y-78444000D01*
G75*
G02*
X285726000Y-78495000I0J-51000D01*
G01*
X285726000Y-79395000D01*
G75*
G02*
X285675000Y-79446000I-51000J0D01*
G01*
G37*
G36*
G01*
X302343769Y-101795998D02*
X301143769Y-101795998D01*
G75*
G02*
X301092769Y-101744998I0J51000D01*
G01*
X301092769Y-100844998D01*
G75*
G02*
X301143769Y-100793998I51000J0D01*
G01*
X302343769Y-100793998D01*
G75*
G02*
X302394769Y-100844998I0J-51000D01*
G01*
X302394769Y-101744998D01*
G75*
G02*
X302343769Y-101795998I-51000J0D01*
G01*
G37*
G36*
G01*
X302343769Y-98495998D02*
X301143769Y-98495998D01*
G75*
G02*
X301092769Y-98444998I0J51000D01*
G01*
X301092769Y-97544998D01*
G75*
G02*
X301143769Y-97493998I51000J0D01*
G01*
X302343769Y-97493998D01*
G75*
G02*
X302394769Y-97544998I0J-51000D01*
G01*
X302394769Y-98444998D01*
G75*
G02*
X302343769Y-98495998I-51000J0D01*
G01*
G37*
G36*
G01*
X281995000Y-44646000D02*
X280795000Y-44646000D01*
G75*
G02*
X280744000Y-44595000I0J51000D01*
G01*
X280744000Y-43695000D01*
G75*
G02*
X280795000Y-43644000I51000J0D01*
G01*
X281995000Y-43644000D01*
G75*
G02*
X282046000Y-43695000I0J-51000D01*
G01*
X282046000Y-44595000D01*
G75*
G02*
X281995000Y-44646000I-51000J0D01*
G01*
G37*
G36*
G01*
X281995000Y-41346000D02*
X280795000Y-41346000D01*
G75*
G02*
X280744000Y-41295000I0J51000D01*
G01*
X280744000Y-40395000D01*
G75*
G02*
X280795000Y-40344000I51000J0D01*
G01*
X281995000Y-40344000D01*
G75*
G02*
X282046000Y-40395000I0J-51000D01*
G01*
X282046000Y-41295000D01*
G75*
G02*
X281995000Y-41346000I-51000J0D01*
G01*
G37*
G36*
G01*
X295685000Y-63696000D02*
X294485000Y-63696000D01*
G75*
G02*
X294434000Y-63645000I0J51000D01*
G01*
X294434000Y-62745000D01*
G75*
G02*
X294485000Y-62694000I51000J0D01*
G01*
X295685000Y-62694000D01*
G75*
G02*
X295736000Y-62745000I0J-51000D01*
G01*
X295736000Y-63645000D01*
G75*
G02*
X295685000Y-63696000I-51000J0D01*
G01*
G37*
G36*
G01*
X295685000Y-60396000D02*
X294485000Y-60396000D01*
G75*
G02*
X294434000Y-60345000I0J51000D01*
G01*
X294434000Y-59445000D01*
G75*
G02*
X294485000Y-59394000I51000J0D01*
G01*
X295685000Y-59394000D01*
G75*
G02*
X295736000Y-59445000I0J-51000D01*
G01*
X295736000Y-60345000D01*
G75*
G02*
X295685000Y-60396000I-51000J0D01*
G01*
G37*
G36*
G01*
X316631250Y-82746000D02*
X315431250Y-82746000D01*
G75*
G02*
X315380250Y-82695000I0J51000D01*
G01*
X315380250Y-81795000D01*
G75*
G02*
X315431250Y-81744000I51000J0D01*
G01*
X316631250Y-81744000D01*
G75*
G02*
X316682250Y-81795000I0J-51000D01*
G01*
X316682250Y-82695000D01*
G75*
G02*
X316631250Y-82746000I-51000J0D01*
G01*
G37*
G36*
G01*
X316631250Y-79446000D02*
X315431250Y-79446000D01*
G75*
G02*
X315380250Y-79395000I0J51000D01*
G01*
X315380250Y-78495000D01*
G75*
G02*
X315431250Y-78444000I51000J0D01*
G01*
X316631250Y-78444000D01*
G75*
G02*
X316682250Y-78495000I0J-51000D01*
G01*
X316682250Y-79395000D01*
G75*
G02*
X316631250Y-79446000I-51000J0D01*
G01*
G37*
G36*
G01*
X314249949Y-125608503D02*
X313049949Y-125608503D01*
G75*
G02*
X312998949Y-125557503I0J51000D01*
G01*
X312998949Y-124657503D01*
G75*
G02*
X313049949Y-124606503I51000J0D01*
G01*
X314249949Y-124606503D01*
G75*
G02*
X314300949Y-124657503I0J-51000D01*
G01*
X314300949Y-125557503D01*
G75*
G02*
X314249949Y-125608503I-51000J0D01*
G01*
G37*
G36*
G01*
X314249949Y-122308503D02*
X313049949Y-122308503D01*
G75*
G02*
X312998949Y-122257503I0J51000D01*
G01*
X312998949Y-121357503D01*
G75*
G02*
X313049949Y-121306503I51000J0D01*
G01*
X314249949Y-121306503D01*
G75*
G02*
X314300949Y-121357503I0J-51000D01*
G01*
X314300949Y-122257503D01*
G75*
G02*
X314249949Y-122308503I-51000J0D01*
G01*
G37*
G36*
G01*
X301045000Y-44646000D02*
X299845000Y-44646000D01*
G75*
G02*
X299794000Y-44595000I0J51000D01*
G01*
X299794000Y-43695000D01*
G75*
G02*
X299845000Y-43644000I51000J0D01*
G01*
X301045000Y-43644000D01*
G75*
G02*
X301096000Y-43695000I0J-51000D01*
G01*
X301096000Y-44595000D01*
G75*
G02*
X301045000Y-44646000I-51000J0D01*
G01*
G37*
G36*
G01*
X301045000Y-41346000D02*
X299845000Y-41346000D01*
G75*
G02*
X299794000Y-41295000I0J51000D01*
G01*
X299794000Y-40395000D01*
G75*
G02*
X299845000Y-40344000I51000J0D01*
G01*
X301045000Y-40344000D01*
G75*
G02*
X301096000Y-40395000I0J-51000D01*
G01*
X301096000Y-41295000D01*
G75*
G02*
X301045000Y-41346000I-51000J0D01*
G01*
G37*
G36*
G01*
X319505000Y-63696000D02*
X318305000Y-63696000D01*
G75*
G02*
X318254000Y-63645000I0J51000D01*
G01*
X318254000Y-62745000D01*
G75*
G02*
X318305000Y-62694000I51000J0D01*
G01*
X319505000Y-62694000D01*
G75*
G02*
X319556000Y-62745000I0J-51000D01*
G01*
X319556000Y-63645000D01*
G75*
G02*
X319505000Y-63696000I-51000J0D01*
G01*
G37*
G36*
G01*
X319505000Y-60396000D02*
X318305000Y-60396000D01*
G75*
G02*
X318254000Y-60345000I0J51000D01*
G01*
X318254000Y-59445000D01*
G75*
G02*
X318305000Y-59394000I51000J0D01*
G01*
X319505000Y-59394000D01*
G75*
G02*
X319556000Y-59445000I0J-51000D01*
G01*
X319556000Y-60345000D01*
G75*
G02*
X319505000Y-60396000I-51000J0D01*
G01*
G37*
G36*
G01*
X333299949Y-106558503D02*
X332099949Y-106558503D01*
G75*
G02*
X332048949Y-106507503I0J51000D01*
G01*
X332048949Y-105607503D01*
G75*
G02*
X332099949Y-105556503I51000J0D01*
G01*
X333299949Y-105556503D01*
G75*
G02*
X333350949Y-105607503I0J-51000D01*
G01*
X333350949Y-106507503D01*
G75*
G02*
X333299949Y-106558503I-51000J0D01*
G01*
G37*
G36*
G01*
X333299949Y-103258503D02*
X332099949Y-103258503D01*
G75*
G02*
X332048949Y-103207503I0J51000D01*
G01*
X332048949Y-102307503D01*
G75*
G02*
X332099949Y-102256503I51000J0D01*
G01*
X333299949Y-102256503D01*
G75*
G02*
X333350949Y-102307503I0J-51000D01*
G01*
X333350949Y-103207503D01*
G75*
G02*
X333299949Y-103258503I-51000J0D01*
G01*
G37*
G36*
G01*
X333299949Y-125608503D02*
X332099949Y-125608503D01*
G75*
G02*
X332048949Y-125557503I0J51000D01*
G01*
X332048949Y-124657503D01*
G75*
G02*
X332099949Y-124606503I51000J0D01*
G01*
X333299949Y-124606503D01*
G75*
G02*
X333350949Y-124657503I0J-51000D01*
G01*
X333350949Y-125557503D01*
G75*
G02*
X333299949Y-125608503I-51000J0D01*
G01*
G37*
G36*
G01*
X333299949Y-122308503D02*
X332099949Y-122308503D01*
G75*
G02*
X332048949Y-122257503I0J51000D01*
G01*
X332048949Y-121357503D01*
G75*
G02*
X332099949Y-121306503I51000J0D01*
G01*
X333299949Y-121306503D01*
G75*
G02*
X333350949Y-121357503I0J-51000D01*
G01*
X333350949Y-122257503D01*
G75*
G02*
X333299949Y-122308503I-51000J0D01*
G01*
G37*
G36*
G01*
X320095000Y-44646000D02*
X318895000Y-44646000D01*
G75*
G02*
X318844000Y-44595000I0J51000D01*
G01*
X318844000Y-43695000D01*
G75*
G02*
X318895000Y-43644000I51000J0D01*
G01*
X320095000Y-43644000D01*
G75*
G02*
X320146000Y-43695000I0J-51000D01*
G01*
X320146000Y-44595000D01*
G75*
G02*
X320095000Y-44646000I-51000J0D01*
G01*
G37*
G36*
G01*
X320095000Y-41346000D02*
X318895000Y-41346000D01*
G75*
G02*
X318844000Y-41295000I0J51000D01*
G01*
X318844000Y-40395000D01*
G75*
G02*
X318895000Y-40344000I51000J0D01*
G01*
X320095000Y-40344000D01*
G75*
G02*
X320146000Y-40395000I0J-51000D01*
G01*
X320146000Y-41295000D01*
G75*
G02*
X320095000Y-41346000I-51000J0D01*
G01*
G37*
G36*
G01*
X343907542Y-39883509D02*
X342707542Y-39883509D01*
G75*
G02*
X342656542Y-39832509I0J51000D01*
G01*
X342656542Y-38932509D01*
G75*
G02*
X342707542Y-38881509I51000J0D01*
G01*
X343907542Y-38881509D01*
G75*
G02*
X343958542Y-38932509I0J-51000D01*
G01*
X343958542Y-39832509D01*
G75*
G02*
X343907542Y-39883509I-51000J0D01*
G01*
G37*
G36*
G01*
X343907542Y-36583509D02*
X342707542Y-36583509D01*
G75*
G02*
X342656542Y-36532509I0J51000D01*
G01*
X342656542Y-35632509D01*
G75*
G02*
X342707542Y-35581509I51000J0D01*
G01*
X343907542Y-35581509D01*
G75*
G02*
X343958542Y-35632509I0J-51000D01*
G01*
X343958542Y-36532509D01*
G75*
G02*
X343907542Y-36583509I-51000J0D01*
G01*
G37*
G36*
G01*
X348080000Y-58933516D02*
X346880000Y-58933516D01*
G75*
G02*
X346829000Y-58882516I0J51000D01*
G01*
X346829000Y-57982516D01*
G75*
G02*
X346880000Y-57931516I51000J0D01*
G01*
X348080000Y-57931516D01*
G75*
G02*
X348131000Y-57982516I0J-51000D01*
G01*
X348131000Y-58882516D01*
G75*
G02*
X348080000Y-58933516I-51000J0D01*
G01*
G37*
G36*
G01*
X348080000Y-55633516D02*
X346880000Y-55633516D01*
G75*
G02*
X346829000Y-55582516I0J51000D01*
G01*
X346829000Y-54682516D01*
G75*
G02*
X346880000Y-54631516I51000J0D01*
G01*
X348080000Y-54631516D01*
G75*
G02*
X348131000Y-54682516I0J-51000D01*
G01*
X348131000Y-55582516D01*
G75*
G02*
X348080000Y-55633516I-51000J0D01*
G01*
G37*
G36*
G01*
X352350000Y-74601000D02*
X351150000Y-74601000D01*
G75*
G02*
X351099000Y-74550000I0J51000D01*
G01*
X351099000Y-73650000D01*
G75*
G02*
X351150000Y-73599000I51000J0D01*
G01*
X352350000Y-73599000D01*
G75*
G02*
X352401000Y-73650000I0J-51000D01*
G01*
X352401000Y-74550000D01*
G75*
G02*
X352350000Y-74601000I-51000J0D01*
G01*
G37*
G36*
G01*
X352350000Y-77901000D02*
X351150000Y-77901000D01*
G75*
G02*
X351099000Y-77850000I0J51000D01*
G01*
X351099000Y-76950000D01*
G75*
G02*
X351150000Y-76899000I51000J0D01*
G01*
X352350000Y-76899000D01*
G75*
G02*
X352401000Y-76950000I0J-51000D01*
G01*
X352401000Y-77850000D01*
G75*
G02*
X352350000Y-77901000I-51000J0D01*
G01*
G37*
G36*
G01*
X352349949Y-125608503D02*
X351149949Y-125608503D01*
G75*
G02*
X351098949Y-125557503I0J51000D01*
G01*
X351098949Y-124657503D01*
G75*
G02*
X351149949Y-124606503I51000J0D01*
G01*
X352349949Y-124606503D01*
G75*
G02*
X352400949Y-124657503I0J-51000D01*
G01*
X352400949Y-125557503D01*
G75*
G02*
X352349949Y-125608503I-51000J0D01*
G01*
G37*
G36*
G01*
X352349949Y-122308503D02*
X351149949Y-122308503D01*
G75*
G02*
X351098949Y-122257503I0J51000D01*
G01*
X351098949Y-121357503D01*
G75*
G02*
X351149949Y-121306503I51000J0D01*
G01*
X352349949Y-121306503D01*
G75*
G02*
X352400949Y-121357503I0J-51000D01*
G01*
X352400949Y-122257503D01*
G75*
G02*
X352349949Y-122308503I-51000J0D01*
G01*
G37*
G36*
G01*
X175708855Y-26958000D02*
X175708855Y-25058000D01*
G75*
G02*
X175759855Y-25007000I51000J0D01*
G01*
X177259855Y-25007000D01*
G75*
G02*
X177310855Y-25058000I0J-51000D01*
G01*
X177310855Y-26958000D01*
G75*
G02*
X177259855Y-27009000I-51000J0D01*
G01*
X175759855Y-27009000D01*
G75*
G02*
X175708855Y-26958000I0J51000D01*
G01*
G37*
D15*
X173009855Y-28708000D03*
G36*
G01*
X174608855Y-29383000D02*
X174608855Y-28033000D01*
G75*
G02*
X174659855Y-27982000I51000J0D01*
G01*
X175059855Y-27982000D01*
G75*
G02*
X175110855Y-28033000I0J-51000D01*
G01*
X175110855Y-29383000D01*
G75*
G02*
X175059855Y-29434000I-51000J0D01*
G01*
X174659855Y-29434000D01*
G75*
G02*
X174608855Y-29383000I0J51000D01*
G01*
G37*
G36*
G01*
X173958855Y-29383000D02*
X173958855Y-28033000D01*
G75*
G02*
X174009855Y-27982000I51000J0D01*
G01*
X174409855Y-27982000D01*
G75*
G02*
X174460855Y-28033000I0J-51000D01*
G01*
X174460855Y-29383000D01*
G75*
G02*
X174409855Y-29434000I-51000J0D01*
G01*
X174009855Y-29434000D01*
G75*
G02*
X173958855Y-29383000I0J51000D01*
G01*
G37*
G36*
G01*
X176558855Y-29383000D02*
X176558855Y-28033000D01*
G75*
G02*
X176609855Y-27982000I51000J0D01*
G01*
X177009855Y-27982000D01*
G75*
G02*
X177060855Y-28033000I0J-51000D01*
G01*
X177060855Y-29383000D01*
G75*
G02*
X177009855Y-29434000I-51000J0D01*
G01*
X176609855Y-29434000D01*
G75*
G02*
X176558855Y-29383000I0J51000D01*
G01*
G37*
G36*
G01*
X175908855Y-29383000D02*
X175908855Y-28033000D01*
G75*
G02*
X175959855Y-27982000I51000J0D01*
G01*
X176359855Y-27982000D01*
G75*
G02*
X176410855Y-28033000I0J-51000D01*
G01*
X176410855Y-29383000D01*
G75*
G02*
X176359855Y-29434000I-51000J0D01*
G01*
X175959855Y-29434000D01*
G75*
G02*
X175908855Y-29383000I0J51000D01*
G01*
G37*
G36*
G01*
X175258855Y-29383000D02*
X175258855Y-28033000D01*
G75*
G02*
X175309855Y-27982000I51000J0D01*
G01*
X175709855Y-27982000D01*
G75*
G02*
X175760855Y-28033000I0J-51000D01*
G01*
X175760855Y-29383000D01*
G75*
G02*
X175709855Y-29434000I-51000J0D01*
G01*
X175309855Y-29434000D01*
G75*
G02*
X175258855Y-29383000I0J51000D01*
G01*
G37*
X178009855Y-28708000D03*
G36*
G01*
X173708855Y-26958000D02*
X173708855Y-25058000D01*
G75*
G02*
X173759855Y-25007000I51000J0D01*
G01*
X175259855Y-25007000D01*
G75*
G02*
X175310855Y-25058000I0J-51000D01*
G01*
X175310855Y-26958000D01*
G75*
G02*
X175259855Y-27009000I-51000J0D01*
G01*
X173759855Y-27009000D01*
G75*
G02*
X173708855Y-26958000I0J51000D01*
G01*
G37*
D16*
X172009855Y-26008000D03*
X179009855Y-26008000D03*
G36*
G01*
X177758855Y-26958001D02*
X177758855Y-25057999D01*
G75*
G02*
X177809854Y-25007000I50999J0D01*
G01*
X179009856Y-25007000D01*
G75*
G02*
X179060855Y-25057999I0J-50999D01*
G01*
X179060855Y-26958001D01*
G75*
G02*
X179009856Y-27009000I-50999J0D01*
G01*
X177809854Y-27009000D01*
G75*
G02*
X177758855Y-26958001I0J50999D01*
G01*
G37*
G36*
G01*
X171958855Y-26958001D02*
X171958855Y-25057999D01*
G75*
G02*
X172009854Y-25007000I50999J0D01*
G01*
X173209856Y-25007000D01*
G75*
G02*
X173260855Y-25057999I0J-50999D01*
G01*
X173260855Y-26958001D01*
G75*
G02*
X173209856Y-27009000I-50999J0D01*
G01*
X172009854Y-27009000D01*
G75*
G02*
X171958855Y-26958001I0J50999D01*
G01*
G37*
G36*
G01*
X219825000Y-27266000D02*
X219825000Y-25566000D01*
G75*
G02*
X219876000Y-25515000I51000J0D01*
G01*
X221576000Y-25515000D01*
G75*
G02*
X221627000Y-25566000I0J-51000D01*
G01*
X221627000Y-27266000D01*
G75*
G02*
X221576000Y-27317000I-51000J0D01*
G01*
X219876000Y-27317000D01*
G75*
G02*
X219825000Y-27266000I0J51000D01*
G01*
G37*
G36*
G01*
X217285000Y-27266000D02*
X217285000Y-25566000D01*
G75*
G02*
X217336000Y-25515000I51000J0D01*
G01*
X219036000Y-25515000D01*
G75*
G02*
X219087000Y-25566000I0J-51000D01*
G01*
X219087000Y-27266000D01*
G75*
G02*
X219036000Y-27317000I-51000J0D01*
G01*
X217336000Y-27317000D01*
G75*
G02*
X217285000Y-27266000I0J51000D01*
G01*
G37*
G36*
G01*
X214745000Y-27266000D02*
X214745000Y-25566000D01*
G75*
G02*
X214796000Y-25515000I51000J0D01*
G01*
X216496000Y-25515000D01*
G75*
G02*
X216547000Y-25566000I0J-51000D01*
G01*
X216547000Y-27266000D01*
G75*
G02*
X216496000Y-27317000I-51000J0D01*
G01*
X214796000Y-27317000D01*
G75*
G02*
X214745000Y-27266000I0J51000D01*
G01*
G37*
G36*
G01*
X212205000Y-27266000D02*
X212205000Y-25566000D01*
G75*
G02*
X212256000Y-25515000I51000J0D01*
G01*
X213956000Y-25515000D01*
G75*
G02*
X214007000Y-25566000I0J-51000D01*
G01*
X214007000Y-27266000D01*
G75*
G02*
X213956000Y-27317000I-51000J0D01*
G01*
X212256000Y-27317000D01*
G75*
G02*
X212205000Y-27266000I0J51000D01*
G01*
G37*
G36*
G01*
X209665000Y-27266000D02*
X209665000Y-25566000D01*
G75*
G02*
X209716000Y-25515000I51000J0D01*
G01*
X211416000Y-25515000D01*
G75*
G02*
X211467000Y-25566000I0J-51000D01*
G01*
X211467000Y-27266000D01*
G75*
G02*
X211416000Y-27317000I-51000J0D01*
G01*
X209716000Y-27317000D01*
G75*
G02*
X209665000Y-27266000I0J51000D01*
G01*
G37*
G36*
G01*
X207125000Y-27266000D02*
X207125000Y-25566000D01*
G75*
G02*
X207176000Y-25515000I51000J0D01*
G01*
X208876000Y-25515000D01*
G75*
G02*
X208927000Y-25566000I0J-51000D01*
G01*
X208927000Y-27266000D01*
G75*
G02*
X208876000Y-27317000I-51000J0D01*
G01*
X207176000Y-27317000D01*
G75*
G02*
X207125000Y-27266000I0J51000D01*
G01*
G37*
G36*
G01*
X140323000Y-27266000D02*
X140323000Y-25566000D01*
G75*
G02*
X140374000Y-25515000I51000J0D01*
G01*
X142074000Y-25515000D01*
G75*
G02*
X142125000Y-25566000I0J-51000D01*
G01*
X142125000Y-27266000D01*
G75*
G02*
X142074000Y-27317000I-51000J0D01*
G01*
X140374000Y-27317000D01*
G75*
G02*
X140323000Y-27266000I0J51000D01*
G01*
G37*
G36*
G01*
X137783000Y-27266000D02*
X137783000Y-25566000D01*
G75*
G02*
X137834000Y-25515000I51000J0D01*
G01*
X139534000Y-25515000D01*
G75*
G02*
X139585000Y-25566000I0J-51000D01*
G01*
X139585000Y-27266000D01*
G75*
G02*
X139534000Y-27317000I-51000J0D01*
G01*
X137834000Y-27317000D01*
G75*
G02*
X137783000Y-27266000I0J51000D01*
G01*
G37*
G36*
G01*
X135243000Y-27266000D02*
X135243000Y-25566000D01*
G75*
G02*
X135294000Y-25515000I51000J0D01*
G01*
X136994000Y-25515000D01*
G75*
G02*
X137045000Y-25566000I0J-51000D01*
G01*
X137045000Y-27266000D01*
G75*
G02*
X136994000Y-27317000I-51000J0D01*
G01*
X135294000Y-27317000D01*
G75*
G02*
X135243000Y-27266000I0J51000D01*
G01*
G37*
G36*
G01*
X132703000Y-27266000D02*
X132703000Y-25566000D01*
G75*
G02*
X132754000Y-25515000I51000J0D01*
G01*
X134454000Y-25515000D01*
G75*
G02*
X134505000Y-25566000I0J-51000D01*
G01*
X134505000Y-27266000D01*
G75*
G02*
X134454000Y-27317000I-51000J0D01*
G01*
X132754000Y-27317000D01*
G75*
G02*
X132703000Y-27266000I0J51000D01*
G01*
G37*
G36*
G01*
X161331000Y-32146000D02*
X161331000Y-30846000D01*
G75*
G02*
X161382000Y-30795000I51000J0D01*
G01*
X162882000Y-30795000D01*
G75*
G02*
X162933000Y-30846000I0J-51000D01*
G01*
X162933000Y-32146000D01*
G75*
G02*
X162882000Y-32197000I-51000J0D01*
G01*
X161382000Y-32197000D01*
G75*
G02*
X161331000Y-32146000I0J51000D01*
G01*
G37*
G36*
G01*
X158631000Y-32146000D02*
X158631000Y-30846000D01*
G75*
G02*
X158682000Y-30795000I51000J0D01*
G01*
X160182000Y-30795000D01*
G75*
G02*
X160233000Y-30846000I0J-51000D01*
G01*
X160233000Y-32146000D01*
G75*
G02*
X160182000Y-32197000I-51000J0D01*
G01*
X158682000Y-32197000D01*
G75*
G02*
X158631000Y-32146000I0J51000D01*
G01*
G37*
G36*
G01*
X158631000Y-30114000D02*
X158631000Y-28814000D01*
G75*
G02*
X158682000Y-28763000I51000J0D01*
G01*
X160182000Y-28763000D01*
G75*
G02*
X160233000Y-28814000I0J-51000D01*
G01*
X160233000Y-30114000D01*
G75*
G02*
X160182000Y-30165000I-51000J0D01*
G01*
X158682000Y-30165000D01*
G75*
G02*
X158631000Y-30114000I0J51000D01*
G01*
G37*
G36*
G01*
X161331000Y-30114000D02*
X161331000Y-28814000D01*
G75*
G02*
X161382000Y-28763000I51000J0D01*
G01*
X162882000Y-28763000D01*
G75*
G02*
X162933000Y-28814000I0J-51000D01*
G01*
X162933000Y-30114000D01*
G75*
G02*
X162882000Y-30165000I-51000J0D01*
G01*
X161382000Y-30165000D01*
G75*
G02*
X161331000Y-30114000I0J51000D01*
G01*
G37*
G36*
G01*
X193660000Y-26805000D02*
X194960000Y-26805000D01*
G75*
G02*
X195011000Y-26856000I0J-51000D01*
G01*
X195011000Y-28356000D01*
G75*
G02*
X194960000Y-28407000I-51000J0D01*
G01*
X193660000Y-28407000D01*
G75*
G02*
X193609000Y-28356000I0J51000D01*
G01*
X193609000Y-26856000D01*
G75*
G02*
X193660000Y-26805000I51000J0D01*
G01*
G37*
G36*
G01*
X193660000Y-29505000D02*
X194960000Y-29505000D01*
G75*
G02*
X195011000Y-29556000I0J-51000D01*
G01*
X195011000Y-31056000D01*
G75*
G02*
X194960000Y-31107000I-51000J0D01*
G01*
X193660000Y-31107000D01*
G75*
G02*
X193609000Y-31056000I0J51000D01*
G01*
X193609000Y-29556000D01*
G75*
G02*
X193660000Y-29505000I51000J0D01*
G01*
G37*
G36*
G01*
X169022000Y-49585000D02*
X170322000Y-49585000D01*
G75*
G02*
X170373000Y-49636000I0J-51000D01*
G01*
X170373000Y-51136000D01*
G75*
G02*
X170322000Y-51187000I-51000J0D01*
G01*
X169022000Y-51187000D01*
G75*
G02*
X168971000Y-51136000I0J51000D01*
G01*
X168971000Y-49636000D01*
G75*
G02*
X169022000Y-49585000I51000J0D01*
G01*
G37*
G36*
G01*
X169022000Y-52285000D02*
X170322000Y-52285000D01*
G75*
G02*
X170373000Y-52336000I0J-51000D01*
G01*
X170373000Y-53836000D01*
G75*
G02*
X170322000Y-53887000I-51000J0D01*
G01*
X169022000Y-53887000D01*
G75*
G02*
X168971000Y-53836000I0J51000D01*
G01*
X168971000Y-52336000D01*
G75*
G02*
X169022000Y-52285000I51000J0D01*
G01*
G37*
G36*
G01*
X205219000Y-26556000D02*
X205219000Y-27556000D01*
G75*
G02*
X205168000Y-27607000I-51000J0D01*
G01*
X203468000Y-27607000D01*
G75*
G02*
X203417000Y-27556000I0J51000D01*
G01*
X203417000Y-26556000D01*
G75*
G02*
X203468000Y-26505000I51000J0D01*
G01*
X205168000Y-26505000D01*
G75*
G02*
X205219000Y-26556000I0J-51000D01*
G01*
G37*
G36*
G01*
X198919000Y-26556000D02*
X198919000Y-27556000D01*
G75*
G02*
X198868000Y-27607000I-51000J0D01*
G01*
X197168000Y-27607000D01*
G75*
G02*
X197117000Y-27556000I0J51000D01*
G01*
X197117000Y-26556000D01*
G75*
G02*
X197168000Y-26505000I51000J0D01*
G01*
X198868000Y-26505000D01*
G75*
G02*
X198919000Y-26556000I0J-51000D01*
G01*
G37*
G36*
G01*
X205219000Y-30356000D02*
X205219000Y-31356000D01*
G75*
G02*
X205168000Y-31407000I-51000J0D01*
G01*
X203468000Y-31407000D01*
G75*
G02*
X203417000Y-31356000I0J51000D01*
G01*
X203417000Y-30356000D01*
G75*
G02*
X203468000Y-30305000I51000J0D01*
G01*
X205168000Y-30305000D01*
G75*
G02*
X205219000Y-30356000I0J-51000D01*
G01*
G37*
G36*
G01*
X198919000Y-30356000D02*
X198919000Y-31356000D01*
G75*
G02*
X198868000Y-31407000I-51000J0D01*
G01*
X197168000Y-31407000D01*
G75*
G02*
X197117000Y-31356000I0J51000D01*
G01*
X197117000Y-30356000D01*
G75*
G02*
X197168000Y-30305000I51000J0D01*
G01*
X198868000Y-30305000D01*
G75*
G02*
X198919000Y-30356000I0J-51000D01*
G01*
G37*
G36*
G01*
X195403231Y-41072705D02*
X194503231Y-42631551D01*
G75*
G02*
X194433564Y-42650218I-44167J25500D01*
G01*
X192614910Y-41600218D01*
G75*
G02*
X192596243Y-41530551I25500J44167D01*
G01*
X193496243Y-39971705D01*
G75*
G02*
X193565910Y-39953038I44167J-25500D01*
G01*
X195384564Y-41003038D01*
G75*
G02*
X195403231Y-41072705I-25500J-44167D01*
G01*
G37*
G36*
G01*
X192891757Y-39622705D02*
X191991757Y-41181551D01*
G75*
G02*
X191922090Y-41200218I-44167J25500D01*
G01*
X190103436Y-40150218D01*
G75*
G02*
X190084769Y-40080551I25500J44167D01*
G01*
X190984769Y-38521705D01*
G75*
G02*
X191054436Y-38503038I44167J-25500D01*
G01*
X192873090Y-39553038D01*
G75*
G02*
X192891757Y-39622705I-25500J-44167D01*
G01*
G37*
G36*
G01*
X193991757Y-37717449D02*
X193091757Y-39276295D01*
G75*
G02*
X193022090Y-39294962I-44167J25500D01*
G01*
X191203436Y-38244962D01*
G75*
G02*
X191184769Y-38175295I25500J44167D01*
G01*
X192084769Y-36616449D01*
G75*
G02*
X192154436Y-36597782I44167J-25500D01*
G01*
X193973090Y-37647782D01*
G75*
G02*
X193991757Y-37717449I-25500J-44167D01*
G01*
G37*
G36*
G01*
X196503231Y-39167449D02*
X195603231Y-40726295D01*
G75*
G02*
X195533564Y-40744962I-44167J25500D01*
G01*
X193714910Y-39694962D01*
G75*
G02*
X193696243Y-39625295I25500J44167D01*
G01*
X194596243Y-38066449D01*
G75*
G02*
X194665910Y-38047782I44167J-25500D01*
G01*
X196484564Y-39097782D01*
G75*
G02*
X196503231Y-39167449I-25500J-44167D01*
G01*
G37*
G36*
G01*
X167143000Y-30805001D02*
X167143000Y-30154999D01*
G75*
G02*
X167193999Y-30104000I50999J0D01*
G01*
X168754001Y-30104000D01*
G75*
G02*
X168805000Y-30154999I0J-50999D01*
G01*
X168805000Y-30805001D01*
G75*
G02*
X168754001Y-30856000I-50999J0D01*
G01*
X167193999Y-30856000D01*
G75*
G02*
X167143000Y-30805001I0J50999D01*
G01*
G37*
G36*
G01*
X167143000Y-31755001D02*
X167143000Y-31104999D01*
G75*
G02*
X167193999Y-31054000I50999J0D01*
G01*
X168754001Y-31054000D01*
G75*
G02*
X168805000Y-31104999I0J-50999D01*
G01*
X168805000Y-31755001D01*
G75*
G02*
X168754001Y-31806000I-50999J0D01*
G01*
X167193999Y-31806000D01*
G75*
G02*
X167143000Y-31755001I0J50999D01*
G01*
G37*
G36*
G01*
X167143000Y-29855001D02*
X167143000Y-29204999D01*
G75*
G02*
X167193999Y-29154000I50999J0D01*
G01*
X168754001Y-29154000D01*
G75*
G02*
X168805000Y-29204999I0J-50999D01*
G01*
X168805000Y-29855001D01*
G75*
G02*
X168754001Y-29906000I-50999J0D01*
G01*
X167193999Y-29906000D01*
G75*
G02*
X167143000Y-29855001I0J50999D01*
G01*
G37*
G36*
G01*
X164443000Y-29855001D02*
X164443000Y-29204999D01*
G75*
G02*
X164493999Y-29154000I50999J0D01*
G01*
X166054001Y-29154000D01*
G75*
G02*
X166105000Y-29204999I0J-50999D01*
G01*
X166105000Y-29855001D01*
G75*
G02*
X166054001Y-29906000I-50999J0D01*
G01*
X164493999Y-29906000D01*
G75*
G02*
X164443000Y-29855001I0J50999D01*
G01*
G37*
G36*
G01*
X164443000Y-30805001D02*
X164443000Y-30154999D01*
G75*
G02*
X164493999Y-30104000I50999J0D01*
G01*
X166054001Y-30104000D01*
G75*
G02*
X166105000Y-30154999I0J-50999D01*
G01*
X166105000Y-30805001D01*
G75*
G02*
X166054001Y-30856000I-50999J0D01*
G01*
X164493999Y-30856000D01*
G75*
G02*
X164443000Y-30805001I0J50999D01*
G01*
G37*
G36*
G01*
X164443000Y-31755001D02*
X164443000Y-31104999D01*
G75*
G02*
X164493999Y-31054000I50999J0D01*
G01*
X166054001Y-31054000D01*
G75*
G02*
X166105000Y-31104999I0J-50999D01*
G01*
X166105000Y-31755001D01*
G75*
G02*
X166054001Y-31806000I-50999J0D01*
G01*
X164493999Y-31806000D01*
G75*
G02*
X164443000Y-31755001I0J50999D01*
G01*
G37*
G36*
G01*
X150483000Y-27266000D02*
X150483000Y-25566000D01*
G75*
G02*
X150534000Y-25515000I51000J0D01*
G01*
X152234000Y-25515000D01*
G75*
G02*
X152285000Y-25566000I0J-51000D01*
G01*
X152285000Y-27266000D01*
G75*
G02*
X152234000Y-27317000I-51000J0D01*
G01*
X150534000Y-27317000D01*
G75*
G02*
X150483000Y-27266000I0J51000D01*
G01*
G37*
G36*
G01*
X145403000Y-27266000D02*
X145403000Y-25566000D01*
G75*
G02*
X145454000Y-25515000I51000J0D01*
G01*
X147154000Y-25515000D01*
G75*
G02*
X147205000Y-25566000I0J-51000D01*
G01*
X147205000Y-27266000D01*
G75*
G02*
X147154000Y-27317000I-51000J0D01*
G01*
X145454000Y-27317000D01*
G75*
G02*
X145403000Y-27266000I0J51000D01*
G01*
G37*
G36*
G01*
X147943000Y-27266000D02*
X147943000Y-25566000D01*
G75*
G02*
X147994000Y-25515000I51000J0D01*
G01*
X149694000Y-25515000D01*
G75*
G02*
X149745000Y-25566000I0J-51000D01*
G01*
X149745000Y-27266000D01*
G75*
G02*
X149694000Y-27317000I-51000J0D01*
G01*
X147994000Y-27317000D01*
G75*
G02*
X147943000Y-27266000I0J51000D01*
G01*
G37*
G36*
G01*
X142863000Y-27266000D02*
X142863000Y-25566000D01*
G75*
G02*
X142914000Y-25515000I51000J0D01*
G01*
X144614000Y-25515000D01*
G75*
G02*
X144665000Y-25566000I0J-51000D01*
G01*
X144665000Y-27266000D01*
G75*
G02*
X144614000Y-27317000I-51000J0D01*
G01*
X142914000Y-27317000D01*
G75*
G02*
X142863000Y-27266000I0J51000D01*
G01*
G37*
D14*
X56865000Y-48245000D03*
X51197500Y-114920000D03*
X121827220Y-27932509D03*
X109959436Y-120609368D03*
X229192785Y-27932509D03*
X341180000Y-43482516D03*
D17*
G36*
X156025166Y-135108081D02*
G01*
X156026750Y-135110037D01*
X156026750Y-135110038D01*
X156026706Y-135110454D01*
X155818379Y-136090558D01*
X155817041Y-136092044D01*
X155816007Y-136092098D01*
X154542458Y-135821397D01*
X154540874Y-135819441D01*
X154540874Y-135819440D01*
X154540918Y-135819024D01*
X154541156Y-135817900D01*
X154545246Y-135817900D01*
X155814882Y-136087769D01*
X156022378Y-135111578D01*
X154752742Y-134841709D01*
X154545246Y-135817900D01*
X154541156Y-135817900D01*
X154749245Y-134838920D01*
X154750583Y-134837434D01*
X154751617Y-134837380D01*
X156025166Y-135108081D01*
G37*
G36*
X210927217Y-131722241D02*
G01*
X210927687Y-131723163D01*
X211112180Y-132591136D01*
X211112180Y-132591137D01*
X211136014Y-132703267D01*
X211136058Y-132703683D01*
X211136058Y-132703684D01*
X211134474Y-132705640D01*
X209860925Y-132976341D01*
X209859023Y-132975723D01*
X209858553Y-132974801D01*
X209777180Y-132591969D01*
X209777180Y-132591968D01*
X209650465Y-131995821D01*
X209654554Y-131995821D01*
X209781092Y-132591136D01*
X209781092Y-132591137D01*
X209862050Y-132972012D01*
X211131686Y-132702143D01*
X211108268Y-132591969D01*
X211108268Y-132591968D01*
X210924190Y-131725952D01*
X209654554Y-131995821D01*
X209650465Y-131995821D01*
X209650226Y-131994697D01*
X209650182Y-131994281D01*
X209650182Y-131994280D01*
X209651766Y-131992324D01*
X210925315Y-131721623D01*
X210927217Y-131722241D01*
G37*
G36*
X156711274Y-131880193D02*
G01*
X156712858Y-131882149D01*
X156712858Y-131882150D01*
X156712814Y-131882566D01*
X156688980Y-131994696D01*
X156688980Y-131994697D01*
X156504487Y-132862670D01*
X156503149Y-132864156D01*
X156502115Y-132864210D01*
X155228566Y-132593509D01*
X155226982Y-132591553D01*
X155226982Y-132591552D01*
X155227026Y-132591136D01*
X155227264Y-132590012D01*
X155231354Y-132590012D01*
X156500990Y-132859881D01*
X156685068Y-131993865D01*
X156685068Y-131993864D01*
X156708486Y-131883690D01*
X155438850Y-131613821D01*
X155357892Y-131994696D01*
X155357892Y-131994697D01*
X155231354Y-132590012D01*
X155227264Y-132590012D01*
X155353980Y-131993865D01*
X155353980Y-131993864D01*
X155435353Y-131611032D01*
X155436691Y-131609546D01*
X155437725Y-131609492D01*
X156711274Y-131880193D01*
G37*
G36*
X96151709Y-119007872D02*
G01*
X96151978Y-119008204D01*
X96152631Y-119008343D01*
X96152993Y-119009458D01*
X96153293Y-119009828D01*
X96153293Y-119009829D01*
X96153178Y-119010028D01*
X96153249Y-119010245D01*
X95944922Y-119990349D01*
X95943584Y-119991835D01*
X95942550Y-119991889D01*
X94669001Y-119721188D01*
X94667417Y-119719232D01*
X94667417Y-119719231D01*
X94668417Y-119717499D01*
X94669833Y-119717275D01*
X95941425Y-119987560D01*
X96148921Y-119011369D01*
X94879285Y-118741500D01*
X94717520Y-119502545D01*
X94716182Y-119504031D01*
X94714226Y-119503615D01*
X94713608Y-119501713D01*
X94875788Y-118738711D01*
X94877126Y-118737225D01*
X94878160Y-118737171D01*
X96151709Y-119007872D01*
G37*
G36*
X199292708Y-111345946D02*
G01*
X199293178Y-111346868D01*
X199427139Y-111977107D01*
X199427139Y-111977108D01*
X199484678Y-112247808D01*
X199484678Y-112247809D01*
X199501505Y-112326972D01*
X199501549Y-112327388D01*
X199501549Y-112327389D01*
X199499965Y-112329345D01*
X198226416Y-112600046D01*
X198224514Y-112599428D01*
X198224044Y-112598506D01*
X198092139Y-111977940D01*
X198092139Y-111977939D01*
X198068277Y-111865676D01*
X198068277Y-111865675D01*
X198015956Y-111619526D01*
X198020045Y-111619526D01*
X198072189Y-111864843D01*
X198072189Y-111864844D01*
X198096051Y-111977107D01*
X198096051Y-111977108D01*
X198227541Y-112595717D01*
X199497177Y-112325848D01*
X199480766Y-112248641D01*
X199480766Y-112248640D01*
X199423227Y-111977940D01*
X199423227Y-111977939D01*
X199289681Y-111349657D01*
X198020045Y-111619526D01*
X198015956Y-111619526D01*
X198015717Y-111618402D01*
X198015673Y-111617986D01*
X198015673Y-111617985D01*
X198017257Y-111616029D01*
X199290806Y-111345328D01*
X199292708Y-111345946D01*
G37*
G36*
X218612528Y-110613116D02*
G01*
X218612998Y-110614038D01*
X218694399Y-110997003D01*
X218746957Y-111244268D01*
X218746957Y-111244269D01*
X218751938Y-111267704D01*
X218754281Y-111278724D01*
X218768765Y-111346868D01*
X218768765Y-111346869D01*
X218804496Y-111514969D01*
X218804496Y-111514970D01*
X218821325Y-111594142D01*
X218821369Y-111594558D01*
X218821369Y-111594559D01*
X218819785Y-111596515D01*
X217546236Y-111867216D01*
X217544334Y-111866598D01*
X217543864Y-111865676D01*
X217419281Y-111279556D01*
X217416939Y-111268537D01*
X217411957Y-111245101D01*
X217411957Y-111245100D01*
X217399444Y-111186229D01*
X217359400Y-110997836D01*
X217359399Y-110997835D01*
X217335776Y-110886696D01*
X217339865Y-110886696D01*
X217363311Y-110997002D01*
X217363312Y-110997004D01*
X217403356Y-111185397D01*
X217415869Y-111244268D01*
X217415869Y-111244269D01*
X217420851Y-111267705D01*
X217423193Y-111278724D01*
X217547361Y-111862887D01*
X218816997Y-111593018D01*
X218800584Y-111515802D01*
X218800584Y-111515801D01*
X218764853Y-111347701D01*
X218764853Y-111347700D01*
X218750369Y-111279556D01*
X218748026Y-111268536D01*
X218743045Y-111245101D01*
X218743045Y-111245100D01*
X218690487Y-110997835D01*
X218609501Y-110616827D01*
X217339865Y-110886696D01*
X217335776Y-110886696D01*
X217335537Y-110885572D01*
X217335493Y-110885156D01*
X217335493Y-110885155D01*
X217337077Y-110883199D01*
X218610626Y-110612498D01*
X218612528Y-110613116D01*
G37*
G36*
X132721427Y-107305437D02*
G01*
X132723011Y-107307393D01*
X132723011Y-107307394D01*
X132722967Y-107307810D01*
X132706138Y-107386982D01*
X132706138Y-107386983D01*
X132670409Y-107555074D01*
X132670409Y-107555075D01*
X132653578Y-107634258D01*
X132648599Y-107657683D01*
X132648599Y-107657684D01*
X132596039Y-107904959D01*
X132514640Y-108287914D01*
X132512268Y-108289454D01*
X131238719Y-108018753D01*
X131237135Y-108016797D01*
X131237135Y-108016796D01*
X131237179Y-108016380D01*
X131237417Y-108015256D01*
X131241507Y-108015256D01*
X132511143Y-108285125D01*
X132592127Y-107904127D01*
X132644687Y-107656852D01*
X132644687Y-107656851D01*
X132649666Y-107633426D01*
X132666497Y-107554243D01*
X132666497Y-107554242D01*
X132702226Y-107386151D01*
X132702226Y-107386150D01*
X132718639Y-107308934D01*
X131449003Y-107039065D01*
X131322491Y-107634257D01*
X131317511Y-107657683D01*
X131317511Y-107657684D01*
X131264951Y-107904958D01*
X131264951Y-107904959D01*
X131241507Y-108015256D01*
X131237417Y-108015256D01*
X131261039Y-107904127D01*
X131261039Y-107904126D01*
X131313599Y-107656852D01*
X131313599Y-107656851D01*
X131318579Y-107633425D01*
X131445506Y-107036276D01*
X131447878Y-107034736D01*
X132721427Y-107305437D01*
G37*
G36*
X237246239Y-106652399D02*
G01*
X237246709Y-106653321D01*
X237328108Y-107036276D01*
X237380666Y-107283541D01*
X237380666Y-107283542D01*
X237385647Y-107306977D01*
X237402476Y-107386150D01*
X237402476Y-107386151D01*
X237438205Y-107554242D01*
X237438205Y-107554243D01*
X237455036Y-107633425D01*
X237455080Y-107633841D01*
X237455080Y-107633842D01*
X237453496Y-107635798D01*
X236179947Y-107906499D01*
X236178045Y-107905881D01*
X236177575Y-107904959D01*
X236067476Y-107386982D01*
X236050648Y-107307810D01*
X236045666Y-107284374D01*
X236045666Y-107284373D01*
X236043010Y-107271876D01*
X235995971Y-107050576D01*
X235993108Y-107037109D01*
X235993108Y-107037108D01*
X235969487Y-106925979D01*
X235973576Y-106925979D01*
X235997020Y-107036276D01*
X235997020Y-107036277D01*
X235999883Y-107049744D01*
X236046922Y-107271044D01*
X236049578Y-107283541D01*
X236049578Y-107283542D01*
X236054560Y-107306978D01*
X236071388Y-107386150D01*
X236181072Y-107902170D01*
X237450708Y-107632301D01*
X237434293Y-107555075D01*
X237434293Y-107555074D01*
X237398564Y-107386983D01*
X237398564Y-107386982D01*
X237381735Y-107307809D01*
X237376754Y-107284374D01*
X237376754Y-107284373D01*
X237324196Y-107037108D01*
X237243212Y-106656110D01*
X235973576Y-106925979D01*
X235969487Y-106925979D01*
X235969248Y-106924855D01*
X235969204Y-106924439D01*
X235969204Y-106924438D01*
X235970788Y-106922482D01*
X237244337Y-106651781D01*
X237246239Y-106652399D01*
G37*
G36*
X191359695Y-96930282D02*
G01*
X191360165Y-96931204D01*
X191518986Y-97678403D01*
X191518368Y-97680305D01*
X191516412Y-97680721D01*
X191515074Y-97679235D01*
X191356668Y-96933993D01*
X190087032Y-97203862D01*
X190294528Y-98180053D01*
X191566120Y-97909768D01*
X191568022Y-97910386D01*
X191568536Y-97911724D01*
X191568536Y-97911725D01*
X191566952Y-97913681D01*
X190293403Y-98184382D01*
X190291501Y-98183764D01*
X190291031Y-98182842D01*
X190082704Y-97202738D01*
X190082757Y-97202575D01*
X190082660Y-97202322D01*
X190082660Y-97202321D01*
X190082960Y-97201951D01*
X190083322Y-97200836D01*
X190083975Y-97200697D01*
X190084244Y-97200365D01*
X191357793Y-96929664D01*
X191359695Y-96930282D01*
G37*
G36*
X182054466Y-76058842D02*
G01*
X182054936Y-76059764D01*
X182263263Y-77039868D01*
X182263210Y-77040031D01*
X182263307Y-77040284D01*
X182263307Y-77040285D01*
X182263007Y-77040655D01*
X182262645Y-77041770D01*
X182261992Y-77041909D01*
X182261723Y-77042241D01*
X180988174Y-77312942D01*
X180986272Y-77312324D01*
X180985802Y-77311402D01*
X180830035Y-76578572D01*
X180830653Y-76576670D01*
X180832609Y-76576254D01*
X180833947Y-76577740D01*
X180989299Y-77308613D01*
X182258935Y-77038744D01*
X182051439Y-76062553D01*
X180779847Y-76332838D01*
X180777945Y-76332220D01*
X180777431Y-76330882D01*
X180777431Y-76330881D01*
X180779015Y-76328925D01*
X182052564Y-76058224D01*
X182054466Y-76058842D01*
G37*
G36*
X201374285Y-75326012D02*
G01*
X201374755Y-75326934D01*
X201530522Y-76059764D01*
X201529904Y-76061666D01*
X201527948Y-76062082D01*
X201526610Y-76060596D01*
X201371258Y-75329723D01*
X200101622Y-75599592D01*
X200309118Y-76575783D01*
X201580710Y-76305498D01*
X201582612Y-76306116D01*
X201583126Y-76307454D01*
X201583126Y-76307455D01*
X201581542Y-76309411D01*
X200307993Y-76580112D01*
X200306091Y-76579494D01*
X200305621Y-76578572D01*
X200097294Y-75598468D01*
X200097347Y-75598305D01*
X200097250Y-75598052D01*
X200097250Y-75598051D01*
X200097550Y-75597681D01*
X200097912Y-75596566D01*
X200098565Y-75596427D01*
X200098834Y-75596095D01*
X201372383Y-75325394D01*
X201374285Y-75326012D01*
G37*
G36*
X145301389Y-71028202D02*
G01*
X145302973Y-71030158D01*
X145302973Y-71030159D01*
X145302929Y-71030575D01*
X145250371Y-71277839D01*
X145250371Y-71277840D01*
X145231409Y-71367049D01*
X145231409Y-71367050D01*
X145173870Y-71637750D01*
X145094602Y-72010679D01*
X145093264Y-72012165D01*
X145092230Y-72012219D01*
X143818681Y-71741518D01*
X143817097Y-71739562D01*
X143817097Y-71739561D01*
X143817141Y-71739145D01*
X143817379Y-71738021D01*
X143821469Y-71738021D01*
X145091105Y-72007890D01*
X145169958Y-71636918D01*
X145227497Y-71366218D01*
X145227497Y-71366217D01*
X145246459Y-71277008D01*
X145246459Y-71277007D01*
X145298601Y-71031699D01*
X144028965Y-70761830D01*
X143900321Y-71367050D01*
X143842782Y-71637750D01*
X143842782Y-71637751D01*
X143821469Y-71738021D01*
X143817379Y-71738021D01*
X143838870Y-71636919D01*
X143838870Y-71636918D01*
X143896409Y-71366218D01*
X144025468Y-70759041D01*
X144026806Y-70757555D01*
X144027840Y-70757501D01*
X145301389Y-71028202D01*
G37*
G36*
X219321889Y-68137407D02*
G01*
X219322359Y-68138329D01*
X219530686Y-69118433D01*
X219530730Y-69118849D01*
X219530730Y-69118850D01*
X219529146Y-69120806D01*
X218255597Y-69391507D01*
X218253695Y-69390889D01*
X218253225Y-69389967D01*
X218097458Y-68657137D01*
X218097458Y-68657136D01*
X218045137Y-68410987D01*
X218049226Y-68410987D01*
X218101370Y-68656304D01*
X218101370Y-68656305D01*
X218256722Y-69387178D01*
X219526358Y-69117309D01*
X219318862Y-68141118D01*
X218049226Y-68410987D01*
X218045137Y-68410987D01*
X218044898Y-68409863D01*
X218044854Y-68409447D01*
X218044854Y-68409446D01*
X218046438Y-68407490D01*
X219319987Y-68136789D01*
X219321889Y-68137407D01*
G37*
G36*
X157892944Y-57602720D02*
G01*
X157893213Y-57603052D01*
X157893866Y-57603191D01*
X157894228Y-57604306D01*
X157894528Y-57604676D01*
X157894528Y-57604677D01*
X157894413Y-57604876D01*
X157894484Y-57605093D01*
X157686157Y-58585197D01*
X157684819Y-58586683D01*
X157683785Y-58586737D01*
X156410236Y-58316036D01*
X156408652Y-58314080D01*
X156408652Y-58314079D01*
X156409652Y-58312347D01*
X156411068Y-58312123D01*
X157682660Y-58582408D01*
X157890156Y-57606217D01*
X156620520Y-57336348D01*
X156446217Y-58156378D01*
X156444879Y-58157864D01*
X156442923Y-58157448D01*
X156442305Y-58155546D01*
X156617023Y-57333559D01*
X156618361Y-57332073D01*
X156619395Y-57332019D01*
X157892944Y-57602720D01*
G37*
G36*
X206730513Y-54711913D02*
G01*
X206730983Y-54712835D01*
X206867793Y-55356477D01*
X206886750Y-55445665D01*
X206886750Y-55445666D01*
X206939310Y-55692939D01*
X206939354Y-55693355D01*
X206939354Y-55693356D01*
X206937770Y-55695312D01*
X205664221Y-55966013D01*
X205662319Y-55965395D01*
X205661849Y-55964473D01*
X205532793Y-55357309D01*
X205532793Y-55357308D01*
X205475254Y-55086608D01*
X205475253Y-55086607D01*
X205472690Y-55074547D01*
X205453761Y-54985493D01*
X205457850Y-54985493D01*
X205476602Y-55073715D01*
X205479165Y-55085774D01*
X205479166Y-55085776D01*
X205536705Y-55356476D01*
X205536705Y-55356477D01*
X205665346Y-55961684D01*
X206934982Y-55691815D01*
X206882838Y-55446498D01*
X206882838Y-55446497D01*
X206863881Y-55357309D01*
X206727486Y-54715624D01*
X205457850Y-54985493D01*
X205453761Y-54985493D01*
X205453522Y-54984369D01*
X205453478Y-54983953D01*
X205453478Y-54983952D01*
X205455062Y-54981996D01*
X206728611Y-54711295D01*
X206730513Y-54711913D01*
G37*
G36*
X179189732Y-47062000D02*
G01*
X179190000Y-47063000D01*
X179190000Y-48665000D01*
X179189000Y-48666732D01*
X179188000Y-48667000D01*
X179040000Y-48667000D01*
X179038268Y-48666000D01*
X179038000Y-48665000D01*
X179038000Y-47063000D01*
X179039000Y-47061268D01*
X179040000Y-47061000D01*
X179188000Y-47061000D01*
X179189732Y-47062000D01*
G37*
G36*
X171989732Y-47062000D02*
G01*
X171990000Y-47063000D01*
X171990000Y-48665000D01*
X171989000Y-48666732D01*
X171988000Y-48667000D01*
X171840000Y-48667000D01*
X171838268Y-48666000D01*
X171838000Y-48665000D01*
X171838000Y-47063000D01*
X171839000Y-47061268D01*
X171840000Y-47061000D01*
X171988000Y-47061000D01*
X171989732Y-47062000D01*
G37*
G36*
X172789732Y-47062000D02*
G01*
X172790000Y-47063000D01*
X172790000Y-48665000D01*
X172789000Y-48666732D01*
X172788000Y-48667000D01*
X172640000Y-48667000D01*
X172638268Y-48666000D01*
X172638000Y-48665000D01*
X172638000Y-47063000D01*
X172639000Y-47061268D01*
X172640000Y-47061000D01*
X172788000Y-47061000D01*
X172789732Y-47062000D01*
G37*
G36*
X174389732Y-47062000D02*
G01*
X174390000Y-47063000D01*
X174390000Y-48665000D01*
X174389000Y-48666732D01*
X174388000Y-48667000D01*
X174240000Y-48667000D01*
X174238268Y-48666000D01*
X174238000Y-48665000D01*
X174238000Y-47063000D01*
X174239000Y-47061268D01*
X174240000Y-47061000D01*
X174388000Y-47061000D01*
X174389732Y-47062000D01*
G37*
G36*
X175189732Y-47062000D02*
G01*
X175190000Y-47063000D01*
X175190000Y-48665000D01*
X175189000Y-48666732D01*
X175188000Y-48667000D01*
X175040000Y-48667000D01*
X175038268Y-48666000D01*
X175038000Y-48665000D01*
X175038000Y-47063000D01*
X175039000Y-47061268D01*
X175040000Y-47061000D01*
X175188000Y-47061000D01*
X175189732Y-47062000D01*
G37*
G36*
X176789732Y-47062000D02*
G01*
X176790000Y-47063000D01*
X176790000Y-48665000D01*
X176789000Y-48666732D01*
X176788000Y-48667000D01*
X176640000Y-48667000D01*
X176638268Y-48666000D01*
X176638000Y-48665000D01*
X176638000Y-47063000D01*
X176639000Y-47061268D01*
X176640000Y-47061000D01*
X176788000Y-47061000D01*
X176789732Y-47062000D01*
G37*
G36*
X175989732Y-47062000D02*
G01*
X175990000Y-47063000D01*
X175990000Y-48665000D01*
X175989000Y-48666732D01*
X175988000Y-48667000D01*
X175840000Y-48667000D01*
X175838268Y-48666000D01*
X175838000Y-48665000D01*
X175838000Y-47063000D01*
X175839000Y-47061268D01*
X175840000Y-47061000D01*
X175988000Y-47061000D01*
X175989732Y-47062000D01*
G37*
G36*
X173589732Y-47062000D02*
G01*
X173590000Y-47063000D01*
X173590000Y-48665000D01*
X173589000Y-48666732D01*
X173588000Y-48667000D01*
X173440000Y-48667000D01*
X173438268Y-48666000D01*
X173438000Y-48665000D01*
X173438000Y-47063000D01*
X173439000Y-47061268D01*
X173440000Y-47061000D01*
X173588000Y-47061000D01*
X173589732Y-47062000D01*
G37*
G36*
X177589732Y-47062000D02*
G01*
X177590000Y-47063000D01*
X177590000Y-48665000D01*
X177589000Y-48666732D01*
X177588000Y-48667000D01*
X177440000Y-48667000D01*
X177438268Y-48666000D01*
X177438000Y-48665000D01*
X177438000Y-47063000D01*
X177439000Y-47061268D01*
X177440000Y-47061000D01*
X177588000Y-47061000D01*
X177589732Y-47062000D01*
G37*
G36*
X178389732Y-47062000D02*
G01*
X178390000Y-47063000D01*
X178390000Y-48665000D01*
X178389000Y-48666732D01*
X178388000Y-48667000D01*
X178240000Y-48667000D01*
X178238268Y-48666000D01*
X178238000Y-48665000D01*
X178238000Y-47063000D01*
X178239000Y-47061268D01*
X178240000Y-47061000D01*
X178388000Y-47061000D01*
X178389732Y-47062000D01*
G37*
G36*
X182016732Y-45689000D02*
G01*
X182017000Y-45690000D01*
X182017000Y-45838000D01*
X182016000Y-45839732D01*
X182015000Y-45840000D01*
X180413000Y-45840000D01*
X180411268Y-45839000D01*
X180411000Y-45838000D01*
X180411000Y-45690000D01*
X180412000Y-45688268D01*
X180413000Y-45688000D01*
X182015000Y-45688000D01*
X182016732Y-45689000D01*
G37*
G36*
X170616732Y-45689000D02*
G01*
X170617000Y-45690000D01*
X170617000Y-45838000D01*
X170616000Y-45839732D01*
X170615000Y-45840000D01*
X169013000Y-45840000D01*
X169011268Y-45839000D01*
X169011000Y-45838000D01*
X169011000Y-45690000D01*
X169012000Y-45688268D01*
X169013000Y-45688000D01*
X170615000Y-45688000D01*
X170616732Y-45689000D01*
G37*
G36*
X182016732Y-44889000D02*
G01*
X182017000Y-44890000D01*
X182017000Y-45038000D01*
X182016000Y-45039732D01*
X182015000Y-45040000D01*
X180413000Y-45040000D01*
X180411268Y-45039000D01*
X180411000Y-45038000D01*
X180411000Y-44890000D01*
X180412000Y-44888268D01*
X180413000Y-44888000D01*
X182015000Y-44888000D01*
X182016732Y-44889000D01*
G37*
G36*
X170616732Y-44889000D02*
G01*
X170617000Y-44890000D01*
X170617000Y-45038000D01*
X170616000Y-45039732D01*
X170615000Y-45040000D01*
X169013000Y-45040000D01*
X169011268Y-45039000D01*
X169011000Y-45038000D01*
X169011000Y-44890000D01*
X169012000Y-44888268D01*
X169013000Y-44888000D01*
X170615000Y-44888000D01*
X170616732Y-44889000D01*
G37*
G36*
X170616732Y-44089000D02*
G01*
X170617000Y-44090000D01*
X170617000Y-44238000D01*
X170616000Y-44239732D01*
X170615000Y-44240000D01*
X169013000Y-44240000D01*
X169011268Y-44239000D01*
X169011000Y-44238000D01*
X169011000Y-44090000D01*
X169012000Y-44088268D01*
X169013000Y-44088000D01*
X170615000Y-44088000D01*
X170616732Y-44089000D01*
G37*
G36*
X182016732Y-44089000D02*
G01*
X182017000Y-44090000D01*
X182017000Y-44238000D01*
X182016000Y-44239732D01*
X182015000Y-44240000D01*
X180413000Y-44240000D01*
X180411268Y-44239000D01*
X180411000Y-44238000D01*
X180411000Y-44090000D01*
X180412000Y-44088268D01*
X180413000Y-44088000D01*
X182015000Y-44088000D01*
X182016732Y-44089000D01*
G37*
G36*
X182016732Y-43289000D02*
G01*
X182017000Y-43290000D01*
X182017000Y-43438000D01*
X182016000Y-43439732D01*
X182015000Y-43440000D01*
X180413000Y-43440000D01*
X180411268Y-43439000D01*
X180411000Y-43438000D01*
X180411000Y-43290000D01*
X180412000Y-43288268D01*
X180413000Y-43288000D01*
X182015000Y-43288000D01*
X182016732Y-43289000D01*
G37*
G36*
X170616732Y-43289000D02*
G01*
X170617000Y-43290000D01*
X170617000Y-43438000D01*
X170616000Y-43439732D01*
X170615000Y-43440000D01*
X169013000Y-43440000D01*
X169011268Y-43439000D01*
X169011000Y-43438000D01*
X169011000Y-43290000D01*
X169012000Y-43288268D01*
X169013000Y-43288000D01*
X170615000Y-43288000D01*
X170616732Y-43289000D01*
G37*
G36*
X195429732Y-41026806D02*
G01*
X195430732Y-41028538D01*
X195430464Y-41029538D01*
X195048568Y-41691000D01*
X194740301Y-42224934D01*
X194584011Y-42495636D01*
X194532291Y-42585218D01*
X194501240Y-42639000D01*
X194479463Y-42676719D01*
X194476731Y-42677451D01*
X192569742Y-41576450D01*
X192568742Y-41574718D01*
X192568938Y-41573986D01*
X192573475Y-41573986D01*
X194476999Y-42672986D01*
X194497776Y-42637000D01*
X194528827Y-42583218D01*
X194580547Y-42493636D01*
X194736837Y-42222934D01*
X195045104Y-41689000D01*
X195425999Y-41029270D01*
X193522475Y-39930270D01*
X192573475Y-41573986D01*
X192568938Y-41573986D01*
X192569010Y-41573718D01*
X193520011Y-39926537D01*
X193522743Y-39925805D01*
X195429732Y-41026806D01*
G37*
G36*
X170616732Y-42489000D02*
G01*
X170617000Y-42490000D01*
X170617000Y-42638000D01*
X170616000Y-42639732D01*
X170615000Y-42640000D01*
X169013000Y-42640000D01*
X169011268Y-42639000D01*
X169011000Y-42638000D01*
X169011000Y-42490000D01*
X169012000Y-42488268D01*
X169013000Y-42488000D01*
X170615000Y-42488000D01*
X170616732Y-42489000D01*
G37*
G36*
X182016732Y-42489000D02*
G01*
X182017000Y-42490000D01*
X182017000Y-42638000D01*
X182016000Y-42639732D01*
X182015000Y-42640000D01*
X180413000Y-42640000D01*
X180411268Y-42639000D01*
X180411000Y-42638000D01*
X180411000Y-42490000D01*
X180412000Y-42488268D01*
X180413000Y-42488000D01*
X182015000Y-42488000D01*
X182016732Y-42489000D01*
G37*
G36*
X182016732Y-41689000D02*
G01*
X182017000Y-41690000D01*
X182017000Y-41838000D01*
X182016000Y-41839732D01*
X182015000Y-41840000D01*
X180413000Y-41840000D01*
X180411268Y-41839000D01*
X180411000Y-41838000D01*
X180411000Y-41690000D01*
X180412000Y-41688268D01*
X180413000Y-41688000D01*
X182015000Y-41688000D01*
X182016732Y-41689000D01*
G37*
G36*
X170616732Y-41689000D02*
G01*
X170617000Y-41690000D01*
X170617000Y-41838000D01*
X170616000Y-41839732D01*
X170615000Y-41840000D01*
X169013000Y-41840000D01*
X169011268Y-41839000D01*
X169011000Y-41838000D01*
X169011000Y-41690000D01*
X169012000Y-41688268D01*
X169013000Y-41688000D01*
X170615000Y-41688000D01*
X170616732Y-41689000D01*
G37*
G36*
X192918258Y-39576806D02*
G01*
X192919258Y-39578538D01*
X192918990Y-39579538D01*
X192230831Y-40771463D01*
X191967989Y-41226719D01*
X191965257Y-41227451D01*
X190058268Y-40126450D01*
X190057268Y-40124718D01*
X190057464Y-40123986D01*
X190062001Y-40123986D01*
X191965525Y-41222986D01*
X192227367Y-40769463D01*
X192914525Y-39579270D01*
X191011001Y-38480270D01*
X190919358Y-38639000D01*
X190639180Y-39124282D01*
X190475402Y-39407954D01*
X190424154Y-39496718D01*
X190062001Y-40123986D01*
X190057464Y-40123986D01*
X190057536Y-40123718D01*
X190420690Y-39494718D01*
X190471938Y-39405954D01*
X190635716Y-39122282D01*
X190915894Y-38637000D01*
X191008537Y-38476537D01*
X191011269Y-38475805D01*
X192918258Y-39576806D01*
G37*
G36*
X170616732Y-40889000D02*
G01*
X170617000Y-40890000D01*
X170617000Y-41038000D01*
X170616000Y-41039732D01*
X170615000Y-41040000D01*
X169013000Y-41040000D01*
X169011268Y-41039000D01*
X169011000Y-41038000D01*
X169011000Y-40890000D01*
X169012000Y-40888268D01*
X169013000Y-40888000D01*
X170615000Y-40888000D01*
X170616732Y-40889000D01*
G37*
G36*
X182016732Y-40889000D02*
G01*
X182017000Y-40890000D01*
X182017000Y-41038000D01*
X182016000Y-41039732D01*
X182015000Y-41040000D01*
X180413000Y-41040000D01*
X180411268Y-41039000D01*
X180411000Y-41038000D01*
X180411000Y-40890000D01*
X180412000Y-40888268D01*
X180413000Y-40888000D01*
X182015000Y-40888000D01*
X182016732Y-40889000D01*
G37*
G36*
X196529732Y-39121550D02*
G01*
X196530732Y-39123282D01*
X196530464Y-39124282D01*
X196315069Y-39497356D01*
X195952284Y-40125718D01*
X195579463Y-40771463D01*
X195576731Y-40772195D01*
X193669742Y-39671194D01*
X193668742Y-39669462D01*
X193668938Y-39668730D01*
X193673475Y-39668730D01*
X195576999Y-40767730D01*
X195948820Y-40123718D01*
X196311605Y-39495356D01*
X196525999Y-39124014D01*
X194622475Y-38025014D01*
X194610171Y-38046325D01*
X194582619Y-38094046D01*
X194538861Y-38169837D01*
X194511636Y-38216992D01*
X194360633Y-38478537D01*
X193840267Y-39379837D01*
X193673475Y-39668730D01*
X193668938Y-39668730D01*
X193669010Y-39668462D01*
X193836803Y-39377837D01*
X194357169Y-38476537D01*
X194508172Y-38214992D01*
X194535397Y-38167837D01*
X194579155Y-38092046D01*
X194606707Y-38044325D01*
X194620011Y-38021281D01*
X194622743Y-38020549D01*
X196529732Y-39121550D01*
G37*
G36*
X170616732Y-40089000D02*
G01*
X170617000Y-40090000D01*
X170617000Y-40238000D01*
X170616000Y-40239732D01*
X170615000Y-40240000D01*
X169013000Y-40240000D01*
X169011268Y-40239000D01*
X169011000Y-40238000D01*
X169011000Y-40090000D01*
X169012000Y-40088268D01*
X169013000Y-40088000D01*
X170615000Y-40088000D01*
X170616732Y-40089000D01*
G37*
G36*
X182016732Y-40089000D02*
G01*
X182017000Y-40090000D01*
X182017000Y-40238000D01*
X182016000Y-40239732D01*
X182015000Y-40240000D01*
X180413000Y-40240000D01*
X180411268Y-40239000D01*
X180411000Y-40238000D01*
X180411000Y-40090000D01*
X180412000Y-40088268D01*
X180413000Y-40088000D01*
X182015000Y-40088000D01*
X182016732Y-40089000D01*
G37*
G36*
X182016732Y-39289000D02*
G01*
X182017000Y-39290000D01*
X182017000Y-39438000D01*
X182016000Y-39439732D01*
X182015000Y-39440000D01*
X180413000Y-39440000D01*
X180411268Y-39439000D01*
X180411000Y-39438000D01*
X180411000Y-39290000D01*
X180412000Y-39288268D01*
X180413000Y-39288000D01*
X182015000Y-39288000D01*
X182016732Y-39289000D01*
G37*
G36*
X170616732Y-39289000D02*
G01*
X170617000Y-39290000D01*
X170617000Y-39438000D01*
X170616000Y-39439732D01*
X170615000Y-39440000D01*
X169013000Y-39440000D01*
X169011268Y-39439000D01*
X169011000Y-39438000D01*
X169011000Y-39290000D01*
X169012000Y-39288268D01*
X169013000Y-39288000D01*
X170615000Y-39288000D01*
X170616732Y-39289000D01*
G37*
G36*
X194018258Y-37671550D02*
G01*
X194019258Y-37673282D01*
X194018990Y-37674282D01*
X193547457Y-38491000D01*
X193462009Y-38639000D01*
X193089036Y-39285008D01*
X193067989Y-39321463D01*
X193065257Y-39322195D01*
X191158268Y-38221194D01*
X191157268Y-38219462D01*
X191157464Y-38218730D01*
X191162001Y-38218730D01*
X193065525Y-39317730D01*
X193085572Y-39283008D01*
X193458545Y-38637000D01*
X193543993Y-38489000D01*
X194014525Y-37674014D01*
X192111001Y-36575014D01*
X191162001Y-38218730D01*
X191157464Y-38218730D01*
X191157536Y-38218462D01*
X192108537Y-36571281D01*
X192111269Y-36570549D01*
X194018258Y-37671550D01*
G37*
G36*
X170616732Y-38489000D02*
G01*
X170617000Y-38490000D01*
X170617000Y-38638000D01*
X170616000Y-38639732D01*
X170615000Y-38640000D01*
X169013000Y-38640000D01*
X169011268Y-38639000D01*
X169011000Y-38638000D01*
X169011000Y-38490000D01*
X169012000Y-38488268D01*
X169013000Y-38488000D01*
X170615000Y-38488000D01*
X170616732Y-38489000D01*
G37*
G36*
X182016732Y-38489000D02*
G01*
X182017000Y-38490000D01*
X182017000Y-38638000D01*
X182016000Y-38639732D01*
X182015000Y-38640000D01*
X180413000Y-38640000D01*
X180411268Y-38639000D01*
X180411000Y-38638000D01*
X180411000Y-38490000D01*
X180412000Y-38488268D01*
X180413000Y-38488000D01*
X182015000Y-38488000D01*
X182016732Y-38489000D01*
G37*
G36*
X171989732Y-35662000D02*
G01*
X171990000Y-35663000D01*
X171990000Y-37265000D01*
X171989000Y-37266732D01*
X171988000Y-37267000D01*
X171840000Y-37267000D01*
X171838268Y-37266000D01*
X171838000Y-37265000D01*
X171838000Y-35663000D01*
X171839000Y-35661268D01*
X171840000Y-35661000D01*
X171988000Y-35661000D01*
X171989732Y-35662000D01*
G37*
G36*
X172789732Y-35662000D02*
G01*
X172790000Y-35663000D01*
X172790000Y-37265000D01*
X172789000Y-37266732D01*
X172788000Y-37267000D01*
X172640000Y-37267000D01*
X172638268Y-37266000D01*
X172638000Y-37265000D01*
X172638000Y-35663000D01*
X172639000Y-35661268D01*
X172640000Y-35661000D01*
X172788000Y-35661000D01*
X172789732Y-35662000D01*
G37*
G36*
X173589732Y-35662000D02*
G01*
X173590000Y-35663000D01*
X173590000Y-37265000D01*
X173589000Y-37266732D01*
X173588000Y-37267000D01*
X173440000Y-37267000D01*
X173438268Y-37266000D01*
X173438000Y-37265000D01*
X173438000Y-35663000D01*
X173439000Y-35661268D01*
X173440000Y-35661000D01*
X173588000Y-35661000D01*
X173589732Y-35662000D01*
G37*
G36*
X174389732Y-35662000D02*
G01*
X174390000Y-35663000D01*
X174390000Y-37265000D01*
X174389000Y-37266732D01*
X174388000Y-37267000D01*
X174240000Y-37267000D01*
X174238268Y-37266000D01*
X174238000Y-37265000D01*
X174238000Y-35663000D01*
X174239000Y-35661268D01*
X174240000Y-35661000D01*
X174388000Y-35661000D01*
X174389732Y-35662000D01*
G37*
G36*
X175189732Y-35662000D02*
G01*
X175190000Y-35663000D01*
X175190000Y-37265000D01*
X175189000Y-37266732D01*
X175188000Y-37267000D01*
X175040000Y-37267000D01*
X175038268Y-37266000D01*
X175038000Y-37265000D01*
X175038000Y-35663000D01*
X175039000Y-35661268D01*
X175040000Y-35661000D01*
X175188000Y-35661000D01*
X175189732Y-35662000D01*
G37*
G36*
X177589732Y-35662000D02*
G01*
X177590000Y-35663000D01*
X177590000Y-37265000D01*
X177589000Y-37266732D01*
X177588000Y-37267000D01*
X177440000Y-37267000D01*
X177438268Y-37266000D01*
X177438000Y-37265000D01*
X177438000Y-35663000D01*
X177439000Y-35661268D01*
X177440000Y-35661000D01*
X177588000Y-35661000D01*
X177589732Y-35662000D01*
G37*
G36*
X176789732Y-35662000D02*
G01*
X176790000Y-35663000D01*
X176790000Y-37265000D01*
X176789000Y-37266732D01*
X176788000Y-37267000D01*
X176640000Y-37267000D01*
X176638268Y-37266000D01*
X176638000Y-37265000D01*
X176638000Y-35663000D01*
X176639000Y-35661268D01*
X176640000Y-35661000D01*
X176788000Y-35661000D01*
X176789732Y-35662000D01*
G37*
G36*
X175989732Y-35662000D02*
G01*
X175990000Y-35663000D01*
X175990000Y-37265000D01*
X175989000Y-37266732D01*
X175988000Y-37267000D01*
X175840000Y-37267000D01*
X175838268Y-37266000D01*
X175838000Y-37265000D01*
X175838000Y-35663000D01*
X175839000Y-35661268D01*
X175840000Y-35661000D01*
X175988000Y-35661000D01*
X175989732Y-35662000D01*
G37*
G36*
X179189732Y-35662000D02*
G01*
X179190000Y-35663000D01*
X179190000Y-37265000D01*
X179189000Y-37266732D01*
X179188000Y-37267000D01*
X179040000Y-37267000D01*
X179038268Y-37266000D01*
X179038000Y-37265000D01*
X179038000Y-35663000D01*
X179039000Y-35661268D01*
X179040000Y-35661000D01*
X179188000Y-35661000D01*
X179189732Y-35662000D01*
G37*
G36*
X178389732Y-35662000D02*
G01*
X178390000Y-35663000D01*
X178390000Y-37265000D01*
X178389000Y-37266732D01*
X178388000Y-37267000D01*
X178240000Y-37267000D01*
X178238268Y-37266000D01*
X178238000Y-37265000D01*
X178238000Y-35663000D01*
X178239000Y-35661268D01*
X178240000Y-35661000D01*
X178388000Y-35661000D01*
X178389732Y-35662000D01*
G37*
G36*
X166106732Y-30855000D02*
G01*
X166107000Y-30856000D01*
X166107000Y-31054000D01*
X166106000Y-31055732D01*
X166105000Y-31056000D01*
X164443000Y-31056000D01*
X164441268Y-31055000D01*
X164441000Y-31054000D01*
X164441000Y-30856000D01*
X164442000Y-30854268D01*
X164443000Y-30854000D01*
X166105000Y-30854000D01*
X166106732Y-30855000D01*
G37*
G36*
X168806732Y-30855000D02*
G01*
X168807000Y-30856000D01*
X168807000Y-31054000D01*
X168806000Y-31055732D01*
X168805000Y-31056000D01*
X167143000Y-31056000D01*
X167141268Y-31055000D01*
X167141000Y-31054000D01*
X167141000Y-30856000D01*
X167142000Y-30854268D01*
X167143000Y-30854000D01*
X168805000Y-30854000D01*
X168806732Y-30855000D01*
G37*
G36*
X166106732Y-29905000D02*
G01*
X166107000Y-29906000D01*
X166107000Y-30104000D01*
X166106000Y-30105732D01*
X166105000Y-30106000D01*
X164443000Y-30106000D01*
X164441268Y-30105000D01*
X164441000Y-30104000D01*
X164441000Y-29906000D01*
X164442000Y-29904268D01*
X164443000Y-29904000D01*
X166105000Y-29904000D01*
X166106732Y-29905000D01*
G37*
G36*
X168806732Y-29905000D02*
G01*
X168807000Y-29906000D01*
X168807000Y-30104000D01*
X168806000Y-30105732D01*
X168805000Y-30106000D01*
X167143000Y-30106000D01*
X167141268Y-30105000D01*
X167141000Y-30104000D01*
X167141000Y-29906000D01*
X167142000Y-29904268D01*
X167143000Y-29904000D01*
X168805000Y-29904000D01*
X168806732Y-29905000D01*
G37*
G36*
X175260587Y-27981000D02*
G01*
X175260855Y-27982000D01*
X175260855Y-29434000D01*
X175259855Y-29435732D01*
X175258855Y-29436000D01*
X175110855Y-29436000D01*
X175109123Y-29435000D01*
X175108855Y-29434000D01*
X175108855Y-27982000D01*
X175109855Y-27980268D01*
X175110855Y-27980000D01*
X175258855Y-27980000D01*
X175260587Y-27981000D01*
G37*
G36*
X174610587Y-27981000D02*
G01*
X174610855Y-27982000D01*
X174610855Y-29434000D01*
X174609855Y-29435732D01*
X174608855Y-29436000D01*
X174460855Y-29436000D01*
X174459123Y-29435000D01*
X174458855Y-29434000D01*
X174458855Y-27982000D01*
X174459855Y-27980268D01*
X174460855Y-27980000D01*
X174608855Y-27980000D01*
X174610587Y-27981000D01*
G37*
G36*
X175910587Y-27981000D02*
G01*
X175910855Y-27982000D01*
X175910855Y-29434000D01*
X175909855Y-29435732D01*
X175908855Y-29436000D01*
X175760855Y-29436000D01*
X175759123Y-29435000D01*
X175758855Y-29434000D01*
X175758855Y-27982000D01*
X175759855Y-27980268D01*
X175760855Y-27980000D01*
X175908855Y-27980000D01*
X175910587Y-27981000D01*
G37*
G36*
X176560587Y-27981000D02*
G01*
X176560855Y-27982000D01*
X176560855Y-29434000D01*
X176559855Y-29435732D01*
X176558855Y-29436000D01*
X176410855Y-29436000D01*
X176409123Y-29435000D01*
X176408855Y-29434000D01*
X176408855Y-27982000D01*
X176409855Y-27980268D01*
X176410855Y-27980000D01*
X176558855Y-27980000D01*
X176560587Y-27981000D01*
G37*
G36*
X177062845Y-28354032D02*
G01*
X177065227Y-28378219D01*
X177072227Y-28401294D01*
X177083592Y-28422558D01*
X177098887Y-28441195D01*
X177117524Y-28456490D01*
X177138788Y-28467855D01*
X177161863Y-28474855D01*
X177185854Y-28477218D01*
X177209845Y-28474855D01*
X177232920Y-28467855D01*
X177254184Y-28456490D01*
X177272821Y-28441195D01*
X177288116Y-28422558D01*
X177296678Y-28406539D01*
X177298377Y-28405483D01*
X177300140Y-28406426D01*
X177300290Y-28408247D01*
X177269193Y-28483321D01*
X177239592Y-28632138D01*
X177239592Y-28783862D01*
X177269193Y-28932679D01*
X177300290Y-29007753D01*
X177300029Y-29009736D01*
X177298181Y-29010501D01*
X177296678Y-29009461D01*
X177288116Y-28993442D01*
X177272821Y-28974805D01*
X177254184Y-28959510D01*
X177232920Y-28948145D01*
X177209845Y-28941145D01*
X177185854Y-28938782D01*
X177161863Y-28941145D01*
X177138788Y-28948145D01*
X177117524Y-28959510D01*
X177098887Y-28974805D01*
X177083592Y-28993442D01*
X177072227Y-29014706D01*
X177065227Y-29037781D01*
X177062845Y-29061968D01*
X177061680Y-29063594D01*
X177059690Y-29063398D01*
X177058855Y-29061772D01*
X177058855Y-28354228D01*
X177059855Y-28352496D01*
X177061855Y-28352496D01*
X177062845Y-28354032D01*
G37*
G36*
X173960020Y-28352602D02*
G01*
X173960855Y-28354228D01*
X173960855Y-29061772D01*
X173959855Y-29063504D01*
X173957855Y-29063504D01*
X173956865Y-29061968D01*
X173954483Y-29037781D01*
X173947483Y-29014706D01*
X173936118Y-28993442D01*
X173920823Y-28974805D01*
X173902186Y-28959510D01*
X173880922Y-28948145D01*
X173857847Y-28941145D01*
X173833856Y-28938782D01*
X173809865Y-28941145D01*
X173786790Y-28948145D01*
X173765526Y-28959510D01*
X173746889Y-28974805D01*
X173731594Y-28993442D01*
X173723032Y-29009461D01*
X173721333Y-29010517D01*
X173719570Y-29009574D01*
X173719420Y-29007753D01*
X173750517Y-28932679D01*
X173780118Y-28783862D01*
X173780118Y-28632138D01*
X173750517Y-28483321D01*
X173719420Y-28408247D01*
X173719681Y-28406264D01*
X173721529Y-28405499D01*
X173723032Y-28406539D01*
X173731594Y-28422558D01*
X173746889Y-28441195D01*
X173765526Y-28456490D01*
X173786790Y-28467855D01*
X173809865Y-28474855D01*
X173833856Y-28477218D01*
X173857847Y-28474855D01*
X173880922Y-28467855D01*
X173902186Y-28456490D01*
X173920823Y-28441195D01*
X173936118Y-28422558D01*
X173947483Y-28401294D01*
X173954483Y-28378219D01*
X173956865Y-28354032D01*
X173958030Y-28352406D01*
X173960020Y-28352602D01*
G37*
M02*
