G04 #@! TF.GenerationSoftware,KiCad,Pcbnew,(5.1.9)-1*
G04 #@! TF.CreationDate,2021-07-10T17:24:29+08:00*
G04 #@! TF.ProjectId,arisu,61726973-752e-46b6-9963-61645f706362,1.1*
G04 #@! TF.SameCoordinates,Original*
G04 #@! TF.FileFunction,Legend,Top*
G04 #@! TF.FilePolarity,Positive*
%FSLAX46Y46*%
G04 Gerber Fmt 4.6, Leading zero omitted, Abs format (unit mm)*
G04 Created by KiCad (PCBNEW (5.1.9)-1) date 2021-07-10 17:24:29*
%MOMM*%
%LPD*%
G01*
G04 APERTURE LIST*
%ADD10C,0.500000*%
%ADD11C,0.120000*%
%ADD12C,0.150000*%
%ADD13C,2.302000*%
%ADD14C,4.102000*%
%ADD15C,1.802000*%
%ADD16C,3.152000*%
%ADD17C,4.502000*%
%ADD18C,1.552000*%
%ADD19O,1.302000X2.002000*%
G04 APERTURE END LIST*
D10*
X60916666Y-117761904D02*
X60916666Y-112761904D01*
X62107142Y-112761904D01*
X62821428Y-113000000D01*
X63297619Y-113476190D01*
X63535714Y-113952380D01*
X63773809Y-114904761D01*
X63773809Y-115619047D01*
X63535714Y-116571428D01*
X63297619Y-117047619D01*
X62821428Y-117523809D01*
X62107142Y-117761904D01*
X60916666Y-117761904D01*
X66630952Y-117761904D02*
X66154761Y-117523809D01*
X65916666Y-117285714D01*
X65678571Y-116809523D01*
X65678571Y-115380952D01*
X65916666Y-114904761D01*
X66154761Y-114666666D01*
X66630952Y-114428571D01*
X67345238Y-114428571D01*
X67821428Y-114666666D01*
X68059523Y-114904761D01*
X68297619Y-115380952D01*
X68297619Y-116809523D01*
X68059523Y-117285714D01*
X67821428Y-117523809D01*
X67345238Y-117761904D01*
X66630952Y-117761904D01*
X72583333Y-114428571D02*
X72583333Y-117761904D01*
X70440476Y-114428571D02*
X70440476Y-117047619D01*
X70678571Y-117523809D01*
X71154761Y-117761904D01*
X71869047Y-117761904D01*
X72345238Y-117523809D01*
X72583333Y-117285714D01*
X74964285Y-117761904D02*
X74964285Y-112761904D01*
X77821428Y-117761904D02*
X75678571Y-114904761D01*
X77821428Y-112761904D02*
X74964285Y-115619047D01*
X81630952Y-115142857D02*
X82345238Y-115380952D01*
X82583333Y-115619047D01*
X82821428Y-116095238D01*
X82821428Y-116809523D01*
X82583333Y-117285714D01*
X82345238Y-117523809D01*
X81869047Y-117761904D01*
X79964285Y-117761904D01*
X79964285Y-112761904D01*
X81630952Y-112761904D01*
X82107142Y-113000000D01*
X82345238Y-113238095D01*
X82583333Y-113714285D01*
X82583333Y-114190476D01*
X82345238Y-114666666D01*
X82107142Y-114904761D01*
X81630952Y-115142857D01*
X79964285Y-115142857D01*
D11*
X296150000Y-119500000D02*
X296150000Y-118350000D01*
X288850000Y-119500000D02*
X296150000Y-119500000D01*
X288850000Y-114000000D02*
X296150000Y-114000000D01*
X275100000Y-114000000D02*
X282400000Y-114000000D01*
X275100000Y-119500000D02*
X282400000Y-119500000D01*
X282400000Y-119500000D02*
X282400000Y-118350000D01*
D12*
X291285714Y-113702380D02*
X291285714Y-112702380D01*
X291523809Y-112702380D01*
X291666666Y-112750000D01*
X291761904Y-112845238D01*
X291809523Y-112940476D01*
X291857142Y-113130952D01*
X291857142Y-113273809D01*
X291809523Y-113464285D01*
X291761904Y-113559523D01*
X291666666Y-113654761D01*
X291523809Y-113702380D01*
X291285714Y-113702380D01*
X292190476Y-112702380D02*
X292857142Y-112702380D01*
X292428571Y-113702380D01*
X293380952Y-113130952D02*
X293285714Y-113083333D01*
X293238095Y-113035714D01*
X293190476Y-112940476D01*
X293190476Y-112892857D01*
X293238095Y-112797619D01*
X293285714Y-112750000D01*
X293380952Y-112702380D01*
X293571428Y-112702380D01*
X293666666Y-112750000D01*
X293714285Y-112797619D01*
X293761904Y-112892857D01*
X293761904Y-112940476D01*
X293714285Y-113035714D01*
X293666666Y-113083333D01*
X293571428Y-113130952D01*
X293380952Y-113130952D01*
X293285714Y-113178571D01*
X293238095Y-113226190D01*
X293190476Y-113321428D01*
X293190476Y-113511904D01*
X293238095Y-113607142D01*
X293285714Y-113654761D01*
X293380952Y-113702380D01*
X293571428Y-113702380D01*
X293666666Y-113654761D01*
X293714285Y-113607142D01*
X293761904Y-113511904D01*
X293761904Y-113321428D01*
X293714285Y-113226190D01*
X293666666Y-113178571D01*
X293571428Y-113130952D01*
X288635714Y-115602380D02*
X288064285Y-115602380D01*
X288350000Y-115602380D02*
X288350000Y-114602380D01*
X288254761Y-114745238D01*
X288159523Y-114840476D01*
X288064285Y-114888095D01*
X277535714Y-113702380D02*
X277535714Y-112702380D01*
X277773809Y-112702380D01*
X277916666Y-112750000D01*
X278011904Y-112845238D01*
X278059523Y-112940476D01*
X278107142Y-113130952D01*
X278107142Y-113273809D01*
X278059523Y-113464285D01*
X278011904Y-113559523D01*
X277916666Y-113654761D01*
X277773809Y-113702380D01*
X277535714Y-113702380D01*
X278440476Y-112702380D02*
X279107142Y-112702380D01*
X278678571Y-113702380D01*
X279916666Y-113035714D02*
X279916666Y-113702380D01*
X279678571Y-112654761D02*
X279440476Y-113369047D01*
X280059523Y-113369047D01*
X274885714Y-115602380D02*
X274314285Y-115602380D01*
X274600000Y-115602380D02*
X274600000Y-114602380D01*
X274504761Y-114745238D01*
X274409523Y-114840476D01*
X274314285Y-114888095D01*
%LPC*%
D13*
X213847569Y-120874453D03*
X208164428Y-124679187D03*
D14*
X212419266Y-126371538D03*
D15*
X207450276Y-127427729D03*
X217388255Y-125315347D03*
D14*
X222346030Y-115837453D03*
X199066117Y-120785751D03*
D16*
X202234691Y-135692720D03*
X225514604Y-130744422D03*
D15*
X71470000Y-38720000D03*
X61310000Y-38720000D03*
D14*
X66390000Y-38720000D03*
D13*
X62580000Y-36180000D03*
X68930000Y-33640000D03*
D15*
X110498996Y-42496687D03*
X100561016Y-40384304D03*
D14*
X105530006Y-41440496D03*
D13*
X102331359Y-38163857D03*
X109070692Y-36999602D03*
D15*
X129132707Y-46457405D03*
X119194727Y-44345022D03*
D14*
X124163717Y-45401214D03*
D13*
X120965070Y-42124575D03*
X127704403Y-40960320D03*
G36*
G01*
X294149000Y-118850000D02*
X294149000Y-117850000D01*
G75*
G02*
X294200000Y-117799000I51000J0D01*
G01*
X295700000Y-117799000D01*
G75*
G02*
X295751000Y-117850000I0J-51000D01*
G01*
X295751000Y-118850000D01*
G75*
G02*
X295700000Y-118901000I-51000J0D01*
G01*
X294200000Y-118901000D01*
G75*
G02*
X294149000Y-118850000I0J51000D01*
G01*
G37*
G36*
G01*
X294149000Y-115650000D02*
X294149000Y-114650000D01*
G75*
G02*
X294200000Y-114599000I51000J0D01*
G01*
X295700000Y-114599000D01*
G75*
G02*
X295751000Y-114650000I0J-51000D01*
G01*
X295751000Y-115650000D01*
G75*
G02*
X295700000Y-115701000I-51000J0D01*
G01*
X294200000Y-115701000D01*
G75*
G02*
X294149000Y-115650000I0J51000D01*
G01*
G37*
G36*
G01*
X289249000Y-118850000D02*
X289249000Y-117850000D01*
G75*
G02*
X289300000Y-117799000I51000J0D01*
G01*
X290800000Y-117799000D01*
G75*
G02*
X290851000Y-117850000I0J-51000D01*
G01*
X290851000Y-118850000D01*
G75*
G02*
X290800000Y-118901000I-51000J0D01*
G01*
X289300000Y-118901000D01*
G75*
G02*
X289249000Y-118850000I0J51000D01*
G01*
G37*
G36*
G01*
X289249000Y-115650000D02*
X289249000Y-114650000D01*
G75*
G02*
X289300000Y-114599000I51000J0D01*
G01*
X290800000Y-114599000D01*
G75*
G02*
X290851000Y-114650000I0J-51000D01*
G01*
X290851000Y-115650000D01*
G75*
G02*
X290800000Y-115701000I-51000J0D01*
G01*
X289300000Y-115701000D01*
G75*
G02*
X289249000Y-115650000I0J51000D01*
G01*
G37*
G36*
G01*
X275499000Y-115650000D02*
X275499000Y-114650000D01*
G75*
G02*
X275550000Y-114599000I51000J0D01*
G01*
X277050000Y-114599000D01*
G75*
G02*
X277101000Y-114650000I0J-51000D01*
G01*
X277101000Y-115650000D01*
G75*
G02*
X277050000Y-115701000I-51000J0D01*
G01*
X275550000Y-115701000D01*
G75*
G02*
X275499000Y-115650000I0J51000D01*
G01*
G37*
G36*
G01*
X275499000Y-118850000D02*
X275499000Y-117850000D01*
G75*
G02*
X275550000Y-117799000I51000J0D01*
G01*
X277050000Y-117799000D01*
G75*
G02*
X277101000Y-117850000I0J-51000D01*
G01*
X277101000Y-118850000D01*
G75*
G02*
X277050000Y-118901000I-51000J0D01*
G01*
X275550000Y-118901000D01*
G75*
G02*
X275499000Y-118850000I0J51000D01*
G01*
G37*
G36*
G01*
X280399000Y-115650000D02*
X280399000Y-114650000D01*
G75*
G02*
X280450000Y-114599000I51000J0D01*
G01*
X281950000Y-114599000D01*
G75*
G02*
X282001000Y-114650000I0J-51000D01*
G01*
X282001000Y-115650000D01*
G75*
G02*
X281950000Y-115701000I-51000J0D01*
G01*
X280450000Y-115701000D01*
G75*
G02*
X280399000Y-115650000I0J51000D01*
G01*
G37*
G36*
G01*
X280399000Y-118850000D02*
X280399000Y-117850000D01*
G75*
G02*
X280450000Y-117799000I51000J0D01*
G01*
X281950000Y-117799000D01*
G75*
G02*
X282001000Y-117850000I0J-51000D01*
G01*
X282001000Y-118850000D01*
G75*
G02*
X281950000Y-118901000I-51000J0D01*
G01*
X280450000Y-118901000D01*
G75*
G02*
X280399000Y-118850000I0J51000D01*
G01*
G37*
X321796250Y-71740000D03*
X315446250Y-74280000D03*
D14*
X319256250Y-76820000D03*
D15*
X314176250Y-76820000D03*
X324336250Y-76820000D03*
D14*
X331156250Y-68580000D03*
X307356250Y-68580000D03*
D16*
X307356250Y-83820000D03*
X331156250Y-83820000D03*
D13*
X135153475Y-120446047D03*
X128414142Y-121610303D03*
D14*
X131612789Y-124886942D03*
D15*
X126643799Y-123830750D03*
X136581779Y-125943133D03*
D14*
X144965938Y-119301154D03*
X121686025Y-114352856D03*
D16*
X118517451Y-129259826D03*
X141797364Y-134208124D03*
D13*
X49383750Y-90790000D03*
X43033750Y-93330000D03*
D14*
X46843750Y-95870000D03*
D15*
X41763750Y-95870000D03*
X51923750Y-95870000D03*
D14*
X58743750Y-104110000D03*
X34943750Y-104110000D03*
D16*
X34943750Y-88870000D03*
X58743750Y-88870000D03*
D13*
X48796250Y-71740000D03*
X42446250Y-74280000D03*
D14*
X46256250Y-76820000D03*
D15*
X41176250Y-76820000D03*
X51336250Y-76820000D03*
D13*
X307508769Y-90789998D03*
X301158769Y-93329998D03*
D14*
X304968769Y-95869998D03*
D15*
X299888769Y-95869998D03*
X310048769Y-95869998D03*
D13*
X50480000Y-52690000D03*
X44130000Y-55230000D03*
D14*
X47940000Y-57770000D03*
D15*
X42860000Y-57770000D03*
X53020000Y-57770000D03*
D13*
X42250000Y-109840000D03*
X35900000Y-112380000D03*
D14*
X39710000Y-114920000D03*
D15*
X34630000Y-114920000D03*
X44790000Y-114920000D03*
D13*
X102544484Y-113514795D03*
X95805151Y-114679051D03*
D14*
X99003798Y-117955689D03*
D15*
X94034808Y-116899498D03*
X103972788Y-119011881D03*
D13*
X253444205Y-112457940D03*
X247761064Y-116262674D03*
D14*
X252015902Y-117955026D03*
D15*
X247046912Y-119011217D03*
X256984892Y-116898834D03*
D13*
X324670000Y-52690000D03*
X318320000Y-55230000D03*
D14*
X322130000Y-57770000D03*
D15*
X317050000Y-57770000D03*
X327210000Y-57770000D03*
X52420000Y-38720000D03*
X42260000Y-38720000D03*
D14*
X47340000Y-38720000D03*
D13*
X43530000Y-36180000D03*
X49880000Y-33640000D03*
D15*
X76830000Y-57770000D03*
X66670000Y-57770000D03*
D14*
X71750000Y-57770000D03*
D13*
X67940000Y-55230000D03*
X74290000Y-52690000D03*
D15*
X77530000Y-76820000D03*
X67370000Y-76820000D03*
D14*
X72450000Y-76820000D03*
D13*
X68640000Y-74280000D03*
X74990000Y-71740000D03*
D15*
X82880000Y-95870000D03*
X72720000Y-95870000D03*
D14*
X77800000Y-95870000D03*
D13*
X73990000Y-93330000D03*
X80340000Y-90790000D03*
D15*
X90520000Y-37219615D03*
X80360000Y-37219615D03*
D14*
X85440000Y-37219615D03*
D13*
X81630000Y-34679615D03*
X87980000Y-32139615D03*
D15*
X97221338Y-59150030D03*
X87283358Y-57037647D03*
D14*
X92252348Y-58093839D03*
D13*
X89053701Y-54817200D03*
X95793034Y-53652945D03*
D15*
X97919005Y-78773923D03*
X87981025Y-76661540D03*
D14*
X92950015Y-77717732D03*
D13*
X89751368Y-74441093D03*
X96490701Y-73276838D03*
D15*
X103275087Y-99387992D03*
X93337107Y-97275609D03*
D14*
X98306097Y-98331801D03*
D13*
X95107450Y-95055162D03*
X101846783Y-93890907D03*
D15*
X115855048Y-63110756D03*
X105917068Y-60998373D03*
D14*
X110886058Y-62054565D03*
D13*
X107687411Y-58777926D03*
X114426744Y-57613671D03*
D15*
X116552715Y-82734650D03*
X106614735Y-80622267D03*
D14*
X111583725Y-81678459D03*
D13*
X108385078Y-78401820D03*
X115124411Y-77237565D03*
D15*
X121908797Y-103348718D03*
X111970817Y-101236335D03*
D14*
X116939807Y-102292527D03*
D13*
X113741160Y-99015888D03*
X120480493Y-97851633D03*
D15*
X134488758Y-67071483D03*
X124550778Y-64959100D03*
D14*
X129519768Y-66015292D03*
D13*
X126321121Y-62738653D03*
X133060454Y-61574398D03*
D15*
X135186425Y-86695377D03*
X125248445Y-84582994D03*
D14*
X130217435Y-85639186D03*
D13*
X127018788Y-82362547D03*
X133758121Y-81198292D03*
D15*
X140542506Y-107309445D03*
X130604526Y-105197062D03*
D14*
X135573516Y-106253254D03*
D13*
X132374869Y-102976615D03*
X139114202Y-101812360D03*
D15*
X147766419Y-50418123D03*
X137828439Y-48305740D03*
D14*
X142797429Y-49361932D03*
D13*
X139598782Y-46085293D03*
X146338115Y-44921038D03*
D15*
X153122468Y-71032210D03*
X143184488Y-68919827D03*
D14*
X148153478Y-69976019D03*
D13*
X144954831Y-66699380D03*
X151694164Y-65535125D03*
D15*
X153820135Y-90656104D03*
X143882155Y-88543721D03*
D14*
X148851145Y-89599913D03*
D13*
X145652498Y-86323274D03*
X152391831Y-85159019D03*
D15*
X159176216Y-111270172D03*
X149238236Y-109157789D03*
D14*
X154207226Y-110213981D03*
D13*
X151008579Y-106937342D03*
X157747912Y-105773087D03*
D15*
X164532353Y-131884201D03*
X154594373Y-129771818D03*
D14*
X159563363Y-130828010D03*
D13*
X156364716Y-127551371D03*
X163104049Y-126387116D03*
D15*
X166400131Y-54378840D03*
X156462151Y-52266457D03*
D14*
X161431141Y-53322649D03*
D13*
X158232494Y-50046010D03*
X164971827Y-48881755D03*
D15*
X189201628Y-72879833D03*
X179263648Y-74992215D03*
D14*
X184232638Y-73936024D03*
D13*
X179977800Y-72243673D03*
X185660941Y-68438939D03*
D15*
X197820749Y-90523385D03*
X187882769Y-92635767D03*
D14*
X192851759Y-91579576D03*
D13*
X188596921Y-89887225D03*
X194280062Y-86082491D03*
D15*
X206439870Y-108166937D03*
X196501890Y-110279319D03*
D14*
X201470880Y-109223128D03*
D13*
X197216042Y-107530777D03*
X202899183Y-103726043D03*
D15*
X194557855Y-52265734D03*
X184619875Y-54378116D03*
D14*
X189588865Y-53321925D03*
D13*
X185334027Y-51629574D03*
X191017168Y-47824840D03*
D15*
X207835339Y-68919115D03*
X197897359Y-71031497D03*
D14*
X202866349Y-69975306D03*
D13*
X198611511Y-68282955D03*
X204294652Y-64478221D03*
D15*
X216454460Y-86562667D03*
X206516480Y-88675049D03*
D14*
X211485470Y-87618858D03*
D13*
X207230632Y-85926507D03*
X212913773Y-82121773D03*
D15*
X225073582Y-104206219D03*
X215135602Y-106318601D03*
D14*
X220104592Y-105262410D03*
D13*
X215849754Y-103570059D03*
X221532895Y-99765325D03*
D15*
X213191567Y-48305016D03*
X203253587Y-50417398D03*
D14*
X208222577Y-49361207D03*
D13*
X203967739Y-47668856D03*
X209650880Y-43864122D03*
D15*
X226469051Y-64958398D03*
X216531071Y-67070780D03*
D14*
X221500061Y-66014589D03*
D13*
X217245223Y-64322238D03*
X222928364Y-60517504D03*
D15*
X235088172Y-82601950D03*
X225150192Y-84714332D03*
D14*
X230119182Y-83658141D03*
D13*
X225864344Y-81965790D03*
X231547485Y-78161056D03*
D15*
X243707293Y-100245502D03*
X233769313Y-102357884D03*
D14*
X238738303Y-101301693D03*
D13*
X234483465Y-99609342D03*
X240166606Y-95804608D03*
D15*
X231825279Y-44344299D03*
X221887299Y-46456681D03*
D14*
X226856289Y-45400490D03*
D13*
X222601451Y-43708139D03*
X228284592Y-39903405D03*
D15*
X245102763Y-60997680D03*
X235164783Y-63110062D03*
D14*
X240133773Y-62053871D03*
D13*
X235878935Y-60361520D03*
X241562076Y-56556786D03*
D15*
X253721884Y-78641232D03*
X243783904Y-80753614D03*
D14*
X248752894Y-79697423D03*
D13*
X244498056Y-78005072D03*
X250181197Y-74200338D03*
D15*
X262341005Y-96284784D03*
X252403025Y-98397166D03*
D14*
X257372015Y-97340975D03*
D13*
X253117177Y-95648624D03*
X258800318Y-91843890D03*
D15*
X250458990Y-40383581D03*
X240521010Y-42495963D03*
D14*
X245490000Y-41439772D03*
D13*
X241235162Y-39747421D03*
X246918303Y-35942687D03*
D15*
X263736475Y-57036962D03*
X253798495Y-59149344D03*
D14*
X258767485Y-58093153D03*
D13*
X254512647Y-56400802D03*
X260195788Y-52596068D03*
D15*
X274330000Y-76820000D03*
X264170000Y-76820000D03*
D14*
X269250000Y-76820000D03*
D13*
X265440000Y-74280000D03*
X271790000Y-71740000D03*
D15*
X283855019Y-95869998D03*
X273695019Y-95869998D03*
D14*
X278775019Y-95869998D03*
D13*
X274965019Y-93329998D03*
X281315019Y-90789998D03*
D15*
X270650000Y-37219615D03*
X260490000Y-37219615D03*
D14*
X265570000Y-37219615D03*
D13*
X261760000Y-34679615D03*
X268110000Y-32139615D03*
D15*
X284340000Y-57770000D03*
X274180000Y-57770000D03*
D14*
X279260000Y-57770000D03*
D13*
X275450000Y-55230000D03*
X281800000Y-52690000D03*
D15*
X293380000Y-76820000D03*
X283220000Y-76820000D03*
D14*
X288300000Y-76820000D03*
D13*
X284490000Y-74280000D03*
X290840000Y-71740000D03*
D15*
X289700000Y-38720000D03*
X279540000Y-38720000D03*
D14*
X284620000Y-38720000D03*
D13*
X280810000Y-36180000D03*
X287160000Y-33640000D03*
D15*
X303390000Y-57770000D03*
X293230000Y-57770000D03*
D14*
X298310000Y-57770000D03*
D13*
X294500000Y-55230000D03*
X300850000Y-52690000D03*
D15*
X321954949Y-119682503D03*
X311794949Y-119682503D03*
D14*
X316874949Y-119682503D03*
D13*
X313064949Y-117142503D03*
X319414949Y-114602503D03*
D15*
X308750000Y-38720000D03*
X298590000Y-38720000D03*
D14*
X303670000Y-38720000D03*
D13*
X299860000Y-36180000D03*
X306210000Y-33640000D03*
D15*
X341004949Y-100632503D03*
X330844949Y-100632503D03*
D14*
X335924949Y-100632503D03*
D13*
X332114949Y-98092503D03*
X338464949Y-95552503D03*
D15*
X341004949Y-119682503D03*
X330844949Y-119682503D03*
D14*
X335924949Y-119682503D03*
D13*
X332114949Y-117142503D03*
X338464949Y-114602503D03*
D15*
X327800000Y-38720000D03*
X317640000Y-38720000D03*
D14*
X322720000Y-38720000D03*
D13*
X318910000Y-36180000D03*
X325260000Y-33640000D03*
D15*
X351612542Y-33957509D03*
X341452542Y-33957509D03*
D14*
X346532542Y-33957509D03*
D13*
X342722542Y-31417509D03*
X349072542Y-28877509D03*
D15*
X355785000Y-53007516D03*
X345625000Y-53007516D03*
D14*
X350705000Y-53007516D03*
D13*
X346895000Y-50467516D03*
X353245000Y-47927516D03*
D15*
X360054949Y-72057519D03*
X349894949Y-72057519D03*
D14*
X354974949Y-72057519D03*
D13*
X351164949Y-69517519D03*
X357514949Y-66977519D03*
D15*
X360054949Y-119682503D03*
X349894949Y-119682503D03*
D14*
X354974949Y-119682503D03*
D13*
X351164949Y-117142503D03*
X357514949Y-114602503D03*
D17*
X241060266Y-120608720D03*
X345449949Y-110157503D03*
D18*
X173009855Y-28708000D03*
X178009855Y-28708000D03*
D19*
X172009855Y-26008000D03*
X179009855Y-26008000D03*
G36*
G01*
X219825000Y-27266000D02*
X219825000Y-25566000D01*
G75*
G02*
X219876000Y-25515000I51000J0D01*
G01*
X221576000Y-25515000D01*
G75*
G02*
X221627000Y-25566000I0J-51000D01*
G01*
X221627000Y-27266000D01*
G75*
G02*
X221576000Y-27317000I-51000J0D01*
G01*
X219876000Y-27317000D01*
G75*
G02*
X219825000Y-27266000I0J51000D01*
G01*
G37*
G36*
G01*
X217285000Y-27266000D02*
X217285000Y-25566000D01*
G75*
G02*
X217336000Y-25515000I51000J0D01*
G01*
X219036000Y-25515000D01*
G75*
G02*
X219087000Y-25566000I0J-51000D01*
G01*
X219087000Y-27266000D01*
G75*
G02*
X219036000Y-27317000I-51000J0D01*
G01*
X217336000Y-27317000D01*
G75*
G02*
X217285000Y-27266000I0J51000D01*
G01*
G37*
G36*
G01*
X214745000Y-27266000D02*
X214745000Y-25566000D01*
G75*
G02*
X214796000Y-25515000I51000J0D01*
G01*
X216496000Y-25515000D01*
G75*
G02*
X216547000Y-25566000I0J-51000D01*
G01*
X216547000Y-27266000D01*
G75*
G02*
X216496000Y-27317000I-51000J0D01*
G01*
X214796000Y-27317000D01*
G75*
G02*
X214745000Y-27266000I0J51000D01*
G01*
G37*
G36*
G01*
X212205000Y-27266000D02*
X212205000Y-25566000D01*
G75*
G02*
X212256000Y-25515000I51000J0D01*
G01*
X213956000Y-25515000D01*
G75*
G02*
X214007000Y-25566000I0J-51000D01*
G01*
X214007000Y-27266000D01*
G75*
G02*
X213956000Y-27317000I-51000J0D01*
G01*
X212256000Y-27317000D01*
G75*
G02*
X212205000Y-27266000I0J51000D01*
G01*
G37*
G36*
G01*
X209665000Y-27266000D02*
X209665000Y-25566000D01*
G75*
G02*
X209716000Y-25515000I51000J0D01*
G01*
X211416000Y-25515000D01*
G75*
G02*
X211467000Y-25566000I0J-51000D01*
G01*
X211467000Y-27266000D01*
G75*
G02*
X211416000Y-27317000I-51000J0D01*
G01*
X209716000Y-27317000D01*
G75*
G02*
X209665000Y-27266000I0J51000D01*
G01*
G37*
G36*
G01*
X207125000Y-27266000D02*
X207125000Y-25566000D01*
G75*
G02*
X207176000Y-25515000I51000J0D01*
G01*
X208876000Y-25515000D01*
G75*
G02*
X208927000Y-25566000I0J-51000D01*
G01*
X208927000Y-27266000D01*
G75*
G02*
X208876000Y-27317000I-51000J0D01*
G01*
X207176000Y-27317000D01*
G75*
G02*
X207125000Y-27266000I0J51000D01*
G01*
G37*
G36*
G01*
X140323000Y-27266000D02*
X140323000Y-25566000D01*
G75*
G02*
X140374000Y-25515000I51000J0D01*
G01*
X142074000Y-25515000D01*
G75*
G02*
X142125000Y-25566000I0J-51000D01*
G01*
X142125000Y-27266000D01*
G75*
G02*
X142074000Y-27317000I-51000J0D01*
G01*
X140374000Y-27317000D01*
G75*
G02*
X140323000Y-27266000I0J51000D01*
G01*
G37*
G36*
G01*
X137783000Y-27266000D02*
X137783000Y-25566000D01*
G75*
G02*
X137834000Y-25515000I51000J0D01*
G01*
X139534000Y-25515000D01*
G75*
G02*
X139585000Y-25566000I0J-51000D01*
G01*
X139585000Y-27266000D01*
G75*
G02*
X139534000Y-27317000I-51000J0D01*
G01*
X137834000Y-27317000D01*
G75*
G02*
X137783000Y-27266000I0J51000D01*
G01*
G37*
G36*
G01*
X135243000Y-27266000D02*
X135243000Y-25566000D01*
G75*
G02*
X135294000Y-25515000I51000J0D01*
G01*
X136994000Y-25515000D01*
G75*
G02*
X137045000Y-25566000I0J-51000D01*
G01*
X137045000Y-27266000D01*
G75*
G02*
X136994000Y-27317000I-51000J0D01*
G01*
X135294000Y-27317000D01*
G75*
G02*
X135243000Y-27266000I0J51000D01*
G01*
G37*
G36*
G01*
X132703000Y-27266000D02*
X132703000Y-25566000D01*
G75*
G02*
X132754000Y-25515000I51000J0D01*
G01*
X134454000Y-25515000D01*
G75*
G02*
X134505000Y-25566000I0J-51000D01*
G01*
X134505000Y-27266000D01*
G75*
G02*
X134454000Y-27317000I-51000J0D01*
G01*
X132754000Y-27317000D01*
G75*
G02*
X132703000Y-27266000I0J51000D01*
G01*
G37*
G36*
G01*
X150483000Y-27266000D02*
X150483000Y-25566000D01*
G75*
G02*
X150534000Y-25515000I51000J0D01*
G01*
X152234000Y-25515000D01*
G75*
G02*
X152285000Y-25566000I0J-51000D01*
G01*
X152285000Y-27266000D01*
G75*
G02*
X152234000Y-27317000I-51000J0D01*
G01*
X150534000Y-27317000D01*
G75*
G02*
X150483000Y-27266000I0J51000D01*
G01*
G37*
G36*
G01*
X145403000Y-27266000D02*
X145403000Y-25566000D01*
G75*
G02*
X145454000Y-25515000I51000J0D01*
G01*
X147154000Y-25515000D01*
G75*
G02*
X147205000Y-25566000I0J-51000D01*
G01*
X147205000Y-27266000D01*
G75*
G02*
X147154000Y-27317000I-51000J0D01*
G01*
X145454000Y-27317000D01*
G75*
G02*
X145403000Y-27266000I0J51000D01*
G01*
G37*
G36*
G01*
X147943000Y-27266000D02*
X147943000Y-25566000D01*
G75*
G02*
X147994000Y-25515000I51000J0D01*
G01*
X149694000Y-25515000D01*
G75*
G02*
X149745000Y-25566000I0J-51000D01*
G01*
X149745000Y-27266000D01*
G75*
G02*
X149694000Y-27317000I-51000J0D01*
G01*
X147994000Y-27317000D01*
G75*
G02*
X147943000Y-27266000I0J51000D01*
G01*
G37*
G36*
G01*
X142863000Y-27266000D02*
X142863000Y-25566000D01*
G75*
G02*
X142914000Y-25515000I51000J0D01*
G01*
X144614000Y-25515000D01*
G75*
G02*
X144665000Y-25566000I0J-51000D01*
G01*
X144665000Y-27266000D01*
G75*
G02*
X144614000Y-27317000I-51000J0D01*
G01*
X142914000Y-27317000D01*
G75*
G02*
X142863000Y-27266000I0J51000D01*
G01*
G37*
D17*
X56865000Y-48245000D03*
X51197500Y-114920000D03*
X121827220Y-27932509D03*
X109959436Y-120609368D03*
X229192785Y-27932509D03*
X341180000Y-43482516D03*
M02*
