M48
; DRILL file {KiCad (5.1.9)-1} date 07/10/21 17:24:35
; FORMAT={-:-/ absolute / inch / decimal}
; #@! TF.CreationDate,2021-07-10T17:24:35+08:00
; #@! TF.GenerationSoftware,Kicad,Pcbnew,(5.1.9)-1
; #@! TF.FileFunction,NonPlated,1,2,NPTH
FMAT,2
INCH
T1C0.0669
T2C0.1201
T3C0.1575
%
G90
G05
T1
X1.3634Y-4.5244
X1.6211Y-3.0244
X1.6442Y-3.7744
X1.6638Y-1.5244
X1.6874Y-2.2744
X1.7634Y-4.5244
X2.0211Y-3.0244
X2.0442Y-3.7744
X2.0638Y-1.5244
X2.0874Y-2.2744
X2.4138Y-1.5244
X2.6248Y-2.2744
X2.6524Y-3.0244
X2.8138Y-1.5244
X2.863Y-3.7744
X3.0248Y-2.2744
X3.0524Y-3.0244
X3.1638Y-1.4653
X3.263Y-3.7744
X3.4364Y-2.2456
X3.4638Y-3.0182
X3.5638Y-1.4653
X3.6747Y-3.8297
X3.7022Y-4.6023
X3.8276Y-2.3287
X3.8551Y-3.1013
X3.9591Y-1.5899
X4.0659Y-3.9129
X4.0934Y-4.6855
X4.17Y-2.4015
X4.1974Y-3.1741
X4.3504Y-1.6731
X4.4083Y-3.9857
X4.5612Y-2.4847
X4.5887Y-3.2573
X4.6927Y-1.7459
X4.7996Y-4.0688
X4.9036Y-2.5574
X4.931Y-3.33
X4.986Y-4.8752
X5.084Y-1.829
X5.1419Y-4.1416
X5.2948Y-2.6406
X5.3223Y-3.4132
X5.3772Y-4.9584
X5.4263Y-1.9018
X5.5332Y-4.2248
X5.6372Y-2.7134
X5.6647Y-3.486
X5.8176Y-1.985
X5.8755Y-4.2976
X6.0284Y-2.7965
X6.0559Y-3.5691
X6.0864Y-5.1091
X6.1599Y-2.0577
X6.2668Y-4.3807
X6.4777Y-5.1923
X6.5512Y-2.1409
X7.0576Y-2.9524
X7.2685Y-2.1409
X7.397Y-3.6471
X7.4489Y-2.8693
X7.6598Y-2.0577
X7.7363Y-4.3417
X7.7882Y-3.5639
X7.7912Y-2.7965
X8.0021Y-1.9849
X8.1276Y-4.2585
X8.1306Y-3.4911
X8.1673Y-5.0168
X8.1825Y-2.7134
X8.3934Y-1.9018
X8.4699Y-4.1858
X8.5218Y-3.408
X8.5248Y-2.6406
X8.5586Y-4.9337
X8.7357Y-1.829
X8.8612Y-4.1026
X8.8642Y-3.3352
X8.9161Y-2.5574
X9.127Y-1.7458
X9.2035Y-4.0298
X9.2554Y-3.252
X9.2585Y-2.4846
X9.4693Y-1.6731
X9.5948Y-3.9467
X9.5978Y-3.1793
X9.6497Y-2.4015
X9.7263Y-4.6855
X9.8606Y-1.5899
X9.9371Y-3.8739
X9.9891Y-3.0961
X9.9921Y-2.3287
X10.1175Y-4.6023
X10.2555Y-1.4653
X10.3284Y-3.7907
X10.3833Y-2.2455
X10.4004Y-3.0244
X10.6555Y-1.4653
X10.7754Y-3.7744
X10.7945Y-2.2744
X10.8004Y-3.0244
X11.0055Y-1.5244
X11.1504Y-3.0244
X11.1754Y-3.7744
X11.1945Y-2.2744
X11.4055Y-1.5244
X11.5445Y-2.2744
X11.5504Y-3.0244
X11.7555Y-1.5244
X11.8066Y-3.7744
X11.9445Y-2.2744
X12.1555Y-1.5244
X12.2066Y-3.7744
X12.2754Y-4.7119
X12.3691Y-3.0244
X12.4823Y-2.2744
X12.5055Y-1.5244
X12.6754Y-4.7119
X12.7691Y-3.0244
X12.8823Y-2.2744
X12.9055Y-1.5244
X13.0254Y-3.9619
X13.0254Y-4.7119
X13.4254Y-3.9619
X13.4254Y-4.7119
X13.443Y-1.3369
X13.6073Y-2.0869
X13.7754Y-2.8369
X13.7754Y-4.7119
X13.843Y-1.3369
X14.0073Y-2.0869
X14.1754Y-2.8369
X14.1754Y-4.7119
T2
X1.3757Y-3.4988
X2.3127Y-3.4988
X4.666Y-5.089
X5.5826Y-5.2838
X7.962Y-5.3422
X8.8785Y-5.1474
X12.1006Y-3.3
X13.0376Y-3.3
T3
X1.3757Y-4.0988
X1.5634Y-4.5244
X1.8211Y-3.0244
X1.8442Y-3.7744
X1.8638Y-1.5244
X1.8874Y-2.2744
X2.3127Y-4.0988
X2.6138Y-1.5244
X2.8248Y-2.2744
X2.8524Y-3.0244
X3.063Y-3.7744
X3.3638Y-1.4653
X3.632Y-2.2872
X3.6594Y-3.0598
X3.8703Y-3.8713
X3.8978Y-4.6439
X4.1547Y-1.6315
X4.3656Y-2.4431
X4.3931Y-3.2157
X4.6039Y-4.0273
X4.7908Y-4.5021
X4.8883Y-1.7874
X5.0992Y-2.599
X5.1267Y-3.3716
X5.1816Y-4.9168
X5.3375Y-4.1832
X5.6219Y-1.9434
X5.7073Y-4.6969
X5.8328Y-2.755
X5.8603Y-3.5276
X6.0712Y-4.3391
X6.282Y-5.1507
X6.3556Y-2.0993
X7.2533Y-2.9109
X7.4641Y-2.0993
X7.5926Y-3.6055
X7.8372Y-4.7553
X7.9319Y-4.3001
X7.9869Y-2.7549
X8.1977Y-1.9434
X8.3262Y-3.4496
X8.363Y-4.9753
X8.6655Y-4.1442
X8.7205Y-2.599
X8.7538Y-4.5605
X8.9313Y-1.7874
X9.0598Y-3.2936
X9.3991Y-3.9883
X9.4541Y-2.4431
X9.665Y-1.6315
X9.7934Y-3.1377
X9.9219Y-4.6439
X10.1328Y-3.8323
X10.1877Y-2.2871
X10.4555Y-1.4653
X10.6004Y-3.0244
X10.9754Y-3.7744
X10.9945Y-2.2744
X11.2055Y-1.5244
X11.3504Y-3.0244
X11.7445Y-2.2744
X11.9555Y-1.5244
X12.0066Y-3.7744
X12.1006Y-2.7
X12.4754Y-4.7119
X12.5691Y-3.0244
X12.6823Y-2.2744
X12.7055Y-1.5244
X13.0376Y-2.7
X13.2254Y-3.9619
X13.2254Y-4.7119
X13.643Y-1.3369
X13.8073Y-2.0869
X13.9754Y-2.8369
X13.9754Y-4.7119
T0
M30
