G04 #@! TF.GenerationSoftware,KiCad,Pcbnew,(5.1.9)-1*
G04 #@! TF.CreationDate,2021-11-12T16:42:20+08:00*
G04 #@! TF.ProjectId,arisu,61726973-752e-46b6-9963-61645f706362,1.1*
G04 #@! TF.SameCoordinates,Original*
G04 #@! TF.FileFunction,Paste,Bot*
G04 #@! TF.FilePolarity,Positive*
%FSLAX46Y46*%
G04 Gerber Fmt 4.6, Leading zero omitted, Abs format (unit mm)*
G04 Created by KiCad (PCBNEW (5.1.9)-1) date 2021-11-12 16:42:20*
%MOMM*%
%LPD*%
G01*
G04 APERTURE LIST*
%ADD10R,0.550000X1.500000*%
%ADD11R,1.500000X0.550000*%
%ADD12R,1.500000X1.000000*%
%ADD13R,1.250000X1.500000*%
%ADD14R,1.500000X1.250000*%
%ADD15R,1.200000X0.900000*%
%ADD16C,0.100000*%
%ADD17R,1.500000X1.900000*%
%ADD18R,0.400000X1.350000*%
%ADD19R,1.500000X1.300000*%
%ADD20R,1.300000X1.500000*%
%ADD21R,1.700000X1.000000*%
%ADD22R,1.560000X0.650000*%
G04 APERTURE END LIST*
D10*
X171514000Y-36464000D03*
X172314000Y-36464000D03*
X173114000Y-36464000D03*
X173914000Y-36464000D03*
X174714000Y-36464000D03*
X175514000Y-36464000D03*
X176314000Y-36464000D03*
X177114000Y-36464000D03*
X177914000Y-36464000D03*
X178714000Y-36464000D03*
X179514000Y-36464000D03*
D11*
X181214000Y-38164000D03*
X181214000Y-38964000D03*
X181214000Y-39764000D03*
X181214000Y-40564000D03*
X181214000Y-41364000D03*
X181214000Y-42164000D03*
X181214000Y-42964000D03*
X181214000Y-43764000D03*
X181214000Y-44564000D03*
X181214000Y-45364000D03*
X181214000Y-46164000D03*
D10*
X179514000Y-47864000D03*
X178714000Y-47864000D03*
X177914000Y-47864000D03*
X177114000Y-47864000D03*
X176314000Y-47864000D03*
X175514000Y-47864000D03*
X174714000Y-47864000D03*
X173914000Y-47864000D03*
X173114000Y-47864000D03*
X172314000Y-47864000D03*
X171514000Y-47864000D03*
D11*
X169814000Y-46164000D03*
X169814000Y-45364000D03*
X169814000Y-44564000D03*
X169814000Y-43764000D03*
X169814000Y-42964000D03*
X169814000Y-42164000D03*
X169814000Y-41364000D03*
X169814000Y-40564000D03*
X169814000Y-39764000D03*
X169814000Y-38964000D03*
X169814000Y-38164000D03*
D12*
X175050000Y-132100000D03*
X175050000Y-128900000D03*
X179950000Y-132100000D03*
X179950000Y-128900000D03*
G36*
G01*
X137850000Y-38299998D02*
X137850000Y-39200002D01*
G75*
G02*
X137600002Y-39450000I-249998J0D01*
G01*
X137074998Y-39450000D01*
G75*
G02*
X136825000Y-39200002I0J249998D01*
G01*
X136825000Y-38299998D01*
G75*
G02*
X137074998Y-38050000I249998J0D01*
G01*
X137600002Y-38050000D01*
G75*
G02*
X137850000Y-38299998I0J-249998D01*
G01*
G37*
G36*
G01*
X139675000Y-38299998D02*
X139675000Y-39200002D01*
G75*
G02*
X139425002Y-39450000I-249998J0D01*
G01*
X138899998Y-39450000D01*
G75*
G02*
X138650000Y-39200002I0J249998D01*
G01*
X138650000Y-38299998D01*
G75*
G02*
X138899998Y-38050000I249998J0D01*
G01*
X139425002Y-38050000D01*
G75*
G02*
X139675000Y-38299998I0J-249998D01*
G01*
G37*
X214050000Y-35350000D03*
X214050000Y-32150000D03*
X218950000Y-35350000D03*
X218950000Y-32150000D03*
X350050000Y-102350000D03*
X350050000Y-99150000D03*
X354950000Y-102350000D03*
X354950000Y-99150000D03*
X233700000Y-119900000D03*
X233700000Y-123100000D03*
X228800000Y-119900000D03*
X228800000Y-123100000D03*
X60450000Y-71400000D03*
X60450000Y-74600000D03*
X55550000Y-71400000D03*
X55550000Y-74600000D03*
X277950000Y-31400000D03*
X277950000Y-34600000D03*
X273050000Y-31400000D03*
X273050000Y-34600000D03*
X54550000Y-35850000D03*
X54550000Y-32650000D03*
X59450000Y-35850000D03*
X59450000Y-32650000D03*
X336950000Y-34650000D03*
X336950000Y-37850000D03*
X332050000Y-34650000D03*
X332050000Y-37850000D03*
X116550000Y-123350000D03*
X116550000Y-120150000D03*
X121450000Y-123350000D03*
X121450000Y-120150000D03*
X98700000Y-32650000D03*
X98700000Y-35850000D03*
X93800000Y-32650000D03*
X93800000Y-35850000D03*
X340050000Y-71600000D03*
X340050000Y-68400000D03*
X344950000Y-71600000D03*
X344950000Y-68400000D03*
X301050000Y-115350000D03*
X301050000Y-112150000D03*
X305950000Y-115350000D03*
X305950000Y-112150000D03*
X70450000Y-112150000D03*
X70450000Y-115350000D03*
X65550000Y-112150000D03*
X65550000Y-115350000D03*
X132700000Y-32900000D03*
X132700000Y-36100000D03*
X127800000Y-32900000D03*
X127800000Y-36100000D03*
D13*
X185166000Y-39644000D03*
X185166000Y-42144000D03*
X187452000Y-41001000D03*
X187452000Y-38501000D03*
X183134000Y-31476000D03*
X183134000Y-28976000D03*
X181102000Y-31476000D03*
X181102000Y-28976000D03*
D14*
X167132000Y-36322000D03*
X164632000Y-36322000D03*
X167132000Y-38354000D03*
X164632000Y-38354000D03*
X179598000Y-50292000D03*
X182098000Y-50292000D03*
D13*
X167386000Y-48494000D03*
X167386000Y-45994000D03*
D14*
X187198000Y-36068000D03*
X189698000Y-36068000D03*
D15*
X44115000Y-44145000D03*
X44115000Y-40845000D03*
X44715000Y-63195000D03*
X44715000Y-59895000D03*
X43031250Y-82245000D03*
X43031250Y-78945000D03*
X43618750Y-101295000D03*
X43618750Y-97995000D03*
X36485000Y-120345000D03*
X36485000Y-117045000D03*
X63165000Y-44145000D03*
X63165000Y-40845000D03*
X68525000Y-63195000D03*
X68525000Y-59895000D03*
X69225000Y-82245000D03*
X69225000Y-78945000D03*
X74575000Y-101295000D03*
X74575000Y-97995000D03*
X82215000Y-42644615D03*
X82215000Y-39344615D03*
D16*
G36*
X88466125Y-63295481D02*
G01*
X87292348Y-63045987D01*
X87479469Y-62165655D01*
X88653246Y-62415149D01*
X88466125Y-63295481D01*
G37*
G36*
X89152233Y-60067593D02*
G01*
X87978456Y-59818099D01*
X88165577Y-58937767D01*
X89339354Y-59187261D01*
X89152233Y-60067593D01*
G37*
G36*
X89163792Y-82919374D02*
G01*
X87990015Y-82669880D01*
X88177136Y-81789548D01*
X89350913Y-82039042D01*
X89163792Y-82919374D01*
G37*
G36*
X89849900Y-79691486D02*
G01*
X88676123Y-79441992D01*
X88863244Y-78561660D01*
X90037021Y-78811154D01*
X89849900Y-79691486D01*
G37*
G36*
X94519874Y-103533443D02*
G01*
X93346097Y-103283949D01*
X93533218Y-102403617D01*
X94706995Y-102653111D01*
X94519874Y-103533443D01*
G37*
G36*
X95205982Y-100305555D02*
G01*
X94032205Y-100056061D01*
X94219326Y-99175729D01*
X95393103Y-99425223D01*
X95205982Y-100305555D01*
G37*
G36*
X95217575Y-123157331D02*
G01*
X94043798Y-122907837D01*
X94230919Y-122027505D01*
X95404696Y-122276999D01*
X95217575Y-123157331D01*
G37*
G36*
X95903683Y-119929443D02*
G01*
X94729906Y-119679949D01*
X94917027Y-118799617D01*
X96090804Y-119049111D01*
X95903683Y-119929443D01*
G37*
G36*
X101743783Y-46642138D02*
G01*
X100570006Y-46392644D01*
X100757127Y-45512312D01*
X101930904Y-45761806D01*
X101743783Y-46642138D01*
G37*
G36*
X102429891Y-43414250D02*
G01*
X101256114Y-43164756D01*
X101443235Y-42284424D01*
X102617012Y-42533918D01*
X102429891Y-43414250D01*
G37*
G36*
X107099835Y-67256207D02*
G01*
X105926058Y-67006713D01*
X106113179Y-66126381D01*
X107286956Y-66375875D01*
X107099835Y-67256207D01*
G37*
G36*
X107785943Y-64028319D02*
G01*
X106612166Y-63778825D01*
X106799287Y-62898493D01*
X107973064Y-63147987D01*
X107785943Y-64028319D01*
G37*
G36*
X107797502Y-86880101D02*
G01*
X106623725Y-86630607D01*
X106810846Y-85750275D01*
X107984623Y-85999769D01*
X107797502Y-86880101D01*
G37*
G36*
X108483610Y-83652213D02*
G01*
X107309833Y-83402719D01*
X107496954Y-82522387D01*
X108670731Y-82771881D01*
X108483610Y-83652213D01*
G37*
G36*
X113153584Y-107494169D02*
G01*
X111979807Y-107244675D01*
X112166928Y-106364343D01*
X113340705Y-106613837D01*
X113153584Y-107494169D01*
G37*
G36*
X113839692Y-104266281D02*
G01*
X112665915Y-104016787D01*
X112853036Y-103136455D01*
X114026813Y-103385949D01*
X113839692Y-104266281D01*
G37*
G36*
X120377494Y-50602856D02*
G01*
X119203717Y-50353362D01*
X119390838Y-49473030D01*
X120564615Y-49722524D01*
X120377494Y-50602856D01*
G37*
G36*
X121063602Y-47374968D02*
G01*
X119889825Y-47125474D01*
X120076946Y-46245142D01*
X121250723Y-46494636D01*
X121063602Y-47374968D01*
G37*
G36*
X125733545Y-71216934D02*
G01*
X124559768Y-70967440D01*
X124746889Y-70087108D01*
X125920666Y-70336602D01*
X125733545Y-71216934D01*
G37*
G36*
X126419653Y-67989046D02*
G01*
X125245876Y-67739552D01*
X125432997Y-66859220D01*
X126606774Y-67108714D01*
X126419653Y-67989046D01*
G37*
G36*
X126431212Y-90840828D02*
G01*
X125257435Y-90591334D01*
X125444556Y-89711002D01*
X126618333Y-89960496D01*
X126431212Y-90840828D01*
G37*
G36*
X127117320Y-87612940D02*
G01*
X125943543Y-87363446D01*
X126130664Y-86483114D01*
X127304441Y-86732608D01*
X127117320Y-87612940D01*
G37*
G36*
X131787293Y-111454896D02*
G01*
X130613516Y-111205402D01*
X130800637Y-110325070D01*
X131974414Y-110574564D01*
X131787293Y-111454896D01*
G37*
G36*
X132473401Y-108227008D02*
G01*
X131299624Y-107977514D01*
X131486745Y-107097182D01*
X132660522Y-107346676D01*
X132473401Y-108227008D01*
G37*
G36*
X127826567Y-130088606D02*
G01*
X126652790Y-129839112D01*
X126839911Y-128958780D01*
X128013688Y-129208274D01*
X127826567Y-130088606D01*
G37*
G36*
X128512675Y-126860718D02*
G01*
X127338898Y-126611224D01*
X127526019Y-125730892D01*
X128699796Y-125980386D01*
X128512675Y-126860718D01*
G37*
G36*
X139011206Y-54563574D02*
G01*
X137837429Y-54314080D01*
X138024550Y-53433748D01*
X139198327Y-53683242D01*
X139011206Y-54563574D01*
G37*
G36*
X139697314Y-51335686D02*
G01*
X138523537Y-51086192D01*
X138710658Y-50205860D01*
X139884435Y-50455354D01*
X139697314Y-51335686D01*
G37*
G36*
X144367255Y-75177661D02*
G01*
X143193478Y-74928167D01*
X143380599Y-74047835D01*
X144554376Y-74297329D01*
X144367255Y-75177661D01*
G37*
G36*
X145053363Y-71949773D02*
G01*
X143879586Y-71700279D01*
X144066707Y-70819947D01*
X145240484Y-71069441D01*
X145053363Y-71949773D01*
G37*
G36*
X145064922Y-94801555D02*
G01*
X143891145Y-94552061D01*
X144078266Y-93671729D01*
X145252043Y-93921223D01*
X145064922Y-94801555D01*
G37*
G36*
X145751030Y-91573667D02*
G01*
X144577253Y-91324173D01*
X144764374Y-90443841D01*
X145938151Y-90693335D01*
X145751030Y-91573667D01*
G37*
G36*
X150421003Y-115415623D02*
G01*
X149247226Y-115166129D01*
X149434347Y-114285797D01*
X150608124Y-114535291D01*
X150421003Y-115415623D01*
G37*
G36*
X151107111Y-112187735D02*
G01*
X149933334Y-111938241D01*
X150120455Y-111057909D01*
X151294232Y-111307403D01*
X151107111Y-112187735D01*
G37*
G36*
X155777140Y-136029652D02*
G01*
X154603363Y-135780158D01*
X154790484Y-134899826D01*
X155964261Y-135149320D01*
X155777140Y-136029652D01*
G37*
G36*
X156463248Y-132801764D02*
G01*
X155289471Y-132552270D01*
X155476592Y-131671938D01*
X156650369Y-131921432D01*
X156463248Y-132801764D01*
G37*
G36*
X157644918Y-58524291D02*
G01*
X156471141Y-58274797D01*
X156658262Y-57394465D01*
X157832039Y-57643959D01*
X157644918Y-58524291D01*
G37*
G36*
X158331026Y-55296403D02*
G01*
X157157249Y-55046909D01*
X157344370Y-54166577D01*
X158518147Y-54416071D01*
X158331026Y-55296403D01*
G37*
G36*
X182886926Y-80228890D02*
G01*
X181713149Y-80478384D01*
X181526028Y-79598052D01*
X182699805Y-79348558D01*
X182886926Y-80228890D01*
G37*
G36*
X182200818Y-77001002D02*
G01*
X181027041Y-77250496D01*
X180839920Y-76370164D01*
X182013697Y-76120670D01*
X182200818Y-77001002D01*
G37*
G36*
X191506047Y-97872442D02*
G01*
X190332270Y-98121936D01*
X190145149Y-97241604D01*
X191318926Y-96992110D01*
X191506047Y-97872442D01*
G37*
G36*
X190819939Y-94644554D02*
G01*
X189646162Y-94894048D01*
X189459041Y-94013716D01*
X190632818Y-93764222D01*
X190819939Y-94644554D01*
G37*
G36*
X200125168Y-115515994D02*
G01*
X198951391Y-115765488D01*
X198764270Y-114885156D01*
X199938047Y-114635662D01*
X200125168Y-115515994D01*
G37*
G36*
X199439060Y-112288106D02*
G01*
X198265283Y-112537600D01*
X198078162Y-111657268D01*
X199251939Y-111407774D01*
X199439060Y-112288106D01*
G37*
G36*
X188243153Y-59614791D02*
G01*
X187069376Y-59864285D01*
X186882255Y-58983953D01*
X188056032Y-58734459D01*
X188243153Y-59614791D01*
G37*
G36*
X187557045Y-56386903D02*
G01*
X186383268Y-56636397D01*
X186196147Y-55756065D01*
X187369924Y-55506571D01*
X187557045Y-56386903D01*
G37*
G36*
X201520637Y-76268172D02*
G01*
X200346860Y-76517666D01*
X200159739Y-75637334D01*
X201333516Y-75387840D01*
X201520637Y-76268172D01*
G37*
G36*
X200834529Y-73040284D02*
G01*
X199660752Y-73289778D01*
X199473631Y-72409446D01*
X200647408Y-72159952D01*
X200834529Y-73040284D01*
G37*
G36*
X210139758Y-93911724D02*
G01*
X208965981Y-94161218D01*
X208778860Y-93280886D01*
X209952637Y-93031392D01*
X210139758Y-93911724D01*
G37*
G36*
X209453650Y-90683836D02*
G01*
X208279873Y-90933330D01*
X208092752Y-90052998D01*
X209266529Y-89803504D01*
X209453650Y-90683836D01*
G37*
G36*
X218758880Y-111555276D02*
G01*
X217585103Y-111804770D01*
X217397982Y-110924438D01*
X218571759Y-110674944D01*
X218758880Y-111555276D01*
G37*
G36*
X218072772Y-108327388D02*
G01*
X216898995Y-108576882D01*
X216711874Y-107696550D01*
X217885651Y-107447056D01*
X218072772Y-108327388D01*
G37*
G36*
X211073569Y-132664401D02*
G01*
X209899792Y-132913895D01*
X209712671Y-132033563D01*
X210886448Y-131784069D01*
X211073569Y-132664401D01*
G37*
G36*
X210387461Y-129436513D02*
G01*
X209213684Y-129686007D01*
X209026563Y-128805675D01*
X210200340Y-128556181D01*
X210387461Y-129436513D01*
G37*
G36*
X206876865Y-55654073D02*
G01*
X205703088Y-55903567D01*
X205515967Y-55023235D01*
X206689744Y-54773741D01*
X206876865Y-55654073D01*
G37*
G36*
X206190757Y-52426185D02*
G01*
X205016980Y-52675679D01*
X204829859Y-51795347D01*
X206003636Y-51545853D01*
X206190757Y-52426185D01*
G37*
G36*
X220154349Y-72307455D02*
G01*
X218980572Y-72556949D01*
X218793451Y-71676617D01*
X219967228Y-71427123D01*
X220154349Y-72307455D01*
G37*
G36*
X219468241Y-69079567D02*
G01*
X218294464Y-69329061D01*
X218107343Y-68448729D01*
X219281120Y-68199235D01*
X219468241Y-69079567D01*
G37*
G36*
X228773470Y-89951007D02*
G01*
X227599693Y-90200501D01*
X227412572Y-89320169D01*
X228586349Y-89070675D01*
X228773470Y-89951007D01*
G37*
G36*
X228087362Y-86723119D02*
G01*
X226913585Y-86972613D01*
X226726464Y-86092281D01*
X227900241Y-85842787D01*
X228087362Y-86723119D01*
G37*
G36*
X237392591Y-107594559D02*
G01*
X236218814Y-107844053D01*
X236031693Y-106963721D01*
X237205470Y-106714227D01*
X237392591Y-107594559D01*
G37*
G36*
X236706483Y-104366671D02*
G01*
X235532706Y-104616165D01*
X235345585Y-103735833D01*
X236519362Y-103486339D01*
X236706483Y-104366671D01*
G37*
G36*
X225510577Y-51693356D02*
G01*
X224336800Y-51942850D01*
X224149679Y-51062518D01*
X225323456Y-50813024D01*
X225510577Y-51693356D01*
G37*
G36*
X224824469Y-48465468D02*
G01*
X223650692Y-48714962D01*
X223463571Y-47834630D01*
X224637348Y-47585136D01*
X224824469Y-48465468D01*
G37*
G36*
X238788061Y-68346737D02*
G01*
X237614284Y-68596231D01*
X237427163Y-67715899D01*
X238600940Y-67466405D01*
X238788061Y-68346737D01*
G37*
G36*
X238101953Y-65118849D02*
G01*
X236928176Y-65368343D01*
X236741055Y-64488011D01*
X237914832Y-64238517D01*
X238101953Y-65118849D01*
G37*
G36*
X247407182Y-85990289D02*
G01*
X246233405Y-86239783D01*
X246046284Y-85359451D01*
X247220061Y-85109957D01*
X247407182Y-85990289D01*
G37*
G36*
X246721074Y-82762401D02*
G01*
X245547297Y-83011895D01*
X245360176Y-82131563D01*
X246533953Y-81882069D01*
X246721074Y-82762401D01*
G37*
G36*
X256026303Y-103633841D02*
G01*
X254852526Y-103883335D01*
X254665405Y-103003003D01*
X255839182Y-102753509D01*
X256026303Y-103633841D01*
G37*
G36*
X255340195Y-100405953D02*
G01*
X254166418Y-100655447D01*
X253979297Y-99775115D01*
X255153074Y-99525621D01*
X255340195Y-100405953D01*
G37*
G36*
X250670205Y-124247889D02*
G01*
X249496428Y-124497383D01*
X249309307Y-123617051D01*
X250483084Y-123367557D01*
X250670205Y-124247889D01*
G37*
G36*
X249984097Y-121020001D02*
G01*
X248810320Y-121269495D01*
X248623199Y-120389163D01*
X249796976Y-120139669D01*
X249984097Y-121020001D01*
G37*
G36*
X244144288Y-47732638D02*
G01*
X242970511Y-47982132D01*
X242783390Y-47101800D01*
X243957167Y-46852306D01*
X244144288Y-47732638D01*
G37*
G36*
X243458180Y-44504750D02*
G01*
X242284403Y-44754244D01*
X242097282Y-43873912D01*
X243271059Y-43624418D01*
X243458180Y-44504750D01*
G37*
G36*
X257421773Y-64386019D02*
G01*
X256247996Y-64635513D01*
X256060875Y-63755181D01*
X257234652Y-63505687D01*
X257421773Y-64386019D01*
G37*
G36*
X256735665Y-61158131D02*
G01*
X255561888Y-61407625D01*
X255374767Y-60527293D01*
X256548544Y-60277799D01*
X256735665Y-61158131D01*
G37*
D15*
X266025000Y-82245000D03*
X266025000Y-78945000D03*
X275550019Y-101294998D03*
X275550019Y-97994998D03*
X262345000Y-42644615D03*
X262345000Y-39344615D03*
X276035000Y-63195000D03*
X276035000Y-59895000D03*
X285075000Y-82245000D03*
X285075000Y-78945000D03*
X301743769Y-101294998D03*
X301743769Y-97994998D03*
X281395000Y-44145000D03*
X281395000Y-40845000D03*
X295085000Y-63195000D03*
X295085000Y-59895000D03*
X316031250Y-82245000D03*
X316031250Y-78945000D03*
X313649949Y-125107503D03*
X313649949Y-121807503D03*
X300445000Y-44145000D03*
X300445000Y-40845000D03*
X318905000Y-63195000D03*
X318905000Y-59895000D03*
X332699949Y-106057503D03*
X332699949Y-102757503D03*
X332699949Y-125107503D03*
X332699949Y-121807503D03*
X319495000Y-44145000D03*
X319495000Y-40845000D03*
X343307542Y-39382509D03*
X343307542Y-36082509D03*
X347480000Y-58432516D03*
X347480000Y-55132516D03*
X351750000Y-74100000D03*
X351750000Y-77400000D03*
X351749949Y-125107503D03*
X351749949Y-121807503D03*
D17*
X176509855Y-26008000D03*
D18*
X174859855Y-28708000D03*
X174209855Y-28708000D03*
X176809855Y-28708000D03*
X176159855Y-28708000D03*
X175509855Y-28708000D03*
D17*
X174509855Y-26008000D03*
D19*
X162132000Y-31496000D03*
X159432000Y-31496000D03*
X159432000Y-29464000D03*
X162132000Y-29464000D03*
D20*
X194310000Y-27606000D03*
X194310000Y-30306000D03*
X169672000Y-50386000D03*
X169672000Y-53086000D03*
D21*
X204318000Y-27056000D03*
X198018000Y-27056000D03*
X204318000Y-30856000D03*
X198018000Y-30856000D03*
D16*
G36*
X195359064Y-41047205D02*
G01*
X194459064Y-42606051D01*
X192640410Y-41556051D01*
X193540410Y-39997205D01*
X195359064Y-41047205D01*
G37*
G36*
X192847590Y-39597205D02*
G01*
X191947590Y-41156051D01*
X190128936Y-40106051D01*
X191028936Y-38547205D01*
X192847590Y-39597205D01*
G37*
G36*
X193947590Y-37691949D02*
G01*
X193047590Y-39250795D01*
X191228936Y-38200795D01*
X192128936Y-36641949D01*
X193947590Y-37691949D01*
G37*
G36*
X196459064Y-39141949D02*
G01*
X195559064Y-40700795D01*
X193740410Y-39650795D01*
X194640410Y-38091949D01*
X196459064Y-39141949D01*
G37*
D22*
X167974000Y-30480000D03*
X167974000Y-31430000D03*
X167974000Y-29530000D03*
X165274000Y-29530000D03*
X165274000Y-30480000D03*
X165274000Y-31430000D03*
M02*
