999
dxfrw 0.6.3
  0
SECTION
  2
HEADER
  9
$ACADVER
  1
AC1021
  9
$DWGCODEPAGE
  3
ANSI_1252
  9
$INSBASE
 10
0
 20
0
 30
0
  9
$EXTMIN
 10
5.10169422270269
 20
-10
 30
0
  9
$EXTMAX
 10
365.5612182617188
 20
271.9122467041016
 30
0
  9
$LIMMIN
 10
0
 20
0
  9
$LIMMAX
 10
12
 20
9
  9
$ORTHOMODE
 70
    0
  9
$REGENMODE
 70
    1
  9
$FILLMODE
 70
    1
  9
$QTEXTMODE
 70
    0
  9
$MIRRTEXT
 70
    1
  9
$LTSCALE
 40
1
  9
$ATTMODE
 70
    1
  9
$TEXTSIZE
 40
0.2
  9
$TRACEWID
 40
0.05
  9
$TEXTSTYLE
  7
STANDARD
  9
$CLAYER
  8
Outline2
  9
$CELTYPE
  6
BYLAYER
  9
$CECOLOR
 62
  256
  9
$CELTSCALE
 40
1
  9
$DISPSILH
 70
    0
  9
$DIMSCALE
 40
1
  9
$DIMASZ
 40
0.18
  9
$DIMEXO
 40
0.0625
  9
$DIMDLI
 40
0.38
  9
$DIMRND
 40
0
  9
$DIMDLE
 40
0
  9
$DIMEXE
 40
0.18
  9
$DIMTP
 40
0
  9
$DIMTM
 40
0
  9
$DIMTXT
 40
0.18
  9
$DIMCEN
 40
0.09
  9
$DIMTSZ
 40
0
  9
$DIMTOL
 70
    0
  9
$DIMLIM
 70
    0
  9
$DIMTIH
 70
    1
  9
$DIMTOH
 70
    1
  9
$DIMSE1
 70
    0
  9
$DIMSE2
 70
    0
  9
$DIMTAD
 70
    0
  9
$DIMZIN
 70
    0
  9
$DIMBLK
  1

  9
$DIMASO
 70
    1
  9
$DIMSHO
 70
    1
  9
$DIMPOST
  1

  9
$DIMAPOST
  1

  9
$DIMALT
 70
    0
  9
$DIMALTD
 70
    2
  9
$DIMALTF
 40
25.4
  9
$DIMLFAC
 40
1
  9
$DIMTOFL
 70
    0
  9
$DIMTVP
 40
0
  9
$DIMTIX
 70
    0
  9
$DIMSOXD
 70
    0
  9
$DIMSAH
 70
    0
  9
$DIMBLK1
  1

  9
$DIMBLK2
  1

  9
$DIMSTYLE
  2
STANDARD
  9
$DIMCLRD
 70
    0
  9
$DIMCLRE
 70
    0
  9
$DIMCLRT
 70
    0
  9
$DIMTFAC
 40
1
  9
$DIMGAP
 40
0.09
  9
$DIMJUST
 70
    0
  9
$DIMSD1
 70
    0
  9
$DIMSD2
 70
    0
  9
$DIMTOLJ
 70
    1
  9
$DIMTZIN
 70
    0
  9
$DIMALTZ
 70
    0
  9
$DIMALTTZ
 70
    0
  9
$DIMUPT
 70
    0
  9
$DIMDEC
 70
    4
  9
$DIMTDEC
 70
    4
  9
$DIMALTU
 70
    2
  9
$DIMALTTD
 70
    2
  9
$DIMTXSTY
  7
STANDARD
  9
$DIMAUNIT
 70
    0
  9
$DIMADEC
 70
    0
  9
$DIMALTRND
 40
0
  9
$DIMAZIN
 70
    0
  9
$DIMDSEP
 70
   44
  9
$DIMATFIT
 70
    3
  9
$DIMFRAC
 70
    0
  9
$DIMLDRBLK
  1
STANDARD
  9
$DIMLUNIT
 70
    2
  9
$DIMLWD
 70
   -2
  9
$DIMLWE
 70
   -2
  9
$DIMTMOVE
 70
    0
  9
$DIMFXL
 40
1
  9
$DIMFXLON
 70
    0
  9
$DIMJOGANG
 40
0.7854
  9
$DIMTFILL
 70
    0
  9
$DIMTFILLCLR
 70
    0
  9
$DIMARCSYM
 70
    0
  9
$DIMLTYPE
  6

  9
$DIMLTEX1
  6

  9
$DIMLTEX2
  6

  9
$LUNITS
 70
    2
  9
$LUPREC
 70
    4
  9
$SKETCHINC
 40
0.1
  9
$FILLETRAD
 40
0.5
  9
$AUNITS
 70
    0
  9
$AUPREC
 70
    0
  9
$MENU
  1
.
  9
$ELEVATION
 40
0
  9
$PELEVATION
 40
0
  9
$THICKNESS
 40
0
  9
$LIMCHECK
 70
    0
  9
$CHAMFERA
 40
0.5
  9
$CHAMFERB
 40
0.5
  9
$CHAMFERC
 40
1
  9
$CHAMFERD
 40
0
  9
$SKPOLY
 70
    0
  9
$USRTIMER
 70
    1
  9
$ANGBASE
 50
0
  9
$ANGDIR
 70
    0
  9
$PDMODE
 70
    0
  9
$PDSIZE
 40
0
  9
$PLINEWID
 40
0
  9
$SPLFRAME
 70
    0
  9
$SPLINETYPE
 70
    6
  9
$SPLINESEGS
 70
    8
  9
$HANDSEED
  5
20000
  9
$SURFTAB1
 70
    6
  9
$SURFTAB2
 70
    6
  9
$SURFTYPE
 70
    6
  9
$SURFU
 70
    6
  9
$SURFV
 70
    6
  9
$UCSBASE
  2

  9
$UCSNAME
  2

  9
$UCSORG
 10
0
 20
0
 30
0
  9
$UCSXDIR
 10
1
 20
0
 30
0
  9
$UCSYDIR
 10
0
 20
1
 30
0
  9
$UCSORTHOREF
  2

  9
$UCSORTHOVIEW
 70
    0
  9
$UCSORGTOP
 10
0
 20
0
 30
0
  9
$UCSORGBOTTOM
 10
0
 20
0
 30
0
  9
$UCSORGLEFT
 10
0
 20
0
 30
0
  9
$UCSORGRIGHT
 10
0
 20
0
 30
0
  9
$UCSORGFRONT
 10
0
 20
0
 30
0
  9
$UCSORGBACK
 10
0
 20
0
 30
0
  9
$PUCSBASE
  2

  9
$PUCSNAME
  2

  9
$PUCSORG
 10
0
 20
0
 30
0
  9
$PUCSXDIR
 10
1
 20
0
 30
0
  9
$PUCSYDIR
 10
0
 20
1
 30
0
  9
$PUCSORTHOREF
  2

  9
$PUCSORTHOVIEW
 70
    0
  9
$PUCSORGTOP
 10
0
 20
0
 30
0
  9
$PUCSORGBOTTOM
 10
0
 20
0
 30
0
  9
$PUCSORGLEFT
 10
0
 20
0
 30
0
  9
$PUCSORGRIGHT
 10
0
 20
0
 30
0
  9
$PUCSORGFRONT
 10
0
 20
0
 30
0
  9
$PUCSORGBACK
 10
0
 20
0
 30
0
  9
$USERI1
 70
    0
  9
$USERI2
 70
    0
  9
$USERI3
 70
    0
  9
$USERI4
 70
    0
  9
$USERI5
 70
    0
  9
$USERR1
 40
0
  9
$USERR2
 40
0
  9
$USERR3
 40
0
  9
$USERR4
 40
0
  9
$USERR5
 40
0
  9
$WORLDVIEW
 70
    1
  9
$SHADEDGE
 70
    3
  9
$SHADEDIF
 70
   70
  9
$TILEMODE
 70
    1
  9
$MAXACTVP
 70
   64
  9
$PINSBASE
 10
0
 20
0
 30
0
  9
$PLIMCHECK
 70
    0
  9
$PEXTMIN
 10
1e+020
 20
1e+020
 30
1e+020
  9
$PEXTMAX
 10
-1e+020
 20
-1e+020
 30
-1e+020
  9
$GRIDMODE
 70
    0
  9
$SNAPSTYLE
 70
    0
  9
$PLIMMIN
 10
0
 20
0
  9
$PLIMMAX
 10
12
 20
9
  9
$UNITMODE
 70
    0
  9
$VISRETAIN
 70
    1
  9
$PLINEGEN
 70
    0
  9
$PSLTSCALE
 70
    1
  9
$TREEDEPTH
 70
 3020
  9
$CMLSTYLE
  2
STANDARD
  9
$CMLJUST
 70
    0
  9
$CMLSCALE
 40
1
  9
$PROXYGRAPHICS
 70
    1
  9
$MEASUREMENT
 70
    1
  9
$CELWEIGHT
370
   -1
  9
$ENDCAPS
280
    0
  9
$JOINSTYLE
280
    0
  9
$LWDISPLAY
290
    0
  9
$INSUNITS
 70
    4
  9
$HYPERLINKBASE
  1

  9
$STYLESHEET
  1

  9
$XEDIT
290
    1
  9
$CEPSNTYPE
380
    0
  9
$PSTYLEMODE
290
    1
  9
$EXTNAMES
290
    1
  9
$PSVPSCALE
 40
1
  9
$OLESTARTUP
290
    0
  9
$SORTENTS
280
  127
  9
$INDEXCTL
280
    0
  9
$HIDETEXT
280
    1
  9
$XCLIPFRAME
290
    0
  9
$HALOGAP
280
    0
  9
$OBSCOLOR
 70
  257
  9
$OBSLTYPE
280
    0
  9
$INTERSECTIONDISPLAY
280
    0
  9
$INTERSECTIONCOLOR
 70
  257
  9
$DIMASSOC
280
    1
  9
$PROJECTNAME
  1

  9
$CAMERADISPLAY
290
    0
  9
$LENSLENGTH
 40
50
  9
$CAMERAHEIGHT
 40
0
  9
$STEPSPERSEC
 40
2
  9
$STEPSIZE
 40
50
  9
$3DDWFPREC
 40
2
  9
$PSOLWIDTH
 40
5
  9
$PSOLHEIGHT
 40
80
  9
$LOFTANG1
 40
1.570796326794897
  9
$LOFTANG2
 40
1.570796326794897
  9
$LOFTMAG1
 40
0
  9
$LOFTMAG2
 40
0
  9
$LOFTPARAM
 70
    7
  9
$LOFTNORMALS
280
    1
  9
$LATITUDE
 40
1
  9
$LONGITUDE
 40
1
  9
$NORTHDIRECTION
 40
0
  9
$TIMEZONE
 70
-8000
  9
$LIGHTGLYPHDISPLAY
280
    1
  9
$TILEMODELIGHTSYNCH
280
    1
  9
$SOLIDHIST
280
    1
  9
$SHOWHIST
280
    1
  9
$DWFFRAME
280
    2
  9
$DGNFRAME
280
    0
  9
$REALWORLDSCALE
290
    1
  9
$INTERFERECOLOR
 62
    1
  9
$CSHADOW
280
    0
  9
$SHADOWPLANELOCATION
 40
0
  0
ENDSEC
  0
SECTION
  2
CLASSES
  0
ENDSEC
  0
SECTION
  2
TABLES
  0
TABLE
  2
VPORT
  5
8
330
0
100
AcDbSymbolTable
 70
    1
  0
VPORT
  5
31
330
2
100
AcDbSymbolTableRecord
100
AcDbViewportTableRecord
  2
*ACTIVE
 70
    0
 10
0
 20
0
 11
1
 21
1
 12
288.5687683350444
 22
76.31010642209019
 13
0
 23
0
 14
10
 24
10
 15
10
 25
10
 16
0
 26
0
 36
1
 17
0
 27
0
 37
0
 40
229.8791127741829
 41
1.689858490566038
 42
50
 43
0
 44
0
 50
0
 51
0
 71
    0
 72
  100
 73
    1
 74
    3
 75
    0
 76
    0
 77
    0
 78
    0
281
    0
 65
    1
110
0
120
0
130
0
111
1
121
0
131
0
112
0
122
1
132
0
 79
    0
146
0
348
10020
 60
    7
 61
    5
292
1
282
    1
141
0
142
0
 63
  250
421
3358443
  0
ENDTAB
  0
TABLE
  2
LTYPE
  5
5
330
0
100
AcDbSymbolTable
 70
    4
  0
LTYPE
  5
14
330
5
100
AcDbSymbolTableRecord
100
AcDbLinetypeTableRecord
  2
ByBlock
 70
    0
  3

 72
   65
 73
    0
 40
0
  0
LTYPE
  5
15
330
5
100
AcDbSymbolTableRecord
100
AcDbLinetypeTableRecord
  2
ByLayer
 70
    0
  3

 72
   65
 73
    0
 40
0
  0
LTYPE
  5
16
330
5
100
AcDbSymbolTableRecord
100
AcDbLinetypeTableRecord
  2
Continuous
 70
    0
  3
Solid line
 72
   65
 73
    0
 40
0
  0
LTYPE
  5
32
330
5
100
AcDbSymbolTableRecord
100
AcDbLinetypeTableRecord
  2
DOT
 70
    0
  3
Dot . . . . . . . . . . . . . . . . . . . . . .
 72
   65
 73
    2
 40
6.35
 49
0
 74
    0
 49
-6.35
 74
    0
  0
LTYPE
  5
33
330
5
100
AcDbSymbolTableRecord
100
AcDbLinetypeTableRecord
  2
DOTTINY
 70
    0
  3
Dot (.15x) .....................................
 72
   65
 73
    2
 40
0.9525
 49
0
 74
    0
 49
-0.9525
 74
    0
  0
LTYPE
  5
34
330
5
100
AcDbSymbolTableRecord
100
AcDbLinetypeTableRecord
  2
DOT2
 70
    0
  3
Dot (.5x) .....................................
 72
   65
 73
    2
 40
3.175
 49
0
 74
    0
 49
-3.175
 74
    0
  0
LTYPE
  5
35
330
5
100
AcDbSymbolTableRecord
100
AcDbLinetypeTableRecord
  2
DOTX2
 70
    0
  3
Dot (2x) .  .  .  .  .  .  .  .  .  .  .  .  .
 72
   65
 73
    2
 40
12.7
 49
0
 74
    0
 49
-12.7
 74
    0
  0
LTYPE
  5
36
330
5
100
AcDbSymbolTableRecord
100
AcDbLinetypeTableRecord
  2
DASHED
 70
    0
  3
Dashed _ _ _ _ _ _ _ _ _ _ _ _ _ _ _ _ _
 72
   65
 73
    2
 40
19.05
 49
12.7
 74
    0
 49
-6.35
 74
    0
  0
LTYPE
  5
37
330
5
100
AcDbSymbolTableRecord
100
AcDbLinetypeTableRecord
  2
DASHEDTINY
 70
    0
  3
Dashed (.15x) _ _ _ _ _ _ _ _ _ _ _ _ _ _ _ _ _
 72
   65
 73
    2
 40
2.8575
 49
1.905
 74
    0
 49
-0.9525
 74
    0
  0
LTYPE
  5
38
330
5
100
AcDbSymbolTableRecord
100
AcDbLinetypeTableRecord
  2
DASHED2
 70
    0
  3
Dashed (.5x) _ _ _ _ _ _ _ _ _ _ _ _ _ _ _ _ _
 72
   65
 73
    2
 40
9.524999999999999
 49
6.35
 74
    0
 49
-3.175
 74
    0
  0
LTYPE
  5
39
330
5
100
AcDbSymbolTableRecord
100
AcDbLinetypeTableRecord
  2
DASHEDX2
 70
    0
  3
Dashed (2x) ____  ____  ____  ____  ____  ___
 72
   65
 73
    2
 40
38.09999999999999
 49
25.4
 74
    0
 49
-12.7
 74
    0
  0
LTYPE
  5
3A
330
5
100
AcDbSymbolTableRecord
100
AcDbLinetypeTableRecord
  2
DASHDOT
 70
    0
  3
Dash dot __ . __ . __ . __ . __ . __ . __ . __
 72
   65
 73
    4
 40
25.4
 49
12.7
 74
    0
 49
-6.35
 74
    0
 49
0
 74
    0
 49
-6.35
 74
    0
  0
LTYPE
  5
3B
330
5
100
AcDbSymbolTableRecord
100
AcDbLinetypeTableRecord
  2
DASHDOTTINY
 70
    0
  3
Dash dot (.15x) _._._._._._._._._._._._._._._.
 72
   65
 73
    4
 40
3.81
 49
1.905
 74
    0
 49
-0.9525
 74
    0
 49
0
 74
    0
 49
-0.9525
 74
    0
  0
LTYPE
  5
3C
330
5
100
AcDbSymbolTableRecord
100
AcDbLinetypeTableRecord
  2
DASHDOT2
 70
    0
  3
Dash dot (.5x) _._._._._._._._._._._._._._._.
 72
   65
 73
    4
 40
12.7
 49
6.35
 74
    0
 49
-3.175
 74
    0
 49
0
 74
    0
 49
-3.175
 74
    0
  0
LTYPE
  5
3D
330
5
100
AcDbSymbolTableRecord
100
AcDbLinetypeTableRecord
  2
DASHDOTX2
 70
    0
  3
Dash dot (2x) ____  .  ____  .  ____  .  ___
 72
   65
 73
    4
 40
50.8
 49
25.4
 74
    0
 49
-12.7
 74
    0
 49
0
 74
    0
 49
-12.7
 74
    0
  0
LTYPE
  5
3E
330
5
100
AcDbSymbolTableRecord
100
AcDbLinetypeTableRecord
  2
DIVIDE
 70
    0
  3
Divide ____ . . ____ . . ____ . . ____ . . ____
 72
   65
 73
    6
 40
31.75
 49
12.7
 74
    0
 49
-6.35
 74
    0
 49
0
 74
    0
 49
-6.35
 74
    0
 49
0
 74
    0
 49
-6.35
 74
    0
  0
LTYPE
  5
3F
330
5
100
AcDbSymbolTableRecord
100
AcDbLinetypeTableRecord
  2
DIVIDETINY
 70
    0
  3
Divide (.15x) __..__..__..__..__..__..__..__.._
 72
   65
 73
    6
 40
4.7625
 49
1.905
 74
    0
 49
-0.9525
 74
    0
 49
0
 74
    0
 49
-0.9525
 74
    0
 49
0
 74
    0
 49
-0.9525
 74
    0
  0
LTYPE
  5
40
330
5
100
AcDbSymbolTableRecord
100
AcDbLinetypeTableRecord
  2
DIVIDE2
 70
    0
  3
Divide (.5x) __..__..__..__..__..__..__..__.._
 72
   65
 73
    6
 40
15.875
 49
6.35
 74
    0
 49
-3.175
 74
    0
 49
0
 74
    0
 49
-3.175
 74
    0
 49
0
 74
    0
 49
-3.175
 74
    0
  0
LTYPE
  5
41
330
5
100
AcDbSymbolTableRecord
100
AcDbLinetypeTableRecord
  2
DIVIDEX2
 70
    0
  3
Divide (2x) ________  .  .  ________  .  .  _
 72
   65
 73
    6
 40
63.5
 49
25.4
 74
    0
 49
-12.7
 74
    0
 49
0
 74
    0
 49
-12.7
 74
    0
 49
0
 74
    0
 49
-12.7
 74
    0
  0
LTYPE
  5
42
330
5
100
AcDbSymbolTableRecord
100
AcDbLinetypeTableRecord
  2
BORDER
 70
    0
  3
Border __ __ . __ __ . __ __ . __ __ . __ __ .
 72
   65
 73
    6
 40
44.45
 49
12.7
 74
    0
 49
-6.35
 74
    0
 49
12.7
 74
    0
 49
-6.35
 74
    0
 49
0
 74
    0
 49
-6.35
 74
    0
  0
LTYPE
  5
43
330
5
100
AcDbSymbolTableRecord
100
AcDbLinetypeTableRecord
  2
BORDERTINY
 70
    0
  3
Border (.15x) __.__.__.__.__.__.__.__.__.__.__.
 72
   65
 73
    6
 40
6.6675
 49
1.905
 74
    0
 49
-0.9525
 74
    0
 49
1.905
 74
    0
 49
-0.9525
 74
    0
 49
0
 74
    0
 49
-0.9525
 74
    0
  0
LTYPE
  5
44
330
5
100
AcDbSymbolTableRecord
100
AcDbLinetypeTableRecord
  2
BORDER2
 70
    0
  3
Border (.5x) __.__.__.__.__.__.__.__.__.__.__.
 72
   65
 73
    6
 40
22.225
 49
6.35
 74
    0
 49
-3.175
 74
    0
 49
6.35
 74
    0
 49
-3.175
 74
    0
 49
0
 74
    0
 49
-3.175
 74
    0
  0
LTYPE
  5
45
330
5
100
AcDbSymbolTableRecord
100
AcDbLinetypeTableRecord
  2
BORDERX2
 70
    0
  3
Border (2x) ____  ____  .  ____  ____  .  ___
 72
   65
 73
    6
 40
88.89999999999999
 49
25.4
 74
    0
 49
-12.7
 74
    0
 49
25.4
 74
    0
 49
-12.7
 74
    0
 49
0
 74
    0
 49
-12.7
 74
    0
  0
LTYPE
  5
46
330
5
100
AcDbSymbolTableRecord
100
AcDbLinetypeTableRecord
  2
CENTER
 70
    0
  3
Center ____ _ ____ _ ____ _ ____ _ ____ _ ____
 72
   65
 73
    4
 40
50.8
 49
31.75
 74
    0
 49
-6.35
 74
    0
 49
6.35
 74
    0
 49
-6.35
 74
    0
  0
LTYPE
  5
47
330
5
100
AcDbSymbolTableRecord
100
AcDbLinetypeTableRecord
  2
CENTERTINY
 70
    0
  3
Center (.15x) ___ _ ___ _ ___ _ ___ _ ___ _ ___
 72
   65
 73
    4
 40
7.62
 49
4.7625
 74
    0
 49
-0.9525
 74
    0
 49
0.9525
 74
    0
 49
-0.9525
 74
    0
  0
LTYPE
  5
48
330
5
100
AcDbSymbolTableRecord
100
AcDbLinetypeTableRecord
  2
CENTER2
 70
    0
  3
Center (.5x) ___ _ ___ _ ___ _ ___ _ ___ _ ___
 72
   65
 73
    4
 40
28.575
 49
19.05
 74
    0
 49
-3.175
 74
    0
 49
3.175
 74
    0
 49
-3.175
 74
    0
  0
LTYPE
  5
49
330
5
100
AcDbSymbolTableRecord
100
AcDbLinetypeTableRecord
  2
CENTERX2
 70
    0
  3
Center (2x) ________  __  ________  __  _____
 72
   65
 73
    4
 40
101.6
 49
63.5
 74
    0
 49
-12.7
 74
    0
 49
12.7
 74
    0
 49
-12.7
 74
    0
  0
ENDTAB
  0
TABLE
  2
LAYER
  5
2
330
0
100
AcDbSymbolTable
 70
    1
  0
LAYER
  5
10
330
2
100
AcDbSymbolTableRecord
100
AcDbLayerTableRecord
  2
0
 70
    0
 62
    7
  6
CONTINUOUS
370
   -3
390
F
  0
LAYER
  5
4A
330
2
100
AcDbSymbolTableRecord
100
AcDbLayerTableRecord
  2
CASE_LAYER
 70
    0
 62
    7
  6
CONTINUOUS
370
   -3
390
F
  0
LAYER
  5
4B
330
2
100
AcDbSymbolTableRecord
100
AcDbLayerTableRecord
  2
Outline2
 70
    0
 62
    7
  6
CONTINUOUS
370
    0
390
F
  0
LAYER
  5
4C
330
2
100
AcDbSymbolTableRecord
100
AcDbLayerTableRecord
  2
PYDXF
 70
    0
 62
    7
  6
CONTINUOUS
370
   -3
390
F
  0
ENDTAB
  0
TABLE
  2
STYLE
  5
3
330
0
100
AcDbSymbolTable
 70
    3
  0
STYLE
  5
4D
330
2
100
AcDbSymbolTableRecord
100
AcDbTextStyleTableRecord
  2
Standard
 70
    0
 40
0
 41
1
 50
0
 71
    0
 42
1
  3
txt
  4

  0
ENDTAB
  0
TABLE
  2
VIEW
  5
6
330
0
100
AcDbSymbolTable
 70
    0
  0
ENDTAB
  0
TABLE
  2
UCS
  5
7
330
0
100
AcDbSymbolTable
 70
    0
  0
ENDTAB
  0
TABLE
  2
APPID
  5
9
330
0
100
AcDbSymbolTable
 70
    1
  0
APPID
  5
12
330
9
100
AcDbSymbolTableRecord
100
AcDbRegAppTableRecord
  2
ACAD
 70
    0
  0
APPID
  5
4E
330
9
100
AcDbSymbolTableRecord
100
AcDbRegAppTableRecord
  2
LibreCad
 70
    0
  0
ENDTAB
  0
TABLE
  2
DIMSTYLE
  5
A
330
0
100
AcDbSymbolTable
 70
    1
100
AcDbDimStyleTable
 71
    1
  0
DIMSTYLE
105
4F
330
A
100
AcDbSymbolTableRecord
100
AcDbDimStyleTableRecord
  2
Standard
 70
    0
 40
1
 41
0.18
 42
0.0625
 43
0.38
 44
0.18
 45
0
 46
0
 47
0
 48
0
 49
1
140
0.18
141
0.09
142
0
143
25.4
144
1
145
0
146
1
147
0.09
148
0
 71
    0
 72
    0
 73
    1
 74
    1
 75
    0
 76
    0
 77
    0
 78
    0
 79
    0
170
    0
171
    2
172
    0
173
    0
174
    0
175
    0
176
    0
177
    0
178
    0
179
    0
271
    4
272
    4
273
    2
274
    2
275
    0
276
    0
277
    2
278
   44
279
    0
280
    0
281
    0
282
    0
283
    1
284
    0
285
    0
286
    0
288
    0
289
    3
340
STANDARD
341

371
   -2
372
   -2
  0
ENDTAB
  0
TABLE
  2
BLOCK_RECORD
  5
1
330
0
100
AcDbSymbolTable
 70
    2
  0
BLOCK_RECORD
  5
1F
330
1
100
AcDbSymbolTableRecord
100
AcDbBlockTableRecord
  2
*Model_Space
 70
    0
280
    1
281
    0
  0
BLOCK_RECORD
  5
1E
330
1
100
AcDbSymbolTableRecord
100
AcDbBlockTableRecord
  2
*Paper_Space
 70
    0
280
    1
281
    0
  0
BLOCK_RECORD
  5
50
330
1
100
AcDbSymbolTableRecord
100
AcDbBlockTableRecord
  2
backup
 70
    0
280
    1
281
    0
  0
BLOCK_RECORD
  5
53
330
1
100
AcDbSymbolTableRecord
100
AcDbBlockTableRecord
  2
gaskets
 70
    0
280
    1
281
    0
  0
ENDTAB
  0
ENDSEC
  0
SECTION
  2
BLOCKS
  0
BLOCK
  5
20
330
1F
100
AcDbEntity
  8
0
100
AcDbBlockBegin
  2
*Model_Space
 70
    0
 10
0
 20
0
 30
0
  3
*Model_Space
  1

  0
ENDBLK
  5
21
330
1F
100
AcDbEntity
  8
0
100
AcDbBlockEnd
  0
BLOCK
  5
1C
330
1B
100
AcDbEntity
  8
0
100
AcDbBlockBegin
  2
*Paper_Space
 70
    0
 10
0
 20
0
 30
0
  3
*Paper_Space
  1

  0
ENDBLK
  5
1D
330
1F
100
AcDbEntity
  8
0
100
AcDbBlockEnd
  0
BLOCK
  5
51
330
50
100
AcDbEntity
  8
0
100
AcDbBlockBegin
  2
backup
 70
    0
 10
0
 20
0
  3
backup
  1

  0
LINE
  5
56
100
AcDbEntity
  8
Outline2
  6
ByLayer
 62
  256
370
   -1
100
AcDbLine
 10
331.3511101105511
 20
16.62876345523711
 11
331.5174576354423
 21
22.45092682642789
  0
LINE
  5
57
100
AcDbEntity
  8
Outline2
  6
ByLayer
 62
  256
370
   -1
100
AcDbLine
 10
331.5174576354423
 20
22.45092682642789
 11
345.4990411949241
 21
22.2655792264982
  0
LINE
  5
58
100
AcDbEntity
  8
Outline2
  6
ByLayer
 62
  256
370
   -1
100
AcDbLine
 10
345.4990411949241
 20
22.2655792264982
 11
345.3858702481231
 21
31.88510970457509
  0
LINE
  5
59
100
AcDbEntity
  8
Outline2
  6
ByLayer
 62
  256
370
   -1
100
AcDbLine
 10
345.3858702481231
 20
31.88510970457509
 11
350.7049047477657
 21
31.6587678109733
  0
LINE
  5
5A
100
AcDbEntity
  8
Outline2
  6
ByLayer
 62
  256
370
   -1
100
AcDbLine
 10
350.7049047477657
 20
31.6587678109733
 11
350.8339017108738
 21
118.0275099506528
  0
LINE
  5
5B
100
AcDbEntity
  8
Outline2
  6
ByLayer
 62
  256
370
   -1
100
AcDbLine
 10
350.8339017108738
 20
118.0275099506528
 11
345.3594015291609
 21
118.0508493813805
  0
LINE
  5
5C
100
AcDbEntity
  8
Outline2
  6
ByLayer
 62
  256
370
   -1
100
AcDbLine
 10
345.3594015291609
 20
118.0508493813805
 11
345.3593940707536
 21
127.5077025117016
  0
LINE
  5
5D
100
AcDbEntity
  8
Outline2
  6
ByLayer
 62
  256
370
   -1
100
AcDbLine
 10
345.3593940707536
 20
127.5077025117016
 11
336.1694870456831
 21
127.6888088358074
  0
LINE
  5
5E
100
AcDbEntity
  8
Outline2
  6
ByLayer
 62
  256
370
   -1
100
AcDbLine
 10
336.1694870456831
 20
127.6888088358074
 11
336.1751883323964
 21
133.5710734537278
  0
LINE
  5
5F
100
AcDbEntity
  8
Outline2
  6
ByLayer
 62
  256
370
   -1
100
AcDbLine
 10
336.1751883323964
 20
133.5710734537278
 11
230.3801611938027
 21
133.5016526621524
  0
LINE
  5
60
100
AcDbEntity
  8
Outline2
  6
ByLayer
 62
  256
370
   -1
100
AcDbLine
 10
230.3801611938027
 20
133.5016526621524
 11
230.3801611938027
 21
127.703334650303
  0
LINE
  5
61
100
AcDbEntity
  8
Outline2
  6
ByLayer
 62
  256
370
   -1
100
AcDbLine
 10
230.3801611938027
 20
127.703334650303
 11
211.60614773922
 21
127.703334650303
  0
LINE
  5
62
100
AcDbEntity
  8
Outline2
  6
ByLayer
 62
  256
370
   -1
100
AcDbLine
 10
211.60614773922
 20
127.703334650303
 11
211.394892201083
 21
133.4358314188629
  0
LINE
  5
63
100
AcDbEntity
  8
Outline2
  6
ByLayer
 62
  256
370
   -1
100
AcDbLine
 10
211.394892201083
 20
133.4358314188629
 11
98.06410956610631
 21
133.4358314188629
  0
LINE
  5
64
100
AcDbEntity
  8
Outline2
  6
ByLayer
 62
  256
370
   -1
100
AcDbLine
 10
98.06410956610631
 20
133.4358314188629
 11
98.34856638973741
 21
127.4027108602214
  0
LINE
  5
65
100
AcDbEntity
  8
Outline2
  6
ByLayer
 62
  256
370
   -1
100
AcDbLine
 10
98.34856638973741
 20
127.4027108602214
 11
78.33194851002389
 21
127.9587280235468
  0
LINE
  5
66
100
AcDbEntity
  8
Outline2
  6
ByLayer
 62
  256
370
   -1
100
AcDbLine
 10
78.33194851002389
 20
127.9587280235468
 11
78.33194851002389
 21
133.5188996568005
  0
LINE
  5
67
100
AcDbEntity
  8
Outline2
  6
ByLayer
 62
  256
370
   -1
100
AcDbLine
 10
78.33194851002389
 20
133.5188996568005
 11
21.34018926917298
 21
133.5188996568006
  0
LINE
  5
68
100
AcDbEntity
  8
Outline2
  6
ByLayer
 62
  256
370
   -1
100
AcDbLine
 10
21.34018926917298
 20
133.5188996568006
 11
21.34018926917298
 21
127.9587280235468
  0
LINE
  5
69
100
AcDbEntity
  8
Outline2
  6
ByLayer
 62
  256
370
   -1
100
AcDbLine
 10
21.34018926917298
 20
127.9587280235468
 11
5.10169422270269
 21
128.0751175788478
  0
LINE
  5
6A
100
AcDbEntity
  8
Outline2
  6
ByLayer
 62
  256
370
   -1
100
AcDbLine
 10
5.10169422270269
 20
128.0751175788478
 11
5.290831358504022
 21
118.0508493813812
  0
LINE
  5
6B
100
AcDbEntity
  8
Outline2
  6
ByLayer
 62
  256
370
   -1
100
AcDbLine
 10
5.290831358504022
 20
118.0508493813812
 11
-0.505796248077786
 21
118.0931072662369
  0
LINE
  5
6C
100
AcDbEntity
  8
Outline2
  6
ByLayer
 62
  256
370
   -1
100
AcDbLine
 10
-0.505796248077786
 20
118.0931072662369
 11
-0.3208365569482226
 21
31.43223013163383
  0
LINE
  5
6D
100
AcDbEntity
  8
Outline2
  6
ByLayer
 62
  256
370
   -1
100
AcDbLine
 10
-0.3208365569482226
 20
31.43223013163383
 11
5.219100307438509
 21
31.36572245186225
  0
LINE
  5
6E
100
AcDbEntity
  8
Outline2
  6
ByLayer
 62
  256
370
   -1
100
AcDbLine
 10
5.219100307438509
 20
31.36572245186225
 11
5.194004164601381
 21
22.15240827969744
  0
LINE
  5
6F
100
AcDbEntity
  8
Outline2
  6
ByLayer
 62
  256
370
   -1
100
AcDbLine
 10
5.194004164601381
 20
22.15240827969744
 11
14.1263801430984
 21
22.28457930153674
  0
LINE
  5
70
100
AcDbEntity
  8
Outline2
  6
ByLayer
 62
  256
370
   -1
100
AcDbLine
 10
14.1263801430984
 20
22.28457930153674
 11
14.1263801430984
 21
16.12972088056365
  0
LINE
  5
71
100
AcDbEntity
  8
Outline2
  6
ByLayer
 62
  256
370
   -1
100
AcDbLine
 10
14.1263801430984
 20
16.12972088056365
 11
57.37673661480147
 21
16.29606840545484
  0
LINE
  5
72
100
AcDbEntity
  8
Outline2
  6
ByLayer
 62
  256
370
   -1
100
AcDbLine
 10
57.37673661480147
 20
16.29606840545484
 11
57.37673661480147
 21
21.95188425175443
  0
LINE
  5
73
100
AcDbEntity
  8
Outline2
  6
ByLayer
 62
  256
370
   -1
100
AcDbLine
 10
57.37673661480147
 20
21.95188425175443
 11
71.68262375544168
 21
21.95188425175443
  0
LINE
  5
74
100
AcDbEntity
  8
Outline2
  6
ByLayer
 62
  256
370
   -1
100
AcDbLine
 10
71.68262375544168
 20
21.95188425175443
 11
100.4607455616134
 21
16.62876345523714
  0
LINE
  5
75
100
AcDbEntity
  8
Outline2
  6
ByLayer
 62
  256
370
   -1
100
AcDbLine
 10
100.4607455616134
 20
16.62876345523714
 11
99.12996536248397
 21
10.47390503426405
  0
LINE
  5
76
100
AcDbEntity
  8
Outline2
  6
ByLayer
 62
  256
370
   -1
100
AcDbLine
 10
99.12996536248397
 20
10.47390503426405
 11
144.5428396577722
 21
1.324791165249932
  0
LINE
  5
77
100
AcDbEntity
  8
Outline2
  6
ByLayer
 62
  256
370
   -1
100
AcDbLine
 10
144.5428396577722
 20
1.324791165249932
 11
145.2082297573369
 21
7.812344636005404
  0
LINE
  5
78
100
AcDbEntity
  8
Outline2
  6
ByLayer
 62
  256
370
   -1
100
AcDbLine
 10
145.2082297573369
 20
7.812344636005404
 11
166.6670604682972
 21
7.812344636005401
  0
LINE
  5
79
100
AcDbEntity
  8
Outline2
  6
ByLayer
 62
  256
370
   -1
100
AcDbLine
 10
166.6670604682972
 20
7.812344636005401
 11
168.4968832421001
 21
1.324791165249929
  0
LINE
  5
7A
100
AcDbEntity
  8
Outline2
  6
ByLayer
 62
  256
370
   -1
100
AcDbLine
 10
168.4968832421001
 20
1.324791165249929
 11
212.5789773382589
 21
9.642167409808241
  0
LINE
  5
7B
100
AcDbEntity
  8
Outline2
  6
ByLayer
 62
  256
370
   -1
100
AcDbLine
 10
212.5789773382589
 20
9.642167409808241
 11
211.4145446640208
 21
16.62876345523712
  0
LINE
  5
7C
100
AcDbEntity
  8
Outline2
  6
ByLayer
 62
  256
370
   -1
100
AcDbLine
 10
211.4145446640208
 20
16.62876345523712
 11
239.1945813208454
 21
22.1182317766456
  0
LINE
  5
7D
100
AcDbEntity
  8
Outline2
  6
ByLayer
 62
  256
370
   -1
100
AcDbLine
 10
239.1945813208454
 20
22.1182317766456
 11
266.9746179776701
 21
22.1182317766456
  0
LINE
  5
7E
100
AcDbEntity
  8
Outline2
  6
ByLayer
 62
  256
370
   -1
100
AcDbLine
 10
266.9746179776701
 20
22.1182317766456
 11
266.9746179776701
 21
16.62876345523712
  0
LINE
  5
7F
100
AcDbEntity
  8
Outline2
  6
ByLayer
 62
  256
370
   -1
100
AcDbLine
 10
266.9746179776701
 20
16.62876345523712
 11
331.3511101105511
 21
16.62876345523711
  0
ENDBLK
  5
52
330
50
100
AcDbEntity
  8
0
100
AcDbBlockEnd
  0
BLOCK
  5
54
330
53
100
AcDbEntity
  8
0
100
AcDbBlockBegin
  2
gaskets
 70
    0
 10
0
 20
0
  3
gaskets
  1

  0
LINE
  5
80
100
AcDbEntity
  8
0
  6
ByLayer
 62
  256
370
   -1
100
AcDbLine
 10
-13.66920852661133
 20
-9.455341339111328
 11
-14.58234024047852
 21
-3.469860076904297
  0
LINE
  5
81
100
AcDbEntity
  8
0
  6
ByLayer
 62
  256
370
   -1
100
AcDbLine
 10
-38.53638076782227
 20
-3.469860076904297
 11
-39.66920852661133
 21
-9.455341339111328
  0
LINE
  5
82
100
AcDbEntity
  8
0
  6
ByLayer
 62
  256
370
   -1
100
AcDbLine
 10
-39.66920852661133
 20
-9.455341339111328
 11
-83.75875854492188
 21
-0.8345146179199219
  0
LINE
  5
83
100
AcDbEntity
  8
0
  6
ByLayer
 62
  256
370
   -1
100
AcDbLine
 10
-83.75875854492188
 20
-0.8345146179199219
 11
-82.427978515625
 21
5.320346832275391
  0
LINE
  5
84
100
AcDbEntity
  8
0
  6
ByLayer
 62
  256
370
   -1
100
AcDbLine
 10
-126.4290161132812
 20
10.62246322631836
 11
-126.4290161132812
 21
4.966640472412109
  0
LINE
  5
85
100
AcDbEntity
  8
0
  6
ByLayer
 62
  256
370
   -1
100
AcDbLine
 10
-126.4290161132812
 20
4.966640472412109
 11
-168.7341766357422
 21
4.959789276123047
  0
LINE
  5
86
100
AcDbEntity
  8
0
  6
ByLayer
 62
  256
370
   -1
100
AcDbLine
 10
-168.7341766357422
 20
4.959789276123047
 11
-168.7341766357422
 21
11.11465072631836
  0
LINE
  5
87
100
AcDbEntity
  8
0
  6
ByLayer
 62
  256
370
   -1
100
AcDbLine
 10
-177.5988922119141
 20
20.17718124389648
 11
-183.1601104736328
 21
20.24102401733398
  0
LINE
  5
88
100
AcDbEntity
  8
0
  6
ByLayer
 62
  256
370
   -1
100
AcDbLine
 10
-183.1601104736328
 20
20.24102401733398
 11
-183.3950958251953
 21
106.40869140625
  0
LINE
  5
89
100
AcDbEntity
  8
0
  6
ByLayer
 62
  256
370
   -1
100
AcDbLine
 10
-183.3950958251953
 20
106.40869140625
 11
-177.6302032470703
 21
106.3831481933594
  0
LINE
  5
8A
100
AcDbEntity
  8
0
  6
ByLayer
 62
  256
370
   -1
100
AcDbLine
 10
-161.6071929931641
 20
116.2127685546875
 11
-161.6071929931641
 21
121.77294921875
  0
LINE
  5
8B
100
AcDbEntity
  8
0
  6
ByLayer
 62
  256
370
   -1
100
AcDbLine
 10
-161.6071929931641
 20
121.77294921875
 11
-105.3110809326172
 21
121.6514434814453
  0
LINE
  5
8C
100
AcDbEntity
  8
0
  6
ByLayer
 62
  256
370
   -1
100
AcDbLine
 10
-105.3110809326172
 20
121.6514434814453
 11
-105.2886810302734
 21
115.6446685791016
  0
LINE
  5
8D
100
AcDbEntity
  8
0
  6
ByLayer
 62
  256
370
   -1
100
AcDbLine
 10
-84.49940490722656
 20
115.6450958251953
 11
-84.46920776367188
 21
121.6514434814453
  0
LINE
  5
8E
100
AcDbEntity
  8
0
  6
ByLayer
 62
  256
370
   -1
100
AcDbLine
 10
-84.46920776367188
 20
121.6514434814453
 11
27.78974533081055
 21
121.779541015625
  0
LINE
  5
8F
100
AcDbEntity
  8
0
  6
ByLayer
 62
  256
370
   -1
100
AcDbLine
 10
27.78974533081055
 20
121.779541015625
 11
27.7580680847168
 21
116.0446624755859
  0
LINE
  5
90
100
AcDbEntity
  8
0
  6
ByLayer
 62
  256
370
   -1
100
AcDbLine
 10
47.48015975952148
 20
116.04150390625
 11
47.40446090698242
 21
121.9122467041016
  0
LINE
  5
91
100
AcDbEntity
  8
0
  6
ByLayer
 62
  256
370
   -1
100
AcDbLine
 10
47.40446090698242
 20
121.9122467041016
 11
152.6902160644531
 21
121.3955230712891
  0
LINE
  5
92
100
AcDbEntity
  8
0
  6
ByLayer
 62
  256
370
   -1
100
AcDbLine
 10
152.6902160644531
 20
121.3955230712891
 11
152.672119140625
 21
115.8446655273438
  0
LINE
  5
93
100
AcDbEntity
  8
0
  6
ByLayer
 62
  256
370
   -1
100
AcDbLine
 10
161.7845306396484
 20
106.1688995361328
 11
166.9995574951172
 21
106.2268371582031
  0
LINE
  5
94
100
AcDbEntity
  8
0
  6
ByLayer
 62
  256
370
   -1
100
AcDbLine
 10
166.9995574951172
 20
106.2268371582031
 11
166.9995574951172
 21
20.9780445098877
  0
LINE
  5
95
100
AcDbEntity
  8
0
  6
ByLayer
 62
  256
370
   -1
100
AcDbLine
 10
166.9995574951172
 20
20.9780445098877
 11
161.8120727539062
 21
21.05371284484863
  0
LINE
  5
96
100
AcDbEntity
  8
0
  6
ByLayer
 62
  256
370
   -1
100
AcDbLine
 10
147.7953796386719
 20
11.34965515136719
 11
147.6889343261719
 21
5.708982467651367
  0
LINE
  5
97
100
AcDbEntity
  8
0
  6
ByLayer
 62
  256
370
   -1
100
AcDbLine
 10
147.6889343261719
 20
5.708982467651367
 11
83.98362731933594
 21
5.706029891967773
  0
LINE
  5
98
100
AcDbEntity
  8
0
  6
ByLayer
 62
  256
370
   -1
100
AcDbLine
 10
83.98362731933594
 20
5.706029891967773
 11
83.98362731933594
 21
10.83601760864258
  0
LINE
  5
99
100
AcDbEntity
  8
0
  6
ByLayer
 62
  256
370
   -1
100
AcDbLine
 10
28.13105392456055
 20
5.269962310791016
 11
29.29548263549805
 21
-1.716640472412109
  0
LINE
  5
9A
100
AcDbEntity
  8
0
  6
ByLayer
 62
  256
370
   -1
100
AcDbLine
 10
29.29548263549805
 20
-1.716640472412109
 11
-13.66920852661133
 21
-9.455341339111328
  0
LINE
  5
9B
100
AcDbEntity
  8
0
  6
ByLayer
 62
  256
370
   -1
100
AcDbLine
 10
-13.66920852661133
 20
-9.455341339111328
 11
-13.66920852661133
 21
-9.455341339111328
  0
LINE
  5
9C
100
AcDbEntity
  8
0
  6
ByLayer
 62
  256
370
   -1
100
AcDbLine
 10
-177.6302032470703
 20
106.3831481933594
 11
-177.5988922119141
 21
20.17718124389648
  0
LINE
  5
9D
100
AcDbEntity
  8
0
  6
ByLayer
 62
  256
370
   -1
100
AcDbLine
 10
-161.6071929931641
 20
116.2127685546875
 11
-105.2886810302734
 21
115.6446685791016
  0
LINE
  5
9E
100
AcDbEntity
  8
0
  6
ByLayer
 62
  256
370
   -1
100
AcDbLine
 10
-84.49940490722656
 20
115.6450958251953
 11
27.7580680847168
 21
116.0446624755859
  0
LINE
  5
9F
100
AcDbEntity
  8
0
  6
ByLayer
 62
  256
370
   -1
100
AcDbLine
 10
47.48015975952148
 20
116.04150390625
 11
152.672119140625
 21
115.8446655273438
  0
LINE
  5
A0
100
AcDbEntity
  8
0
  6
ByLayer
 62
  256
370
   -1
100
AcDbLine
 10
161.7845306396484
 20
106.1688995361328
 11
161.8120727539062
 21
21.05371284484863
  0
LINE
  5
A1
100
AcDbEntity
  8
0
  6
ByLayer
 62
  256
370
   -1
100
AcDbLine
 10
83.98362731933594
 20
10.83601760864258
 11
147.7953796386719
 21
11.34965515136719
  0
LINE
  5
A2
100
AcDbEntity
  8
0
  6
ByLayer
 62
  256
370
   -1
100
AcDbLine
 10
28.13105392456055
 20
5.269962310791016
 11
-14.58234024047852
 21
-3.469860076904297
  0
LINE
  5
A3
100
AcDbEntity
  8
0
  6
ByLayer
 62
  256
370
   -1
100
AcDbLine
 10
-82.427978515625
 20
5.320346832275391
 11
-38.53638076782227
 21
-3.469860076904297
  0
LINE
  5
A4
100
AcDbEntity
  8
0
  6
ByLayer
 62
  256
370
   -1
100
AcDbLine
 10
-126.4290161132812
 20
10.62246322631836
 11
-168.7341766357422
 21
11.11465072631836
  0
ENDBLK
  5
55
330
53
100
AcDbEntity
  8
0
100
AcDbBlockEnd
  0
ENDSEC
  0
SECTION
  2
ENTITIES
  0
SPLINE
  5
A5
100
AcDbEntity
  8
0
  6
ByLayer
 62
  256
370
   -1
100
AcDbSpline
210
0
220
0
230
0
 70
   11
 71
    3
 72
   29
 73
   25
 74
    0
 42
1e-007
 43
1e-007
 40
0
 40
0
 40
0
 40
0
 40
1
 40
1
 40
1
 40
2
 40
2
 40
2
 40
3
 40
3
 40
3
 40
4
 40
4
 40
4
 40
5
 40
5
 40
5
 40
6
 40
6
 40
6
 40
7
 40
7
 40
7
 40
8
 40
8
 40
8
 40
8
 10
20.78845962850649
 20
96.4528615051629
 30
0
 10
20.6644361910375
 20
96.4528615051629
 30
0
 10
20.56332263854542
 20
96.55397505765501
 30
0
 10
20.56332263854542
 20
96.677998495124
 30
0
 10
20.56332263854542
 20
96.677998495124
 30
0
 10
20.56332263854542
 20
110.0778696397775
 30
0
 10
20.56332263854542
 20
110.0778696397775
 30
0
 10
20.56332263854542
 20
110.2018930772465
 30
0
 10
20.6644361910375
 20
110.3030066297386
 30
0
 10
20.78845962850649
 20
110.3030066297386
 30
0
 10
20.78845962850649
 20
110.3030066297386
 30
0
 10
34.18833077316
 20
110.3030066297386
 30
0
 10
34.18833077316
 20
110.3030066297386
 30
0
 10
34.31235421062899
 20
110.3030066297386
 30
0
 10
34.41346776312107
 20
110.2018930772465
 30
0
 10
34.41346776312107
 20
110.0778696397775
 30
0
 10
34.41346776312107
 20
110.0778696397775
 30
0
 10
34.41346776312107
 20
96.677998495124
 30
0
 10
34.41346776312107
 20
96.677998495124
 30
0
 10
34.41346776312107
 20
96.55397505765501
 30
0
 10
34.31235421062899
 20
96.4528615051629
 30
0
 10
34.18833077316
 20
96.4528615051629
 30
0
 10
34.18833077316
 20
96.4528615051629
 30
0
 10
20.78845962850649
 20
96.4528615051629
 30
0
 10
20.78845962850649
 20
96.4528615051629
 30
0
  0
SPLINE
  5
A6
100
AcDbEntity
  8
0
  6
ByLayer
 62
  256
370
   -1
100
AcDbSpline
210
0
220
0
230
0
 70
   11
 71
    3
 72
   29
 73
   25
 74
    0
 42
1e-007
 43
1e-007
 40
0
 40
0
 40
0
 40
0
 40
1
 40
1
 40
1
 40
2
 40
2
 40
2
 40
3
 40
3
 40
3
 40
4
 40
4
 40
4
 40
5
 40
5
 40
5
 40
6
 40
6
 40
6
 40
7
 40
7
 40
7
 40
8
 40
8
 40
8
 40
8
 10
39.83845962374399
 20
96.4528615051629
 30
0
 10
39.71443618627499
 20
96.4528615051629
 30
0
 10
39.61332263378291
 20
96.55397505765501
 30
0
 10
39.61332263378291
 20
96.677998495124
 30
0
 10
39.61332263378291
 20
96.677998495124
 30
0
 10
39.61332263378291
 20
110.0778696397775
 30
0
 10
39.61332263378291
 20
110.0778696397775
 30
0
 10
39.61332263378291
 20
110.2018930772465
 30
0
 10
39.71443618627499
 20
110.3030066297386
 30
0
 10
39.83845962374399
 20
110.3030066297386
 30
0
 10
39.83845962374399
 20
110.3030066297386
 30
0
 10
53.2383307683975
 20
110.3030066297386
 30
0
 10
53.2383307683975
 20
110.3030066297386
 30
0
 10
53.3623542058665
 20
110.3030066297386
 30
0
 10
53.46346775835857
 20
110.2018930772465
 30
0
 10
53.46346775835857
 20
110.0778696397775
 30
0
 10
53.46346775835857
 20
110.0778696397775
 30
0
 10
53.46346775835857
 20
96.677998495124
 30
0
 10
53.46346775835857
 20
96.677998495124
 30
0
 10
53.46346775835857
 20
96.55397505765501
 30
0
 10
53.3623542058665
 20
96.4528615051629
 30
0
 10
53.2383307683975
 20
96.4528615051629
 30
0
 10
53.2383307683975
 20
96.4528615051629
 30
0
 10
39.83845962374399
 20
96.4528615051629
 30
0
 10
39.83845962374399
 20
96.4528615051629
 30
0
  0
SPLINE
  5
A7
100
AcDbEntity
  8
0
  6
ByLayer
 62
  256
370
   -1
100
AcDbSpline
210
0
220
0
230
0
 70
   11
 71
    3
 72
   29
 73
   25
 74
    0
 42
1e-007
 43
1e-007
 40
0
 40
0
 40
0
 40
0
 40
1
 40
1
 40
1
 40
2
 40
2
 40
2
 40
3
 40
3
 40
3
 40
4
 40
4
 40
4
 40
5
 40
5
 40
5
 40
6
 40
6
 40
6
 40
7
 40
7
 40
7
 40
8
 40
8
 40
8
 40
8
 10
58.88845961898149
 20
97.9532005889892
 30
0
 10
58.7644361815125
 20
97.9532005889892
 30
0
 10
58.66332262902041
 20
98.05431414148131
 30
0
 10
58.66332262902041
 20
98.17833757895031
 30
0
 10
58.66332262902041
 20
98.17833757895031
 30
0
 10
58.66332262902041
 20
111.5783809783781
 30
0
 10
58.66332262902041
 20
111.5783809783781
 30
0
 10
58.66332262902041
 20
111.7024044158471
 30
0
 10
58.7644361815125
 20
111.8033457135649
 30
0
 10
58.88845961898149
 20
111.8033457135649
 30
0
 10
58.88845961898149
 20
111.8033457135649
 30
0
 10
72.288330763635
 20
111.8033457135649
 30
0
 10
72.288330763635
 20
111.8033457135649
 30
0
 10
72.41235420110399
 20
111.8033457135649
 30
0
 10
72.51346775359607
 20
111.7024044158471
 30
0
 10
72.51346775359607
 20
111.5783809783781
 30
0
 10
72.51346775359607
 20
111.5783809783781
 30
0
 10
72.51346775359607
 20
98.17833757895031
 30
0
 10
72.51346775359607
 20
98.17833757895031
 30
0
 10
72.51346775359607
 20
98.05431414148131
 30
0
 10
72.41235420110399
 20
97.9532005889892
 30
0
 10
72.288330763635
 20
97.9532005889892
 30
0
 10
72.288330763635
 20
97.9532005889892
 30
0
 10
58.88845961898149
 20
97.9532005889892
 30
0
 10
58.88845961898149
 20
97.9532005889892
 30
0
  0
SPLINE
  5
A8
100
AcDbEntity
  8
0
  6
ByLayer
 62
  256
370
   -1
100
AcDbSpline
210
0
220
0
230
0
 70
   11
 71
    3
 72
   29
 73
   25
 74
    0
 42
1e-007
 43
1e-007
 40
0
 40
0
 40
0
 40
0
 40
1
 40
1
 40
1
 40
2
 40
2
 40
2
 40
3
 40
3
 40
3
 40
4
 40
4
 40
4
 40
5
 40
5
 40
5
 40
6
 40
6
 40
6
 40
7
 40
7
 40
7
 40
8
 40
8
 40
8
 40
8
 10
45.19833917969569
 20
77.4028615099254
 30
0
 10
45.07431574222669
 20
77.4028615099254
 30
0
 10
44.97337444450887
 20
77.50397506241751
 30
0
 10
44.97337444450887
 20
77.6279984998865
 30
0
 10
44.97337444450887
 20
77.6279984998865
 30
0
 10
44.97337444450887
 20
91.02786964454
 30
0
 10
44.97337444450887
 20
91.02786964454
 30
0
 10
44.97337444450887
 20
91.151893082009
 30
0
 10
45.07431574222669
 20
91.25300663450111
 30
0
 10
45.19833917969569
 20
91.25300663450111
 30
0
 10
45.19833917969569
 20
91.25300663450111
 30
0
 10
58.59838257912346
 20
91.25300663450111
 30
0
 10
58.59838257912346
 20
91.25300663450111
 30
0
 10
58.72240601659245
 20
91.25300663450111
 30
0
 10
58.82351956908453
 20
91.151893082009
 30
0
 10
58.82351956908453
 20
91.02786964454
 30
0
 10
58.82351956908453
 20
91.02786964454
 30
0
 10
58.82351956908453
 20
77.6279984998865
 30
0
 10
58.82351956908453
 20
77.6279984998865
 30
0
 10
58.82351956908453
 20
77.50397506241751
 30
0
 10
58.72240601659245
 20
77.4028615099254
 30
0
 10
58.59838257912346
 20
77.4028615099254
 30
0
 10
58.59838257912346
 20
77.4028615099254
 30
0
 10
45.19833917969569
 20
77.4028615099254
 30
0
 10
45.19833917969569
 20
77.4028615099254
 30
0
  0
SPLINE
  5
A9
100
AcDbEntity
  8
0
  6
ByLayer
 62
  256
370
   -1
100
AcDbSpline
210
0
220
0
230
0
 70
   11
 71
    3
 72
   29
 73
   25
 74
    0
 42
1e-007
 43
1e-007
 40
0
 40
0
 40
0
 40
0
 40
1
 40
1
 40
1
 40
2
 40
2
 40
2
 40
3
 40
3
 40
3
 40
4
 40
4
 40
4
 40
5
 40
5
 40
5
 40
6
 40
6
 40
6
 40
7
 40
7
 40
7
 40
8
 40
8
 40
8
 40
8
 10
21.38842300726275
 20
77.4028615099254
 30
0
 10
21.26439956979375
 20
77.4028615099254
 30
0
 10
21.16328601730167
 20
77.50397506241751
 30
0
 10
21.16328601730167
 20
77.6279984998865
 30
0
 10
21.16328601730167
 20
77.6279984998865
 30
0
 10
21.16328601730167
 20
91.02786964454
 30
0
 10
21.16328601730167
 20
91.02786964454
 30
0
 10
21.16328601730167
 20
91.151893082009
 30
0
 10
21.26439956979375
 20
91.25300663450111
 30
0
 10
21.38842300726275
 20
91.25300663450111
 30
0
 10
21.38842300726275
 20
91.25300663450111
 30
0
 10
34.78829415191625
 20
91.25300663450111
 30
0
 10
34.78829415191625
 20
91.25300663450111
 30
0
 10
34.91231758938525
 20
91.25300663450111
 30
0
 10
35.01343114187733
 20
91.151893082009
 30
0
 10
35.01343114187733
 20
91.02786964454
 30
0
 10
35.01343114187733
 20
91.02786964454
 30
0
 10
35.01343114187733
 20
77.6279984998865
 30
0
 10
35.01343114187733
 20
77.6279984998865
 30
0
 10
35.01343114187733
 20
77.50397506241751
 30
0
 10
34.91231758938525
 20
77.4028615099254
 30
0
 10
34.78829415191625
 20
77.4028615099254
 30
0
 10
34.78829415191625
 20
77.4028615099254
 30
0
 10
21.38842300726275
 20
77.4028615099254
 30
0
 10
21.38842300726275
 20
77.4028615099254
 30
0
  0
SPLINE
  5
AA
100
AcDbEntity
  8
0
  6
ByLayer
 62
  256
370
   -1
100
AcDbSpline
210
0
220
0
230
0
 70
   11
 71
    3
 72
   29
 73
   25
 74
    0
 42
1e-007
 43
1e-007
 40
0
 40
0
 40
0
 40
0
 40
1
 40
1
 40
1
 40
2
 40
2
 40
2
 40
3
 40
3
 40
3
 40
4
 40
4
 40
4
 40
5
 40
5
 40
5
 40
6
 40
6
 40
6
 40
7
 40
7
 40
7
 40
8
 40
8
 40
8
 40
8
 10
13.15843440254942
 20
20.2528615242129
 30
0
 10
13.03441096508041
 20
20.2528615242129
 30
0
 10
12.93329741258833
 20
20.353975076705
 30
0
 10
12.93329741258833
 20
20.477998514174
 30
0
 10
12.93329741258833
 20
20.477998514174
 30
0
 10
12.93329741258833
 20
33.87786965882751
 30
0
 10
12.93329741258833
 20
33.87786965882751
 30
0
 10
12.93329741258833
 20
34.0018930962965
 30
0
 10
13.03441096508041
 20
34.10300664878861
 30
0
 10
13.15843440254942
 20
34.10300664878861
 30
0
 10
13.15843440254942
 20
34.10300664878861
 30
0
 10
26.55830554720292
 20
34.10300664878861
 30
0
 10
26.55830554720292
 20
34.10300664878861
 30
0
 10
26.68232898467191
 20
34.10300664878861
 30
0
 10
26.78344253716399
 20
34.0018930962965
 30
0
 10
26.78344253716399
 20
33.87786965882751
 30
0
 10
26.78344253716399
 20
33.87786965882751
 30
0
 10
26.78344253716399
 20
20.477998514174
 30
0
 10
26.78344253716399
 20
20.477998514174
 30
0
 10
26.78344253716399
 20
20.353975076705
 30
0
 10
26.68232898467191
 20
20.2528615242129
 30
0
 10
26.55830554720292
 20
20.2528615242129
 30
0
 10
26.55830554720292
 20
20.2528615242129
 30
0
 10
13.15843440254942
 20
20.2528615242129
 30
0
 10
13.15843440254942
 20
20.2528615242129
 30
0
  0
SPLINE
  5
AB
100
AcDbEntity
  8
0
  6
ByLayer
 62
  256
370
   -1
100
AcDbSpline
210
0
220
0
230
0
 70
   11
 71
    3
 72
   29
 73
   25
 74
    0
 42
1e-007
 43
1e-007
 40
0
 40
0
 40
0
 40
0
 40
1
 40
1
 40
1
 40
2
 40
2
 40
2
 40
3
 40
3
 40
3
 40
4
 40
4
 40
4
 40
5
 40
5
 40
5
 40
6
 40
6
 40
6
 40
7
 40
7
 40
7
 40
8
 40
8
 40
8
 40
8
 10
19.70463258884689
 20
58.3528615146879
 30
0
 10
19.5806091513779
 20
58.3528615146879
 30
0
 10
19.47949559888581
 20
58.45397506718001
 30
0
 10
19.47949559888581
 20
58.577998504649
 30
0
 10
19.47949559888581
 20
58.577998504649
 30
0
 10
19.47949559888581
 20
71.97786964930251
 30
0
 10
19.47949559888581
 20
71.97786964930251
 30
0
 10
19.47949559888581
 20
72.1018930867715
 30
0
 10
19.5806091513779
 20
72.20300663926361
 30
0
 10
19.70463258884689
 20
72.20300663926361
 30
0
 10
19.70463258884689
 20
72.20300663926361
 30
0
 10
33.10467598827466
 20
72.20300663926361
 30
0
 10
33.10467598827466
 20
72.20300663926361
 30
0
 10
33.22869942574365
 20
72.20300663926361
 30
0
 10
33.32964072346147
 20
72.1018930867715
 30
0
 10
33.32964072346147
 20
71.97786964930251
 30
0
 10
33.32964072346147
 20
71.97786964930251
 30
0
 10
33.32964072346147
 20
58.577998504649
 30
0
 10
33.32964072346147
 20
58.577998504649
 30
0
 10
33.32964072346147
 20
58.45397506718001
 30
0
 10
33.22869942574365
 20
58.3528615146879
 30
0
 10
33.10467598827466
 20
58.3528615146879
 30
0
 10
33.10467598827466
 20
58.3528615146879
 30
0
 10
19.70463258884689
 20
58.3528615146879
 30
0
 10
19.70463258884689
 20
58.3528615146879
 30
0
  0
SPLINE
  5
AC
100
AcDbEntity
  8
0
  6
ByLayer
 62
  256
370
   -1
100
AcDbSpline
210
0
220
0
230
0
 70
   11
 71
    3
 72
   29
 73
   25
 74
    0
 42
1e-007
 43
1e-007
 40
0
 40
0
 40
0
 40
0
 40
1
 40
1
 40
1
 40
2
 40
2
 40
2
 40
3
 40
3
 40
3
 40
4
 40
4
 40
4
 40
5
 40
5
 40
5
 40
6
 40
6
 40
6
 40
7
 40
7
 40
7
 40
8
 40
8
 40
8
 40
8
 10
278.4171786396201
 20
39.3028615194504
 30
0
 10
278.2931552021512
 20
39.3028615194504
 30
0
 10
278.1922139044333
 20
39.40397507194251
 30
0
 10
278.1922139044333
 20
39.5279985094115
 30
0
 10
278.1922139044333
 20
39.5279985094115
 30
0
 10
278.1922139044333
 20
52.92786965406501
 30
0
 10
278.1922139044333
 20
52.92786965406501
 30
0
 10
278.1922139044333
 20
53.051893091534
 30
0
 10
278.2931552021512
 20
53.15300664402611
 30
0
 10
278.4171786396201
 20
53.15300664402611
 30
0
 10
278.4171786396201
 20
53.15300664402611
 30
0
 10
291.8172220390479
 20
53.15300664402611
 30
0
 10
291.8172220390479
 20
53.15300664402611
 30
0
 10
291.9412454765169
 20
53.15300664402611
 30
0
 10
292.0421867742348
 20
53.051893091534
 30
0
 10
292.0421867742348
 20
52.92786965406501
 30
0
 10
292.0421867742348
 20
52.92786965406501
 30
0
 10
292.0421867742348
 20
39.5279985094115
 30
0
 10
292.0421867742348
 20
39.5279985094115
 30
0
 10
292.0421867742348
 20
39.40397507194251
 30
0
 10
291.9412454765169
 20
39.3028615194504
 30
0
 10
291.8172220390479
 20
39.3028615194504
 30
0
 10
291.8172220390479
 20
39.3028615194504
 30
0
 10
278.4171786396201
 20
39.3028615194504
 30
0
 10
278.4171786396201
 20
39.3028615194504
 30
0
  0
SPLINE
  5
AD
100
AcDbEntity
  8
0
  6
ByLayer
 62
  256
370
   -1
100
AcDbSpline
210
0
220
0
230
0
 70
   11
 71
    3
 72
   29
 73
   25
 74
    0
 42
1e-007
 43
1e-007
 40
0
 40
0
 40
0
 40
0
 40
1
 40
1
 40
1
 40
2
 40
2
 40
2
 40
3
 40
3
 40
3
 40
4
 40
4
 40
4
 40
5
 40
5
 40
5
 40
6
 40
6
 40
6
 40
7
 40
7
 40
7
 40
8
 40
8
 40
8
 40
8
 10
45.89838258229845
 20
58.3528615146879
 30
0
 10
45.77435914482946
 20
58.3528615146879
 30
0
 10
45.67324559233738
 20
58.45397506718001
 30
0
 10
45.67324559233738
 20
58.577998504649
 30
0
 10
45.67324559233738
 20
58.577998504649
 30
0
 10
45.67324559233738
 20
71.97786964930251
 30
0
 10
45.67324559233738
 20
71.97786964930251
 30
0
 10
45.67324559233738
 20
72.1018930867715
 30
0
 10
45.77435914482946
 20
72.20300663926361
 30
0
 10
45.89838258229845
 20
72.20300663926361
 30
0
 10
45.89838258229845
 20
72.20300663926361
 30
0
 10
59.29842598172622
 20
72.20300663926361
 30
0
 10
59.29842598172622
 20
72.20300663926361
 30
0
 10
59.42244941919522
 20
72.20300663926361
 30
0
 10
59.52339071691303
 20
72.1018930867715
 30
0
 10
59.52339071691303
 20
71.97786964930251
 30
0
 10
59.52339071691303
 20
71.97786964930251
 30
0
 10
59.52339071691303
 20
58.577998504649
 30
0
 10
59.52339071691303
 20
58.577998504649
 30
0
 10
59.52339071691303
 20
58.45397506718001
 30
0
 10
59.42244941919522
 20
58.3528615146879
 30
0
 10
59.29842598172622
 20
58.3528615146879
 30
0
 10
59.29842598172622
 20
58.3528615146879
 30
0
 10
45.89838258229845
 20
58.3528615146879
 30
0
 10
45.89838258229845
 20
58.3528615146879
 30
0
  0
SPLINE
  5
AE
100
AcDbEntity
  8
0
  6
ByLayer
 62
  256
370
   -1
100
AcDbSpline
210
0
220
0
230
0
 70
   11
 71
    3
 72
   29
 73
   25
 74
    0
 42
1e-007
 43
1e-007
 40
0
 40
0
 40
0
 40
0
 40
1
 40
1
 40
1
 40
2
 40
2
 40
2
 40
3
 40
3
 40
3
 40
4
 40
4
 40
4
 40
5
 40
5
 40
5
 40
6
 40
6
 40
6
 40
7
 40
7
 40
7
 40
8
 40
8
 40
8
 40
8
 10
51.24844361611719
 20
39.3028615194504
 30
0
 10
51.12442017864819
 20
39.3028615194504
 30
0
 10
51.02330662615611
 20
39.40397507194251
 30
0
 10
51.02330662615611
 20
39.5279985094115
 30
0
 10
51.02330662615611
 20
39.5279985094115
 30
0
 10
51.02330662615611
 20
52.92786965406501
 30
0
 10
51.02330662615611
 20
52.92786965406501
 30
0
 10
51.02330662615611
 20
53.051893091534
 30
0
 10
51.12442017864819
 20
53.15300664402611
 30
0
 10
51.24844361611719
 20
53.15300664402611
 30
0
 10
51.24844361611719
 20
53.15300664402611
 30
0
 10
64.64831476077069
 20
53.15300664402611
 30
0
 10
64.64831476077069
 20
53.15300664402611
 30
0
 10
64.77233819823969
 20
53.15300664402611
 30
0
 10
64.87345175073177
 20
53.051893091534
 30
0
 10
64.87345175073177
 20
52.92786965406501
 30
0
 10
64.87345175073177
 20
52.92786965406501
 30
0
 10
64.87345175073177
 20
39.5279985094115
 30
0
 10
64.87345175073177
 20
39.5279985094115
 30
0
 10
64.87345175073177
 20
39.40397507194251
 30
0
 10
64.77233819823969
 20
39.3028615194504
 30
0
 10
64.64831476077069
 20
39.3028615194504
 30
0
 10
64.64831476077069
 20
39.3028615194504
 30
0
 10
51.24844361611719
 20
39.3028615194504
 30
0
 10
51.24844361611719
 20
39.3028615194504
 30
0
  0
SPLINE
  5
AF
100
AcDbEntity
  8
0
  6
ByLayer
 62
  256
370
   -1
100
AcDbSpline
210
0
220
0
230
0
 70
   11
 71
    3
 72
   35
 73
   31
 74
    0
 42
1e-007
 43
1e-007
 40
0
 40
0
 40
0
 40
0
 40
1
 40
1
 40
1
 40
2
 40
2
 40
2
 40
3
 40
3
 40
3
 40
4
 40
4
 40
4
 40
5
 40
5
 40
5
 40
6
 40
6
 40
6
 40
7
 40
7
 40
7
 40
8
 40
8
 40
8
 40
9
 40
9
 40
9
 40
10
 40
10
 40
10
 40
10
 10
90.83930867783405
 20
92.48583405389769
 30
0
 10
90.82363349337616
 20
92.48583405389769
 30
0
 10
90.80778605414402
 20
92.48755660164039
 30
0
 10
90.7922831244604
 20
92.49082944235141
 30
0
 10
90.7922831244604
 20
92.49082944235141
 30
0
 10
77.68507284127887
 20
95.27670590649859
 30
0
 10
77.68507284127887
 20
95.27670590649859
 30
0
 10
77.56363322542381
 20
95.30254412263801
 30
0
 10
77.48594632223143
 20
95.42226119075039
 30
0
 10
77.5117845383708
 20
95.5435285518312
 30
0
 10
77.5117845383708
 20
95.5435285518312
 30
0
 10
80.29766100251808
 20
108.6507388350128
 30
0
 10
80.29766100251808
 20
108.6507388350128
 30
0
 10
80.31953735884942
 20
108.7540916995702
 30
0
 10
80.41203817262837
 20
108.8290225263744
 30
0
 10
80.51745809447702
 20
108.8290225263744
 30
0
 10
80.53313327893491
 20
108.8290225263744
 30
0
 10
80.54898071816706
 20
108.8272999786318
 30
0
 10
80.56448364785068
 20
108.8240271379208
 30
0
 10
80.56448364785068
 20
108.8240271379208
 30
0
 10
93.67169393103221
 20
106.0381506737735
 30
0
 10
93.67169393103221
 20
106.0381506737735
 30
0
 10
93.79313354688728
 20
106.0123124576342
 30
0
 10
93.87082045007965
 20
105.8925953895217
 30
0
 10
93.84498223394029
 20
105.7713280284409
 30
0
 10
93.84498223394029
 20
105.7713280284409
 30
0
 10
91.05893351501874
 20
92.6641177452594
 30
0
 10
91.05893351501874
 20
92.6641177452594
 30
0
 10
91.0370571586874
 20
92.5607648807019
 30
0
 10
90.94455634490843
 20
92.48583405389769
 30
0
 10
90.83930867783405
 20
92.48583405389769
 30
0
  0
SPLINE
  5
B0
100
AcDbEntity
  8
0
  6
ByLayer
 62
  256
370
   -1
100
AcDbSpline
210
0
220
0
230
0
 70
   11
 71
    3
 72
   35
 73
   31
 74
    0
 42
1e-007
 43
1e-007
 40
0
 40
0
 40
0
 40
0
 40
1
 40
1
 40
1
 40
2
 40
2
 40
2
 40
3
 40
3
 40
3
 40
4
 40
4
 40
4
 40
5
 40
5
 40
5
 40
6
 40
6
 40
6
 40
7
 40
7
 40
7
 40
8
 40
8
 40
8
 40
9
 40
9
 40
9
 40
10
 40
10
 40
10
 40
10
 10
109.4729688836791
 20
88.52500777450601
 30
0
 10
109.4572936992212
 20
88.52500777450601
 30
0
 10
109.4414462599891
 20
88.5267303222486
 30
0
 10
109.4259433303054
 20
88.53000316295959
 30
0
 10
109.4259433303054
 20
88.53000316295959
 30
0
 10
96.31873304712391
 20
91.31605188188121
 30
0
 10
96.31873304712391
 20
91.31605188188121
 30
0
 10
96.19729343126887
 20
91.34189009802051
 30
0
 10
96.11960652807647
 20
91.46160716613289
 30
0
 10
96.14544474421587
 20
91.58287452721379
 30
0
 10
96.14544474421587
 20
91.58287452721379
 30
0
 10
98.9314934631374
 20
104.6900848103953
 30
0
 10
98.9314934631374
 20
104.6900848103953
 30
0
 10
98.95336981946875
 20
104.7934376749528
 30
0
 10
99.0458706332477
 20
104.8683685017569
 30
0
 10
99.15129055509634
 20
104.8683685017569
 30
0
 10
99.16696573955423
 20
104.8683685017569
 30
0
 10
99.18264092401212
 20
104.8666459540143
 30
0
 10
99.19814385369574
 20
104.8633731133033
 30
0
 10
99.19814385369574
 20
104.8633731133033
 30
0
 10
112.3053541368773
 20
102.0773243943818
 30
0
 10
112.3053541368773
 20
102.0773243943818
 30
0
 10
112.4267937527323
 20
102.0514861782424
 30
0
 10
112.504652910699
 20
101.93176911013
 30
0
 10
112.4788146945596
 20
101.8105017490492
 30
0
 10
112.4788146945596
 20
101.8105017490492
 30
0
 10
109.6927659756381
 20
88.70346372064191
 30
0
 10
109.6927659756381
 20
88.70346372064191
 30
0
 10
109.6708896193067
 20
88.59993860131021
 30
0
 10
109.5783888055278
 20
88.52500777450601
 30
0
 10
109.4729688836791
 20
88.52500777450601
 30
0
  0
SPLINE
  5
B1
100
AcDbEntity
  8
0
  6
ByLayer
 62
  256
370
   -1
100
AcDbSpline
210
0
220
0
230
0
 70
   11
 71
    3
 72
   38
 73
   34
 74
    0
 42
1e-007
 43
1e-007
 40
0
 40
0
 40
0
 40
0
 40
1
 40
1
 40
1
 40
2
 40
2
 40
2
 40
3
 40
3
 40
3
 40
4
 40
4
 40
4
 40
5
 40
5
 40
5
 40
6
 40
6
 40
6
 40
7
 40
7
 40
7
 40
8
 40
8
 40
8
 40
9
 40
9
 40
9
 40
10
 40
10
 40
10
 40
11
 40
11
 40
11
 40
11
 10
128.1066290895242
 20
84.56435374988851
 30
0
 10
128.0909539050663
 20
84.56435374988851
 30
0
 10
128.0751064658342
 20
84.5660762976311
 30
0
 10
128.0596035361505
 20
84.56934913834209
 30
0
 10
128.0596035361505
 20
84.56934913834209
 30
0
 10
114.9525655077432
 20
87.35539785726371
 30
0
 10
114.9525655077432
 20
87.35539785726371
 30
0
 10
114.8936543749455
 20
87.3678002010106
 30
0
 10
114.8431837260866
 20
87.40259566541161
 30
0
 10
114.8104553189767
 20
87.4528940594962
 30
0
 10
114.7777269118668
 20
87.50336470835521
 30
0
 10
114.7665303515398
 20
87.5634816245728
 30
0
 10
114.7791049500609
 20
87.62204824782199
 30
0
 10
114.7791049500609
 20
87.62204824782199
 30
0
 10
117.5651536689825
 20
100.7292585310036
 30
0
 10
117.5651536689825
 20
100.7292585310036
 30
0
 10
117.5870300253138
 20
100.8327836503353
 30
0
 10
117.6795308390928
 20
100.9077144771395
 30
0
 10
117.7849507609414
 20
100.9077144771395
 30
0
 10
117.8006259453993
 20
100.9077144771395
 30
0
 10
117.8164733846315
 20
100.9059919293969
 30
0
 10
117.8319763143151
 20
100.9027190886859
 30
0
 10
117.8319763143151
 20
100.9027190886859
 30
0
 10
130.9390143427223
 20
98.11667036976431
 30
0
 10
130.9390143427223
 20
98.11667036976431
 30
0
 10
131.0604539585774
 20
98.09083215362489
 30
0
 10
131.138313116544
 20
97.97111508551251
 30
0
 10
131.1124749004047
 20
97.8498477244317
 30
0
 10
131.1124749004047
 20
97.8498477244317
 30
0
 10
128.3264261814831
 20
84.7426374412502
 30
0
 10
128.3264261814831
 20
84.7426374412502
 30
0
 10
128.3045498251518
 20
84.63928457669269
 30
0
 10
128.2120490113728
 20
84.56435374988851
 30
0
 10
128.1066290895242
 20
84.56435374988851
 30
0
  0
SPLINE
  5
B2
100
AcDbEntity
  8
0
  6
ByLayer
 62
  256
370
   -1
100
AcDbSpline
210
0
220
0
230
0
 70
   11
 71
    3
 72
   38
 73
   34
 74
    0
 42
1e-007
 43
1e-007
 40
0
 40
0
 40
0
 40
0
 40
1
 40
1
 40
1
 40
2
 40
2
 40
2
 40
3
 40
3
 40
3
 40
4
 40
4
 40
4
 40
5
 40
5
 40
5
 40
6
 40
6
 40
6
 40
7
 40
7
 40
7
 40
8
 40
8
 40
8
 40
9
 40
9
 40
9
 40
10
 40
10
 40
10
 40
11
 40
11
 40
11
 40
11
 10
146.7402892953692
 20
80.6035274704968
 30
0
 10
146.7246141109113
 20
80.6035274704968
 30
0
 10
146.7087666716792
 20
80.60525001823939
 30
0
 10
146.6932637419956
 20
80.60852285895041
 30
0
 10
146.6932637419956
 20
80.60852285895041
 30
0
 10
133.5862257135883
 20
83.39457157787189
 30
0
 10
133.5862257135883
 20
83.39457157787189
 30
0
 10
133.4647860977333
 20
83.42040979401131
 30
0
 10
133.3869269397666
 20
83.54012686212371
 30
0
 10
133.412765155906
 20
83.6613942232045
 30
0
 10
133.412765155906
 20
83.6613942232045
 30
0
 10
136.1988138748275
 20
96.76860450638611
 30
0
 10
136.1988138748275
 20
96.76860450638611
 30
0
 10
136.2206902311588
 20
96.87195737094359
 30
0
 10
136.3131910449378
 20
96.94688819774771
 30
0
 10
136.4186109667864
 20
96.94688819774771
 30
0
 10
136.4342861512444
 20
96.94688819774771
 30
0
 10
136.4501335904765
 20
96.94516565000509
 30
0
 10
136.4656365201601
 20
96.9418928092941
 30
0
 10
136.4656365201601
 20
96.9418928092941
 30
0
 10
149.5728468033416
 20
94.1558440903726
 30
0
 10
149.5728468033416
 20
94.1558440903726
 30
0
 10
149.6317579361394
 20
94.14344174662571
 30
0
 10
149.6820563302241
 20
94.10881853699891
 30
0
 10
149.714784737334
 20
94.05834788813999
 30
0
 10
149.7475131444438
 20
94.0080494940554
 30
0
 10
149.7587097047709
 20
93.94793257783769
 30
0
 10
149.7461351062497
 20
93.88919369981431
 30
0
 10
149.7461351062497
 20
93.88919369981431
 30
0
 10
146.9600863873282
 20
80.7819834166327
 30
0
 10
146.9600863873282
 20
80.7819834166327
 30
0
 10
146.9382100309969
 20
80.67863055207519
 30
0
 10
146.8457092172179
 20
80.6035274704968
 30
0
 10
146.7402892953692
 20
80.6035274704968
 30
0
  0
SPLINE
  5
B3
100
AcDbEntity
  8
0
  6
ByLayer
 62
  256
370
   -1
100
AcDbSpline
210
0
220
0
230
0
 70
   11
 71
    3
 72
   35
 73
   31
 74
    0
 42
1e-007
 43
1e-007
 40
0
 40
0
 40
0
 40
0
 40
1
 40
1
 40
1
 40
2
 40
2
 40
2
 40
3
 40
3
 40
3
 40
4
 40
4
 40
4
 40
5
 40
5
 40
5
 40
6
 40
6
 40
6
 40
7
 40
7
 40
7
 40
8
 40
8
 40
8
 40
9
 40
9
 40
9
 40
10
 40
10
 40
10
 40
10
 10
77.56156616813266
 20
75.83241473297431
 30
0
 10
77.54589098367477
 20
75.83241473297431
 30
0
 10
77.53004354444262
 20
75.8341372807169
 30
0
 10
77.514540614759
 20
75.83741012142789
 30
0
 10
77.514540614759
 20
75.83741012142789
 30
0
 10
64.40750258635173
 20
78.6234588403494
 30
0
 10
64.40750258635173
 20
78.6234588403494
 30
0
 10
64.28606297049667
 20
78.64929705648879
 30
0
 10
64.20820381253003
 20
78.7690141246012
 30
0
 10
64.23404202866939
 20
78.89028148568201
 30
0
 10
64.23404202866939
 20
78.89028148568201
 30
0
 10
67.02009074759096
 20
91.9973195140893
 30
0
 10
67.02009074759096
 20
91.9973195140893
 30
0
 10
67.04196710392227
 20
92.10084463342099
 30
0
 10
67.13446791770124
 20
92.17577546022531
 30
0
 10
67.23988783954989
 20
92.17577546022531
 30
0
 10
67.25556302400777
 20
92.17577546022531
 30
0
 10
67.27141046323992
 20
92.17405291248261
 30
0
 10
67.28691339292354
 20
92.17078007177159
 30
0
 10
67.28691339292354
 20
92.17078007177159
 30
0
 10
80.39395142133081
 20
89.38473135285011
 30
0
 10
80.39395142133081
 20
89.38473135285011
 30
0
 10
80.51539103718586
 20
89.35889313671069
 30
0
 10
80.59325019515252
 20
89.23917606859831
 30
0
 10
80.56741197901314
 20
89.1179087075175
 30
0
 10
80.56741197901314
 20
89.1179087075175
 30
0
 10
77.7813632600916
 20
76.01087067911021
 30
0
 10
77.7813632600916
 20
76.01087067911021
 30
0
 10
77.75948690376026
 20
75.90734555977849
 30
0
 10
77.66698608998131
 20
75.83241473297431
 30
0
 10
77.56156616813266
 20
75.83241473297431
 30
0
  0
SPLINE
  5
B4
100
AcDbEntity
  8
0
  6
ByLayer
 62
  256
370
   -1
100
AcDbSpline
210
0
220
0
230
0
 70
   11
 71
    3
 72
   38
 73
   34
 74
    0
 42
1e-007
 43
1e-007
 40
0
 40
0
 40
0
 40
0
 40
1
 40
1
 40
1
 40
2
 40
2
 40
2
 40
3
 40
3
 40
3
 40
4
 40
4
 40
4
 40
5
 40
5
 40
5
 40
6
 40
6
 40
6
 40
7
 40
7
 40
7
 40
8
 40
8
 40
8
 40
9
 40
9
 40
9
 40
10
 40
10
 40
10
 40
11
 40
11
 40
11
 40
11
 10
96.19539862875197
 20
71.87176070835679
 30
0
 10
96.1797234442941
 20
71.87176070835679
 30
0
 10
96.16387600506194
 20
71.87348325609941
 30
0
 10
96.14837307537832
 20
71.8767560968104
 30
0
 10
96.14837307537832
 20
71.8767560968104
 30
0
 10
83.04116279219679
 20
74.66263256095769
 30
0
 10
83.04116279219679
 20
74.66263256095769
 30
0
 10
82.91972317634173
 20
74.68847077709711
 30
0
 10
82.84186401837509
 20
74.80818784520949
 30
0
 10
82.86770223451445
 20
74.9294552062903
 30
0
 10
82.86770223451445
 20
74.9294552062903
 30
0
 10
85.653750953436
 20
88.0366654894718
 30
0
 10
85.653750953436
 20
88.0366654894718
 30
0
 10
85.67562730976734
 20
88.14001835402931
 30
0
 10
85.76812812354629
 20
88.21494918083349
 30
0
 10
85.87354804539494
 20
88.21494918083349
 30
0
 10
85.88922322985283
 20
88.21494918083349
 30
0
 10
85.90507066908498
 20
88.2132266330909
 30
0
 10
85.9205735987686
 20
88.20995379237991
 30
0
 10
85.9205735987686
 20
88.20995379237991
 30
0
 10
99.02778388195014
 20
85.42407732823261
 30
0
 10
99.02778388195014
 20
85.42407732823261
 30
0
 10
99.0866950147479
 20
85.4116749844857
 30
0
 10
99.13699340883255
 20
85.37687952008471
 30
0
 10
99.16972181594244
 20
85.32658112600001
 30
0
 10
99.2024502230523
 20
85.27611047714109
 30
0
 10
99.21364678337936
 20
85.21599356092349
 30
0
 10
99.20107218485821
 20
85.1572546829
 30
0
 10
99.20107218485821
 20
85.1572546829
 30
0
 10
96.41502346593666
 20
72.0500443997185
 30
0
 10
96.41502346593666
 20
72.0500443997185
 30
0
 10
96.39314710960532
 20
71.94669153516099
 30
0
 10
96.30064629582637
 20
71.87176070835679
 30
0
 10
96.19539862875197
 20
71.87176070835679
 30
0
  0
SPLINE
  5
B5
100
AcDbEntity
  8
0
  6
ByLayer
 62
  256
370
   -1
100
AcDbSpline
210
0
220
0
230
0
 70
   11
 71
    3
 72
   35
 73
   31
 74
    0
 42
1e-007
 43
1e-007
 40
0
 40
0
 40
0
 40
0
 40
1
 40
1
 40
1
 40
2
 40
2
 40
2
 40
3
 40
3
 40
3
 40
4
 40
4
 40
4
 40
5
 40
5
 40
5
 40
6
 40
6
 40
6
 40
7
 40
7
 40
7
 40
8
 40
8
 40
8
 40
9
 40
9
 40
9
 40
10
 40
10
 40
10
 40
10
 10
114.829058834597
 20
67.91093442896511
 30
0
 10
114.8133836501391
 20
67.91093442896511
 30
0
 10
114.797536210907
 20
67.91265697670769
 30
0
 10
114.7820332812234
 20
67.91592981741869
 30
0
 10
114.7820332812234
 20
67.91592981741869
 30
0
 10
101.6748229980418
 20
70.70197853634019
 30
0
 10
101.6748229980418
 20
70.70197853634019
 30
0
 10
101.5533833821868
 20
70.72781675247961
 30
0
 10
101.4756964789944
 20
70.84753382059199
 30
0
 10
101.5015346951338
 20
70.9688011816728
 30
0
 10
101.5015346951338
 20
70.9688011816728
 30
0
 10
104.2875834140553
 20
84.07601146485439
 30
0
 10
104.2875834140553
 20
84.07601146485439
 30
0
 10
104.3094597703867
 20
84.17936432941181
 30
0
 10
104.4017883293914
 20
84.25429515621599
 30
0
 10
104.50720825124
 20
84.25429515621599
 30
0
 10
104.5228834356979
 20
84.25429515621599
 30
0
 10
104.53873087493
 20
84.2525726084734
 30
0
 10
104.5542338046137
 20
84.24929976776241
 30
0
 10
104.5542338046137
 20
84.24929976776241
 30
0
 10
117.6614440877952
 20
81.4632510488409
 30
0
 10
117.6614440877952
 20
81.4632510488409
 30
0
 10
117.7828837036502
 20
81.43741283270151
 30
0
 10
117.8605706068426
 20
81.3176957645891
 30
0
 10
117.8347323907033
 20
81.19642840350829
 30
0
 10
117.8347323907033
 20
81.19642840350829
 30
0
 10
115.048855926556
 20
68.089390375101
 30
0
 10
115.048855926556
 20
68.089390375101
 30
0
 10
115.0269795702246
 20
67.98586525576931
 30
0
 10
114.9344787564457
 20
67.91093442896511
 30
0
 10
114.829058834597
 20
67.91093442896511
 30
0
  0
SPLINE
  5
B6
100
AcDbEntity
  8
0
  6
ByLayer
 62
  256
370
   -1
100
AcDbSpline
210
0
220
0
230
0
 70
   11
 71
    3
 72
   35
 73
   31
 74
    0
 42
1e-007
 43
1e-007
 40
0
 40
0
 40
0
 40
0
 40
1
 40
1
 40
1
 40
2
 40
2
 40
2
 40
3
 40
3
 40
3
 40
4
 40
4
 40
4
 40
5
 40
5
 40
5
 40
6
 40
6
 40
6
 40
7
 40
7
 40
7
 40
8
 40
8
 40
8
 40
9
 40
9
 40
9
 40
10
 40
10
 40
10
 40
10
 10
133.4627190404421
 20
63.95028040434761
 30
0
 10
133.4470438559842
 20
63.95028040434761
 30
0
 10
133.4311964167521
 20
63.9520029520902
 30
0
 10
133.4156934870684
 20
63.95527579280119
 30
0
 10
133.4156934870684
 20
63.95527579280119
 30
0
 10
120.3084832038869
 20
66.74132451172281
 30
0
 10
120.3084832038869
 20
66.74132451172281
 30
0
 10
120.1870435880319
 20
66.76716272786209
 30
0
 10
120.1093566848395
 20
66.88670754120031
 30
0
 10
120.1351949009788
 20
67.00797490228109
 30
0
 10
120.1351949009788
 20
67.00797490228109
 30
0
 10
122.9212436199004
 20
80.11518518546259
 30
0
 10
122.9212436199004
 20
80.11518518546259
 30
0
 10
122.9431199762317
 20
80.2187103047944
 30
0
 10
123.0356207900107
 20
80.29364113159849
 30
0
 10
123.1410407118593
 20
80.29364113159849
 30
0
 10
123.1567158963172
 20
80.29364113159849
 30
0
 10
123.1723910807751
 20
80.2919185838559
 30
0
 10
123.1878940104587
 20
80.28864574314491
 30
0
 10
123.1878940104587
 20
80.28864574314491
 30
0
 10
136.2951042936402
 20
77.50259702422341
 30
0
 10
136.2951042936402
 20
77.50259702422341
 30
0
 10
136.4165439094953
 20
77.47675880808401
 30
0
 10
136.4944030674619
 20
77.35704173997161
 30
0
 10
136.4685648513226
 20
77.2357743788908
 30
0
 10
136.4685648513226
 20
77.2357743788908
 30
0
 10
133.682516132401
 20
64.12856409570929
 30
0
 10
133.682516132401
 20
64.12856409570929
 30
0
 10
133.6606397760697
 20
64.02521123115179
 30
0
 10
133.5681389622907
 20
63.95028040434761
 30
0
 10
133.4627190404421
 20
63.95028040434761
 30
0
  0
SPLINE
  5
B7
100
AcDbEntity
  8
0
  6
ByLayer
 62
  256
370
   -1
100
AcDbSpline
210
0
220
0
230
0
 70
   11
 71
    3
 72
   38
 73
   34
 74
    0
 42
1e-007
 43
1e-007
 40
0
 40
0
 40
0
 40
0
 40
1
 40
1
 40
1
 40
2
 40
2
 40
2
 40
3
 40
3
 40
3
 40
4
 40
4
 40
4
 40
5
 40
5
 40
5
 40
6
 40
6
 40
6
 40
7
 40
7
 40
7
 40
8
 40
8
 40
8
 40
9
 40
9
 40
9
 40
10
 40
10
 40
10
 40
11
 40
11
 40
11
 40
11
 10
78.25919800389575
 20
56.20846182989419
 30
0
 10
78.24352281943787
 20
56.20846182989419
 30
0
 10
78.22784763497998
 20
56.21018437763681
 30
0
 10
78.21234470529636
 20
56.2134572183478
 30
0
 10
78.21234470529636
 20
56.2134572183478
 30
0
 10
65.10513442211482
 20
58.9995059372693
 30
0
 10
65.10513442211482
 20
58.9995059372693
 30
0
 10
64.98369480625976
 20
59.0253441534087
 30
0
 10
64.90583564829312
 20
59.1450612215211
 30
0
 10
64.9316738644325
 20
59.26632858260189
 30
0
 10
64.9316738644325
 20
59.26632858260189
 30
0
 10
67.71772258335405
 20
72.37353886578339
 30
0
 10
67.71772258335405
 20
72.37353886578339
 30
0
 10
67.73959893968537
 20
72.4768917303409
 30
0
 10
67.83209975346433
 20
72.5518225571451
 30
0
 10
67.93751967531298
 20
72.5518225571451
 30
0
 10
67.95319485977086
 20
72.5518225571451
 30
0
 10
67.96904229900301
 20
72.55010000940251
 30
0
 10
67.98454522868664
 20
72.54682716869149
 30
0
 10
67.98454522868664
 20
72.54682716869149
 30
0
 10
81.09175551186817
 20
69.76077844976999
 30
0
 10
81.09175551186817
 20
69.76077844976999
 30
0
 10
81.15049438989168
 20
69.7483761060231
 30
0
 10
81.20096503875058
 20
69.713580641622
 30
0
 10
81.23369344586047
 20
69.66328224753741
 30
0
 10
81.26642185297034
 20
69.61281159867849
 30
0
 10
81.2776184132974
 20
69.5526946824609
 30
0
 10
81.26504381477623
 20
69.49412805921159
 30
0
 10
81.26504381477623
 20
69.49412805921159
 30
0
 10
78.47899509585469
 20
56.38691777603009
 30
0
 10
78.47899509585469
 20
56.38691777603009
 30
0
 10
78.45711873952335
 20
56.28339265669831
 30
0
 10
78.3646179257444
 20
56.20846182989419
 30
0
 10
78.25919800389575
 20
56.20846182989419
 30
0
  0
SPLINE
  5
B8
100
AcDbEntity
  8
0
  6
ByLayer
 62
  256
370
   -1
100
AcDbSpline
210
0
220
0
230
0
 70
   11
 71
    3
 72
   38
 73
   34
 74
    0
 42
1e-007
 43
1e-007
 40
0
 40
0
 40
0
 40
0
 40
1
 40
1
 40
1
 40
2
 40
2
 40
2
 40
3
 40
3
 40
3
 40
4
 40
4
 40
4
 40
5
 40
5
 40
5
 40
6
 40
6
 40
6
 40
7
 40
7
 40
7
 40
8
 40
8
 40
8
 40
9
 40
9
 40
9
 40
10
 40
10
 40
10
 40
11
 40
11
 40
11
 40
11
 10
96.89303046451508
 20
52.24780780527669
 30
0
 10
96.87735528005717
 20
52.24780780527669
 30
0
 10
96.86150784082504
 20
52.24953035301931
 30
0
 10
96.84600491114141
 20
52.2528031937303
 30
0
 10
96.84600491114141
 20
52.2528031937303
 30
0
 10
83.73879462795988
 20
55.03885191265181
 30
0
 10
83.73879462795988
 20
55.03885191265181
 30
0
 10
83.6798834951621
 20
55.05125425639869
 30
0
 10
83.62958510107747
 20
55.08587746602549
 30
0
 10
83.59685669396758
 20
55.13634811488441
 30
0
 10
83.56412828685771
 20
55.1868187637433
 30
0
 10
83.55293172653066
 20
55.24676342518671
 30
0
 10
83.56550632505181
 20
55.3055023032102
 30
0
 10
83.56550632505181
 20
55.3055023032102
 30
0
 10
86.35138278919909
 20
68.41271258639171
 30
0
 10
86.35138278919909
 20
68.41271258639171
 30
0
 10
86.37325914553043
 20
68.51623770572351
 30
0
 10
86.46575995930939
 20
68.5911685325276
 30
0
 10
86.57117988115803
 20
68.5911685325276
 30
0
 10
86.58685506561592
 20
68.5911685325276
 30
0
 10
86.60270250484807
 20
68.58944598478499
 30
0
 10
86.61820543453169
 20
68.586173144074
 30
0
 10
86.61820543453169
 20
68.586173144074
 30
0
 10
99.72541571771323
 20
65.80012442515249
 30
0
 10
99.72541571771323
 20
65.80012442515249
 30
0
 10
99.84685533356827
 20
65.7742862090131
 30
0
 10
99.92454223676067
 20
65.65456914090069
 30
0
 10
99.8987040206213
 20
65.53330177981991
 30
0
 10
99.8987040206213
 20
65.53330177981991
 30
0
 10
97.11265530169975
 20
52.42609149663829
 30
0
 10
97.11265530169975
 20
52.42609149663829
 30
0
 10
97.09077894536841
 20
52.3227386320809
 30
0
 10
96.99827813158944
 20
52.24780780527669
 30
0
 10
96.89303046451508
 20
52.24780780527669
 30
0
  0
SPLINE
  5
B9
100
AcDbEntity
  8
0
  6
ByLayer
 62
  256
370
   -1
100
AcDbSpline
210
0
220
0
230
0
 70
   11
 71
    3
 72
   35
 73
   31
 74
    0
 42
1e-007
 43
1e-007
 40
0
 40
0
 40
0
 40
0
 40
1
 40
1
 40
1
 40
2
 40
2
 40
2
 40
3
 40
3
 40
3
 40
4
 40
4
 40
4
 40
5
 40
5
 40
5
 40
6
 40
6
 40
6
 40
7
 40
7
 40
7
 40
8
 40
8
 40
8
 40
9
 40
9
 40
9
 40
10
 40
10
 40
10
 40
10
 10
83.61528795481368
 20
35.5943884843532
 30
0
 10
83.59961277035579
 20
35.5943884843532
 30
0
 10
83.58376533112364
 20
35.59611103209579
 30
0
 10
83.56826240144001
 20
35.59938387280681
 30
0
 10
83.56826240144001
 20
35.59938387280681
 30
0
 10
70.46122437303275
 20
38.3854325917284
 30
0
 10
70.46122437303275
 20
38.3854325917284
 30
0
 10
70.33978475717768
 20
38.41127080786779
 30
0
 10
70.26192559921104
 20
38.5309878759802
 30
0
 10
70.28776381535042
 20
38.65225523706101
 30
0
 10
70.28776381535042
 20
38.65225523706101
 30
0
 10
73.07381253427197
 20
51.75946552024249
 30
0
 10
73.07381253427197
 20
51.75946552024249
 30
0
 10
73.0956888906033
 20
51.86281838479999
 30
0
 10
73.18818970438225
 20
51.9377492116042
 30
0
 10
73.2936096262309
 20
51.9377492116042
 30
0
 10
73.30928481068878
 20
51.9377492116042
 30
0
 10
73.32513224992094
 20
51.93602666386161
 30
0
 10
73.34063517960456
 20
51.93275382315059
 30
0
 10
73.34063517960456
 20
51.93275382315059
 30
0
 10
86.44784546278609
 20
49.146705104229
 30
0
 10
86.44784546278609
 20
49.146705104229
 30
0
 10
86.56928507864114
 20
49.12086688808969
 30
0
 10
86.64697198183353
 20
49.0013220747515
 30
0
 10
86.62113376569415
 20
48.88005471367069
 30
0
 10
86.62113376569415
 20
48.88005471367069
 30
0
 10
83.83508504677262
 20
35.77284443048919
 30
0
 10
83.83508504677262
 20
35.77284443048919
 30
0
 10
83.81320869044127
 20
35.66931931115741
 30
0
 10
83.72070787666232
 20
35.5943884843532
 30
0
 10
83.61528795481368
 20
35.5943884843532
 30
0
  0
SPLINE
  5
BA
100
AcDbEntity
  8
0
  6
ByLayer
 62
  256
370
   -1
100
AcDbSpline
210
0
220
0
230
0
 70
   11
 71
    3
 72
   35
 73
   31
 74
    0
 42
1e-007
 43
1e-007
 40
0
 40
0
 40
0
 40
0
 40
1
 40
1
 40
1
 40
2
 40
2
 40
2
 40
3
 40
3
 40
3
 40
4
 40
4
 40
4
 40
5
 40
5
 40
5
 40
6
 40
6
 40
6
 40
7
 40
7
 40
7
 40
8
 40
8
 40
8
 40
9
 40
9
 40
9
 40
10
 40
10
 40
10
 40
10
 10
102.249120415433
 20
31.63373445973579
 30
0
 10
102.2334452309751
 20
31.63373445973579
 30
0
 10
102.217597791743
 20
31.63545700747841
 30
0
 10
102.2020948620593
 20
31.6387298481894
 30
0
 10
102.2020948620593
 20
31.6387298481894
 30
0
 10
89.09488457887781
 20
34.42477856711091
 30
0
 10
89.09488457887781
 20
34.42477856711091
 30
0
 10
88.97344496302274
 20
34.4506167832503
 30
0
 10
88.89575805983036
 20
34.5703338513627
 30
0
 10
88.92159627596973
 20
34.69160121244349
 30
0
 10
88.92159627596973
 20
34.69160121244349
 30
0
 10
91.70747274011703
 20
47.7986392408508
 30
0
 10
91.70747274011703
 20
47.7986392408508
 30
0
 10
91.72934909644835
 20
47.9021643601825
 30
0
 10
91.82184991022731
 20
47.9770951869867
 30
0
 10
91.92726983207596
 20
47.9770951869867
 30
0
 10
91.94294501653384
 20
47.9770951869867
 30
0
 10
91.95879245576599
 20
47.97537263924411
 30
0
 10
91.97429538544962
 20
47.97209979853309
 30
0
 10
91.97429538544962
 20
47.97209979853309
 30
0
 10
105.0815056686312
 20
45.18605107961159
 30
0
 10
105.0815056686312
 20
45.18605107961159
 30
0
 10
105.2029452844862
 20
45.1602128634722
 30
0
 10
105.2806321876786
 20
45.04049579535979
 30
0
 10
105.2547939715392
 20
44.91922843427889
 30
0
 10
105.2547939715392
 20
44.91922843427889
 30
0
 10
102.4687452526177
 20
31.81201815109739
 30
0
 10
102.4687452526177
 20
31.81201815109739
 30
0
 10
102.4468688962863
 20
31.70866528653991
 30
0
 10
102.3543680825074
 20
31.63373445973579
 30
0
 10
102.249120415433
 20
31.63373445973579
 30
0
  0
SPLINE
  5
BB
100
AcDbEntity
  8
0
  6
ByLayer
 62
  256
370
   -1
100
AcDbSpline
210
0
220
0
230
0
 70
   11
 71
    3
 72
   38
 73
   34
 74
    0
 42
1e-007
 43
1e-007
 40
0
 40
0
 40
0
 40
0
 40
1
 40
1
 40
1
 40
2
 40
2
 40
2
 40
3
 40
3
 40
3
 40
4
 40
4
 40
4
 40
5
 40
5
 40
5
 40
6
 40
6
 40
6
 40
7
 40
7
 40
7
 40
8
 40
8
 40
8
 40
9
 40
9
 40
9
 40
10
 40
10
 40
10
 40
11
 40
11
 40
11
 40
11
 10
120.882780621278
 20
27.67308043511829
 30
0
 10
120.8671054368202
 20
27.67308043511829
 30
0
 10
120.851257997588
 20
27.6748029828609
 30
0
 10
120.8357550679044
 20
27.6780758235719
 30
0
 10
120.8357550679044
 20
27.6780758235719
 30
0
 10
107.7285447847229
 20
30.4639522877192
 30
0
 10
107.7285447847229
 20
30.4639522877192
 30
0
 10
107.6071051688678
 20
30.48979050385859
 30
0
 10
107.5294182656754
 20
30.60950757197099
 30
0
 10
107.5552564818148
 20
30.7307749330518
 30
0
 10
107.5552564818148
 20
30.7307749330518
 30
0
 10
110.3413052007363
 20
43.83798521623331
 30
0
 10
110.3413052007363
 20
43.83798521623331
 30
0
 10
110.3631815570677
 20
43.94133808079081
 30
0
 10
110.4556823708466
 20
44.01626890759499
 30
0
 10
110.560930037921
 20
44.01626890759499
 30
0
 10
110.5766052223789
 20
44.01626890759499
 30
0
 10
110.592452661611
 20
44.01454635985229
 30
0
 10
110.6079555912947
 20
44.01127351914141
 30
0
 10
110.6079555912947
 20
44.01127351914141
 30
0
 10
123.7151658744762
 20
41.22522480021979
 30
0
 10
123.7151658744762
 20
41.22522480021979
 30
0
 10
123.774077007274
 20
41.21282245647291
 30
0
 10
123.8245476561329
 20
41.17819924684619
 30
0
 10
123.8572760632428
 20
41.12772859798719
 30
0
 10
123.8900044703526
 20
41.07743020390259
 30
0
 10
123.9012010306797
 20
41.017313287685
 30
0
 10
123.8886264321585
 20
40.95857440966151
 30
0
 10
123.8886264321585
 20
40.95857440966151
 30
0
 10
121.102577713237
 20
27.85136412647999
 30
0
 10
121.102577713237
 20
27.85136412647999
 30
0
 10
121.0807013569056
 20
27.7480112619225
 30
0
 10
120.9882005431267
 20
27.67308043511829
 30
0
 10
120.882780621278
 20
27.67308043511829
 30
0
  0
SPLINE
  5
BC
100
AcDbEntity
  8
0
  6
ByLayer
 62
  256
370
   -1
100
AcDbSpline
210
0
220
0
230
0
 70
   11
 71
    3
 72
   35
 73
   31
 74
    0
 42
1e-007
 43
1e-007
 40
0
 40
0
 40
0
 40
0
 40
1
 40
1
 40
1
 40
2
 40
2
 40
2
 40
3
 40
3
 40
3
 40
4
 40
4
 40
4
 40
5
 40
5
 40
5
 40
6
 40
6
 40
6
 40
7
 40
7
 40
7
 40
8
 40
8
 40
8
 40
9
 40
9
 40
9
 40
10
 40
10
 40
10
 40
10
 10
139.5164408271231
 20
23.7122541557265
 30
0
 10
139.5007656426652
 20
23.7122541557265
 30
0
 10
139.4849182034331
 20
23.7139767034692
 30
0
 10
139.4694152737495
 20
23.71724954418011
 30
0
 10
139.4694152737495
 20
23.71724954418011
 30
0
 10
126.3623772453422
 20
26.5032982631017
 30
0
 10
126.3623772453422
 20
26.5032982631017
 30
0
 10
126.2409376294871
 20
26.5291364792411
 30
0
 10
126.1630784715205
 20
26.6488535473535
 30
0
 10
126.1889166876599
 20
26.77012090843429
 30
0
 10
126.1889166876599
 20
26.77012090843429
 30
0
 10
128.9749654065814
 20
39.8771589368416
 30
0
 10
128.9749654065814
 20
39.8771589368416
 30
0
 10
128.9968417629127
 20
39.98068405617329
 30
0
 10
129.0893425766917
 20
40.05561488297749
 30
0
 10
129.1947624985403
 20
40.05561488297749
 30
0
 10
129.2104376829982
 20
40.05561488297749
 30
0
 10
129.2262851222304
 20
40.05389233523491
 30
0
 10
129.241788051914
 20
40.05061949452389
 30
0
 10
129.241788051914
 20
40.05061949452389
 30
0
 10
142.3488260803213
 20
37.26457077560241
 30
0
 10
142.3488260803213
 20
37.26457077560241
 30
0
 10
142.4702656961763
 20
37.23873255946299
 30
0
 10
142.548124854143
 20
37.11901549135061
 30
0
 10
142.5222866380036
 20
36.99774813026971
 30
0
 10
142.5222866380036
 20
36.99774813026971
 30
0
 10
139.736237919082
 20
23.8907101018625
 30
0
 10
139.736237919082
 20
23.8907101018625
 30
0
 10
139.7143615627507
 20
23.7871849825307
 30
0
 10
139.6218607489718
 20
23.7122541557265
 30
0
 10
139.5164408271231
 20
23.7122541557265
 30
0
  0
SPLINE
  5
BD
100
AcDbEntity
  8
0
  6
ByLayer
 62
  256
370
   -1
100
AcDbSpline
210
0
220
0
230
0
 70
   11
 71
    3
 72
   38
 73
   34
 74
    0
 42
1e-007
 43
1e-007
 40
0
 40
0
 40
0
 40
0
 40
1
 40
1
 40
1
 40
2
 40
2
 40
2
 40
3
 40
3
 40
3
 40
4
 40
4
 40
4
 40
5
 40
5
 40
5
 40
6
 40
6
 40
6
 40
7
 40
7
 40
7
 40
8
 40
8
 40
8
 40
9
 40
9
 40
9
 40
10
 40
10
 40
10
 40
11
 40
11
 40
11
 40
11
 10
115.5266906703601
 20
48.2871537806592
 30
0
 10
115.5110154859022
 20
48.2871537806592
 30
0
 10
115.4951680466701
 20
48.28887632840181
 30
0
 10
115.4796651169865
 20
48.2921491691128
 30
0
 10
115.4796651169865
 20
48.2921491691128
 30
0
 10
102.3724548338049
 20
51.0780256332601
 30
0
 10
102.3724548338049
 20
51.0780256332601
 30
0
 10
102.2510152179499
 20
51.10386384939949
 30
0
 10
102.1733283147575
 20
51.2235809175119
 30
0
 10
102.1991665308969
 20
51.34484827859271
 30
0
 10
102.1991665308969
 20
51.34484827859271
 30
0
 10
104.9852152498184
 20
64.45205856177421
 30
0
 10
104.9852152498184
 20
64.45205856177421
 30
0
 10
105.0070916061497
 20
64.55541142633169
 30
0
 10
105.0995924199287
 20
64.63034225313589
 30
0
 10
105.2048400870031
 20
64.63034225313589
 30
0
 10
105.220515271461
 20
64.63034225313589
 30
0
 10
105.2363627106931
 20
64.62861970539331
 30
0
 10
105.2518656403767
 20
64.62534686468231
 30
0
 10
105.2518656403767
 20
64.62534686468231
 30
0
 10
118.3590759235583
 20
61.83929814576081
 30
0
 10
118.3590759235583
 20
61.83929814576081
 30
0
 10
118.4179870563561
 20
61.82689580201389
 30
0
 10
118.468457705215
 20
61.79227259238709
 30
0
 10
118.5011861123248
 20
61.7418019435282
 30
0
 10
118.5339145194347
 20
61.6915035494435
 30
0
 10
118.5451110797618
 20
61.6313866332259
 30
0
 10
118.5325364812406
 20
61.57264775520241
 30
0
 10
118.5325364812406
 20
61.57264775520241
 30
0
 10
115.7464877623191
 20
48.46543747202091
 30
0
 10
115.7464877623191
 20
48.46543747202091
 30
0
 10
115.7246114059877
 20
48.3620846074634
 30
0
 10
115.6321105922088
 20
48.2871537806592
 30
0
 10
115.5266906703601
 20
48.2871537806592
 30
0
  0
SPLINE
  5
BE
100
AcDbEntity
  8
0
  6
ByLayer
 62
  256
370
   -1
100
AcDbSpline
210
0
220
0
230
0
 70
   11
 71
    3
 72
   35
 73
   31
 74
    0
 42
1e-007
 43
1e-007
 40
0
 40
0
 40
0
 40
0
 40
1
 40
1
 40
1
 40
2
 40
2
 40
2
 40
3
 40
3
 40
3
 40
4
 40
4
 40
4
 40
5
 40
5
 40
5
 40
6
 40
6
 40
6
 40
7
 40
7
 40
7
 40
8
 40
8
 40
8
 40
9
 40
9
 40
9
 40
10
 40
10
 40
10
 40
10
 10
134.1603508762052
 20
44.32632750126751
 30
0
 10
134.1446756917473
 20
44.32632750126751
 30
0
 10
134.1288282525151
 20
44.3280500490101
 30
0
 10
134.1133253228315
 20
44.33132288972109
 30
0
 10
134.1133253228315
 20
44.33132288972109
 30
0
 10
121.0062872944243
 20
47.1173716086426
 30
0
 10
121.0062872944243
 20
47.1173716086426
 30
0
 10
120.8848476785692
 20
47.14320982478199
 30
0
 10
120.8069885206026
 20
47.2629268928944
 30
0
 10
120.8328267367419
 20
47.38419425397521
 30
0
 10
120.8328267367419
 20
47.38419425397521
 30
0
 10
123.6188754556635
 20
60.4912322823825
 30
0
 10
123.6188754556635
 20
60.4912322823825
 30
0
 10
123.6407518119948
 20
60.59475740171419
 30
0
 10
123.7332526257738
 20
60.6696882285184
 30
0
 10
123.8386725476224
 20
60.6696882285184
 30
0
 10
123.8543477320803
 20
60.6696882285184
 30
0
 10
123.8701951713124
 20
60.66796568077581
 30
0
 10
123.8856981009961
 20
60.66469284006479
 30
0
 10
123.8856981009961
 20
60.66469284006479
 30
0
 10
136.9927361294033
 20
57.87864412114331
 30
0
 10
136.9927361294033
 20
57.87864412114331
 30
0
 10
137.1141757452584
 20
57.85280590500389
 30
0
 10
137.192034903225
 20
57.73308883689151
 30
0
 10
137.1661966870857
 20
57.6118214758107
 30
0
 10
137.1661966870857
 20
57.6118214758107
 30
0
 10
134.3801479681641
 20
44.50478344740341
 30
0
 10
134.3801479681641
 20
44.50478344740341
 30
0
 10
134.3582716118328
 20
44.40125832807169
 30
0
 10
134.2657707980538
 20
44.32632750126751
 30
0
 10
134.1603508762052
 20
44.32632750126751
 30
0
  0
SPLINE
  5
BF
100
AcDbEntity
  8
0
  6
ByLayer
 62
  256
370
   -1
100
AcDbSpline
210
0
220
0
230
0
 70
   11
 71
    3
 72
   35
 73
   31
 74
    0
 42
1e-007
 43
1e-007
 40
0
 40
0
 40
0
 40
0
 40
1
 40
1
 40
1
 40
2
 40
2
 40
2
 40
3
 40
3
 40
3
 40
4
 40
4
 40
4
 40
5
 40
5
 40
5
 40
6
 40
6
 40
6
 40
7
 40
7
 40
7
 40
8
 40
8
 40
8
 40
9
 40
9
 40
9
 40
10
 40
10
 40
10
 40
10
 10
84.31309204535103
 20
15.97060783604741
 30
0
 10
84.29741686089314
 20
15.97060783604741
 30
0
 10
84.28156942166099
 20
15.97233038378999
 30
0
 10
84.26606649197737
 20
15.975603224501
 30
0
 10
84.26606649197737
 20
15.975603224501
 30
0
 10
71.15885620879584
 20
18.76165194342251
 30
0
 10
71.15885620879584
 20
18.76165194342251
 30
0
 10
71.03741659294079
 20
18.7874901595619
 30
0
 10
70.9597296897484
 20
18.90703497290011
 30
0
 10
70.98556790588776
 20
19.0283023339809
 30
0
 10
70.98556790588776
 20
19.0283023339809
 30
0
 10
73.77144437003506
 20
32.13551261716239
 30
0
 10
73.77144437003506
 20
32.13551261716239
 30
0
 10
73.79332072636639
 20
32.23903773649411
 30
0
 10
73.88582154014534
 20
32.31396856329829
 30
0
 10
73.99124146199399
 20
32.31396856329829
 30
0
 10
74.00691664645188
 20
32.31396856329829
 30
0
 10
74.02276408568403
 20
32.3122460155557
 30
0
 10
74.03826701536765
 20
32.30897317484471
 30
0
 10
74.03826701536765
 20
32.30897317484471
 30
0
 10
87.14547729854918
 20
29.5229244559232
 30
0
 10
87.14547729854918
 20
29.5229244559232
 30
0
 10
87.26691691440423
 20
29.49708623978381
 30
0
 10
87.34460381759662
 20
29.3773691716714
 30
0
 10
87.31876560145724
 20
29.25610181059059
 30
0
 10
87.31876560145724
 20
29.25610181059059
 30
0
 10
84.53288913730997
 20
16.14889152740901
 30
0
 10
84.53288913730997
 20
16.14889152740901
 30
0
 10
84.51101278097863
 20
16.0455386628516
 30
0
 10
84.41851196719968
 20
15.97060783604741
 30
0
 10
84.31309204535103
 20
15.97060783604741
 30
0
  0
SPLINE
  5
C0
100
AcDbEntity
  8
0
  6
ByLayer
 62
  256
370
   -1
100
AcDbSpline
210
0
220
0
230
0
 70
   11
 71
    3
 72
   35
 73
   31
 74
    0
 42
1e-007
 43
1e-007
 40
0
 40
0
 40
0
 40
0
 40
1
 40
1
 40
1
 40
2
 40
2
 40
2
 40
3
 40
3
 40
3
 40
4
 40
4
 40
4
 40
5
 40
5
 40
5
 40
6
 40
6
 40
6
 40
7
 40
7
 40
7
 40
8
 40
8
 40
8
 40
9
 40
9
 40
9
 40
10
 40
10
 40
10
 40
10
 10
144.872530778041
 20
3.098180810185596
 30
0
 10
144.8568555935831
 20
3.098180810185596
 30
0
 10
144.8411804091253
 20
3.099903357928198
 30
0
 10
144.8256774794417
 20
3.103176198639204
 30
0
 10
144.8256774794417
 20
3.103176198639204
 30
0
 10
131.7184671962601
 20
5.889224917560796
 30
0
 10
131.7184671962601
 20
5.889224917560796
 30
0
 10
131.597027580405
 20
5.915063133700102
 30
0
 10
131.5191684224384
 20
6.034780201812595
 30
0
 10
131.5450066385778
 20
6.156047562893406
 30
0
 10
131.5450066385778
 20
6.156047562893406
 30
0
 10
134.3310553574993
 20
19.26325784607489
 30
0
 10
134.3310553574993
 20
19.26325784607489
 30
0
 10
134.3529317138307
 20
19.3666107106324
 30
0
 10
134.4454325276096
 20
19.44154153743661
 30
0
 10
134.5508524494583
 20
19.44154153743661
 30
0
 10
134.5665276339162
 20
19.44154153743661
 30
0
 10
134.5823750731483
 20
19.4398189896939
 30
0
 10
134.5978780028319
 20
19.436546148983
 30
0
 10
134.5978780028319
 20
19.436546148983
 30
0
 10
147.7050882860134
 20
16.65049743006141
 30
0
 10
147.7050882860134
 20
16.65049743006141
 30
0
 10
147.8265279018685
 20
16.624659213922
 30
0
 10
147.9042148050609
 20
16.50511440058391
 30
0
 10
147.8783765889215
 20
16.3838470395031
 30
0
 10
147.8783765889215
 20
16.3838470395031
 30
0
 10
145.09232787
 20
3.276636756321594
 30
0
 10
145.09232787
 20
3.276636756321594
 30
0
 10
145.0704515136686
 20
3.173111636989802
 30
0
 10
144.9779506998897
 20
3.098180810185596
 30
0
 10
144.872530778041
 20
3.098180810185596
 30
0
  0
SPLINE
  5
C1
100
AcDbEntity
  8
0
  6
ByLayer
 62
  256
370
   -1
100
AcDbSpline
210
0
220
0
230
0
 70
   11
 71
    3
 72
   29
 73
   25
 74
    0
 42
1e-007
 43
1e-007
 40
0
 40
0
 40
0
 40
0
 40
1
 40
1
 40
1
 40
2
 40
2
 40
2
 40
3
 40
3
 40
3
 40
4
 40
4
 40
4
 40
5
 40
5
 40
5
 40
6
 40
6
 40
6
 40
7
 40
7
 40
7
 40
8
 40
8
 40
8
 40
8
 10
239.018377651206
 20
97.9532005889892
 30
0
 10
238.894354213737
 20
97.9532005889892
 30
0
 10
238.7934129160192
 20
98.05431414148131
 30
0
 10
238.7934129160192
 20
98.17833757895031
 30
0
 10
238.7934129160192
 20
98.17833757895031
 30
0
 10
238.7934129160192
 20
111.5783809783781
 30
0
 10
238.7934129160192
 20
111.5783809783781
 30
0
 10
238.7934129160192
 20
111.7024044158471
 30
0
 10
238.894354213737
 20
111.8033457135649
 30
0
 10
239.018377651206
 20
111.8033457135649
 30
0
 10
239.018377651206
 20
111.8033457135649
 30
0
 10
252.4184210506337
 20
111.8033457135649
 30
0
 10
252.4184210506337
 20
111.8033457135649
 30
0
 10
252.5424444881027
 20
111.8033457135649
 30
0
 10
252.6433857858206
 20
111.7024044158471
 30
0
 10
252.6433857858206
 20
111.5783809783781
 30
0
 10
252.6433857858206
 20
111.5783809783781
 30
0
 10
252.6433857858206
 20
98.17833757895031
 30
0
 10
252.6433857858206
 20
98.17833757895031
 30
0
 10
252.6433857858206
 20
98.05431414148131
 30
0
 10
252.5424444881027
 20
97.9532005889892
 30
0
 10
252.4184210506337
 20
97.9532005889892
 30
0
 10
252.4184210506337
 20
97.9532005889892
 30
0
 10
239.018377651206
 20
97.9532005889892
 30
0
 10
239.018377651206
 20
97.9532005889892
 30
0
  0
SPLINE
  5
C2
100
AcDbEntity
  8
0
  6
ByLayer
 62
  256
370
   -1
100
AcDbSpline
210
0
220
0
230
0
 70
   11
 71
    3
 72
   29
 73
   25
 74
    0
 42
1e-007
 43
1e-007
 40
0
 40
0
 40
0
 40
0
 40
1
 40
1
 40
1
 40
2
 40
2
 40
2
 40
3
 40
3
 40
3
 40
4
 40
4
 40
4
 40
5
 40
5
 40
5
 40
6
 40
6
 40
6
 40
7
 40
7
 40
7
 40
8
 40
8
 40
8
 40
8
 10
258.0683776464435
 20
96.4528615051629
 30
0
 10
257.9443542089745
 20
96.4528615051629
 30
0
 10
257.8434129112566
 20
96.55397505765501
 30
0
 10
257.8434129112566
 20
96.677998495124
 30
0
 10
257.8434129112566
 20
96.677998495124
 30
0
 10
257.8434129112566
 20
110.0778696397775
 30
0
 10
257.8434129112566
 20
110.0778696397775
 30
0
 10
257.8434129112566
 20
110.2018930772465
 30
0
 10
257.9443542089745
 20
110.3030066297386
 30
0
 10
258.0683776464435
 20
110.3030066297386
 30
0
 10
258.0683776464435
 20
110.3030066297386
 30
0
 10
271.4684210458712
 20
110.3030066297386
 30
0
 10
271.4684210458712
 20
110.3030066297386
 30
0
 10
271.5924444833402
 20
110.3030066297386
 30
0
 10
271.6933857810581
 20
110.2018930772465
 30
0
 10
271.6933857810581
 20
110.0778696397775
 30
0
 10
271.6933857810581
 20
110.0778696397775
 30
0
 10
271.6933857810581
 20
96.677998495124
 30
0
 10
271.6933857810581
 20
96.677998495124
 30
0
 10
271.6933857810581
 20
96.55397505765501
 30
0
 10
271.5924444833402
 20
96.4528615051629
 30
0
 10
271.4684210458712
 20
96.4528615051629
 30
0
 10
271.4684210458712
 20
96.4528615051629
 30
0
 10
258.0683776464435
 20
96.4528615051629
 30
0
 10
258.0683776464435
 20
96.4528615051629
 30
0
  0
SPLINE
  5
C3
100
AcDbEntity
  8
0
  6
ByLayer
 62
  256
370
   -1
100
AcDbSpline
210
0
220
0
230
0
 70
   11
 71
    3
 72
   38
 73
   34
 74
    0
 42
1e-007
 43
1e-007
 40
0
 40
0
 40
0
 40
0
 40
1
 40
1
 40
1
 40
2
 40
2
 40
2
 40
3
 40
3
 40
3
 40
4
 40
4
 40
4
 40
5
 40
5
 40
5
 40
6
 40
6
 40
6
 40
7
 40
7
 40
7
 40
8
 40
8
 40
8
 40
9
 40
9
 40
9
 40
10
 40
10
 40
10
 40
11
 40
11
 40
11
 40
11
 10
220.4775627686884
 20
92.4865230729948
 30
0
 10
220.3721428468398
 20
92.4865230729948
 30
0
 10
220.2798142878351
 20
92.56145389979901
 30
0
 10
220.2577656767295
 20
92.66480676435651
 30
0
 10
220.2577656767295
 20
92.66480676435651
 30
0
 10
217.4717169578079
 20
105.772017047538
 30
0
 10
217.4717169578079
 20
105.772017047538
 30
0
 10
217.459314614061
 20
105.8307559255615
 30
0
 10
217.4703389196138
 20
105.8908728417791
 30
0
 10
217.5030673267237
 20
105.941343490638
 30
0
 10
217.5357957338336
 20
105.9916418847227
 30
0
 10
217.5860941279182
 20
106.0264373491237
 30
0
 10
217.645005260716
 20
106.0388396928706
 30
0
 10
217.645005260716
 20
106.0388396928706
 30
0
 10
230.7522155438975
 20
108.8248884117921
 30
0
 10
230.7522155438975
 20
108.8248884117921
 30
0
 10
230.7677184735811
 20
108.8281612525031
 30
0
 10
230.7835659128133
 20
108.8298838002457
 30
0
 10
230.7994133520454
 20
108.8298838002457
 30
0
 10
230.9044887643456
 20
108.8298838002457
 30
0
 10
230.9968173233503
 20
108.7549529734416
 30
0
 10
231.0188659344558
 20
108.6514278541098
 30
0
 10
231.0188659344558
 20
108.6514278541098
 30
0
 10
233.8049146533774
 20
95.54421757092831
 30
0
 10
233.8049146533774
 20
95.54421757092831
 30
0
 10
233.8307528695168
 20
95.4229502098475
 30
0
 10
233.7532382210986
 20
95.30340539650931
 30
0
 10
233.6319708600178
 20
95.27756718036991
 30
0
 10
233.6319708600178
 20
95.27756718036991
 30
0
 10
220.5247605768363
 20
92.49151846144841
 30
0
 10
220.5247605768363
 20
92.49151846144841
 30
0
 10
220.5092576471527
 20
92.48824562073739
 30
0
 10
220.493065698372
 20
92.4865230729948
 30
0
 10
220.4775627686884
 20
92.4865230729948
 30
0
  0
SPLINE
  5
C4
100
AcDbEntity
  8
0
  6
ByLayer
 62
  256
370
   -1
100
AcDbSpline
210
0
220
0
230
0
 70
   11
 71
    3
 72
   38
 73
   34
 74
    0
 42
1e-007
 43
1e-007
 40
0
 40
0
 40
0
 40
0
 40
1
 40
1
 40
1
 40
2
 40
2
 40
2
 40
3
 40
3
 40
3
 40
4
 40
4
 40
4
 40
5
 40
5
 40
5
 40
6
 40
6
 40
6
 40
7
 40
7
 40
7
 40
8
 40
8
 40
8
 40
9
 40
9
 40
9
 40
10
 40
10
 40
10
 40
11
 40
11
 40
11
 40
11
 10
215.121128308222
 20
71.87244972745381
 30
0
 10
215.0157083863733
 20
71.87244972745381
 30
0
 10
214.9233798273686
 20
71.94738055425799
 30
0
 10
214.9016757258115
 20
72.05056116404131
 30
0
 10
214.9016757258115
 20
72.05056116404131
 30
0
 10
212.11562700689
 20
85.15794370199711
 30
0
 10
212.11562700689
 20
85.15794370199711
 30
0
 10
212.0897887907506
 20
85.2792110630779
 30
0
 10
212.1673034391687
 20
85.3989281311903
 30
0
 10
212.2885708002495
 20
85.42476634732969
 30
0
 10
212.2885708002495
 20
85.42476634732969
 30
0
 10
225.395781083431
 20
88.21064281147699
 30
0
 10
225.395781083431
 20
88.21064281147699
 30
0
 10
225.4112840131147
 20
88.21391565218789
 30
0
 10
225.4274759618954
 20
88.21563819993059
 30
0
 10
225.442978891579
 20
88.21563819993059
 30
0
 10
225.5483988134276
 20
88.21563819993059
 30
0
 10
225.6407273724323
 20
88.14070737312639
 30
0
 10
225.6627759835379
 20
88.03735450856891
 30
0
 10
225.6627759835379
 20
88.03735450856891
 30
0
 10
228.4488247024595
 20
74.93014422538741
 30
0
 10
228.4488247024595
 20
74.93014422538741
 30
0
 10
228.4612270462064
 20
74.8714053473638
 30
0
 10
228.4502027406536
 20
74.811116176372
 30
0
 10
228.4174743335437
 20
74.76081778228729
 30
0
 10
228.3847459264338
 20
74.7105193882027
 30
0
 10
228.3344475323492
 20
74.6758961785759
 30
0
 10
228.2755363995514
 20
74.66349383482901
 30
0
 10
228.2755363995514
 20
74.66349383482901
 30
0
 10
215.1683261163699
 20
71.87744511590751
 30
0
 10
215.1683261163699
 20
71.87744511590751
 30
0
 10
215.1528231866862
 20
71.87417227519651
 30
0
 10
215.1369757474541
 20
71.87244972745381
 30
0
 10
215.121128308222
 20
71.87244972745381
 30
0
  0
SPLINE
  5
C5
100
AcDbEntity
  8
0
  6
ByLayer
 62
  256
370
   -1
100
AcDbSpline
210
0
220
0
230
0
 70
   11
 71
    3
 72
   35
 73
   31
 74
    0
 42
1e-007
 43
1e-007
 40
0
 40
0
 40
0
 40
0
 40
1
 40
1
 40
1
 40
2
 40
2
 40
2
 40
3
 40
3
 40
3
 40
4
 40
4
 40
4
 40
5
 40
5
 40
5
 40
6
 40
6
 40
6
 40
7
 40
7
 40
7
 40
8
 40
8
 40
8
 40
9
 40
9
 40
9
 40
10
 40
10
 40
10
 40
10
 10
233.7549607688413
 20
75.83310375207131
 30
0
 10
233.6495408469926
 20
75.83310375207131
 30
0
 10
233.5572122879879
 20
75.90803457887549
 30
0
 10
233.5351636768823
 20
76.01155969820729
 30
0
 10
233.5351636768823
 20
76.01155969820729
 30
0
 10
230.7491149579608
 20
89.11859772661461
 30
0
 10
230.7491149579608
 20
89.11859772661461
 30
0
 10
230.7232767418214
 20
89.23986508769531
 30
0
 10
230.8011358997881
 20
89.3595821558078
 30
0
 10
230.9224032608688
 20
89.38542037194711
 30
0
 10
230.9224032608688
 20
89.38542037194711
 30
0
 10
244.0296135440504
 20
92.1714690908687
 30
0
 10
244.0296135440504
 20
92.1714690908687
 30
0
 10
244.045116473734
 20
92.17474193157969
 30
0
 10
244.0609639129661
 20
92.17646447932231
 30
0
 10
244.0768113521983
 20
92.17646447932231
 30
0
 10
244.182231274047
 20
92.17646447932231
 30
0
 10
244.2745598330517
 20
92.1015336525181
 30
0
 10
244.2966084441572
 20
91.99800853318641
 30
0
 10
244.2966084441572
 20
91.99800853318641
 30
0
 10
247.0826571630788
 20
78.89097050477909
 30
0
 10
247.0826571630788
 20
78.89097050477909
 30
0
 10
247.1084953792182
 20
78.76970314369831
 30
0
 10
247.0306362212515
 20
78.6499860755859
 30
0
 10
246.9093688601707
 20
78.62414785944651
 30
0
 10
246.9093688601707
 20
78.62414785944651
 30
0
 10
233.8021585769892
 20
75.83809914052489
 30
0
 10
233.8021585769892
 20
75.83809914052489
 30
0
 10
233.7866556473056
 20
75.83482629981401
 30
0
 10
233.7708082080734
 20
75.83310375207131
 30
0
 10
233.7549607688413
 20
75.83310375207131
 30
0
  0
SPLINE
  5
C6
100
AcDbEntity
  8
0
  6
ByLayer
 62
  256
370
   -1
100
AcDbSpline
210
0
220
0
230
0
 70
   11
 71
    3
 72
   38
 73
   34
 74
    0
 42
1e-007
 43
1e-007
 40
0
 40
0
 40
0
 40
0
 40
1
 40
1
 40
1
 40
2
 40
2
 40
2
 40
3
 40
3
 40
3
 40
4
 40
4
 40
4
 40
5
 40
5
 40
5
 40
6
 40
6
 40
6
 40
7
 40
7
 40
7
 40
8
 40
8
 40
8
 40
9
 40
9
 40
9
 40
10
 40
10
 40
10
 40
11
 40
11
 40
11
 40
11
 10
223.7404127027685
 20
54.2289099640696
 30
0
 10
223.6349927809199
 20
54.2289099640696
 30
0
 10
223.5426642219152
 20
54.30384079087381
 30
0
 10
223.5206156108096
 20
54.40719365543131
 30
0
 10
223.5206156108096
 20
54.40719365543131
 30
0
 10
220.734566891888
 20
67.51440393861279
 30
0
 10
220.734566891888
 20
67.51440393861279
 30
0
 10
220.7221645481411
 20
67.57314281663631
 30
0
 10
220.7331888536939
 20
67.6332597328539
 30
0
 10
220.7659172608038
 20
67.68373038171279
 30
0
 10
220.7986456679137
 20
67.7340287757975
 30
0
 10
220.8489440619983
 20
67.76882424019851
 30
0
 10
220.9078551947961
 20
67.7812265839454
 30
0
 10
220.9078551947961
 20
67.7812265839454
 30
0
 10
234.0150654779776
 20
70.56710304809269
 30
0
 10
234.0150654779776
 20
70.56710304809269
 30
0
 10
234.0305684076613
 20
70.57037588880371
 30
0
 10
234.0464158468934
 20
70.5720984365463
 30
0
 10
234.0622632861256
 20
70.5720984365463
 30
0
 10
234.1676832079742
 20
70.5720984365463
 30
0
 10
234.2600117669789
 20
70.49716760974209
 30
0
 10
234.2820603780845
 20
70.39381474518461
 30
0
 10
234.2820603780845
 20
70.39381474518461
 30
0
 10
237.0677645874575
 20
57.28660446200311
 30
0
 10
237.0677645874575
 20
57.28660446200311
 30
0
 10
237.0936028035969
 20
57.1653371009223
 30
0
 10
237.0160881551787
 20
57.04562003280989
 30
0
 10
236.894820794098
 20
57.0197818166705
 30
0
 10
236.894820794098
 20
57.0197818166705
 30
0
 10
223.7876105109164
 20
54.23390535252321
 30
0
 10
223.7876105109164
 20
54.23390535252321
 30
0
 10
223.7721075812328
 20
54.23063251181219
 30
0
 10
223.7559156324521
 20
54.2289099640696
 30
0
 10
223.7404127027685
 20
54.2289099640696
 30
0
  0
SPLINE
  5
C7
100
AcDbEntity
  8
0
  6
ByLayer
 62
  256
370
   -1
100
AcDbSpline
210
0
220
0
230
0
 70
   11
 71
    3
 72
   38
 73
   34
 74
    0
 42
1e-007
 43
1e-007
 40
0
 40
0
 40
0
 40
0
 40
1
 40
1
 40
1
 40
2
 40
2
 40
2
 40
3
 40
3
 40
3
 40
4
 40
4
 40
4
 40
5
 40
5
 40
5
 40
6
 40
6
 40
6
 40
7
 40
7
 40
7
 40
8
 40
8
 40
8
 40
9
 40
9
 40
9
 40
10
 40
10
 40
10
 40
11
 40
11
 40
11
 40
11
 10
213.7258646366957
 20
32.62454392129359
 30
0
 10
213.6204447148471
 20
32.62454392129359
 30
0
 10
213.5281161558424
 20
32.6994747480978
 30
0
 10
213.5060675447368
 20
32.80299986742949
 30
0
 10
213.5060675447368
 20
32.80299986742949
 30
0
 10
210.7200188258153
 20
45.91003789583681
 30
0
 10
210.7200188258153
 20
45.91003789583681
 30
0
 10
210.7076164820684
 20
45.9687767738603
 30
0
 10
210.7186407876212
 20
46.02889369007789
 30
0
 10
210.751369194731
 20
46.07936433893681
 30
0
 10
210.7840976018409
 20
46.12966273302149
 30
0
 10
210.8343959959256
 20
46.1644581974225
 30
0
 10
210.8933071287233
 20
46.17686054116939
 30
0
 10
210.8933071287233
 20
46.17686054116939
 30
0
 10
224.0005174119049
 20
48.96290926009101
 30
0
 10
224.0005174119049
 20
48.96290926009101
 30
0
 10
224.0160203415885
 20
48.96618210080189
 30
0
 10
224.0318677808206
 20
48.96790464854459
 30
0
 10
224.0477152200528
 20
48.96790464854459
 30
0
 10
224.1527906323529
 20
48.96790464854459
 30
0
 10
224.2451191913576
 20
48.89297382174041
 30
0
 10
224.2671678024632
 20
48.78944870240861
 30
0
 10
224.2671678024632
 20
48.78944870240861
 30
0
 10
227.0532165213847
 20
35.6824106740014
 30
0
 10
227.0532165213847
 20
35.6824106740014
 30
0
 10
227.0790547375241
 20
35.56114331292059
 30
0
 10
227.001540089106
 20
35.4414262448081
 30
0
 10
226.8802727280252
 20
35.41558802866879
 30
0
 10
226.8802727280252
 20
35.41558802866879
 30
0
 10
213.7730624448437
 20
32.6295393097472
 30
0
 10
213.7730624448437
 20
32.6295393097472
 30
0
 10
213.7575595151601
 20
32.62626646903621
 30
0
 10
213.7417120759279
 20
32.62454392129359
 30
0
 10
213.7258646366957
 20
32.62454392129359
 30
0
  0
SPLINE
  5
C8
100
AcDbEntity
  8
0
  6
ByLayer
 62
  256
370
   -1
100
AcDbSpline
210
0
220
0
230
0
 70
   11
 71
    3
 72
   38
 73
   34
 74
    0
 42
1e-007
 43
1e-007
 40
0
 40
0
 40
0
 40
0
 40
1
 40
1
 40
1
 40
2
 40
2
 40
2
 40
3
 40
3
 40
3
 40
4
 40
4
 40
4
 40
5
 40
5
 40
5
 40
6
 40
6
 40
6
 40
7
 40
7
 40
7
 40
8
 40
8
 40
8
 40
9
 40
9
 40
9
 40
10
 40
10
 40
10
 40
11
 40
11
 40
11
 40
11
 10
232.3593525877666
 20
36.5853702006853
 30
0
 10
232.2542771754664
 20
36.5853702006853
 30
0
 10
232.1619486164617
 20
36.66030102748951
 30
0
 10
232.1399000053561
 20
36.76365389204699
 30
0
 10
232.1399000053561
 20
36.76365389204699
 30
0
 10
229.3538512864346
 20
49.87086417522849
 30
0
 10
229.3538512864346
 20
49.87086417522849
 30
0
 10
229.3280130702952
 20
49.99213153630939
 30
0
 10
229.4055277187133
 20
50.1116763496475
 30
0
 10
229.5267950797941
 20
50.13751456578689
 30
0
 10
229.5267950797941
 20
50.13751456578689
 30
0
 10
242.6340053629757
 20
52.92356328470839
 30
0
 10
242.6340053629757
 20
52.92356328470839
 30
0
 10
242.6495082926593
 20
52.92683612541941
 30
0
 10
242.66570024144
 20
52.92855867316209
 30
0
 10
242.6812031711236
 20
52.92855867316209
 30
0
 10
242.7866230929722
 20
52.92855867316209
 30
0
 10
242.8789516519769
 20
52.85362784635791
 30
0
 10
242.9010002630825
 20
52.7502749818004
 30
0
 10
242.9010002630825
 20
52.7502749818004
 30
0
 10
245.6870489820041
 20
39.64306469861879
 30
0
 10
245.6870489820041
 20
39.64306469861879
 30
0
 10
245.699451325751
 20
39.5843258205953
 30
0
 10
245.6884270201982
 20
39.5242089043777
 30
0
 10
245.6556986130883
 20
39.47373825551881
 30
0
 10
245.6229702059784
 20
39.42343986143419
 30
0
 10
245.5726718118938
 20
39.38864439703309
 30
0
 10
245.513760679096
 20
39.37624205328621
 30
0
 10
245.513760679096
 20
39.37624205328621
 30
0
 10
232.4065503959145
 20
36.590365589139
 30
0
 10
232.4065503959145
 20
36.590365589139
 30
0
 10
232.3910474662308
 20
36.58709274842801
 30
0
 10
232.3752000269987
 20
36.5853702006853
 30
0
 10
232.3593525877666
 20
36.5853702006853
 30
0
  0
SPLINE
  5
C9
100
AcDbEntity
  8
0
  6
ByLayer
 62
  256
370
   -1
100
AcDbSpline
210
0
220
0
230
0
 70
   11
 71
    3
 72
   35
 73
   31
 74
    0
 42
1e-007
 43
1e-007
 40
0
 40
0
 40
0
 40
0
 40
1
 40
1
 40
1
 40
2
 40
2
 40
2
 40
3
 40
3
 40
3
 40
4
 40
4
 40
4
 40
5
 40
5
 40
5
 40
6
 40
6
 40
6
 40
7
 40
7
 40
7
 40
8
 40
8
 40
8
 40
9
 40
9
 40
9
 40
10
 40
10
 40
10
 40
10
 10
195.0920321760764
 20
28.6638898966761
 30
0
 10
194.9866122542278
 20
28.6638898966761
 30
0
 10
194.8942836952231
 20
28.7388207234803
 30
0
 10
194.8722350841175
 20
28.84217358803781
 30
0
 10
194.8722350841175
 20
28.84217358803781
 30
0
 10
192.086186365196
 20
41.94938387121931
 30
0
 10
192.086186365196
 20
41.94938387121931
 30
0
 10
192.0603481490566
 20
42.07065123230009
 30
0
 10
192.1382073070232
 20
42.19036830041259
 30
0
 10
192.259474668104
 20
42.21620651655189
 30
0
 10
192.259474668104
 20
42.21620651655189
 30
0
 10
205.3666849512855
 20
45.00225523547351
 30
0
 10
205.3666849512855
 20
45.00225523547351
 30
0
 10
205.3821878809692
 20
45.0055280761845
 30
0
 10
205.3980353202013
 20
45.00725062392709
 30
0
 10
205.4138827594335
 20
45.00725062392709
 30
0
 10
205.5193026812821
 20
45.00725062392709
 30
0
 10
205.6116312402868
 20
44.93231979712289
 30
0
 10
205.6336798513924
 20
44.82879467779119
 30
0
 10
205.6336798513924
 20
44.82879467779119
 30
0
 10
208.419728570314
 20
31.72158439460961
 30
0
 10
208.419728570314
 20
31.72158439460961
 30
0
 10
208.4455667864533
 20
31.60048928830309
 30
0
 10
208.3677076284867
 20
31.48077222019069
 30
0
 10
208.2464402674059
 20
31.4549340040513
 30
0
 10
208.2464402674059
 20
31.4549340040513
 30
0
 10
195.1392299842244
 20
28.6688852851297
 30
0
 10
195.1392299842244
 20
28.6688852851297
 30
0
 10
195.1237270545407
 20
28.66561244441871
 30
0
 10
195.1078796153086
 20
28.6638898966761
 30
0
 10
195.0920321760764
 20
28.6638898966761
 30
0
  0
SPLINE
  5
CA
100
AcDbEntity
  8
0
  6
ByLayer
 62
  256
370
   -1
100
AcDbSpline
210
0
220
0
230
0
 70
   11
 71
    3
 72
   38
 73
   34
 74
    0
 42
1e-007
 43
1e-007
 40
0
 40
0
 40
0
 40
0
 40
1
 40
1
 40
1
 40
2
 40
2
 40
2
 40
3
 40
3
 40
3
 40
4
 40
4
 40
4
 40
5
 40
5
 40
5
 40
6
 40
6
 40
6
 40
7
 40
7
 40
7
 40
8
 40
8
 40
8
 40
9
 40
9
 40
9
 40
10
 40
10
 40
10
 40
11
 40
11
 40
11
 40
11
 10
205.1065802421492
 20
50.26808368467789
 30
0
 10
205.0011603203005
 20
50.26808368467789
 30
0
 10
204.9088317612958
 20
50.34301451148201
 30
0
 10
204.8867831501903
 20
50.44653963081379
 30
0
 10
204.8867831501903
 20
50.44653963081379
 30
0
 10
202.1007344312687
 20
63.55374991399529
 30
0
 10
202.1007344312687
 20
63.55374991399529
 30
0
 10
202.0748962151293
 20
63.67484502030189
 30
0
 10
202.152755373096
 20
63.7945620884143
 30
0
 10
202.2740227341768
 20
63.82040030455369
 30
0
 10
202.2740227341768
 20
63.82040030455369
 30
0
 10
215.3812330173583
 20
66.60644902347519
 30
0
 10
215.3812330173583
 20
66.60644902347519
 30
0
 10
215.3967359470419
 20
66.60972186418621
 30
0
 10
215.4125833862741
 20
66.6114444119288
 30
0
 10
215.4284308255062
 20
66.6114444119288
 30
0
 10
215.5338507473549
 20
66.6114444119288
 30
0
 10
215.6261793063596
 20
66.53651358512471
 30
0
 10
215.6482279174652
 20
66.43316072056709
 30
0
 10
215.6482279174652
 20
66.43316072056709
 30
0
 10
218.4342766363867
 20
53.32595043738559
 30
0
 10
218.4342766363867
 20
53.32595043738559
 30
0
 10
218.4466789801336
 20
53.2672115593621
 30
0
 10
218.4356546745808
 20
53.2070946431445
 30
0
 10
218.4029262674709
 20
53.15662399428561
 30
0
 10
218.3701978603611
 20
53.1063256002009
 30
0
 10
218.3198994662764
 20
53.07153013579989
 30
0
 10
218.2609883334787
 20
53.059127792053
 30
0
 10
218.2609883334787
 20
53.059127792053
 30
0
 10
205.1537780502971
 20
50.2730790731315
 30
0
 10
205.1537780502971
 20
50.2730790731315
 30
0
 10
205.1382751206135
 20
50.26980623242051
 30
0
 10
205.1224276813813
 20
50.26808368467789
 30
0
 10
205.1065802421492
 20
50.26808368467789
 30
0
  0
SPLINE
  5
CB
100
AcDbEntity
  8
0
  6
ByLayer
 62
  256
370
   -1
100
AcDbSpline
210
0
220
0
230
0
 70
   11
 71
    3
 72
   41
 73
   37
 74
    0
 42
1e-007
 43
1e-007
 40
0
 40
0
 40
0
 40
0
 40
1
 40
1
 40
1
 40
2
 40
2
 40
2
 40
3
 40
3
 40
3
 40
4
 40
4
 40
4
 40
5
 40
5
 40
5
 40
6
 40
6
 40
6
 40
7
 40
7
 40
7
 40
8
 40
8
 40
8
 40
9
 40
9
 40
9
 40
10
 40
10
 40
10
 40
11
 40
11
 40
11
 40
12
 40
12
 40
12
 40
12
 10
186.4730922910784
 20
46.30742966006039
 30
0
 10
186.3676723692298
 20
46.30742966006039
 30
0
 10
186.2753438102251
 20
46.3823604868646
 30
0
 10
186.2532951991194
 20
46.48571335142211
 30
0
 10
186.2532951991194
 20
46.48571335142211
 30
0
 10
183.4672464801979
 20
59.59292363460361
 30
0
 10
183.4672464801979
 20
59.59292363460361
 30
0
 10
183.454844136451
 20
59.6516625126271
 30
0
 10
183.4658684420038
 20
59.71177942884469
 30
0
 10
183.4985968491137
 20
59.76225007770361
 30
0
 10
183.5313252562236
 20
59.81254847178829
 30
0
 10
183.5816236503082
 20
59.8473439361893
 30
0
 10
183.640534783106
 20
59.85974627993619
 30
0
 10
183.640534783106
 20
59.85974627993619
 30
0
 10
196.747400556739
 20
62.64579499885781
 30
0
 10
196.747400556739
 20
62.64579499885781
 30
0
 10
196.7629034864226
 20
62.64906783956869
 30
0
 10
196.7787509256548
 20
62.65079038731139
 30
0
 10
196.7945983648869
 20
62.65079038731139
 30
0
 10
196.9000182867356
 20
62.65079038731139
 30
0
 10
196.9923468457402
 20
62.57585956050721
 30
0
 10
197.0143954568458
 20
62.47233444117541
 30
0
 10
197.0143954568458
 20
62.47233444117541
 30
0
 10
199.8004441757674
 20
49.3651241579939
 30
0
 10
199.8004441757674
 20
49.3651241579939
 30
0
 10
199.8128465195143
 20
49.30638527997041
 30
0
 10
199.8018222139615
 20
49.246440618527
 30
0
 10
199.7690938068516
 20
49.19596996966811
 30
0
 10
199.7363653997417
 20
49.14567157558349
 30
0
 10
199.6860670056571
 20
49.11087611118239
 30
0
 10
199.6271558728593
 20
49.09847376743551
 30
0
 10
199.6271558728593
 20
49.09847376743551
 30
0
 10
186.5202900992263
 20
46.312425048514
 30
0
 10
186.5202900992263
 20
46.312425048514
 30
0
 10
186.5047871695427
 20
46.30915220780301
 30
0
 10
186.488595220762
 20
46.30742966006039
 30
0
 10
186.4730922910784
 20
46.30742966006039
 30
0
  0
SPLINE
  5
CC
100
AcDbEntity
  8
0
  6
ByLayer
 62
  256
370
   -1
100
AcDbSpline
210
0
220
0
230
0
 70
   11
 71
    3
 72
   38
 73
   34
 74
    0
 42
1e-007
 43
1e-007
 40
0
 40
0
 40
0
 40
0
 40
1
 40
1
 40
1
 40
2
 40
2
 40
2
 40
3
 40
3
 40
3
 40
4
 40
4
 40
4
 40
5
 40
5
 40
5
 40
6
 40
6
 40
6
 40
7
 40
7
 40
7
 40
8
 40
8
 40
8
 40
9
 40
9
 40
9
 40
10
 40
10
 40
10
 40
11
 40
11
 40
11
 40
11
 10
167.8392598304591
 20
42.3467756354429
 30
0
 10
167.7338399086104
 20
42.3467756354429
 30
0
 10
167.6413390948315
 20
42.4217064622471
 30
0
 10
167.6194627385001
 20
42.52505932680461
 30
0
 10
167.6194627385001
 20
42.52505932680461
 30
0
 10
164.8334140195786
 20
55.63226960998611
 30
0
 10
164.8334140195786
 20
55.63226960998611
 30
0
 10
164.8208394210574
 20
55.6910084880096
 30
0
 10
164.8320359813845
 20
55.75112540422731
 30
0
 10
164.8647643884944
 20
55.8014237983119
 30
0
 10
164.8974927956043
 20
55.85189444717079
 30
0
 10
164.9479634444631
 20
55.88651765679759
 30
0
 10
165.0068745772609
 20
55.89892000054451
 30
0
 10
165.0068745772609
 20
55.89892000054451
 30
0
 10
178.1139126056682
 20
58.68496871946601
 30
0
 10
178.1139126056682
 20
58.68496871946601
 30
0
 10
178.1294155353518
 20
58.688241560177
 30
0
 10
178.1452629745839
 20
58.68996410791959
 30
0
 10
178.1611104138161
 20
58.68996410791959
 30
0
 10
178.2665303356648
 20
58.68996410791959
 30
0
 10
178.3588588946695
 20
58.61503328111539
 30
0
 10
178.380907505775
 20
58.51168041655791
 30
0
 10
178.380907505775
 20
58.51168041655791
 30
0
 10
181.1669562246966
 20
45.40447013337641
 30
0
 10
181.1669562246966
 20
45.40447013337641
 30
0
 10
181.192794440836
 20
45.2832027722956
 30
0
 10
181.1149352828693
 20
45.16348570418319
 30
0
 10
180.9936679217885
 20
45.1376474880438
 30
0
 10
180.9936679217885
 20
45.1376474880438
 30
0
 10
167.8862853838327
 20
42.3517710238965
 30
0
 10
167.8862853838327
 20
42.3517710238965
 30
0
 10
167.8707824541491
 20
42.34849818318551
 30
0
 10
167.854935014917
 20
42.3467756354429
 30
0
 10
167.8392598304591
 20
42.3467756354429
 30
0
  0
SPLINE
  5
CD
100
AcDbEntity
  8
0
  6
ByLayer
 62
  256
370
   -1
100
AcDbSpline
210
0
220
0
230
0
 70
   11
 71
    3
 72
   38
 73
   34
 74
    0
 42
1e-007
 43
1e-007
 40
0
 40
0
 40
0
 40
0
 40
1
 40
1
 40
1
 40
2
 40
2
 40
2
 40
3
 40
3
 40
3
 40
4
 40
4
 40
4
 40
5
 40
5
 40
5
 40
6
 40
6
 40
6
 40
7
 40
7
 40
7
 40
8
 40
8
 40
8
 40
9
 40
9
 40
9
 40
10
 40
10
 40
10
 40
11
 40
11
 40
11
 40
11
 10
196.4876403571512
 20
67.9116234480621
 30
0
 10
196.3822204353025
 20
67.9116234480621
 30
0
 10
196.2898918762978
 20
67.98655427486631
 30
0
 10
196.2678432651922
 20
68.09007939419811
 30
0
 10
196.2678432651922
 20
68.09007939419811
 30
0
 10
193.4817945462707
 20
81.19728967737959
 30
0
 10
193.4817945462707
 20
81.19728967737959
 30
0
 10
193.4693922025238
 20
81.25602855540311
 30
0
 10
193.4804165080766
 20
81.31597321684649
 30
0
 10
193.5131449151864
 20
81.36644386570529
 30
0
 10
193.5458733222963
 20
81.41674225979
 30
0
 10
193.596171716381
 20
81.45153772419101
 30
0
 10
193.6550828491787
 20
81.4639400679379
 30
0
 10
193.6550828491787
 20
81.4639400679379
 30
0
 10
206.7622931323603
 20
84.24998878685949
 30
0
 10
206.7622931323603
 20
84.24998878685949
 30
0
 10
206.7777960620439
 20
84.25326162757051
 30
0
 10
206.793643501276
 20
84.2549841753131
 30
0
 10
206.8094909405082
 20
84.2549841753131
 30
0
 10
206.9145663528083
 20
84.2549841753131
 30
0
 10
207.006894911813
 20
84.18005334850889
 30
0
 10
207.0289435229186
 20
84.07670048395141
 30
0
 10
207.0289435229186
 20
84.07670048395141
 30
0
 10
209.8149922418401
 20
70.96949020076991
 30
0
 10
209.8149922418401
 20
70.96949020076991
 30
0
 10
209.8408304579795
 20
70.8482228396891
 30
0
 10
209.7633158095614
 20
70.72850577157661
 30
0
 10
209.6420484484806
 20
70.7026675554373
 30
0
 10
209.6420484484806
 20
70.7026675554373
 30
0
 10
196.5348381652991
 20
67.91661883651571
 30
0
 10
196.5348381652991
 20
67.91661883651571
 30
0
 10
196.5193352356154
 20
67.91334599580469
 30
0
 10
196.5034877963833
 20
67.9116234480621
 30
0
 10
196.4876403571512
 20
67.9116234480621
 30
0
  0
SPLINE
  5
CE
100
AcDbEntity
  8
0
  6
ByLayer
 62
  256
370
   -1
100
AcDbSpline
210
0
220
0
230
0
 70
   11
 71
    3
 72
   41
 73
   37
 74
    0
 42
1e-007
 43
1e-007
 40
0
 40
0
 40
0
 40
0
 40
1
 40
1
 40
1
 40
2
 40
2
 40
2
 40
3
 40
3
 40
3
 40
4
 40
4
 40
4
 40
5
 40
5
 40
5
 40
6
 40
6
 40
6
 40
7
 40
7
 40
7
 40
8
 40
8
 40
8
 40
9
 40
9
 40
9
 40
10
 40
10
 40
10
 40
11
 40
11
 40
11
 40
12
 40
12
 40
12
 40
12
 10
177.8538078965318
 20
63.9509694234446
 30
0
 10
177.7483879746832
 20
63.9509694234446
 30
0
 10
177.6560594156785
 20
64.02590025024881
 30
0
 10
177.6340108045729
 20
64.12925311480629
 30
0
 10
177.6340108045729
 20
64.12925311480629
 30
0
 10
174.8481343404256
 20
77.23646339798779
 30
0
 10
174.8481343404256
 20
77.23646339798779
 30
0
 10
174.8355597419044
 20
77.29520227601139
 30
0
 10
174.8467563022315
 20
77.35531919222899
 30
0
 10
174.8794847093414
 20
77.40578984108791
 30
0
 10
174.9122131164513
 20
77.4560882351725
 30
0
 10
174.9625115105359
 20
77.49088369957349
 30
0
 10
175.0214226433337
 20
77.50328604332049
 30
0
 10
175.0214226433337
 20
77.50328604332049
 30
0
 10
188.1284606717409
 20
80.28933476224199
 30
0
 10
188.1284606717409
 20
80.28933476224199
 30
0
 10
188.1439636014246
 20
80.29260760295301
 30
0
 10
188.1598110406567
 20
80.2943301506956
 30
0
 10
188.1756584798889
 20
80.2943301506956
 30
0
 10
188.2810784017375
 20
80.2943301506956
 30
0
 10
188.3734069607422
 20
80.21939932389139
 30
0
 10
188.3954555718478
 20
80.1158742045597
 30
0
 10
188.3954555718478
 20
80.1158742045597
 30
0
 10
191.1815042907694
 20
67.00866392137809
 30
0
 10
191.1815042907694
 20
67.00866392137809
 30
0
 10
191.1939066345163
 20
66.9500972981289
 30
0
 10
191.1828823289634
 20
66.8899803819113
 30
0
 10
191.1501539218536
 20
66.83950973305241
 30
0
 10
191.1174255147437
 20
66.7892113389677
 30
0
 10
191.0667826111105
 20
66.75441587456669
 30
0
 10
191.0082159878613
 20
66.7420135308198
 30
0
 10
191.0082159878613
 20
66.7420135308198
 30
0
 10
177.9010057046797
 20
63.95596481189821
 30
0
 10
177.9010057046797
 20
63.95596481189821
 30
0
 10
177.8855027749961
 20
63.95269197118731
 30
0
 10
177.869655335764
 20
63.9509694234446
 30
0
 10
177.8538078965318
 20
63.9509694234446
 30
0
  0
SPLINE
  5
CF
100
AcDbEntity
  8
0
  6
ByLayer
 62
  256
370
   -1
100
AcDbSpline
210
0
220
0
230
0
 70
   11
 71
    3
 72
   38
 73
   34
 74
    0
 42
1e-007
 43
1e-007
 40
0
 40
0
 40
0
 40
0
 40
1
 40
1
 40
1
 40
2
 40
2
 40
2
 40
3
 40
3
 40
3
 40
4
 40
4
 40
4
 40
5
 40
5
 40
5
 40
6
 40
6
 40
6
 40
7
 40
7
 40
7
 40
8
 40
8
 40
8
 40
9
 40
9
 40
9
 40
10
 40
10
 40
10
 40
11
 40
11
 40
11
 40
11
 10
159.2201476906868
 20
59.99031539882719
 30
0
 10
159.1147277688381
 20
59.99031539882719
 30
0
 10
159.0222269550592
 20
60.06524622563131
 30
0
 10
159.0003505987278
 20
60.16859909018879
 30
0
 10
159.0003505987278
 20
60.16859909018879
 30
0
 10
156.2143018798063
 20
73.27580937337041
 30
0
 10
156.2143018798063
 20
73.27580937337041
 30
0
 10
156.2017272812851
 20
73.3345482513939
 30
0
 10
156.2129238416122
 20
73.39466516761149
 30
0
 10
156.2456522487221
 20
73.44513581647041
 30
0
 10
156.2783806558319
 20
73.49543421055509
 30
0
 10
156.3288513046908
 20
73.53005742018181
 30
0
 10
156.3875901827143
 20
73.54245976392869
 30
0
 10
156.3875901827143
 20
73.54245976392869
 30
0
 10
169.4949727206701
 20
76.32850848285031
 30
0
 10
169.4949727206701
 20
76.32850848285031
 30
0
 10
169.5104756503538
 20
76.33178132356119
 30
0
 10
169.5263230895859
 20
76.33350387130389
 30
0
 10
169.5419982740438
 20
76.33350387130389
 30
0
 10
169.6472459411182
 20
76.33350387130389
 30
0
 10
169.7397467548971
 20
76.25857304449971
 30
0
 10
169.7616231112285
 20
76.15522017994221
 30
0
 10
169.7616231112285
 20
76.15522017994221
 30
0
 10
172.54767183015
 20
63.04800989676059
 30
0
 10
172.54767183015
 20
63.04800989676059
 30
0
 10
172.5735100462894
 20
62.92674253567989
 30
0
 10
172.495823143097
 20
62.8070254675674
 30
0
 10
172.3743835272419
 20
62.78118725142809
 30
0
 10
172.3743835272419
 20
62.78118725142809
 30
0
 10
159.2671732440604
 20
59.9953107872808
 30
0
 10
159.2671732440604
 20
59.9953107872808
 30
0
 10
159.2516703143768
 20
59.99203794656981
 30
0
 10
159.2358228751447
 20
59.99031539882719
 30
0
 10
159.2201476906868
 20
59.99031539882719
 30
0
  0
SPLINE
  5
D0
100
AcDbEntity
  8
0
  6
ByLayer
 62
  256
370
   -1
100
AcDbSpline
210
0
220
0
230
0
 70
   11
 71
    3
 72
   35
 73
   31
 74
    0
 42
1e-007
 43
1e-007
 40
0
 40
0
 40
0
 40
0
 40
1
 40
1
 40
1
 40
2
 40
2
 40
2
 40
3
 40
3
 40
3
 40
4
 40
4
 40
4
 40
5
 40
5
 40
5
 40
6
 40
6
 40
6
 40
7
 40
7
 40
7
 40
8
 40
8
 40
8
 40
9
 40
9
 40
9
 40
10
 40
10
 40
10
 40
10
 10
201.8437303080691
 20
88.525696793603
 30
0
 10
201.7383103862204
 20
88.525696793603
 30
0
 10
201.6459818272157
 20
88.60062762040721
 30
0
 10
201.6239332161101
 20
88.70415273973899
 30
0
 10
201.6239332161101
 20
88.70415273973899
 30
0
 10
198.8378844971886
 20
101.8113630229205
 30
0
 10
198.8378844971886
 20
101.8113630229205
 30
0
 10
198.8120462810492
 20
101.9324581292271
 30
0
 10
198.8899054390159
 20
102.0521751973395
 30
0
 10
199.0111728000967
 20
102.0780134134789
 30
0
 10
199.0111728000967
 20
102.0780134134789
 30
0
 10
212.1183830832782
 20
104.8640621324004
 30
0
 10
212.1183830832782
 20
104.8640621324004
 30
0
 10
212.1338860129618
 20
104.8673349731114
 30
0
 10
212.149733452194
 20
104.869057520854
 30
0
 10
212.1655808914261
 20
104.869057520854
 30
0
 10
212.2710008132748
 20
104.869057520854
 30
0
 10
212.3633293722795
 20
104.7941266940498
 30
0
 10
212.385377983385
 20
104.6907738294923
 30
0
 10
212.385377983385
 20
104.6907738294923
 30
0
 10
215.1714267023066
 20
91.58356354631081
 30
0
 10
215.1714267023066
 20
91.58356354631081
 30
0
 10
215.197264918446
 20
91.46229618523
 30
0
 10
215.1194057604793
 20
91.34257911711759
 30
0
 10
214.9981383993985
 20
91.3167409009782
 30
0
 10
214.9981383993985
 20
91.3167409009782
 30
0
 10
201.890928116217
 20
88.5306921820567
 30
0
 10
201.890928116217
 20
88.5306921820567
 30
0
 10
201.8754251865334
 20
88.52741934134571
 30
0
 10
201.8595777473012
 20
88.525696793603
 30
0
 10
201.8437303080691
 20
88.525696793603
 30
0
  0
SPLINE
  5
D1
100
AcDbEntity
  8
0
  6
ByLayer
 62
  256
370
   -1
100
AcDbSpline
210
0
220
0
230
0
 70
   11
 71
    3
 72
   38
 73
   34
 74
    0
 42
1e-007
 43
1e-007
 40
0
 40
0
 40
0
 40
0
 40
1
 40
1
 40
1
 40
2
 40
2
 40
2
 40
3
 40
3
 40
3
 40
4
 40
4
 40
4
 40
5
 40
5
 40
5
 40
6
 40
6
 40
6
 40
7
 40
7
 40
7
 40
8
 40
8
 40
8
 40
9
 40
9
 40
9
 40
10
 40
10
 40
10
 40
11
 40
11
 40
11
 40
11
 10
183.2098978474498
 20
84.56504276898559
 30
0
 10
183.1048224351496
 20
84.56504276898559
 30
0
 10
183.0124938761449
 20
84.63997359578971
 30
0
 10
182.9904452650393
 20
84.74349871512149
 30
0
 10
182.9904452650393
 20
84.74349871512149
 30
0
 10
180.2043965461178
 20
97.85053674352881
 30
0
 10
180.2043965461178
 20
97.85053674352881
 30
0
 10
180.1785583299784
 20
97.97180410460959
 30
0
 10
180.2560729783965
 20
98.091521172722
 30
0
 10
180.3773403394773
 20
98.11735938886139
 30
0
 10
180.3773403394773
 20
98.11735938886139
 30
0
 10
193.4845506226589
 20
100.9034081077829
 30
0
 10
193.4845506226589
 20
100.9034081077829
 30
0
 10
193.5000535523425
 20
100.9066809484939
 30
0
 10
193.5159009915746
 20
100.9084034962365
 30
0
 10
193.5317484308068
 20
100.9084034962365
 30
0
 10
193.6371683526554
 20
100.9084034962365
 30
0
 10
193.7294969116601
 20
100.8334726694324
 30
0
 10
193.7515455227657
 20
100.7299475501006
 30
0
 10
193.7515455227657
 20
100.7299475501006
 30
0
 10
196.5375942416873
 20
87.62290952169329
 30
0
 10
196.5375942416873
 20
87.62290952169329
 30
0
 10
196.5499965854342
 20
87.5641706436698
 30
0
 10
196.5389722798814
 20
87.5040537274522
 30
0
 10
196.5062438727715
 20
87.45358307859331
 30
0
 10
196.4735154656616
 20
87.40328468450861
 30
0
 10
196.423217071577
 20
87.36848922010759
 30
0
 10
196.3643059387792
 20
87.35608687636071
 30
0
 10
196.3643059387792
 20
87.35608687636071
 30
0
 10
183.2570956555977
 20
84.5700381574392
 30
0
 10
183.2570956555977
 20
84.5700381574392
 30
0
 10
183.241592725914
 20
84.56676531672821
 30
0
 10
183.2257452866819
 20
84.56504276898559
 30
0
 10
183.2098978474498
 20
84.56504276898559
 30
0
  0
SPLINE
  5
D2
100
AcDbEntity
  8
0
  6
ByLayer
 62
  256
370
   -1
100
AcDbSpline
210
0
220
0
230
0
 70
   11
 71
    3
 72
   35
 73
   31
 74
    0
 42
1e-007
 43
1e-007
 40
0
 40
0
 40
0
 40
0
 40
1
 40
1
 40
1
 40
2
 40
2
 40
2
 40
3
 40
3
 40
3
 40
4
 40
4
 40
4
 40
5
 40
5
 40
5
 40
6
 40
6
 40
6
 40
7
 40
7
 40
7
 40
8
 40
8
 40
8
 40
9
 40
9
 40
9
 40
10
 40
10
 40
10
 40
10
 10
164.5764098963789
 20
80.60438874436809
 30
0
 10
164.4709899745303
 20
80.60438874436809
 30
0
 10
164.3784891607513
 20
80.6793195711723
 30
0
 10
164.35661280442
 20
80.78267243572981
 30
0
 10
164.35661280442
 20
80.78267243572981
 30
0
 10
161.5705640854985
 20
93.88988271891131
 30
0
 10
161.5705640854985
 20
93.88988271891131
 30
0
 10
161.5447258693591
 20
94.01115007999209
 30
0
 10
161.6225850273257
 20
94.1308671481045
 30
0
 10
161.7440246431808
 20
94.15670536424389
 30
0
 10
161.7440246431808
 20
94.15670536424389
 30
0
 10
174.8510626715881
 20
96.94258182839121
 30
0
 10
174.8510626715881
 20
96.94258182839121
 30
0
 10
174.8665656012717
 20
96.9458546691022
 30
0
 10
174.8824130405038
 20
96.94757721684479
 30
0
 10
174.8980882249617
 20
96.94757721684479
 30
0
 10
175.0035081468104
 20
96.94757721684479
 30
0
 10
175.0960089605893
 20
96.87264639004059
 30
0
 10
175.1178853169206
 20
96.76929352548311
 30
0
 10
175.1178853169206
 20
96.76929352548311
 30
0
 10
177.9037617810679
 20
83.66208324230161
 30
0
 10
177.9037617810679
 20
83.66208324230161
 30
0
 10
177.9295999972073
 20
83.54081588122079
 30
0
 10
177.8520853487892
 20
83.4212710678826
 30
0
 10
177.7308179877084
 20
83.39543285174321
 30
0
 10
177.7308179877084
 20
83.39543285174321
 30
0
 10
164.6234354497526
 20
80.6093841328217
 30
0
 10
164.6234354497526
 20
80.6093841328217
 30
0
 10
164.607932520069
 20
80.60611129211071
 30
0
 10
164.5920850808369
 20
80.60438874436809
 30
0
 10
164.5764098963789
 20
80.60438874436809
 30
0
  0
SPLINE
  5
D3
100
AcDbEntity
  8
0
  6
ByLayer
 62
  256
370
   -1
100
AcDbSpline
210
0
220
0
230
0
 70
   11
 71
    3
 72
   29
 73
   25
 74
    0
 42
1e-007
 43
1e-007
 40
0
 40
0
 40
0
 40
0
 40
1
 40
1
 40
1
 40
2
 40
2
 40
2
 40
3
 40
3
 40
3
 40
4
 40
4
 40
4
 40
5
 40
5
 40
5
 40
6
 40
6
 40
6
 40
7
 40
7
 40
7
 40
8
 40
8
 40
8
 40
8
 10
277.118377641681
 20
96.4528615051629
 30
0
 10
276.994354204212
 20
96.4528615051629
 30
0
 10
276.8934129064941
 20
96.55397505765501
 30
0
 10
276.8934129064941
 20
96.677998495124
 30
0
 10
276.8934129064941
 20
96.677998495124
 30
0
 10
276.8934129064941
 20
110.0778696397775
 30
0
 10
276.8934129064941
 20
110.0778696397775
 30
0
 10
276.8934129064941
 20
110.2018930772465
 30
0
 10
276.994354204212
 20
110.3030066297386
 30
0
 10
277.118377641681
 20
110.3030066297386
 30
0
 10
277.118377641681
 20
110.3030066297386
 30
0
 10
290.5184210411087
 20
110.3030066297386
 30
0
 10
290.5184210411087
 20
110.3030066297386
 30
0
 10
290.6424444785777
 20
110.3030066297386
 30
0
 10
290.7433857762956
 20
110.2018930772465
 30
0
 10
290.7433857762956
 20
110.0778696397775
 30
0
 10
290.7433857762956
 20
110.0778696397775
 30
0
 10
290.7433857762956
 20
96.677998495124
 30
0
 10
290.7433857762956
 20
96.677998495124
 30
0
 10
290.7433857762956
 20
96.55397505765501
 30
0
 10
290.6424444785777
 20
96.4528615051629
 30
0
 10
290.5184210411087
 20
96.4528615051629
 30
0
 10
290.5184210411087
 20
96.4528615051629
 30
0
 10
277.118377641681
 20
96.4528615051629
 30
0
 10
277.118377641681
 20
96.4528615051629
 30
0
  0
SPLINE
  5
D4
100
AcDbEntity
  8
0
  6
ByLayer
 62
  256
370
   -1
100
AcDbSpline
210
0
220
0
230
0
 70
   11
 71
    3
 72
   29
 73
   25
 74
    0
 42
1e-007
 43
1e-007
 40
0
 40
0
 40
0
 40
0
 40
1
 40
1
 40
1
 40
2
 40
2
 40
2
 40
3
 40
3
 40
3
 40
4
 40
4
 40
4
 40
5
 40
5
 40
5
 40
6
 40
6
 40
6
 40
7
 40
7
 40
7
 40
8
 40
8
 40
8
 40
8
 10
296.1683776369185
 20
96.4528615051629
 30
0
 10
296.0443541994495
 20
96.4528615051629
 30
0
 10
295.9434129017316
 20
96.55397505765501
 30
0
 10
295.9434129017316
 20
96.677998495124
 30
0
 10
295.9434129017316
 20
96.677998495124
 30
0
 10
295.9434129017316
 20
110.0778696397775
 30
0
 10
295.9434129017316
 20
110.0778696397775
 30
0
 10
295.9434129017316
 20
110.2018930772465
 30
0
 10
296.0443541994495
 20
110.3030066297386
 30
0
 10
296.1683776369185
 20
110.3030066297386
 30
0
 10
296.1683776369185
 20
110.3030066297386
 30
0
 10
309.5684210363462
 20
110.3030066297386
 30
0
 10
309.5684210363462
 20
110.3030066297386
 30
0
 10
309.6924444738152
 20
110.3030066297386
 30
0
 10
309.7933857715331
 20
110.2018930772465
 30
0
 10
309.7933857715331
 20
110.0778696397775
 30
0
 10
309.7933857715331
 20
110.0778696397775
 30
0
 10
309.7933857715331
 20
96.677998495124
 30
0
 10
309.7933857715331
 20
96.677998495124
 30
0
 10
309.7933857715331
 20
96.55397505765501
 30
0
 10
309.6924444738152
 20
96.4528615051629
 30
0
 10
309.5684210363462
 20
96.4528615051629
 30
0
 10
309.5684210363462
 20
96.4528615051629
 30
0
 10
296.1683776369185
 20
96.4528615051629
 30
0
 10
296.1683776369185
 20
96.4528615051629
 30
0
  0
SPLINE
  5
D5
100
AcDbEntity
  8
0
  6
ByLayer
 62
  256
370
   -1
100
AcDbSpline
210
0
220
0
230
0
 70
   11
 71
    3
 72
   29
 73
   25
 74
    0
 42
1e-007
 43
1e-007
 40
0
 40
0
 40
0
 40
0
 40
1
 40
1
 40
1
 40
2
 40
2
 40
2
 40
3
 40
3
 40
3
 40
4
 40
4
 40
4
 40
5
 40
5
 40
5
 40
6
 40
6
 40
6
 40
7
 40
7
 40
7
 40
8
 40
8
 40
8
 40
8
 10
319.9808776309654
 20
101.2153615039723
 30
0
 10
319.8568541934964
 20
101.2153615039723
 30
0
 10
319.7559128957785
 20
101.3164750564644
 30
0
 10
319.7559128957785
 20
101.4404984939334
 30
0
 10
319.7559128957785
 20
101.4404984939334
 30
0
 10
319.7559128957785
 20
114.8403696385869
 30
0
 10
319.7559128957785
 20
114.8403696385869
 30
0
 10
319.7559128957785
 20
114.9643930760559
 30
0
 10
319.8568541934964
 20
115.065506628548
 30
0
 10
319.9808776309654
 20
115.065506628548
 30
0
 10
319.9808776309654
 20
115.065506628548
 30
0
 10
333.3809210303931
 20
115.065506628548
 30
0
 10
333.3809210303931
 20
115.065506628548
 30
0
 10
333.5049444678621
 20
115.065506628548
 30
0
 10
333.6058857655799
 20
114.9643930760559
 30
0
 10
333.6058857655799
 20
114.8403696385869
 30
0
 10
333.6058857655799
 20
114.8403696385869
 30
0
 10
333.6058857655799
 20
101.4404984939334
 30
0
 10
333.6058857655799
 20
101.4404984939334
 30
0
 10
333.6058857655799
 20
101.3164750564644
 30
0
 10
333.5049444678621
 20
101.2153615039723
 30
0
 10
333.3809210303931
 20
101.2153615039723
 30
0
 10
333.3809210303931
 20
101.2153615039723
 30
0
 10
319.9808776309654
 20
101.2153615039723
 30
0
 10
319.9808776309654
 20
101.2153615039723
 30
0
  0
SPLINE
  5
D6
100
AcDbEntity
  8
0
  6
ByLayer
 62
  256
370
   -1
100
AcDbSpline
210
0
220
0
230
0
 70
   11
 71
    3
 72
   29
 73
   25
 74
    0
 42
1e-007
 43
1e-007
 40
0
 40
0
 40
0
 40
0
 40
1
 40
1
 40
1
 40
2
 40
2
 40
2
 40
3
 40
3
 40
3
 40
4
 40
4
 40
4
 40
5
 40
5
 40
5
 40
6
 40
6
 40
6
 40
7
 40
7
 40
7
 40
8
 40
8
 40
8
 40
8
 10
324.1532327731514
 20
82.1653615087348
 30
0
 10
324.0292093356824
 20
82.1653615087348
 30
0
 10
323.9286125475131
 20
82.26630280645259
 30
0
 10
323.9286125475131
 20
82.39032624392161
 30
0
 10
323.9286125475131
 20
82.39032624392161
 30
0
 10
323.9286125475131
 20
95.79036964334941
 30
0
 10
323.9286125475131
 20
95.79036964334941
 30
0
 10
323.9286125475131
 20
95.9143930808184
 30
0
 10
324.0292093356824
 20
96.01550663331051
 30
0
 10
324.1532327731514
 20
96.01550663331051
 30
0
 10
324.1532327731514
 20
96.01550663331051
 30
0
 10
337.5532761725792
 20
96.01550663331051
 30
0
 10
337.5532761725792
 20
96.01550663331051
 30
0
 10
337.6772996100482
 20
96.01550663331051
 30
0
 10
337.778240907766
 20
95.9143930808184
 30
0
 10
337.778240907766
 20
95.79036964334941
 30
0
 10
337.778240907766
 20
95.79036964334941
 30
0
 10
337.778240907766
 20
82.39032624392161
 30
0
 10
337.778240907766
 20
82.39032624392161
 30
0
 10
337.778240907766
 20
82.26630280645259
 30
0
 10
337.6772996100482
 20
82.1653615087348
 30
0
 10
337.5532761725792
 20
82.1653615087348
 30
0
 10
337.5532761725792
 20
82.1653615087348
 30
0
 10
324.1532327731514
 20
82.1653615087348
 30
0
 10
324.1532327731514
 20
82.1653615087348
 30
0
  0
SPLINE
  5
D7
100
AcDbEntity
  8
0
  6
ByLayer
 62
  256
370
   -1
100
AcDbSpline
210
0
220
0
230
0
 70
   11
 71
    3
 72
   29
 73
   25
 74
    0
 42
1e-007
 43
1e-007
 40
0
 40
0
 40
0
 40
0
 40
1
 40
1
 40
1
 40
2
 40
2
 40
2
 40
3
 40
3
 40
3
 40
4
 40
4
 40
4
 40
5
 40
5
 40
5
 40
6
 40
6
 40
6
 40
7
 40
7
 40
7
 40
8
 40
8
 40
8
 40
8
 10
309.3734286318811
 20
34.540361520641
 30
0
 10
309.2494051944121
 20
34.540361520641
 30
0
 10
309.1484638966943
 20
34.64147507313311
 30
0
 10
309.1484638966943
 20
34.7654985106021
 30
0
 10
309.1484638966943
 20
34.7654985106021
 30
0
 10
309.1484638966943
 20
48.1653696552556
 30
0
 10
309.1484638966943
 20
48.1653696552556
 30
0
 10
309.1484638966943
 20
48.28939309272459
 30
0
 10
309.2494051944121
 20
48.3905066452167
 30
0
 10
309.3734286318811
 20
48.3905066452167
 30
0
 10
309.3734286318811
 20
48.3905066452167
 30
0
 10
322.7734720313089
 20
48.3905066452167
 30
0
 10
322.7734720313089
 20
48.3905066452167
 30
0
 10
322.8974954687779
 20
48.3905066452167
 30
0
 10
322.9980922569472
 20
48.28939309272459
 30
0
 10
322.9980922569472
 20
48.1653696552556
 30
0
 10
322.9980922569472
 20
48.1653696552556
 30
0
 10
322.9980922569472
 20
34.7654985106021
 30
0
 10
322.9980922569472
 20
34.7654985106021
 30
0
 10
322.9980922569472
 20
34.64147507313311
 30
0
 10
322.8974954687779
 20
34.540361520641
 30
0
 10
322.7734720313089
 20
34.540361520641
 30
0
 10
322.7734720313089
 20
34.540361520641
 30
0
 10
309.3734286318811
 20
34.540361520641
 30
0
 10
309.3734286318811
 20
34.540361520641
 30
0
  0
SPLINE
  5
D8
100
AcDbEntity
  8
0
  6
ByLayer
 62
  256
370
   -1
100
AcDbSpline
210
0
220
0
230
0
 70
   11
 71
    3
 72
   29
 73
   25
 74
    0
 42
1e-007
 43
1e-007
 40
0
 40
0
 40
0
 40
0
 40
1
 40
1
 40
1
 40
2
 40
2
 40
2
 40
3
 40
3
 40
3
 40
4
 40
4
 40
4
 40
5
 40
5
 40
5
 40
6
 40
6
 40
6
 40
7
 40
7
 40
7
 40
8
 40
8
 40
8
 40
8
 10
309.3734286318811
 20
15.4903615254035
 30
0
 10
309.2494051944121
 20
15.4903615254035
 30
0
 10
309.1484638966943
 20
15.59147507789559
 30
0
 10
309.1484638966943
 20
15.7154985153646
 30
0
 10
309.1484638966943
 20
15.7154985153646
 30
0
 10
309.1484638966943
 20
29.1153696600181
 30
0
 10
309.1484638966943
 20
29.1153696600181
 30
0
 10
309.1484638966943
 20
29.2393930974871
 30
0
 10
309.2494051944121
 20
29.3405066499792
 30
0
 10
309.3734286318811
 20
29.3405066499792
 30
0
 10
309.3734286318811
 20
29.3405066499792
 30
0
 10
322.7734720313089
 20
29.3405066499792
 30
0
 10
322.7734720313089
 20
29.3405066499792
 30
0
 10
322.8974954687779
 20
29.3405066499792
 30
0
 10
322.9980922569472
 20
29.2393930974871
 30
0
 10
322.9980922569472
 20
29.1153696600181
 30
0
 10
322.9980922569472
 20
29.1153696600181
 30
0
 10
322.9980922569472
 20
15.7154985153646
 30
0
 10
322.9980922569472
 20
15.7154985153646
 30
0
 10
322.9980922569472
 20
15.59147507789559
 30
0
 10
322.8974954687779
 20
15.4903615254035
 30
0
 10
322.7734720313089
 20
15.4903615254035
 30
0
 10
322.7734720313089
 20
15.4903615254035
 30
0
 10
309.3734286318811
 20
15.4903615254035
 30
0
 10
309.3734286318811
 20
15.4903615254035
 30
0
  0
SPLINE
  5
D9
100
AcDbEntity
  8
0
  6
ByLayer
 62
  256
370
   -1
100
AcDbSpline
210
0
220
0
230
0
 70
   11
 71
    3
 72
   29
 73
   25
 74
    0
 42
1e-007
 43
1e-007
 40
0
 40
0
 40
0
 40
0
 40
1
 40
1
 40
1
 40
2
 40
2
 40
2
 40
3
 40
3
 40
3
 40
4
 40
4
 40
4
 40
5
 40
5
 40
5
 40
6
 40
6
 40
6
 40
7
 40
7
 40
7
 40
8
 40
8
 40
8
 40
8
 10
290.3234286366436
 20
15.4903615254035
 30
0
 10
290.1994051991746
 20
15.4903615254035
 30
0
 10
290.0984639014568
 20
15.59147507789559
 30
0
 10
290.0984639014568
 20
15.7154985153646
 30
0
 10
290.0984639014568
 20
15.7154985153646
 30
0
 10
290.0984639014568
 20
29.1153696600181
 30
0
 10
290.0984639014568
 20
29.1153696600181
 30
0
 10
290.0984639014568
 20
29.2393930974871
 30
0
 10
290.1994051991746
 20
29.3405066499792
 30
0
 10
290.3234286366436
 20
29.3405066499792
 30
0
 10
290.3234286366436
 20
29.3405066499792
 30
0
 10
303.7234720360714
 20
29.3405066499792
 30
0
 10
303.7234720360714
 20
29.3405066499792
 30
0
 10
303.8474954735404
 20
29.3405066499792
 30
0
 10
303.9480922617097
 20
29.2393930974871
 30
0
 10
303.9480922617097
 20
29.1153696600181
 30
0
 10
303.9480922617097
 20
29.1153696600181
 30
0
 10
303.9480922617097
 20
15.7154985153646
 30
0
 10
303.9480922617097
 20
15.7154985153646
 30
0
 10
303.9480922617097
 20
15.59147507789559
 30
0
 10
303.8474954735404
 20
15.4903615254035
 30
0
 10
303.7234720360714
 20
15.4903615254035
 30
0
 10
303.7234720360714
 20
15.4903615254035
 30
0
 10
290.3234286366436
 20
15.4903615254035
 30
0
 10
290.3234286366436
 20
15.4903615254035
 30
0
  0
SPLINE
  5
DA
100
AcDbEntity
  8
0
  6
ByLayer
 62
  256
370
   -1
100
AcDbSpline
210
0
220
0
230
0
 70
   11
 71
    3
 72
   29
 73
   25
 74
    0
 42
1e-007
 43
1e-007
 40
0
 40
0
 40
0
 40
0
 40
1
 40
1
 40
1
 40
2
 40
2
 40
2
 40
3
 40
3
 40
3
 40
4
 40
4
 40
4
 40
5
 40
5
 40
5
 40
6
 40
6
 40
6
 40
7
 40
7
 40
7
 40
8
 40
8
 40
8
 40
8
 10
328.4234286271186
 20
15.4903615254035
 30
0
 10
328.2994051896496
 20
15.4903615254035
 30
0
 10
328.1984638919318
 20
15.59147507789559
 30
0
 10
328.1984638919318
 20
15.7154985153646
 30
0
 10
328.1984638919318
 20
15.7154985153646
 30
0
 10
328.1984638919318
 20
29.1153696600181
 30
0
 10
328.1984638919318
 20
29.1153696600181
 30
0
 10
328.1984638919318
 20
29.2393930974871
 30
0
 10
328.2994051896496
 20
29.3405066499792
 30
0
 10
328.4234286271186
 20
29.3405066499792
 30
0
 10
328.4234286271186
 20
29.3405066499792
 30
0
 10
341.8234720265464
 20
29.3405066499792
 30
0
 10
341.8234720265464
 20
29.3405066499792
 30
0
 10
341.9474954640153
 20
29.3405066499792
 30
0
 10
342.0480922521846
 20
29.2393930974871
 30
0
 10
342.0480922521846
 20
29.1153696600181
 30
0
 10
342.0480922521846
 20
29.1153696600181
 30
0
 10
342.0480922521846
 20
15.7154985153646
 30
0
 10
342.0480922521846
 20
15.7154985153646
 30
0
 10
342.0480922521846
 20
15.59147507789559
 30
0
 10
341.9474954640153
 20
15.4903615254035
 30
0
 10
341.8234720265464
 20
15.4903615254035
 30
0
 10
341.8234720265464
 20
15.4903615254035
 30
0
 10
328.4234286271186
 20
15.4903615254035
 30
0
 10
328.4234286271186
 20
15.4903615254035
 30
0
  0
SPLINE
  5
DB
100
AcDbEntity
  8
0
  6
ByLayer
 62
  256
370
   -1
100
AcDbSpline
210
0
220
0
230
0
 70
   11
 71
    3
 72
   29
 73
   25
 74
    0
 42
1e-007
 43
1e-007
 40
0
 40
0
 40
0
 40
0
 40
1
 40
1
 40
1
 40
2
 40
2
 40
2
 40
3
 40
3
 40
3
 40
4
 40
4
 40
4
 40
5
 40
5
 40
5
 40
6
 40
6
 40
6
 40
7
 40
7
 40
7
 40
8
 40
8
 40
8
 40
8
 10
252.7084980904918
 20
77.4028615099254
 30
0
 10
252.5844746530228
 20
77.4028615099254
 30
0
 10
252.483533355305
 20
77.50397506241751
 30
0
 10
252.483533355305
 20
77.6279984998865
 30
0
 10
252.483533355305
 20
77.6279984998865
 30
0
 10
252.483533355305
 20
91.02786964454
 30
0
 10
252.483533355305
 20
91.02786964454
 30
0
 10
252.483533355305
 20
91.151893082009
 30
0
 10
252.5844746530228
 20
91.25300663450111
 30
0
 10
252.7084980904918
 20
91.25300663450111
 30
0
 10
252.7084980904918
 20
91.25300663450111
 30
0
 10
266.1085414899195
 20
91.25300663450111
 30
0
 10
266.1085414899195
 20
91.25300663450111
 30
0
 10
266.2325649273885
 20
91.25300663450111
 30
0
 10
266.3331617155578
 20
91.151893082009
 30
0
 10
266.3331617155578
 20
91.02786964454
 30
0
 10
266.3331617155578
 20
91.02786964454
 30
0
 10
266.3331617155578
 20
77.6279984998865
 30
0
 10
266.3331617155578
 20
77.6279984998865
 30
0
 10
266.3331617155578
 20
77.50397506241751
 30
0
 10
266.2325649273885
 20
77.4028615099254
 30
0
 10
266.1085414899195
 20
77.4028615099254
 30
0
 10
266.1085414899195
 20
77.4028615099254
 30
0
 10
252.7084980904918
 20
77.4028615099254
 30
0
 10
252.7084980904918
 20
77.4028615099254
 30
0
  0
SPLINE
  5
DC
100
AcDbEntity
  8
0
  6
ByLayer
 62
  256
370
   -1
100
AcDbSpline
210
0
220
0
230
0
 70
   11
 71
    3
 72
   29
 73
   25
 74
    0
 42
1e-007
 43
1e-007
 40
0
 40
0
 40
0
 40
0
 40
1
 40
1
 40
1
 40
2
 40
2
 40
2
 40
3
 40
3
 40
3
 40
4
 40
4
 40
4
 40
5
 40
5
 40
5
 40
6
 40
6
 40
6
 40
7
 40
7
 40
7
 40
8
 40
8
 40
8
 40
8
 10
271.7584980857293
 20
77.4028615099254
 30
0
 10
271.6344746482603
 20
77.4028615099254
 30
0
 10
271.5335333505425
 20
77.50397506241751
 30
0
 10
271.5335333505425
 20
77.6279984998865
 30
0
 10
271.5335333505425
 20
77.6279984998865
 30
0
 10
271.5335333505425
 20
91.02786964454
 30
0
 10
271.5335333505425
 20
91.02786964454
 30
0
 10
271.5335333505425
 20
91.151893082009
 30
0
 10
271.6344746482603
 20
91.25300663450111
 30
0
 10
271.7584980857293
 20
91.25300663450111
 30
0
 10
271.7584980857293
 20
91.25300663450111
 30
0
 10
285.158541485157
 20
91.25300663450111
 30
0
 10
285.158541485157
 20
91.25300663450111
 30
0
 10
285.282564922626
 20
91.25300663450111
 30
0
 10
285.3831617107953
 20
91.151893082009
 30
0
 10
285.3831617107953
 20
91.02786964454
 30
0
 10
285.3831617107953
 20
91.02786964454
 30
0
 10
285.3831617107953
 20
77.6279984998865
 30
0
 10
285.3831617107953
 20
77.6279984998865
 30
0
 10
285.3831617107953
 20
77.50397506241751
 30
0
 10
285.282564922626
 20
77.4028615099254
 30
0
 10
285.158541485157
 20
77.4028615099254
 30
0
 10
285.158541485157
 20
77.4028615099254
 30
0
 10
271.7584980857293
 20
77.4028615099254
 30
0
 10
271.7584980857293
 20
77.4028615099254
 30
0
  0
SPLINE
  5
DD
100
AcDbEntity
  8
0
  6
ByLayer
 62
  256
370
   -1
100
AcDbSpline
210
0
220
0
230
0
 70
   11
 71
    3
 72
   29
 73
   25
 74
    0
 42
1e-007
 43
1e-007
 40
0
 40
0
 40
0
 40
0
 40
1
 40
1
 40
1
 40
2
 40
2
 40
2
 40
3
 40
3
 40
3
 40
4
 40
4
 40
4
 40
5
 40
5
 40
5
 40
6
 40
6
 40
6
 40
7
 40
7
 40
7
 40
8
 40
8
 40
8
 40
8
 10
242.6984286485499
 20
58.3528615146879
 30
0
 10
242.5744052110809
 20
58.3528615146879
 30
0
 10
242.473463913363
 20
58.45397506718001
 30
0
 10
242.473463913363
 20
58.577998504649
 30
0
 10
242.473463913363
 20
58.577998504649
 30
0
 10
242.473463913363
 20
71.97786964930251
 30
0
 10
242.473463913363
 20
71.97786964930251
 30
0
 10
242.473463913363
 20
72.1018930867715
 30
0
 10
242.5744052110809
 20
72.20300663926361
 30
0
 10
242.6984286485499
 20
72.20300663926361
 30
0
 10
242.6984286485499
 20
72.20300663926361
 30
0
 10
256.0984720479776
 20
72.20300663926361
 30
0
 10
256.0984720479776
 20
72.20300663926361
 30
0
 10
256.2224954854466
 20
72.20300663926361
 30
0
 10
256.3234367831644
 20
72.1018930867715
 30
0
 10
256.3234367831644
 20
71.97786964930251
 30
0
 10
256.3234367831644
 20
71.97786964930251
 30
0
 10
256.3234367831644
 20
58.577998504649
 30
0
 10
256.3234367831644
 20
58.577998504649
 30
0
 10
256.3234367831644
 20
58.45397506718001
 30
0
 10
256.2224954854466
 20
58.3528615146879
 30
0
 10
256.0984720479776
 20
58.3528615146879
 30
0
 10
256.0984720479776
 20
58.3528615146879
 30
0
 10
242.6984286485499
 20
58.3528615146879
 30
0
 10
242.6984286485499
 20
58.3528615146879
 30
0
  0
SPLINE
  5
DE
100
AcDbEntity
  8
0
  6
ByLayer
 62
  256
370
   -1
100
AcDbSpline
210
0
220
0
230
0
 70
   11
 71
    3
 72
   29
 73
   25
 74
    0
 42
1e-007
 43
1e-007
 40
0
 40
0
 40
0
 40
0
 40
1
 40
1
 40
1
 40
2
 40
2
 40
2
 40
3
 40
3
 40
3
 40
4
 40
4
 40
4
 40
5
 40
5
 40
5
 40
6
 40
6
 40
6
 40
7
 40
7
 40
7
 40
8
 40
8
 40
8
 40
8
 10
261.7484286437873
 20
58.3528615146879
 30
0
 10
261.6244052063184
 20
58.3528615146879
 30
0
 10
261.5234639086005
 20
58.45397506718001
 30
0
 10
261.5234639086005
 20
58.577998504649
 30
0
 10
261.5234639086005
 20
58.577998504649
 30
0
 10
261.5234639086005
 20
71.97786964930251
 30
0
 10
261.5234639086005
 20
71.97786964930251
 30
0
 10
261.5234639086005
 20
72.1018930867715
 30
0
 10
261.6244052063184
 20
72.20300663926361
 30
0
 10
261.7484286437873
 20
72.20300663926361
 30
0
 10
261.7484286437873
 20
72.20300663926361
 30
0
 10
275.1484720432151
 20
72.20300663926361
 30
0
 10
275.1484720432151
 20
72.20300663926361
 30
0
 10
275.2724954806841
 20
72.20300663926361
 30
0
 10
275.3734367784019
 20
72.1018930867715
 30
0
 10
275.3734367784019
 20
71.97786964930251
 30
0
 10
275.3734367784019
 20
71.97786964930251
 30
0
 10
275.3734367784019
 20
58.577998504649
 30
0
 10
275.3734367784019
 20
58.577998504649
 30
0
 10
275.3734367784019
 20
58.45397506718001
 30
0
 10
275.2724954806841
 20
58.3528615146879
 30
0
 10
275.1484720432151
 20
58.3528615146879
 30
0
 10
275.1484720432151
 20
58.3528615146879
 30
0
 10
261.7484286437873
 20
58.3528615146879
 30
0
 10
261.7484286437873
 20
58.3528615146879
 30
0
  0
SPLINE
  5
DF
100
AcDbEntity
  8
0
  6
ByLayer
 62
  256
370
   -1
100
AcDbSpline
210
0
220
0
230
0
 70
   11
 71
    3
 72
   29
 73
   25
 74
    0
 42
1e-007
 43
1e-007
 40
0
 40
0
 40
0
 40
0
 40
1
 40
1
 40
1
 40
2
 40
2
 40
2
 40
3
 40
3
 40
3
 40
4
 40
4
 40
4
 40
5
 40
5
 40
5
 40
6
 40
6
 40
6
 40
7
 40
7
 40
7
 40
8
 40
8
 40
8
 40
8
 10
252.2234286461686
 20
39.3028615194504
 30
0
 10
252.0994052086996
 20
39.3028615194504
 30
0
 10
251.9984639109818
 20
39.40397507194251
 30
0
 10
251.9984639109818
 20
39.5279985094115
 30
0
 10
251.9984639109818
 20
39.5279985094115
 30
0
 10
251.9984639109818
 20
52.92786965406501
 30
0
 10
251.9984639109818
 20
52.92786965406501
 30
0
 10
251.9984639109818
 20
53.051893091534
 30
0
 10
252.0994052086996
 20
53.15300664402611
 30
0
 10
252.2234286461686
 20
53.15300664402611
 30
0
 10
252.2234286461686
 20
53.15300664402611
 30
0
 10
265.6234720455964
 20
53.15300664402611
 30
0
 10
265.6234720455964
 20
53.15300664402611
 30
0
 10
265.7474954830654
 20
53.15300664402611
 30
0
 10
265.8484367807832
 20
53.051893091534
 30
0
 10
265.8484367807832
 20
52.92786965406501
 30
0
 10
265.8484367807832
 20
52.92786965406501
 30
0
 10
265.8484367807832
 20
39.5279985094115
 30
0
 10
265.8484367807832
 20
39.5279985094115
 30
0
 10
265.8484367807832
 20
39.40397507194251
 30
0
 10
265.7474954830654
 20
39.3028615194504
 30
0
 10
265.6234720455964
 20
39.3028615194504
 30
0
 10
265.6234720455964
 20
39.3028615194504
 30
0
 10
252.2234286461686
 20
39.3028615194504
 30
0
 10
252.2234286461686
 20
39.3028615194504
 30
0
  0
SPLINE
  5
E0
100
AcDbEntity
  8
0
  6
ByLayer
 62
  256
370
   -1
100
AcDbSpline
210
0
220
0
230
0
 70
   11
 71
    3
 72
   29
 73
   25
 74
    0
 42
1e-007
 43
1e-007
 40
0
 40
0
 40
0
 40
0
 40
1
 40
1
 40
1
 40
2
 40
2
 40
2
 40
3
 40
3
 40
3
 40
4
 40
4
 40
4
 40
5
 40
5
 40
5
 40
6
 40
6
 40
6
 40
7
 40
7
 40
7
 40
8
 40
8
 40
8
 40
8
 10
295.5782327802952
 20
77.4028615099254
 30
0
 10
295.4542093428262
 20
77.4028615099254
 30
0
 10
295.3536125546569
 20
77.50397506241751
 30
0
 10
295.3536125546569
 20
77.6279984998865
 30
0
 10
295.3536125546569
 20
77.6279984998865
 30
0
 10
295.3536125546569
 20
91.02786964454
 30
0
 10
295.3536125546569
 20
91.02786964454
 30
0
 10
295.3536125546569
 20
91.151893082009
 30
0
 10
295.4542093428262
 20
91.25300663450111
 30
0
 10
295.5782327802952
 20
91.25300663450111
 30
0
 10
295.5782327802952
 20
91.25300663450111
 30
0
 10
308.9782761797229
 20
91.25300663450111
 30
0
 10
308.9782761797229
 20
91.25300663450111
 30
0
 10
309.1022996171919
 20
91.25300663450111
 30
0
 10
309.2032409149097
 20
91.151893082009
 30
0
 10
309.2032409149097
 20
91.02786964454
 30
0
 10
309.2032409149097
 20
91.02786964454
 30
0
 10
309.2032409149097
 20
77.6279984998865
 30
0
 10
309.2032409149097
 20
77.6279984998865
 30
0
 10
309.2032409149097
 20
77.50397506241751
 30
0
 10
309.1022996171919
 20
77.4028615099254
 30
0
 10
308.9782761797229
 20
77.4028615099254
 30
0
 10
308.9782761797229
 20
77.4028615099254
 30
0
 10
295.5782327802952
 20
77.4028615099254
 30
0
 10
295.5782327802952
 20
77.4028615099254
 30
0
  0
SPLINE
  5
E1
100
AcDbEntity
  8
0
  6
ByLayer
 62
  256
370
   -1
100
AcDbSpline
210
0
220
0
230
0
 70
   11
 71
    3
 72
   38
 73
   34
 74
    0
 42
1e-007
 43
1e-007
 40
0
 40
0
 40
0
 40
0
 40
1
 40
1
 40
1
 40
2
 40
2
 40
2
 40
3
 40
3
 40
3
 40
4
 40
4
 40
4
 40
5
 40
5
 40
5
 40
6
 40
6
 40
6
 40
7
 40
7
 40
7
 40
8
 40
8
 40
8
 40
9
 40
9
 40
9
 40
10
 40
10
 40
10
 40
11
 40
11
 40
11
 40
11
 10
227.0032626368486
 20
15.9712968551444
 30
0
 10
226.897842715
 20
15.9712968551444
 30
0
 10
226.8055141559953
 20
16.04622768194859
 30
0
 10
226.7834655448897
 20
16.1495805465061
 30
0
 10
226.7834655448897
 20
16.1495805465061
 30
0
 10
223.9977613355167
 20
29.25679082968759
 30
0
 10
223.9977613355167
 20
29.25679082968759
 30
0
 10
223.9719231193773
 20
29.3780581907684
 30
0
 10
224.0494377677954
 20
29.49777525888089
 30
0
 10
224.1707051288762
 20
29.5236134750202
 30
0
 10
224.1707051288762
 20
29.5236134750202
 30
0
 10
237.2779154120578
 20
32.30948993916749
 30
0
 10
237.2779154120578
 20
32.30948993916749
 30
0
 10
237.2934183417414
 20
32.31276277987851
 30
0
 10
237.309610290522
 20
32.3144853276211
 30
0
 10
237.3251132202057
 20
32.3144853276211
 30
0
 10
237.4305331420543
 20
32.3144853276211
 30
0
 10
237.522861701059
 20
32.23955450081701
 30
0
 10
237.5449103121646
 20
32.13620163625939
 30
0
 10
237.5449103121646
 20
32.13620163625939
 30
0
 10
240.3309590310861
 20
19.0289913530779
 30
0
 10
240.3309590310861
 20
19.0289913530779
 30
0
 10
240.3433613748331
 20
18.97025247505439
 30
0
 10
240.3323370692802
 20
18.9101355588368
 30
0
 10
240.2996086621704
 20
18.85966490997789
 30
0
 10
240.2668802550605
 20
18.8093665158932
 30
0
 10
240.2165818609759
 20
18.7745710514922
 30
0
 10
240.1576707281781
 20
18.7621687077453
 30
0
 10
240.1576707281781
 20
18.7621687077453
 30
0
 10
227.0504604449966
 20
15.976292243598
 30
0
 10
227.0504604449966
 20
15.976292243598
 30
0
 10
227.0349575153129
 20
15.973019402887
 30
0
 10
227.0191100760808
 20
15.9712968551444
 30
0
 10
227.0032626368486
 20
15.9712968551444
 30
0
  0
SPLINE
  5
E2
100
AcDbEntity
  8
0
  6
ByLayer
 62
  256
370
   -1
100
AcDbSpline
210
0
220
0
230
0
 70
   11
 71
    3
 72
   41
 73
   37
 74
    0
 42
1e-007
 43
1e-007
 40
0
 40
0
 40
0
 40
0
 40
1
 40
1
 40
1
 40
2
 40
2
 40
2
 40
3
 40
3
 40
3
 40
4
 40
4
 40
4
 40
5
 40
5
 40
5
 40
6
 40
6
 40
6
 40
7
 40
7
 40
7
 40
8
 40
8
 40
8
 40
9
 40
9
 40
9
 40
10
 40
10
 40
10
 40
11
 40
11
 40
11
 40
12
 40
12
 40
12
 40
12
 10
176.4581997154571
 20
24.7030636172844
 30
0
 10
176.353124303157
 20
24.7030636172844
 30
0
 10
176.2607957441523
 20
24.77799444408861
 30
0
 10
176.2387471330467
 20
24.8815195634203
 30
0
 10
176.2387471330467
 20
24.8815195634203
 30
0
 10
173.4525261593509
 20
37.9887298466019
 30
0
 10
173.4525261593509
 20
37.9887298466019
 30
0
 10
173.4399515608297
 20
38.04746872462539
 30
0
 10
173.4511481211568
 20
38.10758564084301
 30
0
 10
173.4838765282666
 20
38.1578840349276
 30
0
 10
173.5166049353766
 20
38.20835468378661
 30
0
 10
173.5670755842355
 20
38.2429778934133
 30
0
 10
173.6259867170332
 20
38.25538023716021
 30
0
 10
173.6259867170332
 20
38.25538023716021
 30
0
 10
186.7328524906662
 20
41.04142895608169
 30
0
 10
186.7328524906662
 20
41.04142895608169
 30
0
 10
186.7483554203499
 20
41.04470179679271
 30
0
 10
186.7645473691305
 20
41.04642434453541
 30
0
 10
186.7800502988142
 20
41.04642434453541
 30
0
 10
186.8854702206628
 20
41.04642434453541
 30
0
 10
186.9777987796675
 20
40.9714935177312
 30
0
 10
186.9998473907731
 20
40.8681406531737
 30
0
 10
186.9998473907731
 20
40.8681406531737
 30
0
 10
189.7858961096946
 20
27.7609303699922
 30
0
 10
189.7858961096946
 20
27.7609303699922
 30
0
 10
189.7982984534415
 20
27.70219149196861
 30
0
 10
189.7872741478887
 20
27.642074575751
 30
0
 10
189.7545457407789
 20
27.59160392689211
 30
0
 10
189.721817333669
 20
27.5413055328075
 30
0
 10
189.6715189395843
 20
27.5065100684064
 30
0
 10
189.6126078067866
 20
27.4941077246595
 30
0
 10
189.6126078067866
 20
27.4941077246595
 30
0
 10
176.505397523605
 20
24.70805900573799
 30
0
 10
176.505397523605
 20
24.70805900573799
 30
0
 10
176.4898945939214
 20
24.704786165027
 30
0
 10
176.4740471546893
 20
24.7030636172844
 30
0
 10
176.4581997154571
 20
24.7030636172844
 30
0
  0
SPLINE
  5
E3
100
AcDbEntity
  8
0
  6
ByLayer
 62
  256
370
   -1
100
AcDbSpline
210
0
220
0
230
0
 70
   11
 71
    3
 72
   29
 73
   25
 74
    0
 42
1e-007
 43
1e-007
 40
0
 40
0
 40
0
 40
0
 40
1
 40
1
 40
1
 40
2
 40
2
 40
2
 40
3
 40
3
 40
3
 40
4
 40
4
 40
4
 40
5
 40
5
 40
5
 40
6
 40
6
 40
6
 40
7
 40
7
 40
7
 40
8
 40
8
 40
8
 40
8
 10
328.4234286271186
 20
63.11536151349731
 30
0
 10
328.2994051896496
 20
63.11536151349731
 30
0
 10
328.1984638919318
 20
63.21630281121509
 30
0
 10
328.1984638919318
 20
63.34032624868411
 30
0
 10
328.1984638919318
 20
63.34032624868411
 30
0
 10
328.1984638919318
 20
76.74036964811191
 30
0
 10
328.1984638919318
 20
76.74036964811191
 30
0
 10
328.1984638919318
 20
76.8643930855809
 30
0
 10
328.2994051896496
 20
76.96550663807301
 30
0
 10
328.4234286271186
 20
76.96550663807301
 30
0
 10
328.4234286271186
 20
76.96550663807301
 30
0
 10
341.8234720265464
 20
76.96550663807301
 30
0
 10
341.8234720265464
 20
76.96550663807301
 30
0
 10
341.9474954640153
 20
76.96550663807301
 30
0
 10
342.0480922521846
 20
76.8643930855809
 30
0
 10
342.0480922521846
 20
76.74036964811191
 30
0
 10
342.0480922521846
 20
76.74036964811191
 30
0
 10
342.0480922521846
 20
63.34032624868411
 30
0
 10
342.0480922521846
 20
63.34032624868411
 30
0
 10
342.0480922521846
 20
63.21630281121509
 30
0
 10
341.9474954640153
 20
63.11536151349731
 30
0
 10
341.8234720265464
 20
63.11536151349731
 30
0
 10
341.8234720265464
 20
63.11536151349731
 30
0
 10
328.4234286271186
 20
63.11536151349731
 30
0
 10
328.4234286271186
 20
63.11536151349731
 30
0
  0
SPLINE
  5
E4
100
AcDbEntity
  8
0
  6
ByLayer
 62
  256
370
   -1
100
AcDbSpline
210
0
220
0
230
0
 70
   11
 71
    3
 72
   77
 73
   73
 74
    0
 42
1e-007
 43
1e-007
 40
0
 40
0
 40
0
 40
0
 40
1
 40
1
 40
1
 40
2
 40
2
 40
2
 40
3
 40
3
 40
3
 40
4
 40
4
 40
4
 40
5
 40
5
 40
5
 40
6
 40
6
 40
6
 40
7
 40
7
 40
7
 40
8
 40
8
 40
8
 40
9
 40
9
 40
9
 40
10
 40
10
 40
10
 40
11
 40
11
 40
11
 40
12
 40
12
 40
12
 40
13
 40
13
 40
13
 40
14
 40
14
 40
14
 40
15
 40
15
 40
15
 40
16
 40
16
 40
16
 40
17
 40
17
 40
17
 40
18
 40
18
 40
18
 40
19
 40
19
 40
19
 40
20
 40
20
 40
20
 40
21
 40
21
 40
21
 40
22
 40
22
 40
22
 40
23
 40
23
 40
23
 40
24
 40
24
 40
24
 40
24
 10
12.55416465443659
 20
35.94785528113991
 30
0
 10
12.04411826784535
 20
35.94785528113991
 30
0
 10
11.62898426187274
 20
36.3628170323382
 30
0
 10
11.62898426187274
 20
36.87286341892951
 30
0
 10
11.62898426187274
 20
36.87286341892951
 30
0
 10
11.62898426187274
 20
53.81291468422569
 30
0
 10
11.62898426187274
 20
53.81291468422569
 30
0
 10
11.62898426187274
 20
54.32296107081689
 30
0
 10
12.04411826784535
 20
54.73792282201529
 30
0
 10
12.55416465443659
 20
54.73792282201529
 30
0
 10
12.55416465443659
 20
54.73792282201529
 30
0
 10
17.55403173217968
 20
54.73792282201529
 30
0
 10
17.55403173217968
 20
54.73792282201529
 30
0
 10
18.06407811877092
 20
54.73792282201529
 30
0
 10
18.47921212474353
 20
54.32296107081689
 30
0
 10
18.47921212474353
 20
53.81291468422569
 30
0
 10
18.47921212474353
 20
53.81291468422569
 30
0
 10
18.47921212474353
 20
39.5279985094115
 30
0
 10
18.47921212474353
 20
39.5279985094115
 30
0
 10
18.47921212474353
 20
39.32112052552219
 30
0
 10
18.64733278442372
 20
39.15299986584199
 30
0
 10
18.8540385135387
 20
39.15299986584199
 30
0
 10
18.8540385135387
 20
39.15299986584199
 30
0
 10
19.69205799032573
 20
39.15299986584199
 30
0
 10
19.69205799032573
 20
39.15299986584199
 30
0
 10
19.89893597421498
 20
39.15299986584199
 30
0
 10
20.06705663389517
 20
39.32112052552219
 30
0
 10
20.06705663389517
 20
39.5279985094115
 30
0
 10
20.06705663389517
 20
39.5279985094115
 30
0
 10
20.06705663389517
 20
52.92786965406501
 30
0
 10
20.06705663389517
 20
52.92786965406501
 30
0
 10
20.06705663389517
 20
53.051893091534
 30
0
 10
20.16817018638726
 20
53.15300664402611
 30
0
 10
20.29219362385625
 20
53.15300664402611
 30
0
 10
20.29219362385625
 20
53.15300664402611
 30
0
 10
33.69206476850975
 20
53.15300664402611
 30
0
 10
33.69206476850975
 20
53.15300664402611
 30
0
 10
33.81608820597875
 20
53.15300664402611
 30
0
 10
33.91720175847083
 20
53.051893091534
 30
0
 10
33.91720175847083
 20
52.92786965406501
 30
0
 10
33.91720175847083
 20
52.92786965406501
 30
0
 10
33.91720175847083
 20
39.5279985094115
 30
0
 10
33.91720175847083
 20
39.5279985094115
 30
0
 10
33.91720175847083
 20
39.32112052552219
 30
0
 10
34.08532241815102
 20
39.15299986584199
 30
0
 10
34.29220040204028
 20
39.15299986584199
 30
0
 10
34.29220040204028
 20
39.15299986584199
 30
0
 10
35.13004762405303
 20
39.15299986584199
 30
0
 10
35.13004762405303
 20
39.15299986584199
 30
0
 10
35.33692560794229
 20
39.15299986584199
 30
0
 10
35.50504626762248
 20
39.32112052552219
 30
0
 10
35.50504626762248
 20
39.5279985094115
 30
0
 10
35.50504626762248
 20
39.5279985094115
 30
0
 10
35.50504626762248
 20
53.81291468422569
 30
0
 10
35.50504626762248
 20
53.81291468422569
 30
0
 10
35.50504626762248
 20
54.32296107081689
 30
0
 10
35.92000801882082
 20
54.73792282201529
 30
0
 10
36.43005440541206
 20
54.73792282201529
 30
0
 10
36.43005440541206
 20
54.73792282201529
 30
0
 10
41.43009373792942
 20
54.73792282201529
 30
0
 10
41.43009373792942
 20
54.73792282201529
 30
0
 10
41.94014012452065
 20
54.73792282201529
 30
0
 10
42.35510187571899
 20
54.32296107081689
 30
0
 10
42.35510187571899
 20
53.81291468422569
 30
0
 10
42.35510187571899
 20
53.81291468422569
 30
0
 10
42.35510187571899
 20
36.87286341892951
 30
0
 10
42.35510187571899
 20
36.87286341892951
 30
0
 10
42.35510187571899
 20
36.3628170323382
 30
0
 10
41.94014012452065
 20
35.94785528113991
 30
0
 10
41.43009373792942
 20
35.94785528113991
 30
0
 10
41.43009373792942
 20
35.94785528113991
 30
0
 10
12.55416465443659
 20
35.94785528113991
 30
0
 10
12.55416465443659
 20
35.94785528113991
 30
0
  0
SPLINE
  5
E5
100
AcDbEntity
  8
0
  6
ByLayer
 62
  256
370
   -1
100
AcDbSpline
210
0
220
0
230
0
 70
   11
 71
    3
 72
  107
 73
  103
 74
    0
 42
1e-007
 43
1e-007
 40
0
 40
0
 40
0
 40
0
 40
1
 40
1
 40
1
 40
2
 40
2
 40
2
 40
3
 40
3
 40
3
 40
4
 40
4
 40
4
 40
5
 40
5
 40
5
 40
6
 40
6
 40
6
 40
7
 40
7
 40
7
 40
8
 40
8
 40
8
 40
9
 40
9
 40
9
 40
10
 40
10
 40
10
 40
11
 40
11
 40
11
 40
12
 40
12
 40
12
 40
13
 40
13
 40
13
 40
14
 40
14
 40
14
 40
15
 40
15
 40
15
 40
16
 40
16
 40
16
 40
17
 40
17
 40
17
 40
18
 40
18
 40
18
 40
19
 40
19
 40
19
 40
20
 40
20
 40
20
 40
21
 40
21
 40
21
 40
22
 40
22
 40
22
 40
23
 40
23
 40
23
 40
24
 40
24
 40
24
 40
25
 40
25
 40
25
 40
26
 40
26
 40
26
 40
27
 40
27
 40
27
 40
28
 40
28
 40
28
 40
29
 40
29
 40
29
 40
30
 40
30
 40
30
 40
31
 40
31
 40
31
 40
32
 40
32
 40
32
 40
33
 40
33
 40
33
 40
34
 40
34
 40
34
 40
34
 10
180.0211174663025
 20
4.380100840247096
 30
0
 10
179.5877244542581
 20
4.380100840247096
 30
0
 10
179.207730422235
 20
4.688264631402703
 30
0
 10
179.1174689205214
 20
5.112872649959698
 30
0
 10
179.1174689205214
 20
5.112872649959698
 30
0
 10
175.5953755511763
 20
21.6827484053659
 30
0
 10
175.5953755511763
 20
21.6827484053659
 30
0
 10
175.5438713736718
 20
21.9245941084304
 30
0
 10
175.5896911436256
 20
22.1717797094971
 30
0
 10
175.7243943770989
 20
22.3790022029349
 30
0
 10
175.8587531010236
 20
22.5862246963726
 30
0
 10
176.0661478492357
 20
22.7285071399134
 30
0
 10
176.3076490427517
 20
22.7798390626437
 30
0
 10
176.3076490427517
 20
22.7798390626437
 30
0
 10
204.552608888121
 20
28.78360696478859
 30
0
 10
204.552608888121
 20
28.78360696478859
 30
0
 10
204.6163431545981
 20
28.79721509195531
 30
0
 10
204.6814554592694
 20
28.8039330281515
 30
0
 10
204.7458787448435
 20
28.8039330281515
 30
0
 10
205.1796162664365
 20
28.8039330281515
 30
0
 10
205.5596102984595
 20
28.4957692369959
 30
0
 10
205.6498718001731
 20
28.0711612184389
 30
0
 10
205.6498718001731
 20
28.0711612184389
 30
0
 10
209.171792914744
 20
11.5011132082585
 30
0
 10
209.171792914744
 20
11.5011132082585
 30
0
 10
209.2231248374742
 20
11.2596120147425
 30
0
 10
209.1776495770689
 20
11.0124264136758
 30
0
 10
209.0429463435956
 20
10.805203920238
 30
0
 10
208.9085876196709
 20
10.5979814268002
 30
0
 10
208.7011928714589
 20
10.4555267284852
 30
0
 10
208.4596916779429
 20
10.4041948057549
 30
0
 10
208.4596916779429
 20
10.4041948057549
 30
0
 10
203.5686896175337
 20
9.364637243080793
 30
0
 10
203.5686896175337
 20
9.364637243080793
 30
0
 10
203.5049553510565
 20
9.351029115914102
 30
0
 10
203.4398430463853
 20
9.344138924943607
 30
0
 10
203.3750752512626
 20
9.344138924943607
 30
0
 10
202.9420267487667
 20
9.344138924943607
 30
0
 10
202.5620327167437
 20
9.6523027160992
 30
0
 10
202.4717712150301
 20
10.0769107346562
 30
0
 10
202.4717712150301
 20
10.0769107346562
 30
0
 10
199.5017543971962
 20
24.0500457680553
 30
0
 10
199.5017543971962
 20
24.0500457680553
 30
0
 10
199.4652363850526
 20
24.2221282875435
 30
0
 10
199.3108961073134
 20
24.3470129988838
 30
0
 10
199.1351962375657
 20
24.3470129988838
 30
0
 10
199.1090135118777
 20
24.3470129988838
 30
0
 10
199.0824862766413
 20
24.3442569224956
 30
0
 10
199.0569925700505
 20
24.3387447697192
 30
0
 10
199.0569925700505
 20
24.3387447697192
 30
0
 10
198.2374043541095
 20
24.1645951929398
 30
0
 10
198.2374043541095
 20
24.1645951929398
 30
0
 10
198.1392191327799
 20
24.1437523652541
 30
0
 10
198.0551588029398
 20
24.0860470158761
 30
0
 10
198.0007262942729
 20
24.00198668603601
 30
0
 10
197.9459492760574
 20
23.91792635619591
 30
0
 10
197.9276902699856
 20
23.81767407757521
 30
0
 10
197.9483608428971
 20
23.7196611110198
 30
0
 10
197.9483608428971
 20
23.7196611110198
 30
0
 10
200.7344095618186
 20
10.6124508278383
 30
0
 10
200.7344095618186
 20
10.6124508278383
 30
0
 10
200.760247777958
 20
10.4913557215318
 30
0
 10
200.6823886199913
 20
10.3716386534193
 30
0
 10
200.5611212589106
 20
10.34580043728
 30
0
 10
200.5611212589106
 20
10.34580043728
 30
0
 10
187.453910975729
 20
7.559751718358399
 30
0
 10
187.453910975729
 20
7.559751718358399
 30
0
 10
187.4384080460454
 20
7.556478877647393
 30
0
 10
187.4225606068132
 20
7.554756329904805
 30
0
 10
187.4067131675811
 20
7.554756329904805
 30
0
 10
187.3012932457325
 20
7.554756329904805
 30
0
 10
187.2089646867278
 20
7.629687156708997
 30
0
 10
187.1869160756222
 20
7.733040021266504
 30
0
 10
187.1869160756222
 20
7.733040021266504
 30
0
 10
184.4008673567006
 20
20.84025030444801
 30
0
 10
184.4008673567006
 20
20.84025030444801
 30
0
 10
184.364349344557
 20
21.01233282393621
 30
0
 10
184.2103535763663
 20
21.13721753527651
 30
0
 10
184.0346537066186
 20
21.13721753527651
 30
0
 10
184.0084709809307
 20
21.13721753527651
 30
0
 10
183.9822882552428
 20
21.1344614588884
 30
0
 10
183.9564500391034
 20
21.12894930611191
 30
0
 10
183.9564500391034
 20
21.12894930611191
 30
0
 10
183.1365173136139
 20
20.95479972933261
 30
0
 10
183.1365173136139
 20
20.95479972933261
 30
0
 10
182.9342902086298
 20
20.91173603576691
 30
0
 10
182.8047546183844
 20
20.712265007171
 30
0
 10
182.84781831195
 20
20.5098656474126
 30
0
 10
182.84781831195
 20
20.5098656474126
 30
0
 10
185.8178351297839
 20
6.537075123562005
 30
0
 10
185.8178351297839
 20
6.537075123562005
 30
0
 10
185.9239440707296
 20
6.038225297297799
 30
0
 10
185.6042392096984
 20
5.546093407229904
 30
0
 10
185.1053893834342
 20
5.4401567210585
 30
0
 10
185.1053893834342
 20
5.4401567210585
 30
0
 10
180.2147318325735
 20
4.400599158384296
 30
0
 10
180.2147318325735
 20
4.400599158384296
 30
0
 10
180.1509975660964
 20
4.386991031217605
 30
0
 10
180.0858852614252
 20
4.380100840247096
 30
0
 10
180.0211174663025
 20
4.380100840247096
 30
0
 10
180.0211174663025
 20
4.380100840247096
 30
0
 10
180.0211174663025
 20
4.380100840247096
 30
0
 10
180.0211174663025
 20
4.380100840247096
 30
0
  0
SPLINE
  5
E6
100
AcDbEntity
  8
0
  6
ByLayer
 62
  256
370
   -1
100
AcDbSpline
210
0
220
0
230
0
 70
   11
 71
    3
 72
  110
 73
  106
 74
    0
 42
1e-007
 43
1e-007
 40
0
 40
0
 40
0
 40
0
 40
1
 40
1
 40
1
 40
2
 40
2
 40
2
 40
3
 40
3
 40
3
 40
4
 40
4
 40
4
 40
5
 40
5
 40
5
 40
6
 40
6
 40
6
 40
7
 40
7
 40
7
 40
8
 40
8
 40
8
 40
9
 40
9
 40
9
 40
10
 40
10
 40
10
 40
11
 40
11
 40
11
 40
12
 40
12
 40
12
 40
13
 40
13
 40
13
 40
14
 40
14
 40
14
 40
15
 40
15
 40
15
 40
16
 40
16
 40
16
 40
17
 40
17
 40
17
 40
18
 40
18
 40
18
 40
19
 40
19
 40
19
 40
20
 40
20
 40
20
 40
21
 40
21
 40
21
 40
22
 40
22
 40
22
 40
23
 40
23
 40
23
 40
24
 40
24
 40
24
 40
25
 40
25
 40
25
 40
26
 40
26
 40
26
 40
27
 40
27
 40
27
 40
28
 40
28
 40
28
 40
29
 40
29
 40
29
 40
30
 40
30
 40
30
 40
31
 40
31
 40
31
 40
32
 40
32
 40
32
 40
33
 40
33
 40
33
 40
34
 40
34
 40
34
 40
35
 40
35
 40
35
 40
35
 10
124.3075500431649
 20
5.864764739615495
 30
0
 10
124.2431267575907
 20
5.864764739615495
 30
0
 10
124.1780144529195
 20
5.871482675811706
 30
0
 10
124.1142801864424
 20
5.885090802978496
 30
0
 10
124.1142801864424
 20
5.885090802978496
 30
0
 10
119.2236226355817
 20
6.924648365652601
 30
0
 10
119.2236226355817
 20
6.924648365652601
 30
0
 10
118.9819491872915
 20
6.9759802883828
 30
0
 10
118.7747266938537
 20
7.118434986697906
 30
0
 10
118.6401957151547
 20
7.325657480135703
 30
0
 10
118.5054924816814
 20
7.5328799735735
 30
0
 10
118.4596727117276
 20
7.780065574640105
 30
0
 10
118.5111768892321
 20
8.021739022930404
 30
0
 10
118.5111768892321
 20
8.021739022930404
 30
0
 10
121.481193707066
 20
21.994529546781
 30
0
 10
121.481193707066
 20
21.994529546781
 30
0
 10
121.5020365347517
 20
22.0925425133363
 30
0
 10
121.4834330191314
 20
22.1927947919571
 30
0
 10
121.4288282556901
 20
22.2768551217972
 30
0
 10
121.3742234922489
 20
22.3609154516373
 30
0
 10
121.2901631624088
 20
22.41862080101519
 30
0
 10
121.1923224506278
 20
22.43946362870101
 30
0
 10
121.1923224506278
 20
22.43946362870101
 30
0
 10
120.3725619799125
 20
22.61361320548041
 30
0
 10
120.3725619799125
 20
22.61361320548041
 30
0
 10
120.3468960185474
 20
22.6191253582568
 30
0
 10
120.3205410380853
 20
22.621881434645
 30
0
 10
120.2943583123974
 20
22.621881434645
 30
0
 10
120.1184861878754
 20
22.621881434645
 30
0
 10
119.9643181649104
 20
22.4969967233047
 30
0
 10
119.9278001527668
 20
22.32491420381641
 30
0
 10
119.9278001527668
 20
22.32491420381641
 30
0
 10
117.1417514338453
 20
9.217703920634904
 30
0
 10
117.1417514338453
 20
9.217703920634904
 30
0
 10
117.1198750775139
 20
9.114351056077396
 30
0
 10
117.027374263735
 20
9.039420229273205
 30
0
 10
116.9221265966606
 20
9.039420229273205
 30
0
 10
116.9064514122027
 20
9.039420229273205
 30
0
 10
116.8906039729705
 20
9.041142777015807
 30
0
 10
116.8751010432869
 20
9.044415617726798
 30
0
 10
116.8751010432869
 20
9.044415617726798
 30
0
 10
103.7678907601054
 20
11.83029208187411
 30
0
 10
103.7678907601054
 20
11.83029208187411
 30
0
 10
103.7089796273076
 20
11.842694425621
 30
0
 10
103.6585089784487
 20
11.87748989002201
 30
0
 10
103.6257805713388
 20
11.9277882841067
 30
0
 10
103.593052164229
 20
11.9782589329656
 30
0
 10
103.5818556039019
 20
12.0383758491832
 30
0
 10
103.5944302024231
 20
12.0971147272067
 30
0
 10
103.5944302024231
 20
12.0971147272067
 30
0
 10
106.3804789213446
 20
25.2043250103882
 30
0
 10
106.3804789213446
 20
25.2043250103882
 30
0
 10
106.423370360136
 20
25.40655211537241
 30
0
 10
106.2938347698906
 20
25.6060231439684
 30
0
 10
106.0917799196807
 20
25.649086837534
 30
0
 10
106.0917799196807
 20
25.649086837534
 30
0
 10
105.2720194489655
 20
25.8234086690876
 30
0
 10
105.2720194489655
 20
25.8234086690876
 30
0
 10
105.2461812328261
 20
25.828920821864
 30
0
 10
105.2198262523639
 20
25.8316768982522
 30
0
 10
105.193643526676
 20
25.8316768982522
 30
0
 10
105.0179436569283
 20
25.8316768982522
 30
0
 10
104.8639478887376
 20
25.7066199321377
 30
0
 10
104.8272576218197
 20
25.5345374126494
 30
0
 10
104.8272576218197
 20
25.5345374126494
 30
0
 10
101.8572408039858
 20
11.56174688879889
 30
0
 10
101.8572408039858
 20
11.56174688879889
 30
0
 10
101.7669793022723
 20
11.1369666154676
 30
0
 10
101.386813015475
 20
10.82880282431201
 30
0
 10
100.9535922582048
 20
10.82880282431201
 30
0
 10
100.9535922582048
 20
10.82880282431201
 30
0
 10
100.9534200034305
 20
10.82880282431201
 30
0
 10
100.9534200034305
 20
10.82880282431201
 30
0
 10
100.8888244630821
 20
10.82880282431201
 30
0
 10
100.8238844131851
 20
10.8356930152825
 30
0
 10
100.760150146708
 20
10.84930114244921
 30
0
 10
100.760150146708
 20
10.84930114244921
 30
0
 10
95.86949259584735
 20
11.8888587051234
 30
0
 10
95.86949259584735
 20
11.8888587051234
 30
0
 10
95.37047051480891
 20
11.9947953912948
 30
0
 10
95.05093790855199
 20
12.4869272813627
 30
0
 10
95.15687459472342
 20
12.9859493624012
 30
0
 10
95.15687459472342
 20
12.9859493624012
 30
0
 10
98.67896796406859
 20
29.55565286303309
 30
0
 10
98.67896796406859
 20
29.55565286303309
 30
0
 10
98.76905721100786
 20
29.98043313636441
 30
0
 10
99.1492234978052
 20
30.28859692751999
 30
0
 10
99.58261650984961
 20
30.28859692751999
 30
0
 10
99.64703979542379
 20
30.28859692751999
 30
0
 10
99.71215210009501
 20
30.28170673654949
 30
0
 10
99.77588636657214
 20
30.26809860938269
 30
0
 10
99.77588636657214
 20
30.26809860938269
 30
0
 10
128.0208462119415
 20
24.2645029620121
 30
0
 10
128.0208462119415
 20
24.2645029620121
 30
0
 10
128.262691915006
 20
24.2131710392819
 30
0
 10
128.4699144084438
 20
24.0707163409668
 30
0
 10
128.6044453871428
 20
23.863493847529
 30
0
 10
128.739148620616
 20
23.6562713540912
 30
0
 10
128.7849683905699
 20
23.4090857530246
 30
0
 10
128.7334642130654
 20
23.1674123047343
 30
0
 10
128.7334642130654
 20
23.1674123047343
 30
0
 10
125.2113708437202
 20
6.597708804102396
 30
0
 10
125.2113708437202
 20
6.597708804102396
 30
0
 10
125.1211093420067
 20
6.172928530771102
 30
0
 10
124.7411153099836
 20
5.864764739615495
 30
0
 10
124.3075500431649
 20
5.864764739615495
 30
0
  0
SPLINE
  5
E7
100
AcDbEntity
  8
0
  6
ByLayer
 62
  256
370
   -1
100
AcDbSpline
210
0
220
0
230
0
 70
   11
 71
    3
 72
   77
 73
   73
 74
    0
 42
1e-007
 43
1e-007
 40
0
 40
0
 40
0
 40
0
 40
1
 40
1
 40
1
 40
2
 40
2
 40
2
 40
3
 40
3
 40
3
 40
4
 40
4
 40
4
 40
5
 40
5
 40
5
 40
6
 40
6
 40
6
 40
7
 40
7
 40
7
 40
8
 40
8
 40
8
 40
9
 40
9
 40
9
 40
10
 40
10
 40
10
 40
11
 40
11
 40
11
 40
12
 40
12
 40
12
 40
13
 40
13
 40
13
 40
14
 40
14
 40
14
 40
15
 40
15
 40
15
 40
16
 40
16
 40
16
 40
17
 40
17
 40
17
 40
18
 40
18
 40
18
 40
19
 40
19
 40
19
 40
20
 40
20
 40
20
 40
21
 40
21
 40
21
 40
22
 40
22
 40
22
 40
23
 40
23
 40
23
 40
24
 40
24
 40
24
 40
24
 10
308.8425394176041
 20
56.7677730819245
 30
0
 10
308.3326652857871
 20
56.7677730819245
 30
0
 10
307.917875789363
 20
57.18290708789709
 30
0
 10
307.917875789363
 20
57.69295347448829
 30
0
 10
307.917875789363
 20
57.69295347448829
 30
0
 10
307.917875789363
 20
71.97786964930251
 30
0
 10
307.917875789363
 20
71.97786964930251
 30
0
 10
307.917875789363
 20
72.18474763319179
 30
0
 10
307.7494106201343
 20
72.3528682928719
 30
0
 10
307.5427048910193
 20
72.3528682928719
 30
0
 10
307.5427048910193
 20
72.3528682928719
 30
0
 10
306.704513159458
 20
72.3528682928719
 30
0
 10
306.704513159458
 20
72.3528682928719
 30
0
 10
306.497807430343
 20
72.3528682928719
 30
0
 10
306.3296867706629
 20
72.18474763319179
 30
0
 10
306.3296867706629
 20
71.97786964930251
 30
0
 10
306.3296867706629
 20
71.97786964930251
 30
0
 10
306.3296867706629
 20
58.5778262498747
 30
0
 10
306.3296867706629
 20
58.5778262498747
 30
0
 10
306.3296867706629
 20
58.45380281240571
 30
0
 10
306.228745472945
 20
58.3528615146879
 30
0
 10
306.104722035476
 20
58.3528615146879
 30
0
 10
306.104722035476
 20
58.3528615146879
 30
0
 10
292.7046786360483
 20
58.3528615146879
 30
0
 10
292.7046786360483
 20
58.3528615146879
 30
0
 10
292.5806551985793
 20
58.3528615146879
 30
0
 10
292.4797139008615
 20
58.45380281240571
 30
0
 10
292.4797139008615
 20
58.5778262498747
 30
0
 10
292.4797139008615
 20
58.5778262498747
 30
0
 10
292.4797139008615
 20
71.97786964930251
 30
0
 10
292.4797139008615
 20
71.97786964930251
 30
0
 10
292.4797139008615
 20
72.18474763319179
 30
0
 10
292.3112487316328
 20
72.3528682928719
 30
0
 10
292.1045430025178
 20
72.3528682928719
 30
0
 10
292.1045430025178
 20
72.3528682928719
 30
0
 10
291.266695780505
 20
72.3528682928719
 30
0
 10
291.266695780505
 20
72.3528682928719
 30
0
 10
291.05999005139
 20
72.3528682928719
 30
0
 10
290.8915248821613
 20
72.18474763319179
 30
0
 10
290.8915248821613
 20
71.97786964930251
 30
0
 10
290.8915248821613
 20
71.97786964930251
 30
0
 10
290.8915248821613
 20
57.69295347448829
 30
0
 10
290.8915248821613
 20
57.69295347448829
 30
0
 10
290.8915248821613
 20
57.18290708789709
 30
0
 10
290.4767353857372
 20
56.7677730819245
 30
0
 10
289.9665167443717
 20
56.7677730819245
 30
0
 10
289.9665167443717
 20
56.7677730819245
 30
0
 10
284.9666496666286
 20
56.7677730819245
 30
0
 10
284.9666496666286
 20
56.7677730819245
 30
0
 10
284.4564310252631
 20
56.7677730819245
 30
0
 10
284.0416415288391
 20
57.18290708789709
 30
0
 10
284.0416415288391
 20
57.69295347448829
 30
0
 10
284.0416415288391
 20
57.69295347448829
 30
0
 10
284.0416415288391
 20
74.63283248501031
 30
0
 10
284.0416415288391
 20
74.63283248501031
 30
0
 10
284.0416415288391
 20
75.14287887160151
 30
0
 10
284.4564310252631
 20
75.5580128775741
 30
0
 10
284.9666496666286
 20
75.5580128775741
 30
0
 10
284.9666496666286
 20
75.5580128775741
 30
0
 10
313.8427510048957
 20
75.5580128775741
 30
0
 10
313.8427510048957
 20
75.5580128775741
 30
0
 10
314.3526251367127
 20
75.5580128775741
 30
0
 10
314.7674146331368
 20
75.14287887160151
 30
0
 10
314.7674146331368
 20
74.63283248501031
 30
0
 10
314.7674146331368
 20
74.63283248501031
 30
0
 10
314.7674146331368
 20
57.69295347448829
 30
0
 10
314.7674146331368
 20
57.69295347448829
 30
0
 10
314.7674146331368
 20
57.18290708789709
 30
0
 10
314.3526251367127
 20
56.7677730819245
 30
0
 10
313.8427510048957
 20
56.7677730819245
 30
0
 10
313.8427510048957
 20
56.7677730819245
 30
0
 10
308.8425394176041
 20
56.7677730819245
 30
0
 10
308.8425394176041
 20
56.7677730819245
 30
0
  0
LINE
  5
E8
100
AcDbEntity
  8
Outline2
  6
ByLayer
 62
  256
370
   -1
100
AcDbLine
 10
5.219100307438509
 20
21.36572245186225
 11
5.194004164601381
 21
12.15240827969744
  0
LINE
  5
E9
100
AcDbEntity
  8
Outline2
  6
ByLayer
 62
  256
370
   -1
100
AcDbLine
 10
5.194004164601381
 20
12.15240827969744
 11
14.1263801430984
 21
12.28457930153674
  0
LINE
  5
EA
100
AcDbEntity
  8
Outline2
  6
ByLayer
 62
  256
370
   -1
100
AcDbLine
 10
14.1263801430984
 20
12.28457930153674
 11
57.37673661480147
 21
11.95188425175443
  0
LINE
  5
EB
100
AcDbEntity
  8
Outline2
  6
ByLayer
 62
  256
370
   -1
100
AcDbLine
 10
57.37673661480147
 20
11.95188425175443
 11
71.68262375544168
 21
11.95188425175443
  0
LINE
  5
EC
100
AcDbEntity
  8
Outline2
  6
ByLayer
 62
  256
370
   -1
100
AcDbLine
 10
71.68262375544168
 20
11.95188425175443
 11
100.4607455616134
 21
6.628763455237141
  0
LINE
  5
ED
100
AcDbEntity
  8
Outline2
  6
ByLayer
 62
  256
370
   -1
100
AcDbLine
 10
100.4607455616134
 20
6.628763455237141
 11
145.2082297573369
 21
-2.187655363994596
  0
LINE
  5
EE
100
AcDbEntity
  8
Outline2
  6
ByLayer
 62
  256
370
   -1
100
AcDbLine
 10
145.2082297573369
 20
-2.187655363994596
 11
166.6670604682972
 21
-2.187655363994599
  0
LINE
  5
EF
100
AcDbEntity
  8
Outline2
  6
ByLayer
 62
  256
370
   -1
100
AcDbLine
 10
166.6670604682972
 20
-2.187655363994599
 11
211.4145446640208
 21
6.62876345523712
  0
LINE
  5
F0
100
AcDbEntity
  8
Outline2
  6
ByLayer
 62
  256
370
   -1
100
AcDbLine
 10
211.4145446640208
 20
6.62876345523712
 11
239.1945813208454
 21
12.1182317766456
  0
LINE
  5
F1
100
AcDbEntity
  8
Outline2
  6
ByLayer
 62
  256
370
   -1
100
AcDbLine
 10
239.1945813208454
 20
12.1182317766456
 11
266.9746179776701
 21
12.1182317766456
  0
LINE
  5
F2
100
AcDbEntity
  8
Outline2
  6
ByLayer
 62
  256
370
   -1
100
AcDbLine
 10
266.9746179776701
 20
12.1182317766456
 11
331.5174576354423
 21
12.45092682642789
  0
LINE
  5
F3
100
AcDbEntity
  8
Outline2
  6
ByLayer
 62
  256
370
   -1
100
AcDbLine
 10
331.5174576354423
 20
12.45092682642789
 11
345.4990411949241
 21
12.2655792264982
  0
LINE
  5
F4
100
AcDbEntity
  8
Outline2
  6
ByLayer
 62
  256
370
   -1
100
AcDbLine
 10
345.4990411949241
 20
12.2655792264982
 11
345.3858702481231
 21
21.88510970457509
  0
LINE
  5
F5
100
AcDbEntity
  8
Outline2
  6
ByLayer
 62
  256
370
   -1
100
AcDbLine
 10
345.3858702481231
 20
21.88510970457509
 11
345.3594015291609
 21
108.0508493813805
  0
LINE
  5
F6
100
AcDbEntity
  8
Outline2
  6
ByLayer
 62
  256
370
   -1
100
AcDbLine
 10
345.3594015291609
 20
108.0508493813805
 11
345.3593940707536
 21
117.5077025117016
  0
LINE
  5
F7
100
AcDbEntity
  8
Outline2
  6
ByLayer
 62
  256
370
   -1
100
AcDbLine
 10
345.3593940707536
 20
117.5077025117016
 11
336.1694870456831
 21
117.6888088358074
  0
LINE
  5
F8
100
AcDbEntity
  8
Outline2
  6
ByLayer
 62
  256
370
   -1
100
AcDbLine
 10
336.1694870456831
 20
117.6888088358074
 11
230.3801611938027
 21
117.703334650303
  0
LINE
  5
F9
100
AcDbEntity
  8
Outline2
  6
ByLayer
 62
  256
370
   -1
100
AcDbLine
 10
230.3801611938027
 20
117.703334650303
 11
211.60614773922
 21
117.703334650303
  0
LINE
  5
FA
100
AcDbEntity
  8
Outline2
  6
ByLayer
 62
  256
370
   -1
100
AcDbLine
 10
211.60614773922
 20
117.703334650303
 11
98.34856638973741
 21
117.4027108602214
  0
LINE
  5
FB
100
AcDbEntity
  8
Outline2
  6
ByLayer
 62
  256
370
   -1
100
AcDbLine
 10
98.34856638973741
 20
117.4027108602214
 11
78.33194851002389
 21
117.9587280235468
  0
LINE
  5
FC
100
AcDbEntity
  8
Outline2
  6
ByLayer
 62
  256
370
   -1
100
AcDbLine
 10
78.33194851002389
 20
117.9587280235468
 11
21.34018926917298
 21
117.9587280235468
  0
LINE
  5
FD
100
AcDbEntity
  8
Outline2
  6
ByLayer
 62
  256
370
   -1
100
AcDbLine
 10
21.34018926917298
 20
117.9587280235468
 11
5.10169422270269
 21
118.0751175788478
  0
LINE
  5
FE
100
AcDbEntity
  8
Outline2
  6
ByLayer
 62
  256
370
   -1
100
AcDbLine
 10
5.10169422270269
 20
118.0751175788478
 11
5.290831358504022
 21
108.0508493813812
  0
LINE
  5
FF
100
AcDbEntity
  8
Outline2
  6
ByLayer
 62
  256
370
   -1
100
AcDbLine
 10
5.290831358504022
 20
108.0508493813812
 11
5.219100307438509
 21
21.36572245186225
  0
LINE
  5
100
100
AcDbEntity
  8
Outline2
  6
ByLayer
 62
  256
370
   -1
100
AcDbLine
 10
170
 20
-10
 11
169.0868682861328
 21
-4.014518737792969
  0
LINE
  5
101
100
AcDbEntity
  8
Outline2
  6
ByLayer
 62
  256
370
   -1
100
AcDbLine
 10
145.1328277587891
 20
-4.014518737792969
 11
144
 21
-10
  0
LINE
  5
102
100
AcDbEntity
  8
Outline2
  6
ByLayer
 62
  256
370
   -1
100
AcDbLine
 10
144
 20
-10
 11
99.91044998168945
 21
-1.379173278808594
  0
LINE
  5
103
100
AcDbEntity
  8
Outline2
  6
ByLayer
 62
  256
370
   -1
100
AcDbLine
 10
99.91044998168945
 20
-1.379173278808594
 11
101.2412300109863
 21
4.775688171386719
  0
LINE
  5
104
100
AcDbEntity
  8
Outline2
  6
ByLayer
 62
  256
370
   -1
100
AcDbLine
 10
57.24019241333013
 20
10.07780456542969
 11
57.24019241333013
 21
4.421981811523438
  0
LINE
  5
105
100
AcDbEntity
  8
Outline2
  6
ByLayer
 62
  256
370
   -1
100
AcDbLine
 10
57.24019241333013
 20
4.421981811523438
 11
14.93503189086914
 21
4.415130615234375
  0
LINE
  5
106
100
AcDbEntity
  8
Outline2
  6
ByLayer
 62
  256
370
   -1
100
AcDbLine
 10
14.93503189086914
 20
4.415130615234375
 11
14.93503189086914
 21
10.56999206542969
  0
LINE
  5
107
100
AcDbEntity
  8
Outline2
  6
ByLayer
 62
  256
370
   -1
100
AcDbLine
 10
331.4645881652832
 20
10.80499649047852
 11
331.3581428527832
 21
5.164323806762695
  0
LINE
  5
108
100
AcDbEntity
  8
Outline2
  6
ByLayer
 62
  256
370
   -1
100
AcDbLine
 10
331.3581428527832
 20
5.164323806762695
 11
267.6528358459473
 21
5.161371231079102
  0
LINE
  5
109
100
AcDbEntity
  8
Outline2
  6
ByLayer
 62
  256
370
   -1
100
AcDbLine
 10
267.6528358459473
 20
5.161371231079102
 11
267.6528358459473
 21
10.29135894775391
  0
LINE
  5
10A
100
AcDbEntity
  8
Outline2
  6
ByLayer
 62
  256
370
   -1
100
AcDbLine
 10
211.8002624511719
 20
4.725303649902344
 11
212.9646911621094
 21
-2.261299133300781
  0
LINE
  5
10B
100
AcDbEntity
  8
Outline2
  6
ByLayer
 62
  256
370
   -1
100
AcDbLine
 10
212.9646911621094
 20
-2.261299133300781
 11
170
 21
-10
  0
LINE
  5
10C
100
AcDbEntity
  8
Outline2
  6
ByLayer
 62
  256
370
   -1
100
AcDbLine
 10
170
 20
-10
 11
170
 21
-10
  0
LINE
  5
10D
100
AcDbEntity
  8
Outline2
  6
ByLayer
 62
  256
370
   -1
100
AcDbLine
 10
267.6528358459473
 20
10.29135894775391
 11
331.4645881652832
 21
10.80499649047852
  0
LINE
  5
10E
100
AcDbEntity
  8
Outline2
  6
ByLayer
 62
  256
370
   -1
100
AcDbLine
 10
211.8002624511719
 20
4.725303649902344
 11
169.0868682861328
 21
-4.014518737792969
  0
LINE
  5
10F
100
AcDbEntity
  8
Outline2
  6
ByLayer
 62
  256
370
   -1
100
AcDbLine
 10
101.2412300109863
 20
4.775688171386719
 11
145.1328277587891
 21
-4.014518737792969
  0
LINE
  5
110
100
AcDbEntity
  8
Outline2
  6
ByLayer
 62
  256
370
   -1
100
AcDbLine
 10
57.24019241333013
 20
10.07780456542969
 11
14.93503189086914
 21
10.56999206542969
  0
LINE
  5
111
100
AcDbEntity
  8
Outline2
  6
ByLayer
 62
  256
370
   -1
100
AcDbLine
 10
15.72068786621091
 20
120.3681030273437
 11
15.72068786621091
 21
125.9282836914062
  0
LINE
  5
112
100
AcDbEntity
  8
Outline2
  6
ByLayer
 62
  256
370
   -1
100
AcDbLine
 10
15.72068786621091
 20
125.9282836914062
 11
72.0167999267578
 21
125.8067779541015
  0
LINE
  5
113
100
AcDbEntity
  8
Outline2
  6
ByLayer
 62
  256
370
   -1
100
AcDbLine
 10
72.0167999267578
 20
125.8067779541015
 11
72.03919982910161
 21
119.8000030517578
  0
LINE
  5
114
100
AcDbEntity
  8
Outline2
  6
ByLayer
 62
  256
370
   -1
100
AcDbLine
 10
92.82847595214844
 20
119.8004302978515
 11
92.85867309570312
 21
125.8067779541015
  0
LINE
  5
115
100
AcDbEntity
  8
Outline2
  6
ByLayer
 62
  256
370
   -1
100
AcDbLine
 10
92.85867309570312
 20
125.8067779541015
 11
205.1176261901855
 21
125.9348754882812
  0
LINE
  5
116
100
AcDbEntity
  8
Outline2
  6
ByLayer
 62
  256
370
   -1
100
AcDbLine
 10
205.1176261901855
 20
125.9348754882812
 11
205.0859489440918
 21
120.1999969482421
  0
LINE
  5
117
100
AcDbEntity
  8
Outline2
  6
ByLayer
 62
  256
370
   -1
100
AcDbLine
 10
224.8080406188965
 20
120.1968383789062
 11
224.7323417663574
 21
126.0675811767578
  0
LINE
  5
118
100
AcDbEntity
  8
Outline2
  6
ByLayer
 62
  256
370
   -1
100
AcDbLine
 10
224.7323417663574
 20
126.0675811767578
 11
330.0180969238281
 21
125.5508575439453
  0
LINE
  5
119
100
AcDbEntity
  8
Outline2
  6
ByLayer
 62
  256
370
   -1
100
AcDbLine
 10
330.0180969238281
 20
125.5508575439453
 11
330
 21
120
  0
LINE
  5
11A
100
AcDbEntity
  8
Outline2
  6
ByLayer
 62
  256
370
   -1
100
AcDbLine
 10
15.72068786621091
 20
120.3681030273437
 11
72.03919982910161
 21
119.8000030517578
  0
LINE
  5
11B
100
AcDbEntity
  8
Outline2
  6
ByLayer
 62
  256
370
   -1
100
AcDbLine
 10
92.82847595214844
 20
119.8004302978515
 11
205.0859489440918
 21
120.1999969482421
  0
LINE
  5
11C
100
AcDbEntity
  8
Outline2
  6
ByLayer
 62
  256
370
   -1
100
AcDbLine
 10
224.8080406188965
 20
120.1968383789062
 11
330
 21
120
  0
LINE
  5
11D
100
AcDbEntity
  8
Outline2
  6
ByLayer
 62
  256
370
   -1
100
AcDbLine
 10
349.9724578857422
 20
105.1151866912842
 11
355.187484741211
 21
105.1731243133545
  0
LINE
  5
11E
100
AcDbEntity
  8
Outline2
  6
ByLayer
 62
  256
370
   -1
100
AcDbLine
 10
355.187484741211
 20
105.1731243133545
 11
355.187484741211
 21
19.92433166503906
  0
LINE
  5
11F
100
AcDbEntity
  8
Outline2
  6
ByLayer
 62
  256
370
   -1
100
AcDbLine
 10
355.187484741211
 20
19.92433166503906
 11
350
 21
20
  0
LINE
  5
120
100
AcDbEntity
  8
Outline2
  6
ByLayer
 62
  256
370
   -1
100
AcDbLine
 10
349.9724578857422
 20
105.1151866912842
 11
350
 21
20
  0
LINE
  5
121
100
AcDbEntity
  8
Outline2
  6
ByLayer
 62
  256
370
   -1
100
AcDbLine
 10
365.5612182617188
 20
19.9361572265625
 11
360
 21
20
  0
LINE
  5
122
100
AcDbEntity
  8
Outline2
  6
ByLayer
 62
  256
370
   -1
100
AcDbLine
 10
360
 20
20
 11
359.7650146484375
 21
106.167667388916
  0
LINE
  5
123
100
AcDbEntity
  8
Outline2
  6
ByLayer
 62
  256
370
   -1
100
AcDbLine
 10
359.7650146484375
 20
106.167667388916
 11
365.5299072265625
 21
106.1421241760254
  0
LINE
  5
124
100
AcDbEntity
  8
Outline2
  6
ByLayer
 62
  256
370
   -1
100
AcDbLine
 10
365.5299072265625
 20
106.1421241760254
 11
365.5612182617188
 21
19.9361572265625
  0
ENDSEC
  0
SECTION
  2
OBJECTS
  0
DICTIONARY
  5
C
330
0
100
AcDbDictionary
281
    1
  3
ACAD_GROUP
350
D
  0
DICTIONARY
  5
D
330
C
100
AcDbDictionary
281
    1
  0
ENDSEC
  0
EOF
